<?xml version="1.0" standalone="no"?>
<!DOCTYPE svg PUBLIC "-//W3C//DTD SVG 1.1//EN" "http://www.w3.org/Graphics/SVG/1.1/DTD/svg11.dtd" >
<svg xmlns="http://www.w3.org/2000/svg">
<metadata></metadata>
<defs>
<font id="hollandserifregular" horiz-adv-x="1122" >
<font-face units-per-em="2048" ascent="1638" descent="-410" />
<missing-glyph horiz-adv-x="503" />
<glyph horiz-adv-x="0" />
<glyph unicode="&#xd;" horiz-adv-x="0" />
<glyph horiz-adv-x="0" />
<glyph horiz-adv-x="0" />
<glyph unicode=" "  horiz-adv-x="503" />
<glyph unicode="&#x09;" horiz-adv-x="503" />
<glyph unicode="&#xa0;" horiz-adv-x="503" />
<glyph unicode="!" horiz-adv-x="563" d="M170 90q0 47 35 82t82 35t81.5 -35t34.5 -82t-34.5 -82t-81.5 -35t-82 35t-35 82zM184 1425h205l-33 -1030h-139z" />
<glyph unicode="&#x22;" horiz-adv-x="638" d="M98 1425h168l-30 -428h-107zM373 1425h168l-31 -428h-107z" />
<glyph unicode="#" d="M70 348l16 125h211l35 283h-232l17 125h229l41 348h133l-39 -348h232l41 348h135l-41 -348h205l-17 -125h-205l-32 -283h223l-16 -125h-222l-43 -348h-135l43 348h-233l-41 -348h-135l43 348h-213zM432 473h232l34 283h-233z" />
<glyph unicode="$" d="M180 35v266h105q0 -59 12 -104t16 -56q37 -23 91.5 -33t105.5 -10v475q-57 25 -114.5 59t-103.5 78t-75 99t-29 123q0 80 26 137t70 95t102 58.5t124 28.5v135h117v-131q70 -4 135 -19t137 -48v-266h-104q0 59 -12.5 104t-16.5 55q-29 20 -64.5 31.5t-74.5 17.5v-415 q55 -27 111.5 -59.5t101.5 -76.5t72.5 -102.5t27.5 -138.5t-24.5 -139.5t-66.5 -102.5t-99.5 -70.5t-122.5 -41.5v-138h-117v127q-92 0 -167 14.5t-163 47.5zM356 954q0 -70 47.5 -112.5t106.5 -73.5v356q-66 -12 -110 -53t-44 -117zM627 113q63 23 104 70.5t41 123.5 t-42 125t-103 84v-403z" />
<glyph unicode="%" d="M55 1155q0 47 13.5 99.5t43 96.5t75.5 72.5t112 28.5q63 0 107.5 -29.5t73 -73.5t42 -95.5t13.5 -94.5q0 -47 -13.5 -99t-43 -97t-77 -74t-112.5 -29q-61 0 -106.5 30t-73 74t-41 95t-13.5 96zM162 0l672 1425h127l-672 -1425h-127zM182 1163q0 -33 6.5 -67.5t19.5 -64.5 t34.5 -48t52.5 -18t52.5 17t33.5 45t18.5 60.5t6.5 63.5q0 33 -6.5 67.5t-19.5 63.5t-34.5 47.5t-52.5 18.5t-51.5 -17.5t-33.5 -44t-19.5 -59.5t-6.5 -64zM588 268q0 47 13 99.5t43 96.5t76 72.5t111 28.5q63 0 107.5 -29.5t73 -73.5t42 -95.5t13.5 -94.5q0 -47 -13.5 -99 t-43 -97t-76.5 -74t-113 -29q-61 0 -106 30t-73 74t-41 95t-13 96zM715 276q0 -33 6 -67.5t19.5 -64t35 -48t51.5 -18.5q31 0 51.5 17.5t34 45t19.5 60t6 63.5q0 33 -6 68t-19.5 63.5t-35 47t-52.5 18.5t-51 -17.5t-33.5 -44t-19.5 -59.5t-6 -64z" />
<glyph unicode="&#x26;" horiz-adv-x="1351" d="M100 373q0 145 77 245.5t190 174.5q-29 35 -57.5 74.5t-51 83.5t-37 92.5t-14.5 101.5q0 68 27.5 125t74.5 97t111.5 62.5t136.5 22.5q63 0 123.5 -21.5t105.5 -62.5t73 -98.5t28 -128.5h-162q0 33 -13.5 65.5t-36 60t-55 45t-69.5 17.5q-88 0 -137 -55t-49 -123 q0 -31 5 -60.5t19 -60.5t40 -67.5t67 -83.5l471 -537q51 78 85.5 171t30.5 187q0 20 -13 34t-32.5 20t-42 8t-41.5 2v92q37 0 82 -4t107 -4q25 0 58.5 3t43.5 3q0 -160 -43 -317.5t-127 -282.5t-211 -203t-295 -78q-92 0 -177 27t-149.5 77t-103.5 124.5t-39 171.5zM279 377 q0 -49 19 -98.5t56 -89t90.5 -64.5t122.5 -25q98 0 175 40t124 81l-411 465q-86 -55 -131 -136t-45 -173z" />
<glyph unicode="'" horiz-adv-x="364" d="M98 1425h168l-30 -428h-107z" />
<glyph unicode="(" horiz-adv-x="649" d="M102 537q0 143 18.5 276t60.5 259t111.5 244t172.5 228l92 -69q-88 -113 -142.5 -241t-85 -254t-40.5 -241.5t-10 -201.5t10 -202t40.5 -242t85 -253.5t142.5 -240.5l-92 -70q-102 111 -172 228.5t-112 243.5t-60.5 259t-18.5 277z" />
<glyph unicode=")" horiz-adv-x="649" d="M92 -401q88 113 142.5 240.5t85 253.5t41 242t10.5 202t-10.5 201.5t-41 241.5t-85 254t-142.5 241l92 69q98 -100 168 -219t113 -249t62.5 -267t19.5 -272t-19.5 -272.5t-62.5 -267.5t-112.5 -249t-168.5 -219z" />
<glyph unicode="*" horiz-adv-x="856" d="M109 1137l49 147l211 -90l-21 231h160l-21 -231l211 90l50 -147l-222 -58l150 -170l-131 -94l-117 193l-117 -193l-131 94l150 170z" />
<glyph unicode="+" d="M111 477v141h378v379h144v-379h379v-141h-379v-379h-144v379h-378z" />
<glyph unicode="," horiz-adv-x="528" d="M102 -205q45 41 80 74t35 86q0 14 -11 24.5t-23.5 23.5t-24 32.5t-11.5 54.5q0 47 35 82t82 35t82 -35t35 -82q0 -61 -19.5 -111.5t-50 -92.5t-71.5 -79.5t-84 -74.5z" />
<glyph unicode="-" horiz-adv-x="694" d="M90 477v141h514v-141h-514z" />
<glyph unicode="." horiz-adv-x="528" d="M147 90q0 47 35 82t82 35t82 -35t35 -82t-35 -82t-82 -35t-82 35t-35 82z" />
<glyph unicode="/" horiz-adv-x="829" d="M14 -467l635 2005h166l-635 -2005h-166z" />
<glyph unicode="0" d="M102 600q0 111 22.5 226.5t78 211t146.5 156.5t226 61q129 0 215.5 -57t136.5 -146t71.5 -199t21.5 -214q0 -111 -20.5 -229.5t-74 -215t-144.5 -159t-230 -62.5q-129 0 -215 58.5t-138.5 150.5t-74 203t-21.5 215zM274 641q0 -72 11.5 -165t43 -177t89 -142.5 t149.5 -58.5q86 0 140.5 53.5t85 131t42 163.5t11.5 154q0 70 -11.5 162t-43 174t-89 138t-149.5 56q-86 0 -140.5 -51t-85 -126.5t-42 -159.5t-11.5 -152z" />
<glyph unicode="1" d="M215 1098q51 10 110.5 31.5t112.5 44.5q61 25 123 55h98v-1082q0 -25 26 -38t60.5 -19t69.5 -7t51 -1v-90q-16 0 -53 1t-80 3t-86 3t-74 1t-73.5 -1t-85.5 -3t-80 -3t-53 -1v90q16 0 50 1t68.5 7t60 19.5t25.5 37.5v889l-247 -57z" />
<glyph unicode="2" d="M160 0v147q41 35 102.5 89.5t128 118t133 135t119.5 141t86 135t33 117.5q0 111 -67.5 179t-178.5 68q-98 0 -161.5 -49t-69.5 -120h-80v184q78 53 165 81.5t179 28.5q86 0 156.5 -21.5t121 -65.5t79 -110.5t28.5 -156.5q0 -119 -63.5 -228.5t-157.5 -213.5 q-86 -92 -170 -173t-176 -161h391q59 0 91 27.5t42 109.5h84v-268q-10 0 -48 3t-91 3h-676z" />
<glyph unicode="3" d="M162 -25l67 74q41 -29 75 -48t66.5 -30.5t68.5 -16.5t83 -5q51 0 98.5 20.5t84 56t58 84t21.5 101.5q0 92 -35.5 150.5t-95 92t-136.5 47t-159 15.5v107q68 6 135.5 22.5t122 50t89 86t34.5 129.5q0 104 -60.5 161.5t-158.5 57.5q-59 0 -103 -15t-73 -39.5t-43 -54.5 t-14 -60h-82v184q162 111 344 110q70 0 136.5 -18t116.5 -57t80.5 -98.5t30.5 -141.5q0 -57 -20.5 -111.5t-55 -99.5t-79.5 -79t-94 -50q131 -29 216 -123t85 -241q0 -98 -37 -175t-99.5 -130.5t-142.5 -81t-166 -27.5q-113 0 -193.5 37t-164.5 116z" />
<glyph unicode="4" d="M88 221v107l594 901h139v-871h207v-137h-207v-225q0 -25 18.5 -38t43 -19.5t51.5 -7.5t43 -1v-90q-16 0 -45 1t-62.5 3t-68.5 3t-66 1t-65.5 -1t-68.5 -3t-62.5 -3t-44.5 -1v90q16 0 42.5 1t51 7.5t43 19.5t18.5 38v225h-561zM250 358h399v615z" />
<glyph unicode="5" d="M162 -25l65 74q78 -53 143.5 -76.5t151.5 -23.5q59 0 108.5 28.5t83.5 73.5t52 97.5t18 99.5q0 98 -30.5 165.5t-99 106.5t-178 50.5t-269.5 -1.5l112 660h472q53 0 91 3t48 3v-268h-86q-10 82 -41 109.5t-88 27.5h-242l-72 -422q174 12 284 -26t172.5 -102.5t85 -146 t22.5 -157.5q0 -98 -36 -177t-97.5 -134.5t-143.5 -86t-174 -30.5q-117 0 -199 42t-153 111z" />
<glyph unicode="6" d="M123 539q0 162 33.5 321.5t113.5 284.5t212 202.5t329 77.5h41v-125h-41q-104 0 -189 -35.5t-148.5 -97t-104.5 -144.5t-56 -177q49 55 129 78.5t150 23.5q109 0 187.5 -37t131 -100t77 -149.5t24.5 -186.5q0 -109 -31 -200t-90.5 -158.5t-146.5 -105.5t-197 -38 q-129 0 -211 47.5t-130 126t-65.5 180t-17.5 212.5zM299 475q0 -59 10 -125.5t38 -123t75 -93.5t121 -37q82 0 138 29t91 79t50.5 115.5t15.5 139.5q0 68 -12.5 132t-43 116.5t-82 84t-129.5 31.5q-72 0 -123 -30.5t-84.5 -79.5t-49 -111.5t-15.5 -126.5z" />
<glyph unicode="7" d="M156 967v268q10 0 48 -3t91 -3h698l-544 -1407h-175l496 1282h-401q-57 0 -89 -27.5t-42 -109.5h-82z" />
<glyph unicode="8" d="M137 328q0 70 24.5 129t64.5 108t92.5 88t107.5 70q-55 29 -102.5 61.5t-81 75.5t-53 96.5t-19.5 122.5q0 88 33 154.5t88 111t126.5 66t151.5 21.5q74 0 143.5 -18.5t124 -58.5t87 -101.5t32.5 -145.5q0 -61 -20.5 -113.5t-54 -95.5t-78.5 -79t-92 -64q57 -29 109 -70 t92 -92t62.5 -111.5t22.5 -130.5q0 -92 -38.5 -162.5t-102 -118.5t-142.5 -73t-161 -25q-80 0 -155.5 20.5t-133 63.5t-92.5 111t-35 160zM309 348q0 -59 21.5 -105t58.5 -78t86 -49.5t103 -17.5q49 0 93 17.5t77.5 48.5t54 74t20.5 96q0 57 -25.5 106t-65.5 89t-89 72 t-98 54q-47 -27 -90 -56.5t-75 -65t-51.5 -81.5t-19.5 -104zM340 1104q0 -53 22.5 -97t59.5 -79t82 -62.5t90 -48.5q43 27 79 52.5t61.5 56t41 68.5t15.5 91q0 106 -69 163t-167 57q-88 0 -151.5 -54.5t-63.5 -146.5z" />
<glyph unicode="9" d="M113 729q0 104 28.5 200.5t87 168t145.5 114.5t201 43q125 0 208 -45t132.5 -120.5t70 -174.5t20.5 -208q0 -182 -21.5 -342t-91.5 -280t-201 -189.5t-352 -69.5q-29 0 -54.5 1t-54.5 3v119q27 0 53.5 -1t55.5 -1q102 0 186 22.5t146.5 70.5t100.5 124t50 180 q-25 -29 -59.5 -48.5t-72.5 -31.5t-78 -17t-76 -5q-109 0 -189 38.5t-132 105.5t-77.5 155t-25.5 188zM285 741q0 -66 12 -131t42 -119.5t81 -88t131 -33.5t134 32.5t88 85t49.5 119.5t15.5 135q0 59 -12.5 128t-41 127.5t-78 97.5t-124.5 39q-86 0 -142.5 -35t-91.5 -90.5 t-49 -126t-14 -140.5z" />
<glyph unicode=":" horiz-adv-x="528" d="M147 90q0 47 35 82t82 35t82 -35t35 -82t-35 -82t-82 -35t-82 35t-35 82zM147 934q0 47 35 82t82 35t82 -35t35 -82t-35 -82t-82 -35t-82 35t-35 82z" />
<glyph unicode=";" horiz-adv-x="528" d="M102 -205q45 41 80 74t35 86q0 14 -11 24.5t-23.5 23.5t-24 32.5t-11.5 54.5q0 47 35 82t82 35t82 -35t35 -82q0 -61 -19.5 -111.5t-50 -92.5t-71.5 -79.5t-84 -74.5zM147 934q0 47 35 82t82 35t82 -35t35 -82t-35 -82t-82 -35t-82 35t-35 82z" />
<glyph unicode="&#x3c;" d="M205 487v123l702 338v-170l-508 -229l508 -232v-170z" />
<glyph unicode="=" d="M111 332v141h901v-141h-901zM111 623v141h901v-141h-901z" />
<glyph unicode="&#x3e;" d="M205 147v170l508 230l-508 231v170l702 -340v-123z" />
<glyph unicode="?" horiz-adv-x="843" d="M115 1157v184q78 53 153.5 82t167.5 29q63 0 120.5 -18.5t98.5 -54.5t65.5 -90t24.5 -128q0 -90 -34.5 -149.5t-81.5 -106.5t-93.5 -88t-71 -92t-13 -120.5t78.5 -172.5l-94 -65q-100 117 -128.5 201.5t-13.5 151t60 119t93.5 100.5t86 99.5t37.5 116.5q0 66 -45 117 t-125 51q-98 0 -152 -47t-61 -119h-73zM289 90q0 47 34.5 82t82.5 35q47 0 81.5 -35t34.5 -82t-34.5 -82t-81.5 -35t-82 35t-35 82z" />
<glyph unicode="@" horiz-adv-x="1785" d="M90 500q0 205 62.5 380t177 302t276.5 198.5t361 71.5q166 0 300 -45t229 -136t147.5 -227.5t52.5 -316.5q0 -113 -34 -229.5t-97.5 -212t-156.5 -155.5t-212 -60q-63 0 -101 24.5t-56.5 63.5t-22.5 88t0 96q-23 -47 -60.5 -95t-84 -88t-97.5 -64.5t-100 -24.5 q-63 0 -104.5 30.5t-66 76.5t-34.5 102.5t-10 107.5q0 111 27.5 229.5t86 218t150.5 164t223 64.5q43 0 82 -14.5t74 -38.5l41 47h110q-25 -186 -59.5 -373.5t-34.5 -372.5q0 -47 16.5 -74.5t65.5 -27.5q55 0 108.5 44t95.5 114.5t67.5 157.5t25.5 173q0 309 -142.5 466 t-437.5 157q-166 0 -297 -63.5t-221 -173t-138 -258t-48 -316.5q0 -172 47 -302t133 -217t209 -132t277 -45q174 0 322.5 56t295.5 161l61 -99q-156 -117 -332.5 -184t-369.5 -67q-188 0 -337.5 55t-254 159.5t-160 257t-55.5 347.5zM621 420q0 -29 4 -65t15 -67.5t31.5 -53 t55.5 -21.5q31 0 59.5 14.5t54 37t48 49t39.5 51.5q39 61 63.5 125.5t40 131t25.5 135t20 140.5q-35 20 -72.5 28.5t-78.5 8.5q-90 0 -148.5 -52.5t-93.5 -130t-49 -167.5t-14 -164z" />
<glyph unicode="A" horiz-adv-x="1409" d="M63 -8v90q8 0 28 1t41.5 6t41 16.5t25.5 33.5l413 1264l168 55l412 -1319q6 -20 24.5 -31.5t39 -17.5t40 -7t29.5 -1v-90q-35 2 -89 5t-116 3q-31 0 -69.5 -1t-76.5 -3t-71 -3t-49 -1v90h44t53.5 5t42 15.5t10.5 28.5l-99 320h-463l-104 -322q-6 -18 10.5 -27.5t43 -14.5 t54 -5h43.5v-90q-16 0 -43.5 1t-60.5 3t-66.5 3t-64.5 1q-61 0 -108.5 -4t-82.5 -4zM481 567h387l-188 635z" />
<glyph unicode="B" horiz-adv-x="1255" d="M68 -8v90q16 0 42.5 1t51 7t43 19.5t18.5 37.5v1131q0 25 -18.5 38t-43 19t-51 7t-42.5 1v91q16 0 45.5 -1t63.5 -3.5t70 -3.5t66 -1q63 0 135 3.5t105 3.5q82 0 164 -16.5t148.5 -58.5t108.5 -111.5t42 -176.5q0 -106 -50.5 -189t-142.5 -130q135 -39 216 -123t81 -234 q0 -106 -44 -182t-118.5 -124t-174 -70.5t-208.5 -22.5q-16 0 -46.5 1t-68.5 2t-77 2t-70 1t-66.5 -1t-69.5 -3t-63.5 -3t-45.5 -1zM403 117l170 -4h15q58 0 114 14q64 16 113 51t80 88t31 125q0 74 -27 127t-71 89t-104 53.5t-128 17.5h-193v-561zM403 793h183 q53 0 99 21.5t80 59t52.5 87t18.5 104.5q0 57 -21.5 104.5t-58.5 78.5q-38 32 -88 50q-45 16 -94 15h-11l-160 -4v-516z" />
<glyph unicode="C" horiz-adv-x="1298" d="M80 713q0 147 40 281t121 235.5t201.5 162t280.5 60.5q104 0 217 -20.5t213 -67.5v-264h-111q0 59 -14 107t-18 59q-47 29 -118 47t-132 18q-133 0 -223.5 -52t-147.5 -138t-81.5 -198t-24.5 -230q0 -119 24.5 -230.5t81.5 -197.5t147.5 -138.5t223.5 -52.5 q61 0 132 18.5t118 47.5q4 10 18 58t14 108h111v-265q-100 -47 -213 -67.5t-217 -20.5q-160 0 -280.5 60.5t-201.5 162t-121 235.5t-40 282z" />
<glyph unicode="D" horiz-adv-x="1427" d="M68 -8v90q16 0 42.5 1t51 7t43 19.5t18.5 37.5v1131q0 25 -18.5 38t-43 19t-51 7t-42.5 1v91q16 0 45.5 -1t63.5 -3.5t70 -3.5t66 -1q31 0 68 1t72.5 2.5t64.5 2.5t45 1q166 0 303.5 -43t234.5 -132.5t151.5 -224.5t54.5 -319t-54.5 -319.5t-151.5 -224.5t-234.5 -132 t-303.5 -43q-16 0 -45 1t-64.5 2t-72.5 2t-68 1t-66.5 -1t-69.5 -3t-63.5 -3t-45.5 -1zM403 123l156 -4h22q119 0 213 39q102 43 172 121.5t106 189.5t36 244q0 131 -36 243.5t-106 192.5t-172 124q-94 40 -213 40h-22l-156 -4v-1186z" />
<glyph unicode="E" horiz-adv-x="1177" d="M68 -8v90q16 0 42.5 1t51 7t43 19.5t18.5 37.5v1131q0 25 -18.5 38t-43 19t-51 7t-42.5 1v91q16 0 45.5 -1t63.5 -3.5t70 -3.5t66 -1q20 0 78 1t133.5 1t159.5 2.5t155.5 2.5t123 1t63.5 1v-334h-102q0 37 -4.5 71.5t-10.5 63.5t-12 50.5t-8 27.5l-486 -6v-514h295 q20 0 32.5 13t19 33.5t7.5 43t1 39.5h90q0 -47 -3 -93.5t-7 -93.5q0 -4 2 -26.5t3 -52t3 -59.5t2 -48h-90q0 16 -2 38.5t-8.5 42t-17.5 34t-32 14.5h-295v-559l496 -6q2 6 8 26.5t12.5 50t11.5 64.5t5 72h102v-334q-12 0 -64 1t-126 1t-159 2t-161.5 2t-135 1t-79.5 1 q-31 0 -66.5 -1t-69.5 -3t-63.5 -3t-45.5 -1z" />
<glyph unicode="F" horiz-adv-x="1165" d="M68 -8v90q16 0 42.5 1t51 7t43 19.5t18.5 37.5v1131q0 25 -18.5 38t-43 19t-51 7t-42.5 1v91q16 0 45.5 -1t63.5 -3.5t70 -3.5t66 -1q20 0 78 1t133.5 1t159.5 2.5t155.5 2.5t123 1t63.5 1v-334h-102q0 35 -5.5 70.5t-11.5 64.5t-12 50.5t-8 27.5l-484 -6v-514h295 q20 0 32.5 13t19 33.5t7.5 43t1 39.5h90q0 -18 -2 -49l-4 -62l-4 -76q0 -4 2 -26.5t3 -52t3 -59.5t2 -48h-90q0 16 -2 38.5t-8.5 42t-17.5 34t-32 14.5h-295v-531q0 -25 18.5 -38t43 -19t51.5 -7t43 -1v-90q-16 0 -46 1t-63.5 3t-69.5 3t-67 1t-66.5 -1t-69.5 -3t-63.5 -3 t-45.5 -1z" />
<glyph unicode="G" horiz-adv-x="1413" d="M80 713q0 150 41 285t122 235t202.5 159.5t285.5 59.5q117 0 235.5 -23.5t204.5 -64.5v-277h-112q0 61 -13.5 114.5t-17.5 66.5q-16 10 -47 21t-67.5 20.5t-74.5 15.5t-69 6q-133 0 -226 -52t-151.5 -138t-84 -198t-25.5 -230q0 -115 24.5 -225.5t80.5 -198.5 t146.5 -141.5t221.5 -53.5q59 0 125.5 11.5t124.5 31.5v355q0 25 -24 38t-55.5 19t-63.5 7t-48 1v88q16 0 49 -2t71 -3t76 -3t68 -2q61 0 128 5t102 5v-88q-16 0 -37 -1t-39.5 -7t-31.5 -19.5t-13 -37.5v-410q-117 -57 -241 -83t-230 -26q-160 0 -280 61.5t-199.5 165 t-118.5 236.5t-39 277z" />
<glyph unicode="H" horiz-adv-x="1509" d="M68 -8v90q16 0 42.5 1t51 7t43 19.5t18.5 37.5v1131q0 25 -18.5 38t-43 19t-51 7t-42.5 1v91q16 0 45.5 -1t64.5 -3.5t71 -3.5t66 -1q31 0 66 1t68.5 3.5t62.5 3.5t47 1v-91q-16 0 -43 -1t-51.5 -7t-43 -19t-18.5 -38v-485h662v485q0 25 -18.5 38t-43 19t-51 7t-43.5 1 v91q16 0 46 -1t64 -3.5t69.5 -3.5t66.5 -1t66.5 1t69.5 3.5t63.5 3.5t46.5 1v-91q-16 0 -43 -1t-51.5 -7t-43 -19t-18.5 -38v-1131q0 -25 18.5 -38t43 -19t51 -7t43.5 -1v-90q-16 0 -46 1t-64 3t-69.5 3t-66.5 1t-66.5 -1t-69.5 -3t-63.5 -3t-46.5 -1v90q16 0 43 1t51.5 7 t43 19.5t18.5 37.5v531h-662v-531q0 -25 18.5 -38t43 -19t51.5 -7t43 -1v-90q-18 0 -47 1t-62.5 3t-68.5 3t-66 1t-66.5 -1t-70.5 -3t-64.5 -3t-45.5 -1z" />
<glyph unicode="I" horiz-adv-x="665" d="M68 -8v90q16 0 42.5 1t51 7t43 19.5t18.5 37.5v1131q0 25 -18.5 38t-43 19t-51 7t-42.5 1v91q16 0 45.5 -1t64.5 -3.5t71 -3.5t66 -1q31 0 66 1t68.5 3.5t62.5 3.5t47 1v-91q-16 0 -43 -1t-51.5 -7t-43 -19t-18.5 -38v-1131q0 -25 18.5 -38t43 -19t51.5 -7t43 -1v-90 q-18 0 -47 1t-62.5 3t-68.5 3t-66 1t-66.5 -1t-70.5 -3t-64.5 -3t-45.5 -1z" />
<glyph unicode="J" horiz-adv-x="663" d="M-68 -227q41 20 92.5 57t95.5 85t73.5 107.5t29.5 124.5v1131q0 25 -18.5 38t-43 19t-51 7t-42.5 1v91q16 0 45.5 -1t63.5 -3.5t70 -3.5t66 -1q31 0 67 1t69.5 3.5t63.5 3.5t46 1v-91q-16 0 -43 -1t-51.5 -7t-43 -19t-18.5 -38v-997q0 -127 -21.5 -220.5t-71.5 -164 t-133 -124t-206 -102.5z" />
<glyph unicode="K" horiz-adv-x="1456" d="M68 -8v90q16 0 42.5 1t51 7t43 19.5t18.5 37.5v1131q0 25 -18.5 38t-43 19t-51 7t-42.5 1v91q16 0 45.5 -1t63.5 -3.5t70 -3.5t66 -1q31 0 66 1t68.5 3.5t62.5 3.5t47 1v-91q-16 0 -42 -1t-50.5 -7t-43 -19t-18.5 -38v-610l521 626q14 16 -0.5 25.5t-39 14.5t-49 7 t-30.5 2v91q35 0 100.5 -4.5t126.5 -4.5q59 0 123 4.5t98 4.5v-91q-35 0 -90 -15t-94 -62l-350 -416l416 -664q25 -41 55.5 -61.5t59 -30.5t54 -11t42.5 -1v-90q-16 0 -45 1t-63 3t-68.5 3t-65.5 1t-68 -1t-72.5 -3t-65.5 -3t-46 -1v90q12 0 35.5 1t44 7t31 18.5t-4.5 34.5 l-350 572l-205 -244v-324q0 -25 18.5 -38t43 -19t50.5 -7t42 -1v-90q-18 0 -47 1t-62.5 3t-68.5 3t-66 1t-66.5 -1t-69.5 -3t-63.5 -3t-45.5 -1z" />
<glyph unicode="L" horiz-adv-x="1155" d="M68 -8v90q16 0 42.5 1t51 7t43 19.5t18.5 37.5v1131q0 25 -18.5 38t-43 19t-51 7t-42.5 1v91q16 0 45.5 -1t63.5 -3.5t70 -3.5t66 -1q31 0 67 1t69.5 3.5t63.5 3.5t46 1v-91q-16 0 -43 -1t-51.5 -7t-43 -19t-18.5 -38v-1159l474 -6q16 47 24 107.5t10 105.5h103v-334 q-12 0 -62.5 1t-121 1t-152.5 2t-157 2t-131 1t-77 1q-31 0 -66.5 -1t-69.5 -3t-63.5 -3t-45.5 -1z" />
<glyph unicode="M" horiz-adv-x="1916" d="M68 -8v90q16 0 42.5 1t51 7t44 17.5t19.5 33.5l23 1137q0 25 -17.5 38t-43 19t-52 7t-43.5 1v91q35 0 82 -4.5t109 -4.5q61 0 105 2.5t79 2.5l475 -832l526 832q33 0 65 -1.5t93 -1.5t97 3.5t71 3.5v-84q-18 0 -45 -1t-52.5 -7.5t-43 -19.5t-17.5 -38l19 -1143 q0 -23 18.5 -35t44 -17t53 -6t44.5 -1v-90q-16 0 -46 1t-65 3t-72 3t-67 1q-31 0 -68 -1t-71.5 -3t-64.5 -3t-48 -1v90q18 0 44.5 1t52.5 6t43 17.5t17 34.5l-20 1010l-555 -872l-506 888l-24 -1026q0 -23 17 -35t43 -17t52.5 -6t44.5 -1v-90q-35 0 -100.5 4t-126.5 4 t-127 -4t-100 -4z" />
<glyph unicode="N" horiz-adv-x="1566" d="M68 -8v90q16 0 42.5 1t51 7t43 19.5t18.5 37.5v1131q0 25 -18.5 38t-43 19t-51 7t-42.5 1v91q35 0 74.5 -4.5t101.5 -4.5q61 0 100 2.5t74 2.5l743 -1088l2 936q0 25 -18.5 38t-43 19t-51 7t-42.5 1v91q16 0 42.5 -1t57.5 -3.5t62.5 -3.5t62.5 -1q61 0 126.5 4.5 t100.5 4.5v-91q-16 0 -42.5 -1t-51.5 -7t-43 -19t-18 -38v-1278h-150l-788 1161v-1014q0 -25 18 -38t43 -19t51.5 -7t42.5 -1v-90q-16 0 -42.5 1t-57.5 3t-62.5 3t-62.5 1q-61 0 -128 -4t-101 -4z" />
<glyph unicode="O" horiz-adv-x="1468" d="M84 690q0 147 40 284.5t120 244t200.5 170t282.5 63.5q156 0 271.5 -58.5t192.5 -157.5t114.5 -229.5t37.5 -271.5q0 -147 -39.5 -284.5t-119.5 -244t-201 -170t-283 -63.5q-156 0 -271.5 58.5t-192 158t-114.5 229.5t-38 271zM276 731q0 -109 24 -221.5t76 -204.5 t137 -150.5t208 -58.5q109 0 189.5 54.5t134 140.5t80 192.5t26.5 210.5q0 109 -23.5 221.5t-76 204.5t-137.5 150.5t-207 58.5q-109 0 -190 -54t-134 -140t-80 -192.5t-27 -211.5z" />
<glyph unicode="P" horiz-adv-x="1148" d="M68 -8v90q16 0 42.5 1t51 7t43 19.5t18.5 37.5v1131q0 25 -18.5 38t-43 19t-51 7t-42.5 1v91q16 0 45.5 -1t63.5 -3.5t70 -3.5t66 -1q61 0 120 3.5t89 3.5q82 0 171 -19.5t164 -67t123 -125t48 -192.5q0 -121 -44 -203t-117.5 -131t-169 -70.5t-197.5 -21.5h-97v-455 q0 -25 18.5 -38t43 -19t51.5 -7t43 -1v-90q-16 0 -46 1t-63.5 3t-69.5 3t-67 1t-66.5 -1t-69.5 -3t-63.5 -3t-45.5 -1zM403 721h115q143 0 232.5 70.5t89.5 222.5q0 154 -87 228q-83 71 -220 71h-15l-115 -4v-588z" />
<glyph unicode="Q" horiz-adv-x="1464" d="M82 690q0 147 39 284.5t118.5 244t199.5 170t284 63.5q156 0 271.5 -58.5t192.5 -157.5t114.5 -229t37.5 -272q0 -113 -23.5 -222.5t-72.5 -204.5t-125 -171t-182 -121q41 -10 87 -38.5t96 -60.5t106.5 -60.5t117.5 -38.5v-84h-116q-68 0 -129.5 23.5t-116.5 59.5 t-106.5 79t-100.5 81q-18 -2 -38.5 -3t-39.5 -1q-156 0 -270.5 58.5t-191 157t-114.5 228.5t-38 273zM274 731q0 -111 22.5 -223.5t75 -204.5t137.5 -149.5t208 -57.5q111 0 191.5 54.5t134 140.5t79 192.5t25.5 210.5q0 109 -23.5 221.5t-76 204.5t-137.5 150.5t-208 58.5 q-109 0 -189.5 -54t-133.5 -140t-79 -192.5t-26 -211.5z" />
<glyph unicode="R" horiz-adv-x="1296" d="M68 -8v90q16 0 42.5 1t51 7t43 19.5t18.5 37.5v1131q0 25 -18.5 38t-43 19t-51 7t-42.5 1v91q16 0 45.5 -1t63.5 -3.5t70 -3.5t66 -1q61 0 115.5 3.5t85.5 3.5q86 0 177 -19.5t165 -66t121 -124t47 -192.5q0 -78 -21.5 -140.5t-58.5 -110.5t-87 -82.5t-107 -55.5 l256 -434q20 -35 37.5 -55.5t38 -33t47 -18.5t67.5 -12v-88h-162q-37 0 -65.5 12.5t-52 31.5t-41 42t-29.5 43l-277 475q-23 -2 -38 -2h-39h-89v-455q0 -25 18.5 -38t43 -19t51.5 -7t43 -1v-90q-16 0 -46 1t-63.5 3t-69.5 3t-67 1t-66.5 -1t-69.5 -3t-63.5 -3t-45.5 -1z M403 721h107q72 0 132 17.5t103 53t67 91t24 131.5q0 154 -88 230q-82 70 -215 69h-21l-109 -4v-588z" />
<glyph unicode="S" horiz-adv-x="1093" d="M84 43v283h111q0 -29 4 -59.5t10 -57.5t11 -45.5t7 -24.5q53 -23 124 -32t132 -9q55 0 107.5 16.5t92.5 49.5t63.5 79t23.5 107q0 90 -50 150.5t-126 106.5t-163 85t-162.5 90.5t-126 121t-50.5 173.5q0 100 39 172t102.5 117t145.5 65.5t170 20.5t179 -18.5t177 -57.5 v-276h-110q0 31 -4.5 59.5t-9.5 53t-10 41t-7 20.5q-53 29 -112.5 41t-114.5 12q-51 0 -98.5 -12t-84.5 -38t-58.5 -67t-21.5 -96q0 -76 50.5 -128t127 -95t165 -84t165 -95.5t126.5 -128t50 -182.5q0 -111 -40.5 -190.5t-108.5 -132.5t-157 -79t-185 -26q-193 0 -383 70z " />
<glyph unicode="T" horiz-adv-x="1290" d="M88 1100v334q10 0 49 -1t91.5 -1t112.5 -2.5t115.5 -2.5t99.5 -1t65 -1q20 0 65 1t101.5 1t118 2.5t114.5 2.5t92 1t49 1v-334h-106q-2 45 -10.5 105.5t-26.5 107.5l-303 -6v-1160q0 -25 18.5 -38t43 -19t51 -7t42.5 -1v-90q-16 0 -45.5 1t-63.5 3t-70 3t-66 1 q-31 0 -67 -1t-69.5 -3t-63.5 -3t-46 -1v90q16 0 43 1t51.5 7t43 19.5t18.5 37.5v1160l-304 6q-18 -47 -26 -107.5t-10 -105.5h-107z" />
<glyph unicode="U" horiz-adv-x="1519" d="M68 1343v91q16 0 45.5 -1t63.5 -3.5t70 -3.5t66 -1q31 0 67 1t69.5 3.5t63.5 3.5t46 1v-91q-16 0 -43 -2t-51.5 -9t-43 -21.5t-18.5 -38.5v-826q0 -166 89.5 -245.5t255.5 -79.5q178 0 268 85t90 265v807q0 25 -18.5 38t-43 19t-51 7t-43.5 1v91q16 0 43 -1t58.5 -3.5 t64.5 -3.5t64 -1q61 0 127.5 4.5t101.5 4.5v-91q-16 0 -43 -2t-51.5 -9t-42 -21.5t-17.5 -38.5v-791q0 -252 -137 -380t-379 -128q-117 0 -212 26t-162.5 81t-104.5 143t-37 211v844q0 25 -18.5 38t-43 19t-51 7t-42.5 1z" />
<glyph unicode="V" horiz-adv-x="1443" d="M61 1343v91q35 0 77 -4.5t104 -4.5q31 0 72.5 1t84.5 3.5t79 3.5t52 1v-91q-18 0 -47.5 -2t-55.5 -8t-41 -18t-9 -35l330 -1026l348 1026q6 20 -11.5 32.5t-44 18.5t-55.5 8t-43 2v93q16 0 47 -1t68 -3.5t73.5 -3.5t67.5 -1q61 0 102 4.5t76 4.5v-93q-6 0 -24.5 -3 t-39 -10t-39 -20.5t-24.5 -31.5l-438 -1276h-168l-416 1276q-6 20 -23.5 33.5t-35.5 20.5t-36.5 10t-29.5 3z" />
<glyph unicode="W" horiz-adv-x="2093" d="M61 1343v91q35 0 84.5 -4.5t110.5 -4.5q31 0 72 1t81 3.5t73.5 3.5t52.5 1v-91q-8 0 -36 -1t-57.5 -6t-50 -17t-14.5 -37l272 -1018l309 828h144l313 -828l295 1018q6 20 -11.5 32.5t-44 18.5t-55 8t-45.5 2v91q16 0 47 -1t67 -3.5t73 -3.5t67 -1q61 0 101.5 4.5 t75.5 4.5v-91q-10 0 -29 -3t-38.5 -11t-36.5 -21.5t-23 -33.5l-379 -1274h-162l-316 834l-313 -834h-145l-357 1274q-6 20 -22.5 34.5t-35.5 21.5t-37.5 10t-29.5 3z" />
<glyph unicode="X" horiz-adv-x="1466" d="M72 -8v90q33 0 82 14.5t77 55.5l390 565l-355 557q-27 41 -74 55t-81 14v91q35 0 88 -4.5t114 -4.5q31 0 72 1t81 3.5t74.5 3.5t51.5 1v-91q-10 0 -36 -1t-50.5 -7t-38.5 -18t0 -33l264 -410l285 410q14 20 -2.5 32.5t-44 18.5t-55 7t-35.5 1v91q16 0 47.5 -1t68.5 -3.5 t75 -3.5t69 -1q61 0 105 4.5t79 4.5v-88q-35 0 -76 -15.5t-69 -56.5l-363 -526l375 -596q12 -20 32.5 -34t43 -22t44 -11t40.5 -3v-90q-35 0 -98.5 4t-125.5 4q-31 0 -68.5 -1t-75.5 -3t-69.5 -3t-48.5 -1v90q23 0 49.5 2t49.5 8q32 11 32 30q0 9 -6 19l-284 449l-316 -449 q-14 -23 0 -34t39 -17t51.5 -7t34.5 -1v-90q-16 0 -50 1t-74 3t-80 3t-70 1q-61 0 -97.5 -4t-70.5 -4z" />
<glyph unicode="Y" horiz-adv-x="1349" d="M68 1343v91q35 0 76.5 -4.5t103.5 -4.5q31 0 71.5 1t80.5 3.5t75 3.5t51 1v-91q-8 0 -37.5 -2t-59.5 -8t-50.5 -18t-9.5 -31l301 -571l299 571q10 20 -8.5 31.5t-47 17.5t-57.5 8t-37 2v91q16 0 48 -1t70 -3.5t76 -3.5t68 -1q61 0 93 4.5t67 4.5v-91q-8 0 -26.5 -3 t-39 -11t-40 -21.5t-29.5 -33.5l-367 -699l2 -428q0 -25 18.5 -38t43 -19t50.5 -7t42 -1v-90q-16 0 -46 1t-63.5 3t-69.5 3t-67 1t-66.5 -1t-69.5 -3t-63.5 -3t-46.5 -1v90q16 0 43 1t52.5 7t44 19.5t18.5 37.5v428l-371 699q-10 20 -27.5 33.5t-35.5 21.5t-34.5 11t-24.5 3 z" />
<glyph unicode="Z" horiz-adv-x="1226" d="M82 0v80l741 1220l-563 3q-16 -45 -24.5 -101.5t-10.5 -101.5h-106v334q23 -2 65.5 -4.5t98.5 -2.5l817 -2l-778 -1302l643 -2q16 45 25 102.5t11 102.5h107v-334q-31 2 -75 4t-97 2z" />
<glyph unicode="[" horiz-adv-x="641" d="M121 -467v2005h377v-125h-207v-1755h207v-125h-377z" />
<glyph unicode="\" horiz-adv-x="829" d="M14 1538h166l635 -2005h-166z" />
<glyph unicode="]" horiz-adv-x="641" d="M143 -342h207v1755h-207v125h377v-2005h-377v125z" />
<glyph unicode="^" horiz-adv-x="712" d="M33 1280l323 262l324 -262l-70 -100l-254 172l-254 -172z" />
<glyph unicode="_" d="M111 -299h901v-141h-901v141z" />
<glyph unicode="`" horiz-adv-x="712" d="M137 1391l90 143l348 -250l-63 -96z" />
<glyph unicode="a" horiz-adv-x="972" d="M78 223q0 90 50 145.5t128 90.5t175 56.5t190 43.5v152q0 106 -48.5 157.5t-154.5 51.5q-76 0 -135.5 -32t-73.5 -118h-72v180q86 51 159 76t171 25q156 0 241 -76t85 -238v-532q0 -43 4 -63.5t14 -30.5q12 -10 45 -15.5t49 -7.5v-88h-170q-27 0 -46 12.5t-31.5 29.5 t-19.5 36.5t-9 34.5q-57 -57 -126 -98.5t-155 -41.5q-117 0 -193.5 66.5t-76.5 183.5zM246 252q0 -78 43 -107.5t112 -29.5q25 0 55.5 10t61.5 26.5t58 36t45 37.5v236q-49 -12 -114 -26.5t-123 -37t-98 -57.5t-40 -88z" />
<glyph unicode="b" horiz-adv-x="1171" d="M49 1440v80q61 6 124 19t112 26q29 8 56.5 15t53.5 17v-679q55 57 133 95t166 38q104 0 177 -43t119 -112t66.5 -156t20.5 -173q0 -131 -30.5 -240.5t-91 -187.5t-149.5 -122t-206 -44q-72 0 -128 21.5t-103 58.5l-45 -53h-101v1366q0 47 -33.5 60.5t-111.5 13.5h-29z M395 172q53 -27 96.5 -41t96.5 -14q90 0 149.5 33.5t95 90t50 130t14.5 153.5q0 70 -11.5 137.5t-41 121t-82.5 86t-135 32.5q-68 0 -123 -29.5t-109 -72.5v-627z" />
<glyph unicode="c" horiz-adv-x="956" d="M88 489q0 106 26.5 207t82 179.5t141.5 127t205 48.5q72 0 147.5 -23.5t145.5 -73.5v-184h-76q-8 43 -33 71.5t-57.5 46t-69.5 25t-70 7.5q-80 0 -131 -36t-80.5 -93.5t-41 -128t-11.5 -138.5q0 -76 12.5 -149.5t44 -131t87 -93t139.5 -35.5q68 0 133.5 26.5t134.5 67.5 l29 -109q-80 -55 -163 -91t-181 -36q-113 0 -192 44t-128 117t-71.5 165t-22.5 190z" />
<glyph unicode="d" horiz-adv-x="1157" d="M84 498q0 141 38 246.5t102.5 174t151.5 102.5t185 34q51 0 112.5 -18.5t100.5 -45.5v375q0 47 -33.5 60.5t-107.5 13.5h-33v80q61 6 122.5 18t111.5 27q29 8 56.5 15t55.5 17v-1388q0 -43 3 -64.5t14 -31.5q12 -12 45.5 -17.5t50.5 -7.5v-88h-168q-27 0 -46.5 11.5 t-32.5 27.5t-20.5 36.5t-9.5 37.5q-59 -57 -143 -98.5t-160 -41.5q-109 0 -184.5 40t-122.5 110t-67.5 166t-20.5 209zM266 483q0 -80 15.5 -145.5t48 -113.5t86 -73.5t131.5 -25.5q27 0 57.5 8t61 22.5t59.5 34t49 39.5v637q-39 27 -89 43.5t-97 16.5q-92 0 -153.5 -33 t-99.5 -91.5t-53.5 -140t-15.5 -178.5z" />
<glyph unicode="e" horiz-adv-x="1030" d="M80 489q0 106 28.5 208t86 180.5t144.5 126t206 47.5q102 0 175 -42t120 -112t68.5 -161t21.5 -187h-672q0 -10 -2 -28.5t-2 -28.5q0 -186 77 -282.5t242 -96.5q78 0 152 33.5t156 82.5v-120q-86 -63 -183.5 -99.5t-201.5 -36.5q-113 0 -192 45t-129 118t-72.5 165 t-22.5 188zM270 657h486q-4 41 -16.5 87.5t-38 84t-66.5 63.5t-103 26q-63 0 -108 -23t-76 -59.5t-49 -83.5t-29 -95z" />
<glyph unicode="f" horiz-adv-x="778" d="M68 -8v90q16 0 42.5 1t51 7t43 19.5t18.5 37.5v750h-155v96l155 31v160q0 111 28 187.5t74 124.5t107.5 69.5t130.5 21.5q119 0 192 -55.5t91 -149.5h-164q-8 29 -34.5 51.5t-86.5 22.5q-29 0 -58.5 -9t-53 -33.5t-39 -70t-15.5 -116.5v-203h267l-37 -127h-230v-750 q0 -25 18.5 -38t43 -19t51.5 -7t43 -1v-90q-16 0 -45 1t-62.5 3t-68.5 3t-66 1t-65.5 -1t-68.5 -3t-62.5 -3t-44.5 -1z" />
<glyph unicode="g" horiz-adv-x="1155" d="M80 524q0 115 28.5 211t83 167t132 110t176.5 39q86 0 150.5 -39t115.5 -99q2 14 9 34t20.5 36t33 28.5t45.5 12.5h168v-86q-16 -2 -50 -7t-46 -16q-10 -10 -14 -31.5t-4 -66.5v-1022q0 -82 -33 -141.5t-89 -98t-134 -57t-168 -18.5q-29 0 -71 3t-87 8t-87 12.5t-71 17.5 v139q27 -10 69 -20.5t86 -18.5t84 -12t62 -4q129 0 197 54t68 159v272q-51 -51 -121 -85t-148 -34q-115 0 -191.5 37t-124.5 107.5t-68.5 173t-20.5 235.5zM264 528q0 -121 17.5 -200.5t52.5 -127.5t85 -68.5t116 -20.5q45 0 105.5 31.5t113.5 72.5v576q-47 45 -115 82.5 t-129 37.5q-117 0 -181.5 -89t-64.5 -294z" />
<glyph unicode="h" horiz-adv-x="1261" d="M49 1440v80q61 6 122.5 19t111.5 26q29 8 56.5 15t55.5 17v-669q37 27 73 50t74 39.5t82 27t97 10.5q147 0 229 -76t82 -229v-603q0 -25 18.5 -38t43 -19t51 -7t43.5 -1v-90q-16 0 -45 1t-62.5 3t-68.5 3t-66 1t-66.5 -1t-69.5 -3t-62.5 -3t-45.5 -1v90q16 0 43 1t51.5 7 t43 19.5t18.5 37.5v422q0 25 1 57v21q0 21 -1 43q-2 33 -6 63.5t-14 55.5q-18 47 -60.5 73.5t-134.5 26.5q-72 0 -132 -25.5t-116 -70.5v-666q0 -25 18.5 -38t44 -19t52.5 -7t43 -1v-90q-18 0 -47 1t-62.5 3t-68.5 3t-66 1t-65.5 -1t-68.5 -3t-62.5 -3t-44.5 -1v90 q16 0 42.5 1t51 7t43 19.5t18.5 37.5v1219q0 47 -33.5 60.5t-111.5 13.5h-29z" />
<glyph unicode="i" horiz-adv-x="618" d="M47 901v82q59 6 118.5 18.5t110.5 24.5q29 8 57.5 15.5t57.5 17.5v-912q0 -25 18.5 -38t43 -19t50 -7t42.5 -1v-90q-16 0 -45 1t-61.5 3t-67.5 3t-66 1t-65.5 -1t-67.5 -3t-61.5 -3t-44.5 -1v90q14 0 40.5 1t51 7t43 19.5t18.5 37.5v682q0 47 -34.5 59.5t-108.5 12.5h-29 zM172 1372q0 51 35 86t84 35t84 -35t35 -86t-35 -86t-84 -35t-84 35t-35 86z" />
<glyph unicode="j" horiz-adv-x="620" d="M-18 -377q104 10 170.5 70.5t66.5 165.5v968q0 47 -34.5 60.5t-108.5 13.5h-29v82q59 6 118.5 18.5t110.5 24.5q29 8 57.5 15.5t57.5 17.5v-1221q0 -84 -34.5 -145.5t-91 -102.5t-130.5 -61.5t-153 -20.5v115zM172 1372q0 51 35 86t84 35t84 -35t35 -86t-35 -86t-84 -35 t-84 35t-35 86z" />
<glyph unicode="k" horiz-adv-x="1210" d="M49 1440v80q59 6 119.5 19t110.5 26q29 8 56 15t56 17v-1089l332 334q37 38 37 59q0 3 -1 7q-9 22 -32 30q-25 10 -55.5 10h-59.5v84q18 0 52 -1t74 -2l80 -2t71 -1q59 0 111.5 3t86.5 3v-84q-35 0 -58 -7t-47 -24.5t-50.5 -45t-65.5 -66.5l-176 -180l287 -443 q16 -25 29.5 -40t30 -25.5t40 -16.5t58.5 -12v-88h-127q-66 0 -109 28.5t-74 75.5l-254 404l-180 -182v-179q0 -25 18.5 -38t44 -19t52 -7t43.5 -1v-90q-18 0 -46 1t-60.5 3t-67.5 3t-66 1t-65.5 -1t-68.5 -3t-62.5 -3t-44.5 -1v90q16 0 42.5 1t51 7t43 19.5t18.5 37.5v1219 q0 47 -33.5 60.5t-111.5 13.5h-29z" />
<glyph unicode="l" horiz-adv-x="618" d="M49 1440v80q59 6 118.5 19t111.5 26q29 8 57.5 15t56.5 17v-1450q0 -25 18.5 -38t43 -19t50 -7t42.5 -1v-90q-16 0 -45 1t-61.5 3t-67.5 3t-66 1t-65.5 -1t-67.5 -3t-61.5 -3t-44.5 -1v90q14 0 40.5 1t51 7t43 19.5t18.5 37.5v1219q0 47 -33.5 60.5t-109.5 13.5h-29z" />
<glyph unicode="m" horiz-adv-x="1908" d="M51 901v80q61 6 124 19.5t112 25.5q29 8 56.5 15.5t55.5 17.5v-135q74 53 149 90t177 37q104 0 176 -37t107 -113q86 72 170 111t188 39q150 0 230.5 -77t80.5 -226v-601q0 -25 18.5 -38t44 -19t52.5 -7t43 -1v-90q-16 0 -45 1t-62.5 3t-69.5 3t-67 1t-65.5 -1t-68.5 -3 t-62.5 -3t-46.5 -1v90q16 0 42.5 1t52 7t44 19.5t18.5 37.5v420v120t-18 116q-18 47 -61.5 75.5t-135.5 28.5q-139 0 -256 -98q4 -16 4 -29.5v-29.5v-603q0 -25 18.5 -38t44 -19t52.5 -7t43 -1v-90q-18 0 -47 1t-62.5 3t-68.5 3t-66 1t-65.5 -1t-68.5 -3t-62.5 -3t-46.5 -1 v90q16 0 42.5 1t52 7t44 19.5t18.5 37.5v420v120t-20 116q-18 47 -61.5 75.5t-135.5 28.5q-72 0 -134 -26.5t-116 -71.5v-662q0 -25 18.5 -38t44 -19t52.5 -7t43 -1v-90q-18 0 -47 1t-62.5 3t-68.5 3t-66 1t-66.5 -1t-69.5 -3t-62.5 -3t-44.5 -1v90q16 0 42.5 1t52 7 t44 19.5t18.5 37.5v680q0 47 -34.5 60.5t-112.5 13.5h-29z" />
<glyph unicode="n" horiz-adv-x="1273" d="M51 901v80q61 6 123 19.5t111 25.5q29 8 56.5 15.5t55.5 17.5v-135q76 55 151 91t179 36q147 0 232 -75t85 -228v-601q0 -25 18.5 -38t43 -19t51.5 -7t43 -1v-90q-16 0 -45 1t-62.5 3t-68.5 3t-66 1t-66.5 -1t-69.5 -3t-62.5 -3t-44.5 -1v90q16 0 42.5 1t51.5 7t43 19.5 t18 37.5v420q0 25 1 57v21q0 21 -1 43q-2 33 -6 63.5t-14 55.5q-18 45 -64.5 72.5t-134.5 27.5q-72 0 -135 -26.5t-119 -71.5v-662q0 -25 18.5 -38t44 -19t52.5 -7t43 -1v-90q-18 0 -47 1t-62.5 3t-68.5 3t-66 1t-65.5 -1t-68.5 -3t-62.5 -3t-44.5 -1v90q16 0 42.5 1t51 7 t43 19.5t18.5 37.5v680q0 47 -33.5 60.5t-111.5 13.5h-29z" />
<glyph unicode="o" horiz-adv-x="1105" d="M80 496q0 111 28.5 211t88 177t149.5 122t213 45q115 0 201 -43t142 -116t85 -167.5t29 -198.5q0 -111 -29 -210t-88 -176t-149.5 -122t-212.5 -45q-115 0 -201 43t-143.5 115t-85 166t-27.5 199zM264 522q0 -55 11.5 -127.5t41 -139.5t83 -113t137.5 -46q82 0 138 34 t91 90t50 129t15 151q0 55 -11 128.5t-40.5 140.5t-83 113t-137.5 46q-82 0 -138 -34t-91 -91.5t-50.5 -130t-15.5 -150.5z" />
<glyph unicode="p" horiz-adv-x="1181" d="M49 901v80q59 6 120.5 18.5t113.5 26.5q29 8 56.5 15.5t55.5 17.5v-139q63 57 137 94t162 37q104 0 178 -43t121 -113t69.5 -157t22.5 -175q0 -115 -31.5 -221t-95 -189t-157.5 -132.5t-217 -49.5q-41 0 -94.5 13.5t-94.5 40.5v-396q0 -25 18.5 -38t44 -19t52.5 -7t43 -1 v-90q-18 0 -47 1t-62.5 3t-68.5 3t-66 1t-65.5 -1t-68.5 -3t-62.5 -3t-44.5 -1v90q16 0 42.5 1t51 7t43 19.5t18.5 37.5v1196q0 47 -34.5 61.5t-110.5 14.5h-29zM395 164q41 -25 90.5 -41.5t102.5 -16.5q90 0 151.5 35t98 92.5t52 132t15.5 154.5q0 70 -14 138.5t-47 124 t-86 89t-131 33.5q-68 0 -123 -30.5t-109 -75.5v-635z" />
<glyph unicode="q" horiz-adv-x="1157" d="M80 524q0 115 28.5 211t83 167t132 110t176.5 39q82 0 148.5 -41t117.5 -97q4 14 11 34t20.5 36t32 28.5t47.5 12.5h165v-86q-16 -2 -50 -7t-44 -18q-12 -10 -16 -30.5t-4 -65.5v-1188q0 -25 18.5 -38t43 -19t51 -7t42.5 -1v-90q-16 0 -44.5 1t-62.5 3t-69 3t-65 1 q-31 0 -66 -1t-68.5 -3t-62.5 -3t-47 -1v90q16 0 43 1t52.5 7t44 19.5t18.5 37.5v443q-51 -49 -123 -75t-144 -26q-145 0 -228 56.5t-123 140.5t-49 180t-9 176zM264 528q0 -129 18.5 -212t53.5 -129t85 -63.5t116 -17.5q53 0 113.5 34t105.5 73v582q-16 18 -47 38.5t-66 38 t-70.5 28.5t-62.5 11q-129 0 -187.5 -101t-58.5 -282z" />
<glyph unicode="r" horiz-adv-x="919" d="M51 901v80q59 6 120.5 19.5t113.5 25.5q29 8 56.5 15.5t55.5 17.5v-135q37 27 70 50t65.5 39.5t70.5 27t87 10.5q43 0 73 -6.5t68 -22.5v-248h-71q-10 47 -42 88t-75 41q-72 0 -132 -26.5t-114 -69.5v-660q0 -25 18.5 -38t43 -19t51.5 -7t43 -1v-90q-16 0 -45 1t-62.5 3 t-68.5 3t-66 1t-65.5 -1t-68.5 -3t-62.5 -3t-44.5 -1v90q16 0 42.5 1t51 7t43 19.5t18.5 37.5v680q0 47 -35.5 60.5t-109.5 13.5h-29z" />
<glyph unicode="s" horiz-adv-x="892" d="M88 53v223h96l29 -122q39 -29 91 -45.5t99 -16.5q39 0 76 10.5t65.5 31t47 50t18.5 68.5q0 55 -37.5 92t-95 67.5t-124 59.5t-124 68t-95.5 92t-38 133q0 74 33 128t84 90t115.5 52.5t130.5 16.5q72 0 142.5 -26t135.5 -71v-184h-73q-31 162 -222 162q-33 0 -64.5 -11.5 t-56 -31t-40 -46t-15.5 -55.5q0 -45 39 -76.5t97.5 -60t126 -58.5t126 -72t97.5 -100.5t39 -144.5t-35 -144t-91.5 -94t-129 -50.5t-148.5 -14.5q-86 0 -156.5 22.5t-142.5 57.5z" />
<glyph unicode="t" horiz-adv-x="780" d="M68 897v96l155 31v295l172 61v-356h267l-37 -127h-230v-592q0 -92 25.5 -140t118.5 -48q35 0 71.5 9t81.5 28l25 -97q-61 -37 -125 -60.5t-133 -23.5q-76 0 -122 25t-71.5 68t-34 100t-8.5 123v608h-155z" />
<glyph unicode="u" horiz-adv-x="1220" d="M39 899v78q59 6 121.5 19.5t115.5 25.5q29 8 59 15t58 18v-736q0 -111 57.5 -156.5t161.5 -45.5q137 0 248 98v612q0 45 -39 58.5t-116 13.5h-41v78q59 6 125.5 19.5t119.5 25.5q33 8 64 15t61 18v-852q0 -41 3 -61.5t15.5 -31t35 -13.5t59.5 -9v-88h-168 q-29 0 -48.5 12.5t-31.5 30.5t-19.5 37.5t-9.5 34.5q-70 -61 -145.5 -101.5t-185.5 -40.5q-147 0 -231.5 77t-84.5 231v546q0 45 -33.5 58.5t-111.5 13.5h-39z" />
<glyph unicode="v" horiz-adv-x="1177" d="M49 942v90q35 0 80 -4t107 -4q31 0 70.5 1t79.5 3t74 3t50 1v-90h-45t-54.5 -5t-43 -17.5t-9.5 -34.5l238 -684l240 684q8 23 -9.5 35t-44 17t-56.5 5h-46v90q16 0 46 -1t64.5 -3t71.5 -3t68 -1q61 0 100 4t74 4v-90q-18 0 -39 -2t-40 -9t-34.5 -20.5t-23.5 -36.5 l-312 -874h-172l-305 874q-16 45 -56 56.5t-73 11.5z" />
<glyph unicode="w" horiz-adv-x="1646" d="M49 942v90q35 0 80 -4t107 -4q31 0 69.5 1t76.5 3t69.5 3t50.5 1v-90h-44t-52.5 -5t-41 -17.5t-10.5 -34.5l183 -676l221 600h143l207 -604l192 680q6 23 -10 35t-41.5 17t-54.5 5h-45v90q18 0 46 -1t60.5 -3t67.5 -3t66 -1q61 0 102 4t76 4v-90q-18 0 -40 -2t-42.5 -8 t-36.5 -19.5t-23 -35.5l-247 -877h-156l-219 629l-236 -629h-149l-238 877q-12 45 -53 55t-78 10z" />
<glyph unicode="x" horiz-adv-x="1155" d="M66 -8v90q35 0 70.5 14.5t66.5 53.5l282 350l-280 374q-29 39 -67 53.5t-72 14.5v90q35 0 79.5 -4t106.5 -4q31 0 73 1t83 3t76.5 3t54.5 1v-90q-6 0 -35 -1t-58.5 -7t-49 -16.5t-5.5 -28.5l201 -266l219 266q14 16 -2 26.5t-45 16.5t-62.5 8t-52.5 2v90q16 0 49 -1 t71 -3t76 -3t68 -1q61 0 100.5 4t73.5 4v-90q-25 0 -69.5 -19.5t-69.5 -48.5l-286 -344l286 -380q29 -39 64 -53.5t69 -14.5v-90q-35 0 -80 4t-106 4q-31 0 -73 -1t-83 -3t-76.5 -3t-54.5 -1v90q8 0 38 1t60.5 7t50 16.5t5.5 28.5l-205 273l-215 -273q-14 -16 2 -26.5 t43 -16.5q29 -6 61.5 -8t51.5 -2v-90q-16 0 -48 1t-69 3t-75 3t-68 1q-61 0 -100.5 -4t-73.5 -4z" />
<glyph unicode="y" horiz-adv-x="1185" d="M49 942v90q35 0 82 -4t109 -4q31 0 72.5 1t83.5 3t78 3t54 1v-90h-46.5t-60.5 -5t-48.5 -17.5t-10.5 -34.5l240 -688l238 688q8 23 -12.5 35t-51.5 17t-63.5 5h-48.5v90q16 0 50 -1t72.5 -3t77.5 -3t70 -1q61 0 102 4t76 4v-90q-37 0 -80 -11t-59 -57l-408 -1175 q-41 -117 -115.5 -161t-185.5 -44q-35 0 -58.5 4t-72.5 21l43 119q18 -6 30.5 -10.5t24 -6.5t25.5 -3t37 -1q45 0 86 26.5t57 77.5l74 211l-328 942q-16 45 -57 56.5t-76 11.5z" />
<glyph unicode="z" horiz-adv-x="1019" d="M100 0v100l568 805h-441q-10 -29 -17 -67.5t-9 -67.5h-80v260q14 -2 52 -4t93 -2h676l-635 -905h502q10 29 18.5 69.5t10.5 69.5h82v-264q-14 2 -52.5 4t-93.5 2h-674z" />
<glyph unicode="{" horiz-adv-x="702" d="M72 481v111q2 0 19.5 6t40 17.5t46 26.5t35.5 34q25 35 32 104.5t5 147.5t-6 147.5t-4 106.5q0 190 91 273t300 83v-129q-117 0 -165 -45t-58 -117q-12 -70 -2 -162q4 -45 7 -89t3 -87q0 -59 -5 -114.5t-20.5 -102.5t-46.5 -87t-80 -68q49 -29 80 -69t46.5 -88 t20.5 -103.5t5 -114.5q0 -43 -3 -87t-7 -89q-10 -92 2 -162q10 -72 58 -117t165 -45v-129q-209 0 -300 83t-91 273q0 37 4 107t6 147q2 78 -5 147.5t-32 104.5q-12 18 -34.5 33.5t-46 27t-41 18.5t-19.5 7z" />
<glyph unicode="|" horiz-adv-x="567" d="M205 -467v2046h160v-2046h-160z" />
<glyph unicode="}" horiz-adv-x="690" d="M66 -338q117 0 165 45t58 117q12 70 2 162q-4 45 -7 89t-3 87q0 59 5 114.5t20.5 103.5t46 88t79.5 69q-49 29 -79.5 68.5t-46 86.5t-20.5 102.5t-5 114.5q0 43 3 87t7 89q10 92 -2 162q-10 72 -58.5 117t-164.5 45v129q209 0 300 -83t91 -273q0 -37 -4 -106.5t-7 -147.5 q-2 -78 5.5 -147.5t31.5 -104.5q12 -18 35 -33.5t46.5 -27t41 -17.5t19.5 -6v-111q-2 0 -19.5 -7t-41 -18.5t-46 -26.5t-35.5 -34q-25 -35 -32 -104.5t-5 -147.5t6.5 -147.5t4.5 -106.5q0 -190 -91.5 -273t-299.5 -83v129z" />
<glyph unicode="~" horiz-adv-x="712" d="M20 494q41 49 91.5 83.5t117.5 34.5q37 0 68 -12t60.5 -27.5t59 -28t64.5 -12.5q41 0 74 18.5t61 49.5l76 -82q-39 -53 -90 -87t-119 -34q-39 0 -72.5 12.5t-63.5 26t-57.5 25.5t-56.5 12q-41 0 -72.5 -15.5t-62.5 -47.5z" />
<glyph unicode="&#xa1;" horiz-adv-x="563" d="M168 1335q0 47 35 82t82 35t81.5 -35t34.5 -82t-34.5 -81.5t-81.5 -34.5t-82 34.5t-35 81.5zM182 0l33 1024h139l33 -1024h-205z" />
<glyph unicode="&#xa2;" d="M182 489q0 98 22.5 191.5t68.5 169.5t119 128t171 66v136h117v-131q61 -6 125.5 -30t124.5 -65v-184h-76q-12 68 -64.5 101.5t-109.5 43.5v-798q59 6 115.5 31.5t115.5 60.5l29 -109q-61 -43 -125.5 -74.5t-134.5 -43.5v-136h-117v129q-102 6 -175 52.5t-119 118 t-66.5 160.5t-20.5 183zM360 524q0 -66 9.5 -130t32 -118.5t62.5 -94.5t99 -56v788q-59 -14 -99 -54t-62.5 -93t-32 -116.5t-9.5 -125.5z" />
<glyph unicode="&#xa3;" d="M98 -8v90q29 0 57.5 2t50 10t35 20.5t13.5 35.5v405h-156v117h156v202q0 100 30.5 173t85 119t128 67.5t161.5 21.5t159 -18t157 -57v-287h-105q0 31 -4 60.5t-9 54t-10 42t-7 21.5q-47 33 -93.5 46t-99.5 13q-104 0 -161.5 -47t-57.5 -163v-248h260v-117h-260v-432 l414 -2q2 6 7 27.5t10 51t9 63.5t4 63h103v-334q-4 0 -21.5 1t-42 2t-53.5 2t-55 1l-459 2q-31 0 -66.5 -1t-69.5 -3t-63.5 -3t-46.5 -1z" />
<glyph unicode="&#xa4;" d="M133 334l88 86q-82 113 -82 252t82 252l-88 86l92 90l90 -88q47 39 110.5 60.5t135.5 21.5q68 0 131.5 -20.5t114.5 -61.5l90 88l92 -90l-90 -86q84 -109 84 -252q0 -145 -86 -252l92 -86l-92 -90l-90 88q-51 -41 -114.5 -61.5t-131.5 -20.5q-72 0 -135.5 21.5 t-110.5 60.5l-90 -88zM283 672q0 -63 21.5 -116.5t59 -92.5t88 -60.5t109.5 -21.5q57 0 108.5 21.5t89.5 60.5t59.5 92.5t21.5 116.5t-21.5 116.5t-59.5 92.5t-89.5 60.5t-108.5 21.5q-59 0 -109.5 -21.5t-88 -60.5t-59 -92.5t-21.5 -116.5z" />
<glyph unicode="&#xa5;" d="M61 1147v90q35 0 66 -4t92 -4q31 0 68 1t73.5 3t67.5 3t47 1v-90q-6 0 -30.5 -2t-50 -7t-43 -15.5t-9.5 -24.5l231 -457l242 465q8 14 -9.5 22.5t-42 12.5t-49 5t-30.5 1v90q16 0 45 -1t61.5 -3t67.5 -3t66 -1t49 1t32.5 3t26.5 3t29 1v-90q-8 0 -24.5 -2t-34 -7 t-34 -15.5t-24.5 -26.5l-254 -486h213v-116h-262v-97h262v-116h-262v-134q0 -25 18.5 -38t43 -19t50 -7t42.5 -1v-90q-16 0 -45 1t-63 3t-69.5 3t-66.5 1t-65.5 -1t-68.5 -3t-62.5 -3t-45.5 -1v90q16 0 43 1t52.5 8t44 20.5t18.5 38.5v131h-260v116h260v97h-260v116h215 l-250 486q-18 35 -55 43t-56 8z" />
<glyph unicode="&#xa6;" horiz-adv-x="569" d="M205 371h160v-838h-160v838zM205 700v838h160v-838h-160z" />
<glyph unicode="&#xa7;" horiz-adv-x="1067" d="M154 532q0 57 21.5 105.5t56 88.5t78.5 71.5t89 58.5q-39 18 -74.5 45t-64.5 60.5t-46 72.5t-17 84q0 76 30.5 137.5t80.5 105.5t115.5 67.5t135.5 23.5q63 0 128 -14.5t126 -42.5v-211h-86q0 35 -7 65.5t-9 36.5q-84 43 -179 43q-35 0 -67.5 -12t-58 -33.5t-42 -52.5 t-16.5 -68q0 -61 42 -101t104.5 -72t135 -59.5t135 -66.5t104.5 -94t42 -139q0 -57 -19.5 -105.5t-53 -87.5t-76.5 -70.5t-90 -56.5q82 -41 138 -103.5t56 -162.5q0 -84 -32.5 -148.5t-87 -109.5t-126 -67.5t-147.5 -22.5q-133 0 -250 57v211h86q0 -35 8.5 -67.5t12.5 -38.5 q41 -23 82 -31t88 -8q37 0 74.5 14t67.5 39t48.5 58.5t18.5 74.5q0 63 -41 103.5t-102.5 70t-134.5 57t-134 64.5t-102 92.5t-41 138.5zM311 565q0 -45 21.5 -76.5t55.5 -55t73 -39t74 -27.5q31 18 67.5 41.5t69.5 53.5t55.5 63.5t22.5 72.5q0 49 -21.5 82t-55.5 55.5 t-73 37.5t-76 32q-31 -20 -68.5 -44t-69.5 -53.5t-53.5 -64.5t-21.5 -78z" />
<glyph unicode="&#xa8;" horiz-adv-x="712" d="M66 1372q0 47 34.5 82t81.5 35t82 -35t35 -82t-35 -82t-82 -35t-81.5 35t-34.5 82zM414 1372q0 47 34.5 82t81.5 35t82 -35t35 -82t-34.5 -82t-82.5 -35q-47 0 -81.5 35t-34.5 82z" />
<glyph unicode="&#xa9;" horiz-adv-x="1650" d="M86 713q0 154 58.5 288t158.5 234t234.5 158.5t287.5 58.5q154 0 288 -58.5t234.5 -158.5t159 -234t58.5 -288t-58.5 -288t-159 -234.5t-234.5 -159t-288 -58.5t-288 58.5t-234 159t-158.5 234.5t-58.5 288zM199 713q0 -129 49 -244t134 -200t199.5 -134t243.5 -49 t244 49t200 134t134 200t49 244t-49 243.5t-134 199.5t-200 134t-244 49t-243.5 -49t-199.5 -134t-134 -199.5t-49 -243.5zM457 709q0 86 22.5 164.5t69.5 138t117.5 95.5t169.5 36q98 0 157.5 -31t81.5 -53v-191h-92q0 35 -9 70t-11 41q-29 29 -62 40t-74 11 q-55 0 -97 -26.5t-69.5 -68.5t-41 -96.5t-13.5 -109.5q0 -66 13.5 -126t43 -106t75.5 -74t114 -28q25 0 58.5 6.5t58.5 20.5q4 6 13 40t9 68h92v-188q-70 -33 -131 -46t-123 -13q-96 0 -165.5 34.5t-115.5 93t-68.5 135.5t-22.5 163z" />
<glyph unicode="&#xaa;" horiz-adv-x="819" d="M139 1004q0 49 22.5 80.5t56.5 52t76 34t79 23.5q29 8 57.5 14t56.5 13v94q0 123 -120 123q-47 0 -83 -20.5t-46 -74.5h-60v127q57 35 107.5 51.5t111.5 16.5q100 0 158.5 -50t58.5 -157v-340q0 -29 2 -39t7 -14q6 -4 28.5 -7t32.5 -5v-72h-115q-33 0 -49 20.5t-22 43.5 q-35 -35 -79 -57.5t-97 -22.5q-76 0 -129.5 44t-53.5 122zM262 1022q0 -43 26.5 -60.5t67.5 -17.5q29 0 68.5 20.5t62.5 43.5v135q-23 -6 -59.5 -13.5t-73.5 -21.5t-64.5 -34.5t-27.5 -51.5z" />
<glyph unicode="&#xab;" horiz-adv-x="1210" d="M121 532l393 474l109 -76l-293 -398l293 -397l-109 -76zM588 532l393 474l109 -76l-295 -398l295 -397l-109 -76z" />
<glyph unicode="&#xac;" d="M111 477v141h901v-509h-142v368h-759z" />
<glyph unicode="&#xad;" horiz-adv-x="483" />
<glyph unicode="&#xae;" horiz-adv-x="1650" d="M86 713q0 154 58.5 288t158.5 234t234.5 158.5t287.5 58.5q154 0 288 -58.5t234.5 -158.5t159 -234t58.5 -288t-58.5 -288t-159 -234.5t-234.5 -159t-288 -58.5t-288 58.5t-234 159t-158.5 234.5t-58.5 288zM199 713q0 -129 49 -244t134 -200t199.5 -134t243.5 -49 t244 49t200 134t134 200t49 244t-49 243.5t-134 199.5t-200 134t-244 49t-243.5 -49t-199.5 -134t-134 -199.5t-49 -243.5zM518 297v76h22.5t28 2t23.5 7t10 15v631q0 10 -10 15.5t-23.5 7.5t-28 2h-22.5v75q20 0 66.5 -2t81.5 -2q37 0 65.5 2t46.5 2q51 0 106.5 -10 t101.5 -37.5t75 -75t29 -120.5q0 -86 -36 -137.5t-93 -77.5l126 -224q27 -45 50.5 -55t64.5 -16v-78h-104q-49 0 -84 29.5t-49 54.5l-146 256q-12 0 -23.5 -1t-23.5 -1h-33v-238q0 -10 10.5 -15t24.5 -7t28.5 -2h22.5v-76q-23 0 -67.5 3t-85.5 3t-86 -3t-68 -3zM739 745h45 q76 0 117 32t41 104q0 143 -158 137l-45 -2v-271z" />
<glyph unicode="&#xaf;" horiz-adv-x="712" d="M86 1303v137h541v-137h-541z" />
<glyph unicode="&#xb0;" horiz-adv-x="917" d="M193 1165q0 55 20 103.5t57 85.5t85 57.5t104 20.5q55 0 103 -20.5t85 -57.5t57.5 -85.5t20.5 -103.5t-20.5 -103t-57.5 -85t-85 -57.5t-103 -20.5t-103.5 20.5t-85.5 57.5t-57 85t-20 103zM317 1165q0 -59 41 -100t101 -41q59 0 100 41t41 100t-41 100.5t-100 41.5 t-100.5 -41t-41.5 -101z" />
<glyph unicode="&#xb1;" d="M111 184v142h901v-142h-901zM111 774v141h378v355h142v-355h381v-141h-381v-354h-142v354h-378z" />
<glyph unicode="&#xb2;" horiz-adv-x="1425" d="M201 0v1024h1024v-1024h-1024zM352 152h721v720h-721v-720z" />
<glyph unicode="&#xb3;" horiz-adv-x="1425" d="M201 0v1024h1024v-1024h-1024zM352 152h721v720h-721v-720z" />
<glyph unicode="&#xb4;" horiz-adv-x="712" d="M131 1290l358 254l95 -133l-377 -231z" />
<glyph unicode="&#xb5;" horiz-adv-x="1425" d="M201 0v1024h1024v-1024h-1024zM352 152h721v720h-721v-720z" />
<glyph unicode="&#xb6;" horiz-adv-x="1247" d="M41 1012q0 111 47 190.5t121 130.5t166 76t182 25q100 0 150.5 -1t78 -3.5t48 -3.5t63.5 -1q98 0 147.5 4.5t92.5 4.5v-91q-16 0 -43 -1t-51.5 -6t-43 -17t-18.5 -35v-1143q0 -23 18.5 -35t43 -17t51 -6t43.5 -1v-90q-16 0 -54.5 1t-83.5 3t-90 3t-75 1v1298h-113v-1298 q-31 0 -76 -1t-90 -3t-83 -3t-54 -1v90q16 0 42.5 1t51.5 6t43 17.5t18 34.5v420h-16q-102 0 -196.5 27.5t-165 83t-112.5 140.5t-42 200z" />
<glyph unicode="&#xb7;" d="M444 547q0 47 35 82t82 35t82 -35t35 -82t-35 -82t-82 -35t-82 35t-35 82z" />
<glyph unicode="&#xb8;" horiz-adv-x="712" d="M178 -475l19 92q18 -6 50 -12t62.5 -4t52 15t21.5 46q0 25 -21.5 46.5t-52 40t-63.5 31.5t-53 21l69 199h119l-39 -119q31 -16 65.5 -34.5t62.5 -42t46.5 -54.5t18.5 -74q0 -53 -21.5 -87.5t-55.5 -54t-76 -28t-85 -8.5q-59 0 -119 27z" />
<glyph unicode="&#xb9;" horiz-adv-x="1425" d="M201 0v1024h1024v-1024h-1024zM352 152h721v720h-721v-720z" />
<glyph unicode="&#xba;" horiz-adv-x="819" d="M109 1178q0 70 18 135t56 115.5t96.5 80t136.5 29.5q74 0 129 -28.5t92 -77t55.5 -109.5t18.5 -127q0 -70 -18.5 -134.5t-56.5 -114.5t-96.5 -79.5t-136.5 -29.5q-74 0 -129 28.5t-92 75.5t-55 108.5t-18 127.5zM244 1194q0 -35 7 -80t24.5 -85t48 -67.5t79.5 -27.5 q47 0 80 20.5t53.5 54t29.5 78t9 93.5q0 35 -7 81t-24.5 85.5t-48 67.5t-79.5 28q-47 0 -80 -20.5t-53.5 -55.5t-29.5 -79t-9 -93z" />
<glyph unicode="&#xbb;" horiz-adv-x="1210" d="M121 135l295 397l-295 398l108 76l394 -474l-394 -473zM588 135l293 397l-293 398l108 76l394 -474l-394 -473z" />
<glyph unicode="&#xbc;" horiz-adv-x="1425" d="M201 0v1024h1024v-1024h-1024zM352 152h721v720h-721v-720z" />
<glyph unicode="&#xbd;" horiz-adv-x="1425" d="M201 0v1024h1024v-1024h-1024zM352 152h721v720h-721v-720z" />
<glyph unicode="&#xbe;" horiz-adv-x="1425" d="M201 0v1024h1024v-1024h-1024zM352 152h721v720h-721v-720z" />
<glyph unicode="&#xbf;" horiz-adv-x="843" d="M115 264q0 88 34.5 148.5t82 107.5t95.5 88t72.5 93.5t14 121t-77.5 170.5l94 66q96 -117 123 -202t11.5 -151.5t-60.5 -118.5t-93.5 -100.5t-85 -100.5t-36.5 -116q0 -66 45 -117t125 -51q98 0 152.5 47.5t60.5 118.5h73v-184q-78 -53 -153.5 -82t-167.5 -29 q-66 0 -122 18.5t-97 54.5t-65.5 90t-24.5 128zM338 1335q0 47 35 82t82 35t81.5 -35t34.5 -82t-34.5 -81.5t-81.5 -34.5t-82 34.5t-35 81.5z" />
<glyph unicode="&#xc0;" horiz-adv-x="1409" d="M63 -8v90q8 0 28 1t41.5 6t41 16.5t25.5 33.5l413 1264l168 55l412 -1319q6 -20 24.5 -31.5t39 -17.5t40 -7t29.5 -1v-90q-35 2 -89 5t-116 3q-31 0 -69.5 -1t-76.5 -3t-71 -3t-49 -1v90h44t53.5 5t42 15.5t10.5 28.5l-99 320h-463l-104 -322q-6 -18 10.5 -27.5t43 -14.5 t54 -5h43.5v-90q-16 0 -43.5 1t-60.5 3t-66.5 3t-64.5 1q-61 0 -108.5 -4t-82.5 -4zM432 1800l90 144l348 -250l-63 -97zM481 567h387l-188 635z" />
<glyph unicode="&#xc1;" horiz-adv-x="1409" d="M63 -8v90q8 0 28 1t41.5 6t41 16.5t25.5 33.5l413 1264l168 55l412 -1319q6 -20 24.5 -31.5t39 -17.5t40 -7t29.5 -1v-90q-35 2 -89 5t-116 3q-31 0 -69.5 -1t-76.5 -3t-71 -3t-49 -1v90h44t53.5 5t42 15.5t10.5 28.5l-99 320h-463l-104 -322q-6 -18 10.5 -27.5t43 -14.5 t54 -5h43.5v-90q-16 0 -43.5 1t-60.5 3t-66.5 3t-64.5 1q-61 0 -108.5 -4t-82.5 -4zM481 567h387l-188 635zM516 1694l344 250l90 -144l-375 -203z" />
<glyph unicode="&#xc2;" horiz-adv-x="1409" d="M63 -8v90q8 0 28 1t41.5 6t41 16.5t25.5 33.5l413 1264l168 55l412 -1319q6 -20 24.5 -31.5t39 -17.5t40 -7t29.5 -1v-90q-35 2 -89 5t-116 3q-31 0 -69.5 -1t-76.5 -3t-71 -3t-49 -1v90h44t53.5 5t42 15.5t10.5 28.5l-99 320h-463l-104 -322q-6 -18 10.5 -27.5t43 -14.5 t54 -5h43.5v-90q-16 0 -43.5 1t-60.5 3t-66.5 3t-64.5 1q-61 0 -108.5 -4t-82.5 -4zM342 1694l346 250l350 -250l-63 -97l-287 154l-285 -154zM481 567h387l-188 635z" />
<glyph unicode="&#xc3;" horiz-adv-x="1409" d="M63 -8v90q8 0 28 1t41.5 6t41 16.5t25.5 33.5l413 1264l168 55l412 -1319q6 -20 24.5 -31.5t39 -17.5t40 -7t29.5 -1v-90q-35 2 -89 5t-116 3q-31 0 -69.5 -1t-76.5 -3t-71 -3t-49 -1v90h44t53.5 5t42 15.5t10.5 28.5l-99 320h-463l-104 -322q-6 -18 10.5 -27.5t43 -14.5 t54 -5h43.5v-90q-16 0 -43.5 1t-60.5 3t-66.5 3t-64.5 1q-61 0 -108.5 -4t-82.5 -4zM381 1778q41 49 91 83.5t118 34.5q37 0 67.5 -12t60.5 -27.5t59.5 -27.5t64.5 -12q41 0 73.5 18t61.5 49l76 -82q-39 -53 -90.5 -87t-118.5 -34q-39 0 -73 12.5t-63.5 26t-57 25.5 t-56.5 12q-41 0 -73 -15.5t-62 -47.5zM481 567h387l-188 635z" />
<glyph unicode="&#xc4;" horiz-adv-x="1409" d="M63 -8v90q8 0 28 1t41.5 6t41 16.5t25.5 33.5l413 1264l168 55l412 -1319q6 -20 24.5 -31.5t39 -17.5t40 -7t29.5 -1v-90q-35 2 -89 5t-116 3q-31 0 -69.5 -1t-76.5 -3t-71 -3t-49 -1v90h44t53.5 5t42 15.5t10.5 28.5l-99 320h-463l-104 -322q-6 -18 10.5 -27.5t43 -14.5 t54 -5h43.5v-90q-16 0 -43.5 1t-60.5 3t-66.5 3t-64.5 1q-61 0 -108.5 -4t-82.5 -4zM403 1782q0 47 35 81.5t82 34.5t82 -34.5t35 -81.5t-35 -82t-82 -35t-82 35t-35 82zM481 567h387l-188 635zM752 1782q0 47 34.5 81.5t81.5 34.5t82 -34.5t35 -81.5t-35 -82t-82 -35 t-81.5 35t-34.5 82z" />
<glyph unicode="&#xc5;" horiz-adv-x="1409" d="M63 -8v90q8 0 28 1t41.5 6t41 16.5t25.5 33.5l413 1264l168 55l412 -1319q6 -20 24.5 -31.5t39 -17.5t40 -7t29.5 -1v-90q-35 2 -89 5t-116 3q-31 0 -69.5 -1t-76.5 -3t-71 -3t-49 -1v90h44t53.5 5t42 15.5t10.5 28.5l-99 320h-463l-104 -322q-6 -18 10.5 -27.5t43 -14.5 t54 -5h43.5v-90q-16 0 -43.5 1t-60.5 3t-66.5 3t-64.5 1q-61 0 -108.5 -4t-82.5 -4zM481 567h387l-188 635zM481 1790q0 45 17.5 86t47 70.5t69.5 47t85 17.5t85 -17.5t70 -47t47.5 -70.5t17.5 -86t-17.5 -85t-47.5 -70.5t-70 -48t-85 -17.5t-85 17.5t-69.5 48t-47 70.5 t-17.5 85zM594 1790q0 -45 30.5 -76t75.5 -31t76 31t31 76t-31 75.5t-76 30.5t-75.5 -30.5t-30.5 -75.5z" />
<glyph unicode="&#xc6;" horiz-adv-x="1802" d="M61 -8v90q10 0 29 1t39.5 7t38.5 17.5t29 31.5l606 1295q16 0 46 -1t63.5 -3.5t69.5 -3.5t67 -1q20 0 69 1t112.5 1t133.5 2.5t129 2.5t102 1t56 1v-334h-103q0 37 -4 71.5t-10 63.5t-12 50.5t-9 27.5l-446 -6v-514h256q20 0 32.5 13t18.5 33.5t7 43t1 39.5h91 q0 -47 -3.5 -93.5t-7.5 -93.5q0 -4 2 -26.5t3 -52t3.5 -59.5t2.5 -48h-91q0 16 -2 38.5t-8 42t-17.5 34t-31.5 14.5h-256v-559l457 -6q2 6 8 26.5t12 50t11.5 64.5t5.5 72h102v-334q-12 0 -61.5 1t-119 1t-149.5 2t-152.5 2t-128 1t-75.5 1q-31 0 -67 -1t-69.5 -3t-63 -3 t-46.5 -1v90q16 0 43 1t51.5 7t43 19.5t18.5 37.5v304h-381l-150 -322q-6 -18 8.5 -27.5t37 -14.5t47 -5h40.5v-90q-35 0 -100 4t-127 4q-61 0 -113.5 -4t-87.5 -4zM561 567h326v703z" />
<glyph unicode="&#xc7;" horiz-adv-x="1298" d="M80 713q0 147 40 281t121 235.5t201.5 162t280.5 60.5q104 0 217 -20.5t213 -67.5v-264h-111q0 59 -14 107t-18 59q-47 29 -118 47t-132 18q-133 0 -223.5 -52t-147.5 -138t-81.5 -198t-24.5 -230q0 -119 24.5 -230.5t81.5 -197.5t147.5 -138.5t223.5 -52.5 q61 0 132 18.5t118 47.5q4 10 18 58t14 108h111v-265q-92 -43 -193.5 -63.5t-199.5 -24.5l-29 -90q31 -16 65.5 -34.5t63.5 -42t47.5 -55.5t18.5 -75q0 -53 -20.5 -87.5t-54.5 -54t-77 -28t-86 -8.5q-66 0 -119 27l17 92q18 -6 50 -12t62.5 -5t53 14t22.5 48 q0 27 -21.5 48.5t-52 37.5t-63.5 29.5t-53 23.5l59 176q-141 14 -246.5 80t-176 165.5t-105.5 226t-35 264.5z" />
<glyph unicode="&#xc8;" horiz-adv-x="1177" d="M68 -8v90q16 0 42.5 1t51 7t43 19.5t18.5 37.5v1131q0 25 -18.5 38t-43 19t-51 7t-42.5 1v91q16 0 45.5 -1t63.5 -3.5t70 -3.5t66 -1q20 0 78 1t133.5 1t159.5 2.5t155.5 2.5t123 1t63.5 1v-334h-102q0 37 -4.5 71.5t-10.5 63.5t-12 50.5t-8 27.5l-486 -6v-514h295 q20 0 32.5 13t19 33.5t7.5 43t1 39.5h90q0 -47 -3 -93.5t-7 -93.5q0 -4 2 -26.5t3 -52t3 -59.5t2 -48h-90q0 16 -2 38.5t-8.5 42t-17.5 34t-32 14.5h-295v-559l496 -6q2 6 8 26.5t12.5 50t11.5 64.5t5 72h102v-334q-12 0 -64 1t-126 1t-159 2t-161.5 2t-135 1t-79.5 1 q-31 0 -66.5 -1t-69.5 -3t-63.5 -3t-45.5 -1zM326 1800l90 144l348 -250l-64 -97z" />
<glyph unicode="&#xc9;" horiz-adv-x="1177" d="M68 -8v90q16 0 42.5 1t51 7t43 19.5t18.5 37.5v1131q0 25 -18.5 38t-43 19t-51 7t-42.5 1v91q16 0 45.5 -1t63.5 -3.5t70 -3.5t66 -1q20 0 78 1t133.5 1t159.5 2.5t155.5 2.5t123 1t63.5 1v-334h-102q0 37 -4.5 71.5t-10.5 63.5t-12 50.5t-8 27.5l-486 -6v-514h295 q20 0 32.5 13t19 33.5t7.5 43t1 39.5h90q0 -47 -3 -93.5t-7 -93.5q0 -4 2 -26.5t3 -52t3 -59.5t2 -48h-90q0 16 -2 38.5t-8.5 42t-17.5 34t-32 14.5h-295v-559l496 -6q2 6 8 26.5t12.5 50t11.5 64.5t5 72h102v-334q-12 0 -64 1t-126 1t-159 2t-161.5 2t-135 1t-79.5 1 q-31 0 -66.5 -1t-69.5 -3t-63.5 -3t-45.5 -1zM426 1694l344 250l90 -144l-375 -203z" />
<glyph unicode="&#xca;" horiz-adv-x="1177" d="M68 -8v90q16 0 42.5 1t51 7t43 19.5t18.5 37.5v1131q0 25 -18.5 38t-43 19t-51 7t-42.5 1v91q16 0 45.5 -1t63.5 -3.5t70 -3.5t66 -1q20 0 78 1t133.5 1t159.5 2.5t155.5 2.5t123 1t63.5 1v-334h-102q0 37 -4.5 71.5t-10.5 63.5t-12 50.5t-8 27.5l-486 -6v-514h295 q20 0 32.5 13t19 33.5t7.5 43t1 39.5h90q0 -47 -3 -93.5t-7 -93.5q0 -4 2 -26.5t3 -52t3 -59.5t2 -48h-90q0 16 -2 38.5t-8.5 42t-17.5 34t-32 14.5h-295v-559l496 -6q2 6 8 26.5t12.5 50t11.5 64.5t5 72h102v-334q-12 0 -64 1t-126 1t-159 2t-161.5 2t-135 1t-79.5 1 q-31 0 -66.5 -1t-69.5 -3t-63.5 -3t-45.5 -1zM229 1694l346 250l351 -250l-64 -97l-287 154l-284 -154z" />
<glyph unicode="&#xcb;" horiz-adv-x="1177" d="M68 -8v90q16 0 42.5 1t51 7t43 19.5t18.5 37.5v1131q0 25 -18.5 38t-43 19t-51 7t-42.5 1v91q16 0 45.5 -1t63.5 -3.5t70 -3.5t66 -1q20 0 78 1t133.5 1t159.5 2.5t155.5 2.5t123 1t63.5 1v-334h-102q0 37 -4.5 71.5t-10.5 63.5t-12 50.5t-8 27.5l-486 -6v-514h295 q20 0 32.5 13t19 33.5t7.5 43t1 39.5h90q0 -47 -3 -93.5t-7 -93.5q0 -4 2 -26.5t3 -52t3 -59.5t2 -48h-90q0 16 -2 38.5t-8.5 42t-17.5 34t-32 14.5h-295v-559l496 -6q2 6 8 26.5t12.5 50t11.5 64.5t5 72h102v-334q-12 0 -64 1t-126 1t-159 2t-161.5 2t-135 1t-79.5 1 q-31 0 -66.5 -1t-69.5 -3t-63.5 -3t-45.5 -1zM281 1782q0 47 34.5 81.5t81.5 34.5t82 -34.5t35 -81.5t-35 -82t-82 -35t-81.5 35t-34.5 82zM629 1782q0 47 34.5 81.5t81.5 34.5t82 -34.5t35 -81.5t-34.5 -82t-82.5 -35q-47 0 -81.5 35t-34.5 82z" />
<glyph unicode="&#xcc;" horiz-adv-x="665" d="M66 1800l90 144l348 -250l-64 -97zM68 -8v90q16 0 42.5 1t51 7t43 19.5t18.5 37.5v1131q0 25 -18.5 38t-43 19t-51 7t-42.5 1v91q16 0 45.5 -1t64.5 -3.5t71 -3.5t66 -1q31 0 66 1t68.5 3.5t62.5 3.5t47 1v-91q-16 0 -43 -1t-51.5 -7t-43 -19t-18.5 -38v-1131 q0 -25 18.5 -38t43 -19t51.5 -7t43 -1v-90q-18 0 -47 1t-62.5 3t-68.5 3t-66 1t-66.5 -1t-70.5 -3t-64.5 -3t-45.5 -1z" />
<glyph unicode="&#xcd;" horiz-adv-x="665" d="M68 -8v90q16 0 42.5 1t51 7t43 19.5t18.5 37.5v1131q0 25 -18.5 38t-43 19t-51 7t-42.5 1v91q16 0 45.5 -1t64.5 -3.5t71 -3.5t66 -1q31 0 66 1t68.5 3.5t62.5 3.5t47 1v-91q-16 0 -43 -1t-51.5 -7t-43 -19t-18.5 -38v-1131q0 -25 18.5 -38t43 -19t51.5 -7t43 -1v-90 q-18 0 -47 1t-62.5 3t-68.5 3t-66 1t-66.5 -1t-70.5 -3t-64.5 -3t-45.5 -1zM113 1694l344 250l90 -144l-375 -203z" />
<glyph unicode="&#xce;" horiz-adv-x="665" d="M-33 1694l346 250l351 -250l-64 -97l-287 154l-284 -154zM68 -8v90q16 0 42.5 1t51 7t43 19.5t18.5 37.5v1131q0 25 -18.5 38t-43 19t-51 7t-42.5 1v91q16 0 45.5 -1t64.5 -3.5t71 -3.5t66 -1q31 0 66 1t68.5 3.5t62.5 3.5t47 1v-91q-16 0 -43 -1t-51.5 -7t-43 -19 t-18.5 -38v-1131q0 -25 18.5 -38t43 -19t51.5 -7t43 -1v-90q-18 0 -47 1t-62.5 3t-68.5 3t-66 1t-66.5 -1t-70.5 -3t-64.5 -3t-45.5 -1z" />
<glyph unicode="&#xcf;" horiz-adv-x="665" d="M20 1782q0 47 35 81.5t82 34.5t82 -34.5t35 -81.5t-35 -82t-82 -35t-82 35t-35 82zM68 -8v90q16 0 42.5 1t51 7t43 19.5t18.5 37.5v1131q0 25 -18.5 38t-43 19t-51 7t-42.5 1v91q16 0 45.5 -1t64.5 -3.5t71 -3.5t66 -1q31 0 66 1t68.5 3.5t62.5 3.5t47 1v-91 q-16 0 -43 -1t-51.5 -7t-43 -19t-18.5 -38v-1131q0 -25 18.5 -38t43 -19t51.5 -7t43 -1v-90q-18 0 -47 1t-62.5 3t-68.5 3t-66 1t-66.5 -1t-70.5 -3t-64.5 -3t-45.5 -1zM369 1782q0 47 34.5 81.5t81.5 34.5t82 -34.5t35 -81.5t-35 -82t-82 -35t-81.5 35t-34.5 82z" />
<glyph unicode="&#xd0;" horiz-adv-x="1427" d="M63 651v123h160v504q0 25 -18.5 38t-43 19t-51 7t-42.5 1v91q16 0 45.5 -1t63.5 -3.5t70 -3.5t66 -1q31 0 68 1t72.5 2.5t64.5 2.5t45 1q166 0 303.5 -43t234.5 -132.5t151.5 -224.5t54.5 -319t-54.5 -319.5t-151.5 -224.5t-234.5 -132t-303.5 -43q-16 0 -45 1t-64.5 2 t-72.5 2t-68 1t-66.5 -1t-69.5 -3t-63.5 -3t-45.5 -1v90q16 0 42.5 1t51 7t43 19.5t18.5 37.5v504h-160zM403 123l156 -4q133 -4 235.5 39t172 121.5t105.5 189.5t36 244q0 131 -36 243.5t-105.5 192.5t-172 124t-235.5 40l-156 -4v-535h314v-123h-314v-528z" />
<glyph unicode="&#xd1;" horiz-adv-x="1566" d="M68 -8v90q16 0 42.5 1t51 7t43 19.5t18.5 37.5v1131q0 25 -18.5 38t-43 19t-51 7t-42.5 1v91q35 0 74.5 -4.5t101.5 -4.5q61 0 100 2.5t74 2.5l743 -1088l2 936q0 25 -18.5 38t-43 19t-51 7t-42.5 1v91q16 0 42.5 -1t57.5 -3.5t62.5 -3.5t62.5 -1q61 0 126.5 4.5 t100.5 4.5v-91q-16 0 -42.5 -1t-51.5 -7t-43 -19t-18 -38v-1278h-150l-788 1161v-1014q0 -25 18 -38t43 -19t51.5 -7t42.5 -1v-90q-16 0 -42.5 1t-57.5 3t-62.5 3t-62.5 1q-61 0 -128 -4t-101 -4zM383 1778q41 49 91 83.5t118 34.5q37 0 67.5 -12t60.5 -27.5t59.5 -27.5 t64.5 -12q41 0 73.5 18t61.5 49l76 -82q-39 -53 -90.5 -87t-118.5 -34q-39 0 -73 12.5t-63.5 26t-57 25.5t-56.5 12q-41 0 -72.5 -15.5t-62.5 -47.5z" />
<glyph unicode="&#xd2;" horiz-adv-x="1468" d="M84 690q0 147 40 284.5t120 244t200.5 170t282.5 63.5q156 0 271.5 -58.5t192.5 -157.5t114.5 -229.5t37.5 -271.5q0 -147 -39.5 -284.5t-119.5 -244t-201 -170t-283 -63.5q-156 0 -271.5 58.5t-192 158t-114.5 229.5t-38 271zM276 731q0 -109 24 -221.5t76 -204.5 t137 -150.5t208 -58.5q109 0 189.5 54.5t134 140.5t80 192.5t26.5 210.5q0 109 -23.5 221.5t-76 204.5t-137.5 150.5t-207 58.5q-109 0 -190 -54t-134 -140t-80 -192.5t-27 -211.5zM467 1800l90 144l348 -250l-63 -97z" />
<glyph unicode="&#xd3;" horiz-adv-x="1468" d="M84 690q0 147 40 284.5t120 244t200.5 170t282.5 63.5q156 0 271.5 -58.5t192.5 -157.5t114.5 -229.5t37.5 -271.5q0 -147 -39.5 -284.5t-119.5 -244t-201 -170t-283 -63.5q-156 0 -271.5 58.5t-192 158t-114.5 229.5t-38 271zM276 731q0 -109 24 -221.5t76 -204.5 t137 -150.5t208 -58.5q109 0 189.5 54.5t134 140.5t80 192.5t26.5 210.5q0 109 -23.5 221.5t-76 204.5t-137.5 150.5t-207 58.5q-109 0 -190 -54t-134 -140t-80 -192.5t-27 -211.5zM516 1694l344 250l90 -144l-375 -203z" />
<glyph unicode="&#xd4;" horiz-adv-x="1468" d="M84 690q0 147 40 284.5t120 244t200.5 170t282.5 63.5q156 0 271.5 -58.5t192.5 -157.5t114.5 -229.5t37.5 -271.5q0 -147 -39.5 -284.5t-119.5 -244t-201 -170t-283 -63.5q-156 0 -271.5 58.5t-192 158t-114.5 229.5t-38 271zM276 731q0 -109 24 -221.5t76 -204.5 t137 -150.5t208 -58.5q109 0 189.5 54.5t134 140.5t80 192.5t26.5 210.5q0 109 -23.5 221.5t-76 204.5t-137.5 150.5t-207 58.5q-109 0 -190 -54t-134 -140t-80 -192.5t-27 -211.5zM367 1694l346 250l350 -250l-64 -97l-286 154l-285 -154z" />
<glyph unicode="&#xd5;" horiz-adv-x="1468" d="M84 690q0 147 40 284.5t120 244t200.5 170t282.5 63.5q156 0 271.5 -58.5t192.5 -157.5t114.5 -229.5t37.5 -271.5q0 -147 -39.5 -284.5t-119.5 -244t-201 -170t-283 -63.5q-156 0 -271.5 58.5t-192 158t-114.5 229.5t-38 271zM276 731q0 -109 24 -221.5t76 -204.5 t137 -150.5t208 -58.5q109 0 189.5 54.5t134 140.5t80 192.5t26.5 210.5q0 109 -23.5 221.5t-76 204.5t-137.5 150.5t-207 58.5q-109 0 -190 -54t-134 -140t-80 -192.5t-27 -211.5zM379 1778q41 49 91 83.5t118 34.5q37 0 67.5 -12t60 -27.5t59.5 -27.5t65 -12q41 0 73.5 18 t61.5 49l76 -82q-39 -53 -90.5 -87t-118.5 -34q-39 0 -73 12.5t-63.5 26t-57 25.5t-56.5 12q-41 0 -73 -15.5t-62 -47.5z" />
<glyph unicode="&#xd6;" horiz-adv-x="1468" d="M84 690q0 147 40 284.5t120 244t200.5 170t282.5 63.5q156 0 271.5 -58.5t192.5 -157.5t114.5 -229.5t37.5 -271.5q0 -147 -39.5 -284.5t-119.5 -244t-201 -170t-283 -63.5q-156 0 -271.5 58.5t-192 158t-114.5 229.5t-38 271zM276 731q0 -109 24 -221.5t76 -204.5 t137 -150.5t208 -58.5q109 0 189.5 54.5t134 140.5t80 192.5t26.5 210.5q0 109 -23.5 221.5t-76 204.5t-137.5 150.5t-207 58.5q-109 0 -190 -54t-134 -140t-80 -192.5t-27 -211.5zM424 1782q0 47 35 81.5t82 34.5t81.5 -34.5t34.5 -81.5t-34.5 -82t-81.5 -35t-82 35t-35 82 zM772 1782q0 47 35 81.5t82 34.5t82 -34.5t35 -81.5t-35 -82t-82 -35t-82 35t-35 82z" />
<glyph unicode="&#xd7;" d="M170 256l291 291l-291 291l102 100l289 -289l291 289l100 -98l-290 -291l290 -291l-102 -100l-289 288l-291 -288z" />
<glyph unicode="&#xd8;" horiz-adv-x="1468" d="M84 690q0 147 40 284.5t120 244t200.5 170t282.5 63.5q92 0 171 -21.5t144 -60.5l86 150h142l-131 -226q104 -104 154 -248.5t50 -310.5q0 -147 -39.5 -284.5t-119.5 -244t-201 -170t-283 -63.5q-86 0 -155.5 17.5t-128.5 48.5l-90 -154h-140l129 224 q-117 100 -174 253.5t-57 327.5zM276 731q0 -123 30 -248t97 -223l560 973q-47 45 -112 70.5t-144 25.5q-109 0 -190 -54t-134 -140t-80 -192.5t-27 -211.5zM489 170q47 -35 103.5 -54.5t128.5 -19.5q109 0 189.5 54.5t134 140.5t80 192.5t26.5 210.5q0 113 -24.5 228.5 t-79.5 210.5z" />
<glyph unicode="&#xd9;" horiz-adv-x="1519" d="M68 1343v91q16 0 45.5 -1t63.5 -3.5t70 -3.5t66 -1q31 0 67 1t69.5 3.5t63.5 3.5t46 1v-91q-16 0 -43 -2t-51.5 -9t-43 -21.5t-18.5 -38.5v-826q0 -166 89.5 -245.5t255.5 -79.5q178 0 268 85t90 265v807q0 25 -18.5 38t-43 19t-51 7t-43.5 1v91q16 0 43 -1t58.5 -3.5 t64.5 -3.5t64 -1q61 0 127.5 4.5t101.5 4.5v-91q-16 0 -43 -2t-51.5 -9t-42 -21.5t-17.5 -38.5v-791q0 -252 -137 -380t-379 -128q-117 0 -212 26t-162.5 81t-104.5 143t-37 211v844q0 25 -18.5 38t-43 19t-51 7t-42.5 1zM473 1800l90 144l348 -250l-63 -97z" />
<glyph unicode="&#xda;" horiz-adv-x="1519" d="M68 1343v91q16 0 45.5 -1t63.5 -3.5t70 -3.5t66 -1q31 0 67 1t69.5 3.5t63.5 3.5t46 1v-91q-16 0 -43 -2t-51.5 -9t-43 -21.5t-18.5 -38.5v-826q0 -166 89.5 -245.5t255.5 -79.5q178 0 268 85t90 265v807q0 25 -18.5 38t-43 19t-51 7t-43.5 1v91q16 0 43 -1t58.5 -3.5 t64.5 -3.5t64 -1q61 0 127.5 4.5t101.5 4.5v-91q-16 0 -43 -2t-51.5 -9t-42 -21.5t-17.5 -38.5v-791q0 -252 -137 -380t-379 -128q-117 0 -212 26t-162.5 81t-104.5 143t-37 211v844q0 25 -18.5 38t-43 19t-51 7t-42.5 1zM553 1694l344 250l90 -144l-375 -203z" />
<glyph unicode="&#xdb;" horiz-adv-x="1519" d="M68 1343v91q16 0 45.5 -1t63.5 -3.5t70 -3.5t66 -1q31 0 67 1t69.5 3.5t63.5 3.5t46 1v-91q-16 0 -43 -2t-51.5 -9t-43 -21.5t-18.5 -38.5v-826q0 -166 89.5 -245.5t255.5 -79.5q178 0 268 85t90 265v807q0 25 -18.5 38t-43 19t-51 7t-43.5 1v91q16 0 43 -1t58.5 -3.5 t64.5 -3.5t64 -1q61 0 127.5 4.5t101.5 4.5v-91q-16 0 -43 -2t-51.5 -9t-42 -21.5t-17.5 -38.5v-791q0 -252 -137 -380t-379 -128q-117 0 -212 26t-162.5 81t-104.5 143t-37 211v844q0 25 -18.5 38t-43 19t-51 7t-42.5 1zM399 1694l346 250l351 -250l-64 -97l-287 154 l-284 -154z" />
<glyph unicode="&#xdc;" horiz-adv-x="1519" d="M68 1343v91q16 0 45.5 -1t63.5 -3.5t70 -3.5t66 -1q31 0 67 1t69.5 3.5t63.5 3.5t46 1v-91q-16 0 -43 -2t-51.5 -9t-43 -21.5t-18.5 -38.5v-826q0 -166 89.5 -245.5t255.5 -79.5q178 0 268 85t90 265v807q0 25 -18.5 38t-43 19t-51 7t-43.5 1v91q16 0 43 -1t58.5 -3.5 t64.5 -3.5t64 -1q61 0 127.5 4.5t101.5 4.5v-91q-16 0 -43 -2t-51.5 -9t-42 -21.5t-17.5 -38.5v-791q0 -252 -137 -380t-379 -128q-117 0 -212 26t-162.5 81t-104.5 143t-37 211v844q0 25 -18.5 38t-43 19t-51 7t-42.5 1zM453 1782q0 47 34.5 81.5t81.5 34.5t82 -34.5 t35 -81.5t-35 -82t-82 -35t-81.5 35t-34.5 82zM801 1782q0 47 34.5 81.5t82.5 34.5q47 0 81.5 -34.5t34.5 -81.5t-34.5 -82t-81.5 -35t-82 35t-35 82z" />
<glyph unicode="&#xdd;" horiz-adv-x="1349" d="M68 1343v91q35 0 76.5 -4.5t103.5 -4.5q31 0 71.5 1t80.5 3.5t75 3.5t51 1v-91q-8 0 -37.5 -2t-59.5 -8t-50.5 -18t-9.5 -31l301 -571l299 571q10 20 -8.5 31.5t-47 17.5t-57.5 8t-37 2v91q16 0 48 -1t70 -3.5t76 -3.5t68 -1q61 0 93 4.5t67 4.5v-91q-8 0 -26.5 -3 t-39 -11t-40 -21.5t-29.5 -33.5l-367 -699l2 -428q0 -25 18.5 -38t43 -19t50.5 -7t42 -1v-90q-16 0 -46 1t-63.5 3t-69.5 3t-67 1t-66.5 -1t-69.5 -3t-63.5 -3t-46.5 -1v90q16 0 43 1t52.5 7t44 19.5t18.5 37.5v428l-371 699q-10 20 -27.5 33.5t-35.5 21.5t-34.5 11t-24.5 3 zM508 1694l344 250l90 -144l-375 -203z" />
<glyph unicode="&#xde;" horiz-adv-x="1148" d="M68 -8v90q16 0 42.5 1t51 7t43 19.5t18.5 37.5v1131q0 25 -18.5 38t-43 19t-51 7t-42.5 1v91q16 0 45.5 -1t64.5 -3.5t71 -3.5t66 -1q31 0 66 1t68.5 3.5t62.5 3.5t47 1v-91q-16 0 -43 -1t-51.5 -7t-43 -19t-18.5 -38v-154h97q86 0 180 -18.5t171 -64.5t127 -125.5 t50 -202.5t-50 -203t-127 -126t-171 -64.5t-180 -18.5h-97v-154q0 -25 18.5 -38t43 -19t51.5 -7t43 -1v-90q-16 0 -46 1t-63.5 3t-69.5 3t-67 1t-66.5 -1t-69.5 -3t-63.5 -3t-45.5 -1zM403 420h115q143 0 232.5 70.5t89.5 222.5t-89 222.5t-233 70.5h-115v-586z" />
<glyph unicode="&#xdf;" horiz-adv-x="1261" d="M68 -8v90q16 0 42.5 1t51 7t43 19.5t18.5 37.5v857q0 211 93.5 320.5t267.5 109.5q63 0 123.5 -16.5t108.5 -52.5t78 -90t30 -130q0 -78 -31 -126t-69 -86t-68.5 -75t-30.5 -90q0 -37 33 -62.5t81 -49t105 -50t105.5 -64.5t81 -92.5t32.5 -132.5q0 -86 -28.5 -150.5 t-79.5 -107.5t-120 -64.5t-149 -21.5q-63 0 -127.5 14.5t-123.5 43.5v219h88q0 -35 9 -75t13 -44q39 -20 82 -26.5t86 -6.5q74 0 130 51.5t56 131.5q0 59 -31.5 97t-78.5 66.5t-102.5 53t-102.5 58.5t-79 84t-32 128q0 68 29 112t64.5 81.5t64.5 78.5t29 105q0 82 -54.5 123 t-125.5 41q-94 0 -141.5 -70t-47.5 -219v-1020q-31 0 -78 -1t-96 -3t-91 -3t-58 -1z" />
<glyph unicode="&#xe0;" horiz-adv-x="972" d="M78 223q0 90 50 145.5t128 90.5t175 56.5t190 43.5v152q0 106 -48.5 157.5t-154.5 51.5q-76 0 -135.5 -32t-73.5 -118h-72v180q86 51 159 76t171 25q156 0 241 -76t85 -238v-532q0 -43 4 -63.5t14 -30.5q12 -10 45 -15.5t49 -7.5v-88h-170q-27 0 -46 12.5t-31.5 29.5 t-19.5 36.5t-9 34.5q-57 -57 -126 -98.5t-155 -41.5q-117 0 -193.5 66.5t-76.5 183.5zM156 1391l90 143l348 -250l-64 -96zM246 252q0 -78 43 -107.5t112 -29.5q25 0 55.5 10t61.5 26.5t58 36t45 37.5v236q-49 -12 -114 -26.5t-123 -37t-98 -57.5t-40 -88z" />
<glyph unicode="&#xe1;" horiz-adv-x="972" d="M78 223q0 90 50 145.5t128 90.5t175 56.5t190 43.5v152q0 106 -48.5 157.5t-154.5 51.5q-76 0 -135.5 -32t-73.5 -118h-72v180q86 51 159 76t171 25q156 0 241 -76t85 -238v-532q0 -43 4 -63.5t14 -30.5q12 -10 45 -15.5t49 -7.5v-88h-170q-27 0 -46 12.5t-31.5 29.5 t-19.5 36.5t-9 34.5q-57 -57 -126 -98.5t-155 -41.5q-117 0 -193.5 66.5t-76.5 183.5zM246 252q0 -78 43 -107.5t112 -29.5q25 0 55.5 10t61.5 26.5t58 36t45 37.5v236q-49 -12 -114 -26.5t-123 -37t-98 -57.5t-40 -88zM297 1284l344 250l90 -143l-375 -203z" />
<glyph unicode="&#xe2;" horiz-adv-x="972" d="M78 223q0 90 50 145.5t128 90.5t175 56.5t190 43.5v152q0 106 -48.5 157.5t-154.5 51.5q-76 0 -135.5 -32t-73.5 -118h-72v180q86 51 159 76t171 25q156 0 241 -76t85 -238v-532q0 -43 4 -63.5t14 -30.5q12 -10 45 -15.5t49 -7.5v-88h-170q-27 0 -46 12.5t-31.5 29.5 t-19.5 36.5t-9 34.5q-57 -57 -126 -98.5t-155 -41.5q-117 0 -193.5 66.5t-76.5 183.5zM113 1284l346 250l350 -250l-64 -96l-286 153l-285 -153zM246 252q0 -78 43 -107.5t112 -29.5q25 0 55.5 10t61.5 26.5t58 36t45 37.5v236q-49 -12 -114 -26.5t-123 -37t-98 -57.5 t-40 -88z" />
<glyph unicode="&#xe3;" horiz-adv-x="972" d="M78 223q0 90 50 145.5t128 90.5t175 56.5t190 43.5v152q0 106 -48.5 157.5t-154.5 51.5q-76 0 -135.5 -32t-73.5 -118h-72v180q86 51 159 76t171 25q156 0 241 -76t85 -238v-532q0 -43 4 -63.5t14 -30.5q12 -10 45 -15.5t49 -7.5v-88h-170q-27 0 -46 12.5t-31.5 29.5 t-19.5 36.5t-9 34.5q-57 -57 -126 -98.5t-155 -41.5q-117 0 -193.5 66.5t-76.5 183.5zM123 1368q41 49 91 84t118 35q37 0 67.5 -12.5t60 -27.5t59.5 -27.5t65 -12.5q41 0 73.5 18.5t61.5 49.5l76 -82q-39 -53 -90.5 -87t-118.5 -34q-39 0 -73 12t-63.5 25.5t-57 26 t-56.5 12.5q-41 0 -73 -15.5t-62 -48.5zM246 252q0 -78 43 -107.5t112 -29.5q25 0 55.5 10t61.5 26.5t58 36t45 37.5v236q-49 -12 -114 -26.5t-123 -37t-98 -57.5t-40 -88z" />
<glyph unicode="&#xe4;" horiz-adv-x="972" d="M78 223q0 90 50 145.5t128 90.5t175 56.5t190 43.5v152q0 106 -48.5 157.5t-154.5 51.5q-76 0 -135.5 -32t-73.5 -118h-72v180q86 51 159 76t171 25q156 0 241 -76t85 -238v-532q0 -43 4 -63.5t14 -30.5q12 -10 45 -15.5t49 -7.5v-88h-170q-27 0 -46 12.5t-31.5 29.5 t-19.5 36.5t-9 34.5q-57 -57 -126 -98.5t-155 -41.5q-117 0 -193.5 66.5t-76.5 183.5zM172 1372q0 47 35 82t82 35t82 -35t35 -82t-35 -82t-82 -35t-82 35t-35 82zM246 252q0 -78 43 -107.5t112 -29.5q25 0 55.5 10t61.5 26.5t58 36t45 37.5v236q-49 -12 -114 -26.5 t-123 -37t-98 -57.5t-40 -88zM520 1372q0 47 35 82t82 35t82 -35t35 -82t-35 -82t-82 -35t-82 35t-35 82z" />
<glyph unicode="&#xe5;" horiz-adv-x="972" d="M78 223q0 90 50 145.5t128 90.5t175 56.5t190 43.5v152q0 106 -48.5 157.5t-154.5 51.5q-76 0 -135.5 -32t-73.5 -118h-72v180q86 51 159 76t171 25q156 0 241 -76t85 -238v-532q0 -43 4 -63.5t14 -30.5q12 -10 45 -15.5t49 -7.5v-88h-170q-27 0 -46 12.5t-31.5 29.5 t-19.5 36.5t-9 34.5q-57 -57 -126 -98.5t-155 -41.5q-117 0 -193.5 66.5t-76.5 183.5zM242 1382q0 45 17 86t47 71t70 47.5t85 17.5t85 -17.5t69.5 -47.5t47 -71t17.5 -86t-17.5 -85t-47 -70.5t-69.5 -48t-85 -17.5t-85 17.5t-70 48t-47 70.5t-17 85zM246 252 q0 -78 43 -107.5t112 -29.5q25 0 55.5 10t61.5 26.5t58 36t45 37.5v236q-49 -12 -114 -26.5t-123 -37t-98 -57.5t-40 -88zM354 1382q0 -45 31 -75.5t76 -30.5t75.5 30.5t30.5 75.5t-30.5 76t-75.5 31t-76 -31t-31 -76z" />
<glyph unicode="&#xe6;" horiz-adv-x="1572" d="M78 223q0 90 50 145.5t128 90.5t175 56.5t190 43.5v152q0 106 -48.5 157.5t-154.5 51.5q-76 0 -135.5 -32t-73.5 -118h-72v180q86 51 159 76t171 25q106 0 180 -35t111 -109q57 66 140 105t189 39q102 0 175 -42t120.5 -112t69 -161t21.5 -187h-672q0 -10 -2 -28.5 t-2 -28.5q0 -186 76.5 -282.5t242.5 -96.5q78 0 151.5 33.5t155.5 82.5v-120q-86 -63 -183 -99.5t-202 -36.5q-123 0 -205.5 50.5t-132.5 132.5q-59 -82 -150 -132.5t-202 -50.5q-117 0 -193.5 66.5t-76.5 183.5zM246 252q0 -78 43 -107.5t112 -29.5q25 0 55.5 10t61.5 26.5 t58 36t45 37.5v236q-49 -12 -114 -26.5t-123 -37t-98 -57.5t-40 -88zM813 657h485q-4 41 -16 87.5t-37.5 84t-66.5 63.5t-103 26q-63 0 -108 -23t-76 -59.5t-49.5 -83.5t-28.5 -95z" />
<glyph unicode="&#xe7;" horiz-adv-x="956" d="M88 489q0 106 26.5 207t82 179.5t141.5 127t205 48.5q72 0 147.5 -23.5t145.5 -73.5v-184h-76q-8 43 -33 71.5t-57.5 46t-69.5 25t-70 7.5q-80 0 -131 -36t-80.5 -93.5t-41 -128t-11.5 -138.5q0 -76 12.5 -149.5t44 -131t87 -93t139.5 -35.5q68 0 133.5 26.5t134.5 67.5 l29 -109q-66 -47 -135.5 -79.5t-145.5 -43.5l-30 -96q31 -16 65.5 -34.5t62 -42t46 -54.5t18.5 -74q0 -53 -21.5 -87.5t-55.5 -54t-76 -28t-85 -8.5q-59 0 -118 27l18 92q18 -6 50 -12t62.5 -4t52 15t21.5 46q0 25 -21.5 46.5t-52 40t-63 31.5t-53.5 21l61 174 q-96 12 -164.5 59.5t-111.5 118t-62.5 157.5t-19.5 179z" />
<glyph unicode="&#xe8;" horiz-adv-x="1030" d="M80 489q0 106 28.5 208t86 180.5t144.5 126t206 47.5q102 0 175 -42t120 -112t68.5 -161t21.5 -187h-672q0 -10 -2 -28.5t-2 -28.5q0 -186 77 -282.5t242 -96.5q78 0 152 33.5t156 82.5v-120q-86 -63 -183.5 -99.5t-201.5 -36.5q-113 0 -192 45t-129 118t-72.5 165 t-22.5 188zM236 1391l90 143l348 -250l-64 -96zM270 657h486q-4 41 -16.5 87.5t-38 84t-66.5 63.5t-103 26q-63 0 -108 -23t-76 -59.5t-49 -83.5t-29 -95z" />
<glyph unicode="&#xe9;" horiz-adv-x="1030" d="M80 489q0 106 28.5 208t86 180.5t144.5 126t206 47.5q102 0 175 -42t120 -112t68.5 -161t21.5 -187h-672q0 -10 -2 -28.5t-2 -28.5q0 -186 77 -282.5t242 -96.5q78 0 152 33.5t156 82.5v-120q-86 -63 -183.5 -99.5t-201.5 -36.5q-113 0 -192 45t-129 118t-72.5 165 t-22.5 188zM270 657h486q-4 41 -16.5 87.5t-38 84t-66.5 63.5t-103 26q-63 0 -108 -23t-76 -59.5t-49 -83.5t-29 -95zM371 1284l344 250l90 -143l-375 -203z" />
<glyph unicode="&#xea;" horiz-adv-x="1030" d="M80 489q0 106 28.5 208t86 180.5t144.5 126t206 47.5q102 0 175 -42t120 -112t68.5 -161t21.5 -187h-672q0 -10 -2 -28.5t-2 -28.5q0 -186 77 -282.5t242 -96.5q78 0 152 33.5t156 82.5v-120q-86 -63 -183.5 -99.5t-201.5 -36.5q-113 0 -192 45t-129 118t-72.5 165 t-22.5 188zM186 1284l346 250l351 -250l-64 -96l-287 153l-284 -153zM270 657h486q-4 41 -16.5 87.5t-38 84t-66.5 63.5t-103 26q-63 0 -108 -23t-76 -59.5t-49 -83.5t-29 -95z" />
<glyph unicode="&#xeb;" horiz-adv-x="1030" d="M80 489q0 106 28.5 208t86 180.5t144.5 126t206 47.5q102 0 175 -42t120 -112t68.5 -161t21.5 -187h-672q0 -10 -2 -28.5t-2 -28.5q0 -186 77 -282.5t242 -96.5q78 0 152 33.5t156 82.5v-120q-86 -63 -183.5 -99.5t-201.5 -36.5q-113 0 -192 45t-129 118t-72.5 165 t-22.5 188zM238 1372q0 47 34.5 82t81.5 35t82 -35t35 -82t-35 -82t-82 -35t-81.5 35t-34.5 82zM270 657h486q-4 41 -16.5 87.5t-38 84t-66.5 63.5t-103 26q-63 0 -108 -23t-76 -59.5t-49 -83.5t-29 -95zM586 1372q0 47 34.5 82t81.5 35t82 -35t35 -82t-34.5 -82t-82.5 -35 q-47 0 -81.5 35t-34.5 82z" />
<glyph unicode="&#xec;" horiz-adv-x="618" d="M-41 1391l90 143l348 -250l-63 -96zM47 901v82q59 6 118.5 18.5t110.5 24.5q29 8 57.5 15.5t57.5 17.5v-912q0 -25 18.5 -38t43 -19t50 -7t42.5 -1v-90q-16 0 -45 1t-61.5 3t-67.5 3t-66 1t-65.5 -1t-67.5 -3t-61.5 -3t-44.5 -1v90q14 0 40.5 1t51 7t43 19.5t18.5 37.5 v682q0 47 -34.5 59.5t-108.5 12.5h-29z" />
<glyph unicode="&#xed;" horiz-adv-x="618" d="M47 901v82q59 6 118.5 18.5t110.5 24.5q29 8 57.5 15.5t57.5 17.5v-912q0 -25 18.5 -38t43 -19t50 -7t42.5 -1v-90q-16 0 -45 1t-61.5 3t-67.5 3t-66 1t-65.5 -1t-67.5 -3t-61.5 -3t-44.5 -1v90q14 0 40.5 1t51 7t43 19.5t18.5 37.5v682q0 47 -34.5 59.5t-108.5 12.5h-29 zM129 1284l344 250l90 -143l-375 -203z" />
<glyph unicode="&#xee;" horiz-adv-x="618" d="M-55 1284l346 250l350 -250l-63 -96l-287 153l-285 -153zM47 901v82q59 6 118.5 18.5t110.5 24.5q29 8 57.5 15.5t57.5 17.5v-912q0 -25 18.5 -38t43 -19t50 -7t42.5 -1v-90q-16 0 -45 1t-61.5 3t-67.5 3t-66 1t-65.5 -1t-67.5 -3t-61.5 -3t-44.5 -1v90q14 0 40.5 1t51 7 t43 19.5t18.5 37.5v682q0 47 -34.5 59.5t-108.5 12.5h-29z" />
<glyph unicode="&#xef;" horiz-adv-x="618" d="M6 1372q0 47 35 82t82 35t82 -35t35 -82t-35 -82t-82 -35t-82 35t-35 82zM47 901v82q59 6 118.5 18.5t110.5 24.5q29 8 57.5 15.5t57.5 17.5v-912q0 -25 18.5 -38t43 -19t50 -7t42.5 -1v-90q-16 0 -45 1t-61.5 3t-67.5 3t-66 1t-65.5 -1t-67.5 -3t-61.5 -3t-44.5 -1v90 q14 0 40.5 1t51 7t43 19.5t18.5 37.5v682q0 47 -34.5 59.5t-108.5 12.5h-29zM354 1372q0 47 35 82t82 35t82 -35t35 -82t-35 -82t-82 -35t-82 35t-35 82z" />
<glyph unicode="&#xf0;" horiz-adv-x="1105" d="M80 496q0 111 28.5 211t88 177t149.5 122t213 45q61 0 123 -17q-29 49 -63.5 95.5t-67.5 87.5l-268 -68l-37 135l196 51q-49 49 -98 93.5t-98 87.5h231q35 -29 69 -62t70 -74l287 74l37 -135l-219 -57q51 -68 104.5 -148t95.5 -171t68.5 -194.5t26.5 -222.5 q0 -111 -29 -210t-88 -176t-149.5 -122t-212.5 -45q-115 0 -201 43t-143.5 115t-85 166t-27.5 199zM264 522q0 -55 11.5 -127.5t41 -139.5t83 -113t137.5 -46q82 0 138 34t91 90t50 129t15 151q0 55 -11 128.5t-40.5 140.5t-83 113t-137.5 46q-82 0 -138 -34t-91 -91.5 t-50.5 -130t-15.5 -150.5z" />
<glyph unicode="&#xf1;" horiz-adv-x="1273" d="M51 901v80q61 6 123 19.5t111 25.5q29 8 56.5 15.5t55.5 17.5v-135q76 55 151 91t179 36q147 0 232 -75t85 -228v-601q0 -25 18.5 -38t43 -19t51.5 -7t43 -1v-90q-16 0 -45 1t-62.5 3t-68.5 3t-66 1t-66.5 -1t-69.5 -3t-62.5 -3t-44.5 -1v90q16 0 42.5 1t51.5 7t43 19.5 t18 37.5v420q0 25 1 56.5t-1 64.5t-6 63.5t-14 55.5q-18 45 -64.5 72.5t-134.5 27.5q-72 0 -135 -26.5t-119 -71.5v-662q0 -25 18.5 -38t44 -19t52.5 -7t43 -1v-90q-18 0 -47 1t-62.5 3t-68.5 3t-66 1t-65.5 -1t-68.5 -3t-62.5 -3t-44.5 -1v90q16 0 42.5 1t51 7t43 19.5 t18.5 37.5v680q0 47 -33.5 60.5t-111.5 13.5h-29zM272 1368q41 49 91.5 84t117.5 35q37 0 68 -12.5t60.5 -27.5t59 -27.5t64.5 -12.5q41 0 74 18.5t61 49.5l76 -82q-39 -53 -90 -87t-119 -34q-39 0 -72.5 12t-63.5 25.5t-57.5 26t-56.5 12.5q-41 0 -72.5 -15.5t-62.5 -48.5z " />
<glyph unicode="&#xf2;" horiz-adv-x="1105" d="M80 496q0 111 28.5 211t88 177t149.5 122t213 45q115 0 201 -43t142 -116t85 -167.5t29 -198.5q0 -111 -29 -210t-88 -176t-149.5 -122t-212.5 -45q-115 0 -201 43t-143.5 115t-85 166t-27.5 199zM264 522q0 -55 11.5 -127.5t41 -139.5t83 -113t137.5 -46q82 0 138 34 t91 90t50 129t15 151q0 55 -11 128.5t-40.5 140.5t-83 113t-137.5 46q-82 0 -138 -34t-91 -91.5t-50.5 -130t-15.5 -150.5zM266 1391l90 143l349 -250l-64 -96z" />
<glyph unicode="&#xf3;" horiz-adv-x="1105" d="M80 496q0 111 28.5 211t88 177t149.5 122t213 45q115 0 201 -43t142 -116t85 -167.5t29 -198.5q0 -111 -29 -210t-88 -176t-149.5 -122t-212.5 -45q-115 0 -201 43t-143.5 115t-85 166t-27.5 199zM264 522q0 -55 11.5 -127.5t41 -139.5t83 -113t137.5 -46q82 0 138 34 t91 90t50 129t15 151q0 55 -11 128.5t-40.5 140.5t-83 113t-137.5 46q-82 0 -138 -34t-91 -91.5t-50.5 -130t-15.5 -150.5zM389 1284l344 250l90 -143l-374 -203z" />
<glyph unicode="&#xf4;" horiz-adv-x="1105" d="M80 496q0 111 28.5 211t88 177t149.5 122t213 45q115 0 201 -43t142 -116t85 -167.5t29 -198.5q0 -111 -29 -210t-88 -176t-149.5 -122t-212.5 -45q-115 0 -201 43t-143.5 115t-85 166t-27.5 199zM209 1284l346 250l350 -250l-63 -96l-287 153l-285 -153zM264 522 q0 -55 11.5 -127.5t41 -139.5t83 -113t137.5 -46q82 0 138 34t91 90t50 129t15 151q0 55 -11 128.5t-40.5 140.5t-83 113t-137.5 46q-82 0 -138 -34t-91 -91.5t-50.5 -130t-15.5 -150.5z" />
<glyph unicode="&#xf5;" horiz-adv-x="1105" d="M80 496q0 111 28.5 211t88 177t149.5 122t213 45q115 0 201 -43t142 -116t85 -167.5t29 -198.5q0 -111 -29 -210t-88 -176t-149.5 -122t-212.5 -45q-115 0 -201 43t-143.5 115t-85 166t-27.5 199zM223 1368q41 49 91.5 84t117.5 35q37 0 67.5 -12.5t60.5 -27.5 t59.5 -27.5t64.5 -12.5q41 0 74 18.5t61 49.5l76 -82q-39 -53 -90 -87t-119 -34q-39 0 -72.5 12t-63.5 25.5t-57.5 26t-56.5 12.5q-41 0 -72.5 -15.5t-62.5 -48.5zM264 522q0 -55 11.5 -127.5t41 -139.5t83 -113t137.5 -46q82 0 138 34t91 90t50 129t15 151q0 55 -11 128.5 t-40.5 140.5t-83 113t-137.5 46q-82 0 -138 -34t-91 -91.5t-50.5 -130t-15.5 -150.5z" />
<glyph unicode="&#xf6;" horiz-adv-x="1105" d="M80 496q0 111 28.5 211t88 177t149.5 122t213 45q115 0 201 -43t142 -116t85 -167.5t29 -198.5q0 -111 -29 -210t-88 -176t-149.5 -122t-212.5 -45q-115 0 -201 43t-143.5 115t-85 166t-27.5 199zM260 1372q0 47 35 82t82 35t82 -35t35 -82t-35 -82t-82 -35t-82 35 t-35 82zM264 522q0 -55 11.5 -127.5t41 -139.5t83 -113t137.5 -46q82 0 138 34t91 90t50 129t15 151q0 55 -11 128.5t-40.5 140.5t-83 113t-137.5 46q-82 0 -138 -34t-91 -91.5t-50.5 -130t-15.5 -150.5zM608 1372q0 47 35 82t82 35t82 -35t35 -82t-35 -82t-82 -35t-82 35 t-35 82z" />
<glyph unicode="&#xf7;" d="M90 477v141h942v-141h-942zM444 246q0 47 35 81.5t82 34.5t82 -34.5t35 -81.5t-35 -82t-82 -35t-82 35t-35 82zM444 850q0 47 35 82t82 35t82 -35t35 -82t-35 -82t-82 -35t-82 35t-35 82z" />
<glyph unicode="&#xf8;" horiz-adv-x="1105" d="M80 496q0 111 28.5 211t88 177t149.5 122t213 45q121 0 211 -47l78 135h141l-121 -209q74 -74 111 -179.5t37 -224.5q0 -111 -29 -210t-88 -176t-149.5 -122t-212.5 -45q-106 0 -199 41l-76 -129h-139l115 197q-80 74 -119 182.5t-39 231.5zM264 522q0 -59 13.5 -138 t48.5 -148l372 645q-29 23 -62.5 35t-76.5 12q-82 0 -138 -34t-91 -91.5t-50.5 -130t-15.5 -150.5zM408 135q53 -39 129 -39q82 0 138 34t91 90t50 129t15 151q0 55 -11 131t-42 143z" />
<glyph unicode="&#xf9;" horiz-adv-x="1277" d="M49 899v78q59 6 121.5 19.5t116.5 25.5q29 8 58.5 15t57.5 18v-736q0 -111 57.5 -156.5t162.5 -45.5q137 0 247 98v612q0 45 -38.5 58.5t-116.5 13.5h-41v78q59 6 125.5 19.5t120.5 25.5q33 8 63.5 15t60.5 18v-852q0 -43 4.5 -62.5t14.5 -29.5q16 -14 45 -16.5t49 -6.5 v-88h-168q-29 0 -48 12.5t-31.5 30.5t-19.5 37.5t-9 34.5q-70 -61 -146 -101.5t-186 -40.5q-147 0 -231.5 77t-84.5 231v546q0 45 -33.5 58.5t-111.5 13.5h-39zM293 1391l90 143l348 -250l-63 -96z" />
<glyph unicode="&#xfa;" horiz-adv-x="1277" d="M49 899v78q59 6 121.5 19.5t116.5 25.5q29 8 58.5 15t57.5 18v-736q0 -111 57.5 -156.5t162.5 -45.5q137 0 247 98v612q0 45 -38.5 58.5t-116.5 13.5h-41v78q59 6 125.5 19.5t120.5 25.5q33 8 63.5 15t60.5 18v-852q0 -43 4.5 -62.5t14.5 -29.5q16 -14 45 -16.5t49 -6.5 v-88h-168q-29 0 -48 12.5t-31.5 30.5t-19.5 37.5t-9 34.5q-70 -61 -146 -101.5t-186 -40.5q-147 0 -231.5 77t-84.5 231v546q0 45 -33.5 58.5t-111.5 13.5h-39zM430 1284l344 250l90 -143l-375 -203z" />
<glyph unicode="&#xfb;" horiz-adv-x="1277" d="M49 899v78q59 6 121.5 19.5t116.5 25.5q29 8 58.5 15t57.5 18v-736q0 -111 57.5 -156.5t162.5 -45.5q137 0 247 98v612q0 45 -38.5 58.5t-116.5 13.5h-41v78q59 6 125.5 19.5t120.5 25.5q33 8 63.5 15t60.5 18v-852q0 -43 4.5 -62.5t14.5 -29.5q16 -14 45 -16.5t49 -6.5 v-88h-168q-29 0 -48 12.5t-31.5 30.5t-19.5 37.5t-9 34.5q-70 -61 -146 -101.5t-186 -40.5q-147 0 -231.5 77t-84.5 231v546q0 45 -33.5 58.5t-111.5 13.5h-39zM244 1284l346 250l350 -250l-63 -96l-287 153l-285 -153z" />
<glyph unicode="&#xfc;" horiz-adv-x="1277" d="M49 899v78q59 6 121.5 19.5t116.5 25.5q29 8 58.5 15t57.5 18v-736q0 -111 57.5 -156.5t162.5 -45.5q137 0 247 98v612q0 45 -38.5 58.5t-116.5 13.5h-41v78q59 6 125.5 19.5t120.5 25.5q33 8 63.5 15t60.5 18v-852q0 -43 4.5 -62.5t14.5 -29.5q16 -14 45 -16.5t49 -6.5 v-88h-168q-29 0 -48 12.5t-31.5 30.5t-19.5 37.5t-9 34.5q-70 -61 -146 -101.5t-186 -40.5q-147 0 -231.5 77t-84.5 231v546q0 45 -33.5 58.5t-111.5 13.5h-39zM324 1372q0 47 34.5 82t81.5 35t82 -35t35 -82t-35 -82t-82 -35t-81.5 35t-34.5 82zM672 1372q0 47 34.5 82 t81.5 35t82 -35t35 -82t-34.5 -82t-82.5 -35q-47 0 -81.5 35t-34.5 82z" />
<glyph unicode="&#xfd;" horiz-adv-x="1185" d="M49 942v90q35 0 82 -4t109 -4q31 0 72.5 1t83.5 3t78 3t54 1v-90h-46.5t-60.5 -5t-48.5 -17.5t-10.5 -34.5l240 -688l238 688q8 23 -12.5 35t-51.5 17t-63.5 5h-48.5v90q16 0 50 -1t72.5 -3t77.5 -3t70 -1q61 0 102 4t76 4v-90q-37 0 -80 -11t-59 -57l-408 -1175 q-41 -117 -115.5 -161t-185.5 -44q-35 0 -58.5 4t-72.5 21l43 119q18 -6 30.5 -10.5t24 -6.5t25.5 -3t37 -1q45 0 86 26.5t57 77.5l74 211l-328 942q-16 45 -57 56.5t-76 11.5zM430 1284l344 250l90 -143l-375 -203z" />
<glyph unicode="&#xfe;" horiz-adv-x="1181" d="M51 1440v80q59 6 118.5 19t111.5 26q29 8 57.5 15t56.5 17v-677q63 57 137 94t162 37q104 0 178 -43t121 -113t69.5 -157t22.5 -175q0 -115 -31.5 -221t-95 -189t-157.5 -132.5t-217 -49.5q-41 0 -94.5 13.5t-94.5 40.5v-396q0 -25 18.5 -38t44 -19t52.5 -7t43 -1v-90 q-18 0 -47 1t-62.5 3t-68.5 3t-66 1t-65.5 -1t-68.5 -3t-62.5 -3t-44.5 -1v90q16 0 42.5 1t51 7t43 19.5t18.5 37.5v1737q0 47 -33.5 60.5t-109.5 13.5h-29zM395 164q41 -25 90.5 -41.5t102.5 -16.5q90 0 151.5 35t98 92.5t52 132t15.5 154.5q0 70 -14 138.5t-47 124t-86 89 t-131 33.5q-68 0 -123 -30.5t-109 -75.5v-635z" />
<glyph unicode="&#xff;" horiz-adv-x="1202" d="M43 942v90q35 0 82 -4t108 -4q31 0 73 1t84 3t78 3t54 1v-90h-47t-60.5 -5t-48 -17.5t-10.5 -34.5l240 -688l238 688q8 23 -12.5 35t-51.5 17t-63.5 5h-49.5v90q16 0 50 -1t73 -3t78 -3t70 -1q61 0 102 4t76 4v-90q-37 0 -80 -11t-59 -57l-408 -1175 q-41 -117 -115.5 -161t-185.5 -44q-35 0 -58.5 4t-72.5 21l43 119q18 -6 30.5 -10.5t24 -6.5t25.5 -3t37 -1q45 0 86 26.5t57 77.5l74 211l-328 942q-16 45 -57 56.5t-76 11.5zM299 1372q0 47 35 82t82 35t81.5 -35t34.5 -82t-34.5 -82t-81.5 -35t-82 35t-35 82zM647 1372 q0 47 35 82t82 35t82 -35t35 -82t-35 -82t-82 -35t-82 35t-35 82z" />
<glyph unicode="&#x152;" horiz-adv-x="1822" d="M84 690q0 147 40 284.5t120 244t200.5 170t282.5 63.5q106 0 186 -27h84q20 0 74.5 1t126.5 1t150.5 2.5t146.5 2.5t117 1t59 1v-334h-102q0 37 -4 71.5t-10.5 63.5t-12.5 50.5t-8 27.5l-447 -6v-514h256q20 0 33 13t19 33.5t7 43t1 39.5h90q0 -47 -3 -93.5t-7 -93.5 q0 -4 2 -26.5t3 -52t3 -59.5t2 -48h-90q0 16 -2 38.5t-8.5 42t-17.5 34t-32 14.5h-256v-559l457 -6q2 6 8.5 26.5t12.5 50t11 64.5t5 72h102v-334q-12 0 -61 1t-118.5 1t-149.5 2t-153 2t-128 1t-76 1h-55t-59 -2q-84 -25 -183 -25q-156 0 -271.5 58.5t-192 158 t-114.5 229.5t-38 271zM276 731q0 -109 24 -221.5t76 -204.5t137 -150.5t208 -58.5q104 0 186 51v1129q-41 25 -91 39t-109 14q-109 0 -190 -54t-134 -140t-80 -192.5t-27 -211.5z" />
<glyph unicode="&#x153;" horiz-adv-x="1773" d="M80 496q0 111 28.5 211t88 177t149.5 122t213 45q129 0 218 -50.5t147 -136.5q57 86 148 136.5t214 50.5q102 0 175 -42t120 -112t68.5 -161t21.5 -187h-672q0 -10 -2 -28.5t-2 -28.5q0 -186 77 -282.5t243 -96.5q78 0 151.5 33.5t155.5 82.5v-120q-86 -63 -183.5 -99.5 t-201.5 -36.5q-119 0 -201 49.5t-131 127.5q-59 -80 -149 -128.5t-219 -48.5q-115 0 -201 43t-143.5 115t-85 166t-27.5 199zM264 522q0 -55 11.5 -127.5t41 -139.5t83 -113t137.5 -46q82 0 138 34t91 90t50 129t15 151q0 55 -11 128.5t-40.5 140.5t-83 113t-137.5 46 q-82 0 -138 -34t-91 -91.5t-50.5 -130t-15.5 -150.5zM1012 657h485q-4 41 -16.5 87.5t-38 84t-66.5 63.5t-102 26q-63 0 -108.5 -23t-76 -59.5t-49 -83.5t-28.5 -95z" />
<glyph unicode="&#x178;" horiz-adv-x="1349" d="M68 1343v91q35 0 76.5 -4.5t103.5 -4.5q31 0 71.5 1t80.5 3.5t75 3.5t51 1v-91q-18 0 -47.5 -3t-58.5 -11q-27 -6 -44.5 -16t-6.5 -29l301 -571l299 571q10 18 -6.5 28.5t-38.5 18.5q-29 6 -57.5 9t-47.5 3v91q16 0 48 -1t70 -3.5t76 -3.5t68 -1q61 0 93 4.5t67 4.5v-91 q-8 0 -26.5 -3t-39 -11t-40 -21.5t-29.5 -33.5l-367 -699l2 -428q0 -25 18.5 -38t43 -19t50.5 -7t42 -1v-90q-16 0 -46 1t-63.5 3t-69.5 3t-67 1t-66.5 -1t-69.5 -3t-63.5 -3t-46.5 -1v90q16 0 43 1t52.5 7t44 19.5t18.5 37.5v428l-371 699q-10 20 -27.5 33.5t-35.5 21.5 t-34.5 11t-24.5 3zM373 1782q0 47 34.5 81.5t81.5 34.5t82 -34.5t35 -81.5t-34.5 -82t-82.5 -35q-47 0 -81.5 35t-34.5 82zM721 1782q0 47 35 81.5t82 34.5t81.5 -34.5t34.5 -81.5t-34.5 -82t-81.5 -35t-82 35t-35 82z" />
<glyph unicode="&#x2c6;" horiz-adv-x="712" d="M8 1284l346 250l351 -250l-64 -96l-287 153l-284 -153z" />
<glyph unicode="&#x2dc;" horiz-adv-x="712" d="M20 1368q41 49 91.5 84t117.5 35q37 0 68 -12.5t60.5 -27.5t59 -27.5t64.5 -12.5q41 0 74 18.5t61 49.5l76 -82q-39 -53 -90 -87t-119 -34q-39 0 -72.5 12t-63.5 25.5t-57.5 26t-56.5 12.5q-41 0 -72.5 -15.5t-62.5 -48.5z" />
<glyph unicode="&#x2000;" horiz-adv-x="1005" />
<glyph unicode="&#x2001;" horiz-adv-x="2011" />
<glyph unicode="&#x2002;" horiz-adv-x="1005" />
<glyph unicode="&#x2003;" horiz-adv-x="2011" />
<glyph unicode="&#x2004;" horiz-adv-x="670" />
<glyph unicode="&#x2005;" horiz-adv-x="502" />
<glyph unicode="&#x2006;" horiz-adv-x="335" />
<glyph unicode="&#x2007;" horiz-adv-x="335" />
<glyph unicode="&#x2008;" horiz-adv-x="251" />
<glyph unicode="&#x2009;" horiz-adv-x="402" />
<glyph unicode="&#x200a;" horiz-adv-x="111" />
<glyph unicode="&#x2010;" horiz-adv-x="694" d="M90 477v141h514v-141h-514z" />
<glyph unicode="&#x2011;" horiz-adv-x="694" d="M90 477v141h514v-141h-514z" />
<glyph unicode="&#x2012;" horiz-adv-x="694" d="M90 477v141h514v-141h-514z" />
<glyph unicode="&#x2013;" d="M90 477v141h942v-141h-942z" />
<glyph unicode="&#x2014;" horiz-adv-x="1521" d="M90 477v141h1342v-141h-1342z" />
<glyph unicode="&#x2018;" horiz-adv-x="536" d="M102 1094q0 61 19.5 111t50.5 92t72 80t84 75l53 -63q-45 -41 -80 -75t-35 -85q0 -14 11.5 -24.5t23.5 -24t23.5 -33t11.5 -53.5q0 -47 -35 -82t-82 -35t-82 35t-35 82z" />
<glyph unicode="&#x2019;" horiz-adv-x="536" d="M102 1040q45 41 80 74t35 86q0 14 -11 24.5t-23.5 24t-24 32.5t-11.5 54q0 47 35 82t82 35t82 -35t35 -82q0 -61 -19.5 -111t-50 -92t-71.5 -80t-84 -75z" />
<glyph unicode="&#x201a;" horiz-adv-x="536" d="M102 -205q45 41 80 74t35 86q0 14 -11 24.5t-23.5 23.5t-24 32.5t-11.5 54.5q0 47 35 82t82 35t82 -35t35 -82q0 -61 -19.5 -111.5t-50 -92.5t-71.5 -79.5t-84 -74.5z" />
<glyph unicode="&#x201c;" horiz-adv-x="833" d="M102 1094q0 61 19.5 111t50.5 92t72 80t84 75l53 -63q-45 -41 -80 -75t-35 -85q0 -14 11.5 -24.5t23.5 -24t23.5 -33t11.5 -53.5q0 -47 -35 -82t-82 -35t-82 35t-35 82zM399 1094q0 61 19.5 111t50.5 92t72 80t84 75l53 -63q-45 -41 -80 -75t-35 -85q0 -14 11.5 -24.5 t23.5 -24t23.5 -33t11.5 -53.5q0 -47 -35 -82t-82 -35t-82 35t-35 82z" />
<glyph unicode="&#x201d;" horiz-adv-x="833" d="M102 1040q45 41 80 74t35 86q0 14 -11 24.5t-23.5 24t-24 32.5t-11.5 54q0 47 35 82t82 35t82 -35t35 -82q0 -61 -19.5 -111t-50 -92t-71.5 -80t-84 -75zM399 1040q45 41 80 74t35 86q0 14 -11 24.5t-23.5 24t-24 32.5t-11.5 54q0 47 35 82t82 35t82 -35t35 -82 q0 -61 -19.5 -111t-50 -92t-71.5 -80t-84 -75z" />
<glyph unicode="&#x201e;" horiz-adv-x="833" d="M102 -205q45 41 80 74t35 86q0 14 -11 24.5t-23.5 23.5t-24 32.5t-11.5 54.5q0 47 35 82t82 35t82 -35t35 -82q0 -61 -19.5 -111.5t-50 -92.5t-71.5 -79.5t-84 -74.5zM399 -205q45 41 80 74t35 86q0 14 -11 24.5t-23.5 23.5t-24 32.5t-11.5 54.5q0 47 35 82t82 35t82 -35 t35 -82q0 -61 -19.5 -111.5t-50 -92.5t-71.5 -79.5t-84 -74.5z" />
<glyph unicode="&#x2022;" horiz-adv-x="774" d="M121 547q0 55 20.5 103t57.5 85t85 57.5t103 20.5t103.5 -20.5t85 -57.5t57 -85t20.5 -103t-20.5 -103.5t-57 -85t-85 -57t-103.5 -20.5t-103 20.5t-85 57t-57.5 85t-20.5 103.5z" />
<glyph unicode="&#x2026;" horiz-adv-x="1290" d="M147 90q0 47 35 82t82 35t82 -35t35 -82t-35 -82t-82 -35t-82 35t-35 82zM528 90q0 47 35 82t82 35t82 -35t35 -82t-35 -82t-82 -35t-82 35t-35 82zM909 90q0 47 35 82t82 35t82 -35t35 -82t-35 -82t-82 -35t-82 35t-35 82z" />
<glyph unicode="&#x202f;" horiz-adv-x="402" />
<glyph unicode="&#x2039;" horiz-adv-x="737" d="M121 532l387 474l108 -76l-290 -398l290 -397l-108 -76z" />
<glyph unicode="&#x203a;" horiz-adv-x="739" d="M121 135l291 397l-291 398l108 76l389 -474l-389 -473z" />
<glyph unicode="&#x205f;" horiz-adv-x="502" />
<glyph unicode="&#x20ac;" d="M111 614q0 106 33.5 220t104 208.5t178.5 153.5t257 59q57 0 112.5 -14t100.5 -34.5t78 -42t49 -36.5v-264h-104q0 59 -10.5 108.5t-14.5 59.5q-49 66 -105.5 83.5t-109.5 17.5q-82 0 -144.5 -32t-107.5 -81t-72.5 -109.5t-40.5 -117.5h242q12 0 18.5 9t9.5 21.5t4 25.5 t1 21h80q0 -18 -1 -51t-3 -67l-4 -84h-363l-2 -52l2 -55h363q0 -4 1 -29.5t3 -58.5t3 -65.5t1 -49.5h-80q0 8 -1 21.5t-4 26t-9.5 21.5t-18.5 9h-242q12 -63 42 -123.5t76 -108.5t107.5 -77t139.5 -29q25 0 49.5 2t51 9.5t55 24t61.5 46.5q2 4 6 21.5t7 44t6.5 57.5t3.5 62 h104v-265q-23 -16 -57.5 -37.5t-79.5 -42t-97.5 -34t-109.5 -13.5q-156 0 -264.5 60.5t-176 154t-98 207t-30.5 219.5z" />
<glyph unicode="&#x2122;" horiz-adv-x="1628" d="M113 1337v181q14 0 52 -1t79 -1t77.5 -1.5t51.5 -1.5q12 0 50 1.5t80 1.5t80 1t52 1v-181h-74q0 49 -10 90l-119 -2v-495q0 -4 9.5 -6t19.5 -2q12 -2 23.5 -1t17.5 1v-72q-29 0 -65 2t-62 2q-29 0 -64 -2t-63 -2v72q4 0 15 -1t24 1q10 0 19 2t9 6v495l-118 2 q-10 -41 -11 -90h-73zM709 850v72q4 0 16 -1t23 -1q12 0 21 2t9 6l8 510q2 4 -7 6t-21 2q-10 2 -22.5 2h-16.5v70q29 0 51.5 -2.5t50.5 -2.5q29 0 49.5 1.5t42.5 1.5l199 -347l221 347h80q29 0 47.5 1t46.5 1v-68h-41q-10 -2 -19 -4t-9 -6l8 -512q0 -4 9 -5t20 -1 q12 -4 24 -2t17 2v-72q-29 0 -65 2t-65 2q-27 0 -63.5 -2t-65.5 -2v72q4 0 16.5 -2t24.5 2q10 0 19.5 1t9.5 5l-8 387l-227 -357l-207 357l-8 -387q0 -4 9 -5t19 -1q12 -4 23.5 -2t17.5 2v-72q-29 0 -60.5 2t-58.5 2q-29 0 -59.5 -2t-58.5 -2z" />
<glyph unicode="&#x25fc;" horiz-adv-x="1034" d="M0 0v1034h1034v-1034h-1034z" />
<glyph unicode="&#xfb01;" horiz-adv-x="1288" d="M68 -8v90q16 0 42.5 1t51 7t43 19.5t18.5 37.5v750h-155v96l155 31v154q0 111 40 188.5t102.5 126.5t138.5 71.5t147 22.5q74 0 148.5 -14t135 -41t99.5 -67t39 -91q0 -100 -102 -100q-33 0 -51.5 13t-32 33.5t-26.5 44.5t-35.5 44.5t-58.5 33.5t-95 13q-53 0 -103.5 -13 t-89.5 -43t-61.5 -78t-22.5 -120v-178h322q55 0 115.5 10t111.5 25q29 8 58.5 16t58.5 19v-947q0 -25 18.5 -38t43 -19t50 -7t41.5 -1v-90q-16 0 -44.5 1t-61.5 3t-67.5 3t-65.5 1t-66 -1t-67.5 -3t-61 -3t-45.5 -1v90q14 0 41 1t51.5 7t43 19.5t18.5 37.5v678 q0 47 -35 59.5t-109 12.5h-350v-750q0 -25 18.5 -38t43 -19t51.5 -7t43 -1v-90q-16 0 -45 1t-62.5 3t-68.5 3t-66 1t-65.5 -1t-68.5 -3t-62.5 -3t-44.5 -1z" />
<glyph unicode="&#xfb02;" horiz-adv-x="1288" d="M68 -8v90q16 0 42.5 1t51 7t43 19.5t18.5 37.5v750h-155v96l155 31v164q0 94 36 169t95.5 126t134 77.5t152.5 26.5q63 0 117.5 -12t95.5 -31q86 16 145 35l62 18v-1450q0 -25 18.5 -38t43 -19t50 -7t41.5 -1v-90q-16 0 -44.5 1t-61.5 3t-67.5 3t-65.5 1t-66 -1t-67.5 -3 t-61 -3t-45.5 -1v90q14 0 41 1t51.5 7t43 19.5t18.5 37.5v750h-494v-750q0 -25 18.5 -38t43 -19t51.5 -7t43 -1v-90q-16 0 -45 1t-62.5 3t-68.5 3t-66 1t-65.5 -1t-68.5 -3t-62.5 -3t-44.5 -1zM395 1024h494v270q0 37 -22.5 67t-56.5 51.5t-76 32.5t-81 11q-49 0 -95 -14.5 t-82 -44t-58.5 -76.5t-22.5 -113v-184z" />
<glyph unicode="&#xfb03;" horiz-adv-x="1955" d="M68 -8v90q16 0 42.5 1t51 7t43 19.5t18.5 37.5v750h-155v96l155 31v139q0 111 28 187.5t74 125t107.5 70t130.5 21.5q119 0 191.5 -55.5t91.5 -149.5h-164q-8 29 -34.5 51.5t-86.5 22.5q-29 0 -58.5 -9.5t-53 -34t-39 -69.5t-15.5 -117v-182h496v154q0 111 40 188.5 t102.5 126.5t138 71.5t147.5 22.5q74 0 148.5 -14t135 -41t99.5 -67t39 -91q0 -100 -103 -100q-33 0 -51 13t-31.5 33.5t-26.5 44.5t-36 44.5t-58.5 33.5t-95.5 13q-53 0 -103 -13t-89 -43t-61.5 -78t-22.5 -120v-178h321q55 0 116 10t112 25q29 8 58.5 16t58.5 19v-947 q0 -25 18 -38t43 -19t50.5 -7t41.5 -1v-90q-16 0 -45 1t-61.5 3t-67.5 3t-66 1t-65.5 -1t-67 -3t-61.5 -3t-45 -1v90q14 0 40.5 1t51.5 7t43 19.5t18 37.5v678q0 47 -34.5 59.5t-108.5 12.5h-350v-750q0 -25 18.5 -38t43 -19t51 -7t43.5 -1v-90q-16 0 -45 1t-63 3t-68.5 3 t-65.5 1t-65.5 -1t-68.5 -3t-62.5 -3t-45.5 -1v90q16 0 43 1t51.5 7t43 19.5t18.5 37.5v750h-496v-750q0 -25 18.5 -38t43 -19t51.5 -7t43 -1v-90q-16 0 -45 1t-62.5 3t-68.5 3t-66 1t-65.5 -1t-68.5 -3t-62.5 -3t-44.5 -1z" />
<glyph unicode="&#xfb04;" horiz-adv-x="1955" d="M68 -8v90q16 0 42.5 1t51 7t43 19.5t18.5 37.5v750h-155v96l155 31v139q0 111 28 187.5t74 125t107.5 70t130.5 21.5q119 0 191.5 -55.5t91.5 -149.5h-164q-8 29 -34.5 51.5t-86.5 22.5q-29 0 -58.5 -9.5t-53 -34t-39 -69.5t-15.5 -117v-182h496v164q0 94 36 169t95 126 t134 77.5t153 26.5q63 0 117.5 -12t95.5 -31q86 16 145 35l62 18v-1450q0 -25 18 -38t43 -19t50.5 -7t41.5 -1v-90q-16 0 -45 1t-61.5 3t-67.5 3t-66 1t-65.5 -1t-67 -3t-61.5 -3t-45 -1v90q14 0 40.5 1t51.5 7t43 19.5t18 37.5v750h-493v-750q0 -25 18.5 -38t43 -19t51 -7 t43.5 -1v-90q-16 0 -45 1t-63 3t-68.5 3t-65.5 1t-65.5 -1t-68.5 -3t-62.5 -3t-45.5 -1v90q16 0 43 1t51.5 7t43 19.5t18.5 37.5v750h-496v-750q0 -25 18.5 -38t43 -19t51.5 -7t43 -1v-90q-16 0 -45 1t-62.5 3t-68.5 3t-66 1t-65.5 -1t-68.5 -3t-62.5 -3t-44.5 -1z M1063 1024h493v270q0 37 -22.5 67t-56 51.5t-75.5 32.5t-81 11q-49 0 -95 -14.5t-82 -44t-58.5 -76.5t-22.5 -113v-184z" />
</font>
</defs>
</svg>
