<?xml version="1.0" standalone="no"?>
<!DOCTYPE svg PUBLIC "-//W3C//DTD SVG 1.1//EN" "http://www.w3.org/Graphics/SVG/1.1/DTD/svg11.dtd" >
<svg xmlns="http://www.w3.org/2000/svg">
<metadata></metadata>
<defs>
<font id="hollandserifbold_italic" horiz-adv-x="1122" >
<font-face units-per-em="2048" ascent="1638" descent="-410" />
<missing-glyph horiz-adv-x="430" />
<glyph horiz-adv-x="0" />
<glyph unicode="&#xd;" horiz-adv-x="430" />
<glyph horiz-adv-x="0" />
<glyph horiz-adv-x="0" />
<glyph unicode=" "  horiz-adv-x="430" />
<glyph unicode="&#x09;" horiz-adv-x="430" />
<glyph unicode="&#xa0;" horiz-adv-x="430" />
<glyph unicode="!" horiz-adv-x="649" d="M166 137q6 33 22.5 63.5t42 52t57 35t66.5 13.5q68 0 109 -48t31 -116q-4 -35 -21.5 -64.5t-43.5 -51t-57.5 -35t-64.5 -13.5q-35 0 -62.5 13.5t-47 35t-27.5 51t-4 64.5zM258 395l94 1030h301l-174 -1030h-221z" />
<glyph unicode="&#x22;" horiz-adv-x="811" d="M248 997l31 428h253l-92 -428h-192zM608 997l31 428h254l-92 -428h-193z" />
<glyph unicode="#" d="M20 324l29 198h213l25 185h-236l29 198h235l45 324h224l-45 -324h147l45 324h223l-45 -324h193l-29 -198h-192l-27 -185h217l-29 -198h-215l-45 -324h-223l45 324h-145l-47 -324h-224l45 324h-213zM485 522h148l24 185h-145z" />
<glyph unicode="$" d="M125 43l43 307h197q-8 -59 -7.5 -99t2.5 -61q49 -14 111 -18l53 383q-55 27 -109.5 57.5t-95 71.5t-62 95.5t-11.5 127.5q10 78 46 136.5t86 99.5t113.5 65.5t129.5 36.5l20 141h203l-19 -135q63 -6 131 -23t142 -48l-41 -301h-197q8 59 5 96t-7 57q-23 10 -61 21 l-45 -320q57 -29 112.5 -61.5t96 -75.5t62 -99.5t11.5 -131.5q-12 -80 -47 -143.5t-87 -109.5t-117.5 -77t-135.5 -45l-20 -144h-203l18 129q-72 4 -148.5 19.5t-168.5 48.5zM508 938q-4 -31 12.5 -56.5t42.5 -45.5l29 202q-76 -33 -84 -100zM678 205q35 20 58.5 50t27.5 67 q6 41 -9.5 71.5t-41.5 55.5z" />
<glyph unicode="%" d="M86 0l875 1425h229l-875 -1425h-229zM162 1030q-2 55 4 98q6 47 24.5 103.5t53.5 105.5t90 82t135 33q78 0 122 -34t63.5 -83t21.5 -104t-4 -98q-6 -47 -24.5 -103.5t-53.5 -106t-89 -82t-136 -32.5q-78 0 -122 34t-63.5 83t-21.5 104zM349 1088.5q-1 -25.5 2 -47 t14.5 -35t33.5 -13.5q20 0 35 13.5t24 33t14 42t9 42.5q2 23 4 47.5t-1 46t-14 36t-34 14.5t-37 -12.5t-23 -32t-14.5 -43t-7.5 -43.5q-4 -23 -5 -48.5zM593 194.5q-1 55.5 5 98.5q6 47 24.5 103.5t52.5 105.5t89 81.5t135 32.5q78 0 122 -33.5t63.5 -81.5t21.5 -103.5 t-4 -98.5q-6 -47 -24.5 -103.5t-53.5 -105.5t-89 -83t-136 -34q-78 0 -121 34t-63.5 83t-21.5 104.5zM781 254.5q-1 -25.5 2 -47t14.5 -35.5t33.5 -14q20 0 35 13t24 32.5t14 43.5t9 44q2 23 4.5 47t-1 46t-14.5 35t-34 13t-37 -12t-23 -31.5t-14.5 -42t-7.5 -43.5 q-4 -23 -5 -48.5z" />
<glyph unicode="&#x26;" horiz-adv-x="1331" d="M100 399q18 139 102.5 235.5t194.5 166.5q-43 63 -75.5 144t-20.5 179q10 74 49 134.5t98.5 103.5t133 66.5t153.5 23.5q74 0 139.5 -24.5t112.5 -71.5t70.5 -119t11.5 -164h-256q12 86 -19.5 131t-78.5 45q-72 0 -115 -40t-49 -89q-4 -25 -3 -47t10 -48t27.5 -56.5 t53.5 -73.5l369 -459q14 18 32.5 49t35 64t29.5 65.5t15 55.5q2 18 -12 28.5t-34.5 15.5t-43 5h-35.5l25 172q59 0 116.5 -3t116.5 -3q37 0 75 3t75 3q-23 -172 -88.5 -337t-171 -294t-250.5 -208t-326 -79q-98 0 -188 28t-156.5 81t-101.5 133t-21 184zM371 391 q-4 -39 6 -77t35.5 -67.5t67.5 -48t100 -18.5q72 0 135 24.5t114 55.5l-301 371q-70 -47 -108.5 -110.5t-48.5 -129.5z" />
<glyph unicode="'" horiz-adv-x="450" d="M248 997l31 428h253l-92 -428h-192z" />
<glyph unicode="(" horiz-adv-x="759" d="M152 270q-2 133 16 273q18 139 54 271t98.5 258t154.5 248t225 241l142 -125q-111 -117 -184.5 -242t-121 -245t-71 -228.5t-33.5 -190.5q-10 -84 -14 -191.5t12 -227t59 -243.5t123 -239l-163 -116q-104 123 -169 246.5t-95.5 250.5t-32.5 260z" />
<glyph unicode=")" horiz-adv-x="759" d="M51 -362q111 117 184.5 241.5t119.5 244.5t71 228.5t35 190.5t14 190.5t-12.5 228t-58.5 243.5t-121 239l159 117q102 -113 166 -238t94.5 -257t33.5 -268.5t-13 -267.5q-16 -133 -54 -267t-101.5 -265t-156 -254t-218.5 -229z" />
<glyph unicode="*" horiz-adv-x="897" d="M248 1083l106 226l164 -74l8 190h244l-43 -190l184 74l43 -226l-190 -47l104 -139l-217 -141l-73 157l-121 -157l-176 141l143 139z" />
<glyph unicode="+" d="M172 434l31 228h338l47 335h227l-47 -335h336l-31 -228h-338l-47 -336h-227l47 336h-336z" />
<glyph unicode="," horiz-adv-x="622" d="M72 -170q12 8 34.5 25.5t46 41t43 50t23.5 53.5q-29 23 -43 59.5t-10 77.5q6 33 22.5 63.5t42 52t57 35t66.5 13.5q68 0 109 -48t31 -116q-8 -61 -40 -120.5t-77 -114t-99.5 -100.5t-107.5 -83z" />
<glyph unicode="-" horiz-adv-x="811" d="M152 434l30 228h631l-31 -228h-630z" />
<glyph unicode="." horiz-adv-x="622" d="M166 137q6 33 22.5 63.5t42 52t57 35t66.5 13.5q68 0 109 -48t31 -116q-4 -35 -21.5 -64.5t-43.5 -51t-57.5 -35t-64.5 -13.5q-35 0 -62.5 13.5t-47 35t-27.5 51t-4 64.5z" />
<glyph unicode="/" horiz-adv-x="661" d="M147 -467l242 2005h258l-241 -2005h-259z" />
<glyph unicode="0" d="M108.5 403.5q-4.5 110.5 8.5 202.5q14 100 50 215t101.5 211t166 159.5t241.5 63.5t223 -62.5t121 -156.5t43 -202.5t-8 -200.5q-12 -102 -47 -218t-99.5 -214.5t-165 -163t-245.5 -64.5q-141 0 -223 64.5t-122 160t-44.5 206zM364.5 497q-6.5 -79 5 -150t45.5 -120 t107 -49q70 0 118 46t79 111.5t47.5 140.5t24.5 130q8 59 13 136t-5.5 145.5t-45 116t-108.5 47.5q-72 0 -119 -44t-77.5 -107.5t-46 -136.5t-23.5 -128q-8 -59 -14.5 -138z" />
<glyph unicode="1" d="M188 -8l25 172q8 0 42 -1t72 2t68.5 12t32.5 28l100 747l-245 -51l-13 197q68 12 138.5 33.5t129 43t97.5 37t43 17.5h139l-139 -1024q-2 -18 26.5 -27.5t65.5 -12.5t70 -2t41 1l-25 -172q-35 0 -80 1t-91 3t-88 3t-73 1t-73.5 -1t-90 -3t-92.5 -3t-80 -1z" />
<glyph unicode="2" d="M90 0l27 199q49 35 116.5 85t141.5 108.5t146.5 122t131 125.5t98.5 119.5t46 104.5q12 86 -31 137.5t-135 51.5q-86 0 -138.5 -42t-68.5 -116h-164l33 238q109 63 205 92.5t196 29.5q92 0 167 -22.5t124 -68.5t70.5 -116.5t7.5 -164.5q-14 -98 -75.5 -193.5 t-145.5 -183.5t-179.5 -166t-177.5 -139h273q18 0 33.5 3t27.5 16t24.5 39t24.5 71h156l-45 -338q-47 0 -89 4t-95 4h-705z" />
<glyph unicode="3" d="M94 14l137 133q45 -35 78 -57t60.5 -34.5t55.5 -17.5t64 -5q41 0 79 18.5t69 48t50.5 67.5t23.5 75q8 68 -7.5 110.5t-56.5 68t-108.5 37t-163.5 13.5l24 188q154 14 245 65.5t108 170.5q10 74 -26 113t-97 39q-96 0 -144.5 -47.5t-52.5 -112.5h-166l33 243 q100 66 187 95.5t184 29.5q111 0 184.5 -38.5t113.5 -99t47 -136.5t-14.5 -148.5t-71.5 -136t-126 -100.5q92 -55 138 -134t50 -165t-30.5 -171t-102 -151.5t-164 -108.5t-215.5 -42q-57 0 -106 10t-94.5 32.5t-90.5 58.5t-94 89z" />
<glyph unicode="4" d="M59 197l23 157l717 875h205l-109 -817h182l-30 -215h-183l-16 -144q-2 -16 19.5 -24.5t49 -11.5t53 -4t34.5 -1l-25 -172q-70 0 -148.5 4t-138.5 4q-59 0 -139 -4t-150 -4l25 172q8 0 33.5 1t55.5 4t53.5 11.5t25.5 24.5l18 144h-555zM373 412h272l55 405z" />
<glyph unicode="5" d="M57 6l144 135q37 -33 70.5 -54t66.5 -34.5t66.5 -19.5t72.5 -6q45 0 87 22.5t74 57t52.5 76.5t26.5 81q10 78 -3.5 133.5t-70.5 87t-166.5 38.5t-290.5 -13l222 719h540q53 0 92.5 3t49.5 3l-48 -338h-168q0 45 -4 71.5t-13 39t-22.5 15.5t-31.5 3h-207l-86 -309 q168 4 268.5 -38t150.5 -107.5t59 -147.5t-1 -158q-14 -102 -62 -184t-121 -139.5t-165 -89t-190 -31.5q-66 0 -118 12t-98.5 36t-89.5 57.5t-86 78.5z" />
<glyph unicode="6" d="M101 341q-3 103 12 208q20 154 75.5 310.5t155.5 282.5t250.5 204.5t363.5 78.5h89l-29 -204h-88q-170 0 -297 -92.5t-199 -247.5q57 43 127 57t115 14q121 0 200.5 -41t122.5 -109.5t55.5 -159.5t-1.5 -189t-59.5 -185.5t-117 -153t-168 -103.5t-212.5 -38 q-145 0 -228.5 51.5t-123.5 132.5t-43 184zM362.5 349.5q-0.5 -52.5 15 -90.5t47.5 -60.5t87 -22.5q61 0 108.5 21.5t81 58.5t54 85t28.5 103q8 61 7.5 116.5t-17 97.5t-52.5 66t-97 24q-55 0 -99.5 -24t-76 -62.5t-51 -91t-27.5 -109.5q-8 -59 -8.5 -111.5z" />
<glyph unicode="7" d="M123 -178l618 1204h-329q-18 0 -32.5 -3t-27 -16.5t-25 -39t-24.5 -70.5h-164l47 338q47 0 89 -3t96 -3h747l-723 -1407h-272z" />
<glyph unicode="8" d="M74 350q8 66 36.5 120t68.5 100t89 83t101 68q-41 27 -75 59.5t-56.5 72.5t-31.5 90t1 114q12 94 59 164.5t115 117.5t150.5 70t166.5 23q78 0 152 -19.5t129 -61.5t82.5 -109t15.5 -159q-16 -111 -86.5 -191.5t-161.5 -135.5q92 -61 149.5 -158.5t41.5 -224.5 q-14 -98 -68.5 -173t-131.5 -125t-167 -76t-176 -26t-165 21.5t-136 66.5t-87 117t-15 172zM340 369q-12 -88 43 -139.5t147 -51.5q41 0 78 13.5t67 37t49.5 56t25.5 71.5q6 41 -7.5 78t-39 69t-62.5 59.5t-80 47.5q-94 -47 -151.5 -101t-69.5 -140zM471 1079 q-10 -72 40 -127t128 -94q41 23 71.5 44.5t52 44t35 51t19.5 65.5q10 78 -33 120t-129 42q-72 0 -123 -40t-61 -106z" />
<glyph unicode="9" d="M111 -168l28 199q31 0 52.5 -1t37 -2t26.5 -1h26q82 0 154.5 18t133 56t103.5 97.5t63 141.5q-49 -35 -115.5 -49.5t-115.5 -14.5q-119 0 -197 37t-121 101.5t-54 150.5t3 187q14 106 56 198t110 160t164 106.5t223 38.5q135 0 218 -44t124 -117.5t47 -170t-8 -200.5 q-25 -170 -66.5 -331t-129 -286.5t-236 -202.5t-385.5 -77h-25.5t-27 1t-37 2t-51.5 3zM388 650.5q-1 -52.5 14.5 -89.5t50 -58.5t96.5 -21.5q66 0 112 20.5t77.5 57.5t49 88.5t27.5 114.5q8 57 7 110.5t-16 93.5t-48 63.5t-90 23.5q-61 0 -108.5 -22.5t-80.5 -61.5 t-53 -92.5t-29 -112.5q-8 -61 -9 -113.5z" />
<glyph unicode=":" horiz-adv-x="622" d="M166 137q6 33 22.5 63.5t42 52t57 35t66.5 13.5q68 0 109 -48t31 -116q-4 -35 -21.5 -64.5t-43.5 -51t-57.5 -35t-64.5 -13.5q-35 0 -62.5 13.5t-47 35t-27.5 51t-4 64.5zM272 887q4 33 21.5 63.5t43 52t56.5 35t66 13.5q68 0 108.5 -48t32.5 -116q-4 -35 -21.5 -64.5 t-43 -51t-57.5 -35t-64 -13.5q-70 0 -111 48t-31 116z" />
<glyph unicode=";" horiz-adv-x="622" d="M72 -170q12 8 34.5 25.5t46 41t43 50t23.5 53.5q-29 23 -43 59.5t-10 77.5q6 33 22.5 63.5t42 52t57 35t66.5 13.5q68 0 109 -48t31 -116q-8 -61 -40 -120.5t-77 -114t-99.5 -100.5t-107.5 -83zM272 887q4 33 21.5 63.5t43 52t56.5 35t66 13.5q68 0 108.5 -48t32.5 -116 q-4 -35 -21.5 -64.5t-43 -51t-57.5 -35t-64 -13.5q-70 0 -111 48t-31 116z" />
<glyph unicode="&#x3c;" d="M227 467l23 166l854 381l-37 -252l-496 -213l437 -215l-35 -252z" />
<glyph unicode="=" d="M145 246l31 227h901l-30 -227h-902zM199 623l30 227h901l-30 -227h-901z" />
<glyph unicode="&#x3e;" d="M174 82l35 252l498 215l-439 213l37 252l744 -381l-23 -166z" />
<glyph unicode="?" horiz-adv-x="931" d="M250 1085l31 244q102 59 188 90t188 31q84 0 144.5 -22.5t100.5 -61.5t59.5 -88t19.5 -104q0 -68 -28.5 -137.5t-84.5 -127.5q-45 -47 -90 -80.5t-79.5 -64.5t-57.5 -63.5t-23 -79.5q0 -61 48 -156l-177 -103q-59 86 -89.5 153t-30.5 130q0 74 43 142.5t135 146.5 q23 18 50.5 40.5t52 47.5t42 52.5t19.5 58.5q4 39 -25 73.5t-82 34.5q-162 0 -196 -156h-158zM295 137q6 33 22.5 63.5t42 52t57.5 35t66 13.5q68 0 109 -48t31 -116q-4 -35 -21.5 -64.5t-43.5 -51t-57.5 -35t-64.5 -13.5q-35 0 -62.5 13.5t-47 35t-27.5 51t-4 64.5z" />
<glyph unicode="@" horiz-adv-x="1785" d="M43 504q0 203 65.5 376t186.5 301t291 199.5t381 71.5q174 0 317 -46t244.5 -138t158 -229.5t56.5 -319.5q0 -109 -35 -223.5t-104.5 -208.5t-171 -154.5t-236.5 -60.5q-53 0 -92 13t-64.5 36.5t-41 53.5t-21.5 63q-59 -66 -133 -116t-160 -50q-80 0 -131 35.5t-81 88 t-40 111t-10 105.5q0 59 11 130.5t35 144.5t63.5 141.5t96 120.5t133.5 84t175 32q18 0 39.5 -5t41 -14.5t36 -19.5t24.5 -18l33 39h188l-88 -635q-8 -55 -3 -83t34 -28q39 0 84 30.5t84 85t64.5 126t25.5 153.5q0 547 -541 547q-154 0 -277.5 -55t-209.5 -153.5 t-133 -232.5t-47 -290q0 -154 45 -269.5t127 -194.5t197.5 -118t259.5 -39q164 0 313 54.5t321 169.5l107 -162q-186 -133 -373.5 -202.5t-390.5 -69.5q-199 0 -357.5 55t-269 161.5t-169 259t-58.5 347.5zM649 451q0 -18 3 -46t12.5 -52.5t27 -43t43.5 -18.5q78 0 129 59.5 t84 143.5t50.5 173t25.5 148q-20 18 -51 30.5t-58 12.5q-72 0 -122 -42t-81.5 -103.5t-47 -133t-15.5 -128.5z" />
<glyph unicode="A" horiz-adv-x="1456" d="M23 -6l22 170q8 0 32.5 1t53.5 5t54.5 12t31.5 23l555 1186l236 77l213 -1263q2 -16 23.5 -24.5t48 -11.5t51 -4t32.5 -1l-22 -170q-70 0 -151 3t-140 3q-31 0 -69 -1t-77.5 -2t-79.5 -2t-75 -1l22 170q8 0 37 1t59.5 4t54 11t21.5 25l-28 178h-387l-84 -178 q-6 -14 14.5 -22.5t49 -12.5t56 -5t35.5 -1l-22 -170q-35 0 -74 1t-79 2t-76.5 2t-67.5 1q-59 0 -130 -3t-140 -3zM637 580h256l-66 438z" />
<glyph unicode="B" horiz-adv-x="1245" d="M29 -6l22 170q8 0 35 1t56.5 4t54 11t26.5 25l137 1016q2 14 -19.5 23t-49 12.5t-54 4.5t-34.5 1l22 170q70 0 144.5 -3.5t134.5 -3.5q59 0 117.5 3.5t89.5 3.5q49 0 104 -5.5t110.5 -19.5t103.5 -41t83 -69q34 -42 50 -102q9 -35 10 -78q0 -30 -5 -64q-12 -92 -50 -163 t-109 -122q82 -47 130 -132q34 -62 34 -143q0 -31 -5 -65q-16 -111 -70.5 -192.5t-132 -136t-174 -80t-198.5 -25.5q-16 0 -48 1t-72 2l-80 2t-70 1q-59 0 -141.5 -3t-151.5 -3zM487 203q61 0 128 6t123.5 29.5t97.5 67.5t51 118q4 25 4 47q0 77 -43 121q-55 57 -158 57 h-143zM573 852h121q37 0 71 15.5t61.5 43t48 65.5t26.5 85q3 19 3 35q0 58 -33 89q-40 38 -120 38h-8l-118 -2z" />
<glyph unicode="C" horiz-adv-x="1220" d="M80 438q-8 60 -7 123q0 75 11 152q20 143 76.5 276t148.5 236.5t220 165t292 61.5q86 0 150.5 -15.5t113 -38t81 -49t55.5 -46.5l-43 -318h-199q10 55 11 91v8q0 34 -7 81q-37 39 -81 56.5t-109 17.5q-86 0 -158 -44t-126 -114.5t-89 -162t-49 -183.5q-14 -86 -13 -164 q0 -26 1 -51q6 -100 40.5 -176t99 -120t165.5 -44q39 0 95 17.5t103 40.5q20 43 30.5 83.5t18.5 88.5h191l-47 -334q-121 -57 -230.5 -80t-212.5 -23q-166 0 -277.5 62.5t-174 166t-80.5 236.5z" />
<glyph unicode="D" horiz-adv-x="1413" d="M29 -6l22 170q8 0 35 1t56.5 4t54 11t26.5 25l137 1016q2 14 -19.5 23t-49 12.5t-54 4.5t-34.5 1l22 170q68 0 148 -3.5t139 -3.5t115.5 3.5t87.5 3.5q168 0 303 -39t223 -124t125 -217q21 -74 20 -165q0 -71 -12 -152q-25 -164 -85 -300t-159.5 -234.5t-236.5 -152.5 t-315 -54q-14 0 -45 1t-67 2t-74 2t-68 1q-59 -2 -143.5 -4t-151.5 -2zM487 203l109 -2h11q103 -1 183 35q84 38 144.5 108t99 167t56.5 214q9 63 9 119q1 152 -69 250q-93 129 -300 129h-13l-92 -2z" />
<glyph unicode="E" horiz-adv-x="1200" d="M29 -6l22 170q8 0 35 1t56.5 4t54 11t26.5 25l137 1016q2 14 -19.5 23t-49 12.5t-54 4.5t-34.5 1l22 170q70 0 144.5 -3.5t134.5 -3.5h74.5t127 1t153.5 2.5t156 2.5t132 1h82l-53 -396h-191q10 52 12 98v19q0 37 -6 78l-364 -2l-56 -398h152q16 0 26.5 13.5t16.5 31 t8 35t4 25.5h166q-4 -35 -8 -59.5t-8 -47t-8.5 -45t-8.5 -51.5q-4 -31 -6 -52.5l-4 -43t-4 -46t-8 -59.5h-166q0 6 2 23.5t1 36t-7 32t-21 13.5h-151l-60 -440l375 -2q10 27 25.5 78t27.5 116h189l-57 -395h-78.5t-128 1t-153.5 2t-153.5 2t-128 1h-75.5q-31 0 -69 -1 t-78 -2l-80 -2t-74 -1z" />
<glyph unicode="F" horiz-adv-x="1200" d="M29 -6l22 170q8 0 35 1t56.5 4t54 11t26.5 25l137 1016q2 14 -19.5 23t-49 12.5t-54 4.5t-34.5 1l22 170q70 0 144.5 -3.5t134.5 -3.5h74.5t127 1t153.5 2.5t156 2.5t132 1h82l-53 -396h-191q10 52 12 98v19q0 37 -6 78l-364 -2l-56 -398h152q16 0 26.5 13.5t16.5 31 t8 35t4 25.5h166q-4 -35 -8 -59.5t-8 -47t-8.5 -45t-8.5 -51.5q-4 -31 -6 -52.5l-4 -43t-4 -46t-8 -59.5h-166q0 6 2 23.5t1 36t-7 32t-21 13.5h-151l-60 -432q-2 -16 19.5 -24.5t49.5 -11.5t54.5 -4t34.5 -1l-24 -170q-70 0 -151 3t-140 3q-31 0 -69 -1t-78 -2l-80 -2 t-74 -1z" />
<glyph unicode="G" horiz-adv-x="1269" d="M80 437q-9 60 -9 121q0 76 13 155q20 143 77.5 276t149.5 236.5t220 165t292 61.5q84 0 149.5 -15.5t116 -38t85 -47.5t57.5 -48l-43 -334h-197q10 55 13 97v19q0 35 -7 76q-76 78 -204 78q-86 0 -159 -44t-127 -115.5t-89 -162t-49 -182.5q-13 -87 -13 -164q0 -30 2 -58 q7 -101 41.5 -175t98 -115t157.5 -41q78 0 191 45l37 265q2 14 -19.5 23t-49.5 12t-54.5 4t-34.5 1l25 160h417l-84 -618q-125 -55 -245.5 -78t-221.5 -23q-168 0 -279.5 62.5t-175 165t-81.5 236.5z" />
<glyph unicode="H" horiz-adv-x="1568" d="M29 -6l22 170q8 0 35 1t56.5 4t54 11t26.5 25l137 1016q2 14 -19.5 23t-49 12.5t-54 4.5t-34.5 1l22 170q70 0 152 -3.5t141 -3.5q31 0 68 1t76.5 2.5t79.5 2.5t75 1l-22 -170q-8 0 -35 -1t-55.5 -4.5t-53 -12.5t-26.5 -23l-54 -390h516l54 390q2 14 -19.5 23t-49.5 12.5 t-54.5 4.5t-34.5 1l23 170q70 0 151.5 -3.5t140.5 -3.5q31 0 68 1t77 2.5t79.5 2.5t74.5 1l-22 -170q-8 0 -35 -1t-55.5 -4.5t-53 -12.5t-26.5 -23l-137 -1016q-2 -16 19.5 -24.5t49 -11.5t53 -4t33.5 -1l-22 -170q-70 0 -151 3t-140 3q-31 0 -68.5 -1t-77.5 -2l-80 -2 t-75 -1l22 170q8 0 35 1t56.5 4t54 11t27.5 25l59 432h-516l-60 -432q-2 -16 19.5 -24.5t49.5 -11.5t53.5 -4t33.5 -1l-22 -170q-70 0 -151 3t-140 3q-31 0 -69 -1t-78 -2l-80 -2t-74 -1z" />
<glyph unicode="I" horiz-adv-x="788" d="M29 -6l22 170q8 0 35 1t56.5 4t54 11t26.5 25l137 1016q2 14 -19.5 23t-49 12.5t-54 4.5t-34.5 1l22 170q70 0 152 -3.5t141 -3.5q31 0 68 1t76.5 2.5t79.5 2.5t75 1l-22 -170q-8 0 -35 -1t-55.5 -4.5t-53 -12.5t-26.5 -23l-138 -1016q-2 -16 19.5 -24.5t49.5 -11.5 t53.5 -4t33.5 -1l-22 -170q-70 0 -151 3t-140 3q-31 0 -69 -1t-78 -2l-80 -2t-74 -1z" />
<glyph unicode="J" horiz-adv-x="788" d="M-90 -135q51 25 103.5 59.5t96.5 76.5t74.5 89t36.5 96l139 1035q2 14 -19.5 23t-49 12.5t-54 4.5t-34.5 1l22 170q70 0 152 -3.5t141 -3.5q31 0 68 1t76.5 2.5t79.5 2.5t75 1l-22 -170q-8 0 -35 -1t-55.5 -4.5t-53 -12.5t-26.5 -23l-121 -895q-18 -125 -51 -221.5 t-95.5 -173t-161 -139t-245.5 -120.5z" />
<glyph unicode="K" horiz-adv-x="1507" d="M29 -6l22 170q8 0 35 1t56.5 4t54 11t26.5 25l137 1016q2 14 -19.5 23t-49 12.5t-54 4.5t-34.5 1l22 170q70 0 152 -3.5t141 -3.5t142 3.5t153 3.5l-22 -170q-8 0 -34 -1t-54.5 -4.5t-52 -12.5t-25.5 -23l-58 -420l414 420q10 10 0 18t-29.5 13t-39 7.5t-27.5 2.5l22 170 q70 0 151 -3.5t140 -3.5q31 0 68 1t76.5 2.5t79.5 2.5t75 1l-22 -170q-8 0 -35 -2.5t-58.5 -7.5t-60.5 -13t-39 -18l-438 -441l364 -575q8 -12 37 -20.5t61.5 -13.5t60.5 -6t36 -1l-23 -170q-70 0 -150.5 3t-139.5 3q-31 0 -69 -1t-78 -2l-80 -2t-75 -1l23 170q8 0 24.5 1 t31 6t22.5 13.5t0 20.5l-240 381l-129 -129l-33 -252q-2 -16 19.5 -24.5t49.5 -11.5t53.5 -4t33.5 -1l-22 -170q-70 0 -151 3t-140 3q-31 0 -69 -1t-78 -2l-80 -2t-74 -1z" />
<glyph unicode="L" horiz-adv-x="1107" d="M29 -6l22 170q8 0 35 1t56.5 4t54 11t26.5 25l137 1016q2 14 -19.5 23t-49 12.5t-54 4.5t-34.5 1l22 170q70 0 152 -3.5t141 -3.5q31 0 68 1t76.5 2.5t78.5 2.5t74 1l-22 -170q-8 0 -35 -1t-55.5 -4.5t-53 -12.5t-26.5 -23l-138 -1018l336 -2q10 27 25.5 75t27.5 113h189 l-57 -395h-75t-121 1t-144.5 2t-143 2t-120 1h-72.5q-31 0 -69 -1t-78 -2l-80 -2t-74 -1z" />
<glyph unicode="M" horiz-adv-x="1875" d="M29 -6l22 170q8 0 35 1t56.5 4t54 11t26.5 25l137 1016q2 14 -19.5 23t-49 12.5t-54 4.5t-34.5 1l22 170q70 0 142.5 -3.5t132.5 -3.5h159l306 -735l542 735h107q59 0 140 3.5t151 3.5l-23 -170q-8 0 -34.5 -1t-55.5 -4.5t-53.5 -12.5t-26.5 -23l-137 -1016 q-2 -16 19.5 -24.5t49 -11.5t53 -4t34.5 -1l-23 -170q-70 0 -150.5 3t-140.5 3q-31 0 -68.5 -1t-77.5 -2l-80 -2t-75 -1l23 170q8 0 34.5 1t56.5 4t54.5 11t26.5 25l104 766l-547 -748l-315 729l-100 -747q-2 -16 19.5 -24.5t49 -11.5t53 -4t33.5 -1l-22 -170 q-70 0 -141.5 3t-131.5 3q-59 0 -137 -3t-147 -3z" />
<glyph unicode="N" horiz-adv-x="1579" d="M29 -6l22 170q8 0 35 1t56.5 4t54 11t26.5 25l137 1016q2 14 -19.5 23t-49 12.5t-54 4.5t-34.5 1l22 170q70 0 142.5 -3.5t132.5 -3.5h145l449 -897l92 693q2 14 -19.5 23t-49 12.5t-54.5 4.5t-35 1l23 170q70 0 142.5 -3.5t131.5 -3.5t136 3.5t147 3.5l-23 -170 q-8 0 -34.5 -1t-55.5 -4.5t-53.5 -12.5t-26.5 -23l-164 -1221h-211l-485 969l-102 -764q-2 -16 19.5 -24.5t49 -11.5t53 -4t33.5 -1l-22 -170q-70 0 -141.5 3t-131.5 3q-59 0 -137 -3t-147 -3z" />
<glyph unicode="O" horiz-adv-x="1388" d="M78 432q-8 60 -7 120q0 72 11 146q20 141 77.5 276.5t149.5 242t221 171t295 64.5q162 0 270.5 -62.5t171 -164t79.5 -231.5q8 -60 8 -121q0 -72 -11 -146q-20 -141 -77.5 -276.5t-150.5 -242t-222 -171t-295 -64.5q-162 0 -270.5 62.5t-170 164t-79.5 232.5zM358 458 q22 -118 88 -196t187 -78q115 0 204 78t146 196t79 254q11 70 11 134q-1 62 -11 120q-20 118 -86 195.5t-185 77.5q-117 0 -206 -78t-147 -195q-58 -118 -80 -254q-12 -70 -11 -135q0 -62 11 -119z" />
<glyph unicode="P" horiz-adv-x="1144" d="M29 -6l22 170q8 0 35 1t56.5 4t54 11t26.5 25l137 1016q2 14 -19.5 23t-49 12.5t-54 4.5t-34.5 1l22 170q70 0 152 -3.5t141 -3.5t107.5 3.5t79.5 3.5q86 0 175 -18.5t158.5 -67t105.5 -131.5q24 -55 23 -131q0 -39 -6 -83q-18 -127 -73.5 -210.5t-134.5 -135t-175 -72 t-196 -20.5h-47l-48 -358q-2 -16 19.5 -24.5t49.5 -11.5t53.5 -4t33.5 -1l-22 -170q-70 0 -151 3t-140 3q-31 0 -69 -1t-78 -2l-80 -2t-74 -1zM563 766h49q117 0 186 55t87 178q5 32 5 59q0 78 -38 116q-47 48 -146 47h-16l-65 -2z" />
<glyph unicode="Q" horiz-adv-x="1388" d="M78 425q-7 59 -7 120q0 72 11 147q20 141 77.5 278.5t149.5 244t221 172t295 65.5q139 0 239.5 -47t165 -128t94.5 -187q29 -102 29 -214v-8q-1 -116 -31 -236t-84 -228.5t-132 -198.5t-176 -146q51 -35 77.5 -60.5t51 -45t59.5 -33.5t103 -26l-23 -164h-174 q-57 0 -108.5 25.5t-97.5 63.5t-87 81t-80 75q-14 0 -27.5 -1t-25.5 -1q-162 0 -270.5 60.5t-170 161t-79.5 230.5zM358 458q21 -118 87.5 -196t187.5 -78q115 0 205 78t147 195.5t79 254.5q11 69 11 134q0 62 -11 120q-20 117 -87 195t-186 78q-115 0 -205 -78 t-147.5 -195.5t-78.5 -253.5q-12 -70 -12 -135q0 -62 10 -119z" />
<glyph unicode="R" horiz-adv-x="1310" d="M29 -6l22 170q8 0 35 1t56.5 4t54 11t26.5 25l137 1016q2 14 -19.5 23t-49 12.5t-54 4.5t-34.5 1l22 170q70 0 152 -3.5t141 -3.5t106.5 3.5t77.5 3.5q86 0 175.5 -18.5t159 -67t105.5 -130.5q24 -54 24 -130q0 -40 -7 -85q-23 -145 -89 -234t-165 -136l156 -391 q12 -35 28.5 -50.5t38 -22.5t48 -9t61.5 -8l-20 -150h-205q-47 0 -81 16.5t-58.5 39t-40 49t-23.5 47.5l-166 413q-16 -2 -31.5 -2h-31.5h-45l-48 -358q-2 -16 19.5 -24.5t49.5 -11.5t53.5 -4t33.5 -1l-22 -170q-70 0 -151 3t-140 3q-31 0 -69 -1t-78 -2l-80 -2t-74 -1z M563 766h47q117 0 186 55t87 178q5 32 5 59q0 78 -38 116q-47 48 -146 47h-16l-63 -2z" />
<glyph unicode="S" horiz-adv-x="1128" d="M31 57l47 346h194q-10 -53 -11 -94v-9q0 -38 7 -85q33 -16 86.5 -23.5t102.5 -7.5q74 0 134 37t92 93q28 49 28 104v14q-4 62 -60 111q-37 33 -85 56.5t-93 45.5q-53 27 -111.5 61.5t-103.5 83.5q-44 48 -68 114q-16 43 -16 95q0 27 4 56q14 106 66.5 182t124 123 t158.5 69.5t173 22.5q90 0 178.5 -20.5t192.5 -71.5l-47 -344h-195q9 53 11 95q0 7 1 13q0 37 -7 80q-31 18 -75 26.5t-85 8.5q-82 0 -147.5 -39t-77.5 -121q-1 -8 -1 -15q0 -45 41 -86q48 -48 116.5 -90t139 -78t109.5 -67q66 -53 104 -132q27 -56 27 -127q0 -30 -4 -62 q-16 -111 -69.5 -195t-130 -140t-171 -85t-188.5 -29t-185.5 18.5t-205.5 65.5z" />
<glyph unicode="T" horiz-adv-x="1198" d="M96 1036l56 398q33 0 107.5 -1t158.5 -4t158.5 -3.5t105.5 -0.5t105.5 1t160.5 3.5t164 3.5t115 1l-53 -398h-193q6 62 7 110v18q0 37 -3 65l-190 -2l-138 -1022q-2 -16 19.5 -24.5t49.5 -11.5t53.5 -4t33.5 -1l-22 -170q-70 0 -151 3t-140 3q-31 0 -69 -1t-78 -2l-80 -2 t-74 -1l22 170q8 0 35 1t56.5 4t54 11t26.5 25l137 1022l-190 2q-16 -37 -27.5 -84t-21.5 -109h-195z" />
<glyph unicode="U" horiz-adv-x="1466" d="M90 1262l23 170q70 0 151.5 -3.5t141.5 -3.5q31 0 67.5 1t76.5 2.5t80 2.5t75 1l-23 -170q-8 0 -34.5 -1t-55.5 -4.5t-53.5 -12.5t-26.5 -23l-104 -764q-5 -34 -5 -63q0 -86 43 -130q58 -60 189 -59q141 0 224 68.5t106 220.5l98 727q2 14 -19.5 23t-49 12.5t-54.5 4.5 t-35 1l23 170q70 0 144.5 -3.5t133.5 -3.5t139 3.5t150 3.5l-22 -170q-8 0 -35 -1t-55.5 -4.5t-53 -12.5t-26.5 -23l-99 -734q-39 -250 -196.5 -382t-399.5 -132q-117 0 -210 28t-156 87q-64 60 -90 152q-15 54 -14 120q0 47 7 99l103 762q2 14 -19.5 23t-49 12.5t-54.5 4.5 t-35 1z" />
<glyph unicode="V" horiz-adv-x="1402" d="M80 1262l22 170q70 0 152 -3.5t141 -3.5t142.5 3.5t152.5 3.5l-22 -170q-8 0 -35 -3.5t-56.5 -10.5t-51 -18t-19.5 -26l112 -776l381 793q6 14 -14 22t-49 12.5t-55.5 5.5t-34.5 1l22 170q70 0 143.5 -3.5t133.5 -3.5q59 0 138 3.5t149 3.5l-23 -170q-8 0 -32.5 -1 t-53.5 -5.5t-53.5 -12.5t-30.5 -22l-590 -1221h-235l-176 1221q-2 14 -25 23t-49.5 12.5t-51 4.5t-32.5 1z" />
<glyph unicode="W" horiz-adv-x="2070" d="M59 1262l23 170q70 0 146.5 -3.5t136.5 -3.5q31 0 68.5 1t78.5 2.5t81 2.5t75 1l-23 -170q-8 0 -35.5 -2.5t-56.5 -8.5t-51.5 -17t-18.5 -30l111 -778l362 688h193l149 -674l363 781q6 14 -14.5 22t-49 12.5t-55 5.5t-35.5 1l23 170q70 0 146.5 -3.5t135.5 -3.5t138 3.5 t149 3.5l-22 -170q-8 0 -33 -1t-53.5 -5.5t-53 -12.5t-30.5 -22l-570 -1221h-219l-147 698l-361 -698h-215l-178 1221q-2 14 -24.5 23t-50 12.5t-52 4.5t-31.5 1z" />
<glyph unicode="X" horiz-adv-x="1464" d="M23 -6l22 170q8 0 31.5 2t51.5 6t52.5 12.5t34.5 20.5l399 500l-264 516q-6 14 -28.5 22t-49 12.5t-49 5.5t-30.5 1l22 170q35 0 77 -1t85 -2.5t82 -2.5t69 -1q59 0 138 3.5t149 3.5l-22 -170q-8 0 -33 -4.5t-49.5 -11.5t-41 -17t-10.5 -25l138 -266l223 283 q8 12 -7.5 20t-39 12t-47 6.5t-31.5 2.5l23 170q70 0 139 -3.5t129 -3.5q31 0 68.5 1t79.5 2.5t83 2.5t76 1l-23 -170q-8 0 -31.5 -2.5t-51 -6.5t-52 -12t-35.5 -20l-399 -500l264 -516q6 -14 29 -22.5t49.5 -12.5t49 -5t30.5 -1l-23 -170q-35 0 -76.5 1t-84.5 2t-82 2 t-70 1q-59 0 -138 -3t-149 -3l23 170q8 0 32.5 4t49 11t41 17.5t10.5 24.5l-139 266l-221 -282q-10 -12 6 -20.5t39.5 -12.5t47 -6t32.5 -2l-23 -170q-70 0 -139.5 3t-128.5 3q-31 0 -70 -1t-80 -2l-82 -2t-75 -1z" />
<glyph unicode="Y" horiz-adv-x="1404" d="M92 1262l23 170q70 0 151.5 -3.5t141.5 -3.5q59 0 142 3.5t152 3.5l-22 -170q-8 0 -36 -3.5t-57.5 -10.5t-52 -18t-16.5 -26l156 -428l336 445q8 12 -11.5 20t-49 12t-57.5 6.5t-36 2.5l23 170q70 0 141.5 -3.5t130.5 -3.5t136 3.5t147 3.5l-23 -170q-8 0 -31.5 -2.5 t-51.5 -6.5t-53.5 -12t-33.5 -20l-477 -654l-49 -362q-2 -16 19.5 -24.5t49 -11.5t53 -4t33.5 -1l-22 -170q-70 0 -151 3t-140 3q-31 0 -68.5 -1t-77.5 -2l-80 -2t-75 -1l23 170q8 0 34.5 1t56 4t54.5 11t27 25l51 362l-252 654q-6 14 -28.5 22t-48.5 12.5t-49.5 5.5 t-31.5 1z" />
<glyph unicode="Z" horiz-adv-x="1208" d="M16 0l19 133l825 1090l-414 2q-31 -70 -49 -193h-196l55 402q41 0 93 -3.5t108 -3.5l780 -2l-25 -155l-800 -1069l456 -2q16 35 29.5 84t24.5 110h196l-55 -401q-41 0 -98.5 3t-112.5 3z" />
<glyph unicode="[" horiz-adv-x="743" d="M61 -467l273 2005h471l-27 -207h-211l-217 -1591h211l-26 -207h-474z" />
<glyph unicode="\" horiz-adv-x="788" d="M147 -467l267 2005h258l-266 -2005h-259z" />
<glyph unicode="]" horiz-adv-x="733" d="M74 -467l26 207h211l217 1591h-211l27 207h473l-272 -2005h-471z" />
<glyph unicode="^" horiz-adv-x="712" d="M-45 1262l442 292l361 -292l-107 -138l-291 168l-337 -168z" />
<glyph unicode="_" d="M94 -440l33 227h901l-33 -227h-901z" />
<glyph unicode="`" horiz-adv-x="712" d="M96 1346l160 208l360 -292l-116 -152z" />
<glyph unicode="a" horiz-adv-x="1116" d="M84 315q0 111 29.5 239t95 238.5t171 184.5t257.5 74q51 0 99 -26t79 -62l35 61h145l-110 -815q-4 -31 10 -41t35.5 -11t47.5 5t44 10l-21 -143q-53 -16 -118.5 -36t-122.5 -20q-59 0 -95 41q-28 32 -28 86q0 15 2 31l6 45q-53 -98 -129 -150.5t-174 -52.5q-76 0 -126 33 t-78.5 84t-41 111.5t-12.5 113.5zM324 344v-16q0 -66 15 -111q17 -51 58 -51q59 0 109.5 46t88.5 114.5t62.5 148.5t34.5 146l27 184q-23 23 -50.5 35t-50.5 12q-68 0 -121 -51t-90.5 -127t-59 -165t-23.5 -165z" />
<glyph unicode="b" horiz-adv-x="1081" d="M84 0l182 1343q4 33 -8 48.5t-36.5 19.5t-58.5 3t-73 -1l12 109q70 20 143.5 43.5t147.5 23.5q63 1 105 -35q33 -28 32 -79q0 -13 -2 -29l-82 -598q66 104 154 153.5t186 49.5q66 0 111 -29t72.5 -75t39 -102.5t11.5 -111.5q0 -113 -29.5 -245t-97.5 -246.5 t-178.5 -191.5t-272.5 -77q-53 0 -94 30t-67 58l-52 -61h-145zM362 217q29 -18 60 -25.5t59 -7.5q68 0 121 48.5t91 122t57.5 157.5t19.5 157.5t-19.5 122t-60.5 48.5q-59 0 -111.5 -47.5t-92.5 -116t-65.5 -145t-33.5 -134.5z" />
<glyph unicode="c" horiz-adv-x="911" d="M84 373q0 109 29.5 228.5t96 219t172 165t257.5 65.5q98 0 145 -30q48 -30 64 -78q13 -37 12 -81q0 -14 -1 -28q-5 -60 -13 -121h-146q-14 74 -39.5 103.5t-78.5 29.5q-78 0 -127 -50.5t-78 -121t-40 -146t-11 -129.5q0 -111 29.5 -164t115.5 -53q59 0 136 45t181 135 l46 -188q-88 -92 -197 -146.5t-227 -54.5q-100 0 -164 39t-99.5 99.5t-49 130t-13.5 131.5z" />
<glyph unicode="d" horiz-adv-x="1095" d="M84 315q0 125 33 255t99.5 236.5t166.5 175.5t235 69q29 0 65 -14.5t58 -37.5l47 344q4 33 -8 48.5t-36.5 19.5t-58.5 3t-73 -1l13 109q70 20 143.5 43.5t146.5 23.5q63 1 105 -35q33 -29 33 -81q0 -13 -2 -27l-166 -1237q-4 -31 10 -41t36.5 -11t47.5 5t43 10l-21 -143 q-53 -16 -117.5 -36t-121.5 -20q-59 0 -96 41q-29 32 -29 86q0 15 2 31l6 47q-47 -96 -127 -150.5t-176 -54.5q-76 0 -126 33t-78.5 84t-41 111.5t-12.5 113.5zM324 344v-16q0 -66 15 -111q17 -51 58 -51q59 0 108.5 44t86.5 110.5t61.5 144.5t34.5 145l29 195 q-23 23 -49.5 35t-49.5 12q-68 0 -122 -51t-91.5 -127t-58 -165t-22.5 -165z" />
<glyph unicode="e" horiz-adv-x="972" d="M84 369q0 63 12.5 139t38 151.5t67.5 146.5t102.5 125t138 87t178.5 33q55 0 106 -12.5t91 -40t64.5 -73.5t24.5 -112q0 -92 -59.5 -166t-147.5 -128t-190 -89t-188 -47q0 -31 6 -66.5t19 -65.5t37 -49.5t60 -19.5q39 0 76 8.5t77 29t86 55t105 85.5l43 -188 q-193 -199 -436 -199q-98 0 -158.5 41t-94 101.5t-46 129t-12.5 124.5zM340 563q49 6 105.5 24.5t104.5 45t78.5 62.5t30.5 79q0 35 -20.5 55.5t-60.5 20.5q-84 0 -148.5 -80t-89.5 -207z" />
<glyph unicode="f" horiz-adv-x="782" d="M-145 -518l24 184q14 -2 27 -4q10 -2 20.5 -3t16.5 -1q82 0 116.5 37t44.5 121l136 999h-152l23 174l157 35l19 141q14 113 54 193t97.5 131t129 75.5t151.5 24.5q29 0 62.5 -4t86.5 -18l-34 -262q-33 45 -66 58t-68 13q-61 0 -95 -40t-51 -95t-23.5 -115.5t-12.5 -101.5 h223l-28 -209h-224l-143 -1059q-10 -76 -44 -130t-85 -90t-112.5 -52t-127.5 -16q-23 0 -58.5 4t-63.5 10z" />
<glyph unicode="g" horiz-adv-x="1089" d="M20 -320q3 46 37.5 96t108.5 101l88 -84q-37 -33 -46 -56.5t2 -38.5t36.5 -22.5t58.5 -7.5q74 0 128 31t93 85t61.5 126t35.5 151l14 99q-23 -43 -55.5 -78t-71.5 -58.5t-82 -37t-82 -13.5q-76 0 -126 33t-80.5 84t-43 111.5t-12.5 113.5q0 111 29.5 239t95 238.5 t171 184.5t257.5 74q51 0 102.5 -27t75.5 -61l35 61h145l-123 -915q-18 -133 -52 -250t-97.5 -204t-161.5 -137t-244 -50q-59 0 -114.5 16t-97.5 45t-65 67q-21 34 -21 73q0 6 1 11zM324 345v-16q0 -66 15 -111q17 -50 58 -50q59 0 109.5 43t87.5 108.5t61.5 142.5t34.5 144 l29 199q-23 23 -50.5 35t-50.5 12q-68 0 -121 -50t-90.5 -127t-59 -165t-23.5 -165z" />
<glyph unicode="h" horiz-adv-x="1134" d="M84 0l182 1343q4 33 -8 48.5t-36.5 19.5t-58.5 3t-73 -1l12 109q70 20 143.5 43.5t147.5 23.5q63 1 105 -35q33 -28 32 -79q0 -13 -2 -29l-82 -598q45 88 130.5 145.5t181.5 57.5q66 0 111.5 -20.5t73.5 -56.5t37 -84q5 -25 5 -53q0 -25 -4 -51l-78 -577q-4 -31 10.5 -42 t36 -11t47 6t43.5 10l-20 -143q-53 -16 -126 -36t-130 -20q-59 0 -95 41q-28 32 -28 86q0 15 2 31l86 643q4 39 -7 52.5t-34 13.5q-68 -2 -119 -52.5t-88 -130t-62.5 -176t-42 -188.5t-26.5 -171t-16 -122h-250z" />
<glyph unicode="i" horiz-adv-x="661" d="M86 874l12 109q70 20 143.5 44t147.5 25q63 0 105 -37q33 -28 32 -79q0 -14 -2 -29l-94 -698q-4 -31 10.5 -41t36 -11t47 5t43.5 10l-20 -143q-53 -16 -122 -36t-126 -20q-59 0 -99 41q-32 33 -32 88q0 14 2 29l92 674q4 33 -8 48t-36.5 19.5t-58.5 3t-73 -1.5zM272 1329 q10 70 65.5 118t125.5 48q71 0 111 -48q32 -38 32 -91q0 -13 -2 -27q-10 -70 -64.5 -118t-123.5 -48q-70 1 -112 49q-34 39 -34 91q0 13 2 26z" />
<glyph unicode="j" horiz-adv-x="634" d="M-137 -516l26 182q18 -2 35 -4q14 -2 26.5 -3t16.5 -1q82 0 118 39t46 119l135 989q4 33 -8 48t-36.5 19.5t-58.5 3t-73 -1.5l12 109q70 20 143.5 44t147.5 24q63 0 104 -36q33 -29 33 -81q0 -13 -2 -27l-155 -1151q-10 -76 -45 -130t-85 -90t-112.5 -52t-126.5 -16 q-23 0 -50.5 3t-90.5 13zM279 1329q10 70 64 118t124 48t111 -48q34 -39 34 -92q0 -12 -2 -26q-10 -70 -65.5 -118t-124.5 -48q-70 0 -111 49q-32 38 -32 89q0 13 2 28z" />
<glyph unicode="k" horiz-adv-x="1064" d="M84 0l182 1343q4 33 -8 48.5t-36.5 19.5t-58.5 3t-73 -1l12 109q70 20 143.5 43.5t147.5 23.5q63 1 105 -35q33 -28 32 -79q0 -13 -2 -29l-114 -842l282 236q35 29 36 42t-17.5 17t-49 2t-61.5 -2l17 115q57 10 110 18q45 6 88 12.5t66 6.5q59 0 94 -23.5t45 -59.5 q4 -13 4 -27q0 -24 -12 -51q-18 -42 -62 -81l-278 -234l149 -331q16 -37 36 -54.5t44.5 -23.5t54 -5t64.5 1l-18 -148q-53 -18 -91 -29.5t-98 -11.5q-55 0 -105 25t-81 94l-146 322l-108 -92l-45 -322h-248z" />
<glyph unicode="l" horiz-adv-x="593" d="M92 1413l12 109q70 20 144 43.5t147 23.5q63 1 104 -35q33 -29 33 -81q0 -13 -2 -27l-168 -1237q-4 -31 10.5 -41t37 -11t47 5t43.5 10l-21 -143q-53 -16 -121.5 -36t-126.5 -20q-59 0 -99 41q-32 33 -32 88q0 14 2 29l166 1212q4 33 -8 48.5t-36.5 19.5t-58.5 3t-73 -1z " />
<glyph unicode="m" horiz-adv-x="1720" d="M66 874l12 109q70 20 143.5 44t147.5 25q63 0 104 -37q33 -29 33 -81q0 -13 -2 -27l-6 -59q45 88 129 145.5t180 58.5q55 0 97 -18t69.5 -47t42 -66.5t16.5 -78.5q23 45 56.5 84t75.5 66.5t88 43t94 16.5q70 0 115.5 -22t72.5 -59t34 -85q4 -26 4 -53q0 -23 -3 -47 l-78 -577q-4 -31 10.5 -41t36 -10t47 6t43.5 8l-20 -143q-53 -16 -126 -36t-130 -20q-59 0 -95 41q-28 32 -28 86q0 15 2 31l86 643q4 39 -7.5 52.5t-33.5 13.5q-72 0 -123 -50.5t-89 -129t-62.5 -176t-40 -190.5t-24.5 -172t-15 -122h-250l104 774q4 39 -7 52.5t-34 13.5 q-70 0 -121 -50.5t-88 -129t-62.5 -176t-40.5 -190.5t-24.5 -172t-15.5 -122h-250l109 805q4 33 -8.5 48t-37 19.5t-58.5 3t-72 -1.5z" />
<glyph unicode="n" horiz-adv-x="1191" d="M66 874l12 109q70 20 143.5 44t147.5 25q63 0 104 -37q33 -29 33 -81q0 -13 -2 -27l-6 -59q45 88 131 145.5t182 58.5q70 0 117 -21t73.5 -57t36.5 -84q5 -25 4 -51q0 -25 -4 -53l-77 -577q-4 -31 10 -41t35.5 -10t47.5 6t44 8l-21 -143q-53 -16 -125.5 -36t-130.5 -20 q-59 0 -95 41q-28 32 -28 86q0 15 2 31l86 643q4 39 -9 52.5t-36 13.5q-70 0 -122 -50.5t-89.5 -129t-62.5 -176t-42 -190.5t-26.5 -172t-15.5 -122h-250l109 805q4 33 -8.5 48t-37 19.5t-58.5 3t-72 -1.5z" />
<glyph unicode="o" horiz-adv-x="1077" d="M84 377q0 125 37 245.5t107.5 216t176 154t244.5 58.5q92 0 160 -31t112 -85t64.5 -128t20.5 -160q0 -125 -37 -245.5t-107.5 -216t-177 -154t-244.5 -58.5q-92 0 -159.5 31t-111.5 85t-64.5 128t-20.5 160zM344 391q0 -33 4 -70.5t16.5 -69.5t38 -53.5t68.5 -21.5 q86 0 139.5 46t83 116t40.5 149.5t11 145.5q0 33 -4 69.5t-16 69.5t-37.5 54.5t-69.5 21.5q-86 0 -139 -47t-82.5 -116t-41 -148.5t-11.5 -145.5z" />
<glyph unicode="p" horiz-adv-x="1155" d="M84 -520l178 1325q4 33 -8 48t-36.5 19.5t-58.5 3t-73 -1.5l12 109q70 20 143.5 44t147.5 24q63 0 105 -36q32 -28 32 -79q0 -14 -2 -29l-6 -59q25 33 57.5 68.5t71.5 65.5t84 49.5t92 19.5q92 0 145.5 -36t79 -90.5t31.5 -117t6 -113.5q0 -119 -28.5 -247t-91 -233 t-164 -173t-244.5 -68q-18 0 -39.5 5.5t-42 13.5t-39 20.5t-28.5 26.5l-74 -559h-250zM428 193q23 -23 52.5 -35.5t51.5 -12.5q78 0 134.5 52.5t93.5 130.5t54 168q15 81 15 151v17q-2 77 -22 129.5t-57 52.5q-59 0 -108.5 -41t-86.5 -104.5t-61.5 -141.5t-34.5 -151z" />
<glyph unicode="q" horiz-adv-x="1116" d="M84 315q0 111 29.5 239t95 238.5t170 184.5t256.5 74q51 0 101 -27t77 -61l35 61h147l-178 -1321q-4 -31 10.5 -41t37 -11t47 5t42.5 10l-20 -143q-53 -16 -122 -35.5t-126 -19.5q-59 0 -99 40q-32 33 -32 88q0 14 2 29l74 541q-47 -94 -124 -143.5t-167 -49.5 q-76 0 -125 33t-79 84t-41 111.5t-11 113.5zM324 344v-16q0 -65 15 -111q17 -51 56 -51q59 0 108.5 42t86.5 105.5t60.5 137t33.5 137.5l33 217q-23 23 -50.5 35t-50.5 12q-66 0 -119 -51t-90.5 -127t-59 -165t-23.5 -165z" />
<glyph unicode="r" horiz-adv-x="958" d="M86 874l12 109q70 20 143.5 44t147.5 25q63 0 105 -37q33 -28 32 -79q0 -14 -2 -29l-6 -59q45 88 131 145.5t182 58.5q74 0 104 -22t32 -57v-7q1 -32 -15 -73q-18 -45 -41 -92q-25 6 -66.5 12t-88.5 6q-72 0 -123 -48t-88 -125t-61.5 -171t-40 -185t-24.5 -169t-16 -121 h-249l108 805q4 33 -8 48t-36.5 19.5t-58.5 3t-73 -1.5z" />
<glyph unicode="s" horiz-adv-x="925" d="M84 174q0 35 3 66.5t7 64.5h144q10 -55 37.5 -92t91.5 -37q25 0 55.5 6t57 19.5t45 36t18.5 55.5q0 41 -28 69.5t-70 54t-90 51.5t-90 60.5t-69.5 82.5t-27.5 118q0 84 40 144.5t102.5 100.5t138 58.5t147.5 18.5q51 0 95 -8.5t77 -29t50.5 -57.5t17.5 -94 q0 -37 -5.5 -72.5t-9.5 -70.5h-143q-10 55 -36 92t-89 37q-18 0 -43 -4t-47.5 -14.5t-37.5 -27t-15 -38.5q0 -33 27.5 -58.5t70.5 -51t91 -55.5t91 -67.5t70.5 -88t27.5 -119.5q0 -94 -38.5 -161t-102 -109t-144.5 -61.5t-163 -19.5q-57 0 -104.5 8.5t-81 30t-52 60.5 t-18.5 102z" />
<glyph unicode="t" horiz-adv-x="778" d="M84 815l22 174l158 35l37 270l264 107l-51 -377h223l-28 -209h-224l-67 -491q-2 -18 -5 -41t0 -42.5t13 -32.5t33 -13t75 21.5t109 51.5l31 -182q-78 -51 -156 -82t-156 -31q-86 0 -129 38q-43 39 -59 93q-13 46 -13 96v20q3 62 9 108l66 487h-152z" />
<glyph unicode="u" horiz-adv-x="1222" d="M86 874l12 109q70 20 144.5 44t148.5 25q63 0 105 -37q33 -28 32 -79q0 -14 -2 -29l-88 -647q-4 -39 13.5 -57.5t40.5 -18.5q63 0 113 50.5t88 129t64.5 176t45 190.5t30 172t17.5 122h250l-109 -815q-4 -31 10.5 -41t36 -11t47 5t43.5 10l-20 -143q-53 -16 -121.5 -36 t-126.5 -20q-29 0 -54.5 10.5t-43.5 30.5q-19 20 -27 50q-5 20 -5 43q0 12 1 24l4 39q-45 -88 -134 -142.5t-185 -54.5q-66 0 -113 22.5t-75 59.5q-30 37 -40 85q-7 31 -6 62q0 18 2 36l78 567q4 33 -8 48t-36.5 19.5t-58.5 3t-73 -1.5z" />
<glyph unicode="v" horiz-adv-x="1128" d="M86 874l12 109q70 20 144.5 44t148.5 25q63 0 105 -37q33 -28 32 -79q0 -14 -2 -29l-88 -663q-4 -31 -2 -55.5t31 -24.5q66 0 129 76.5t110 199.5q46 122 66 276q11 80 11 160q0 74 -9 148h275q0 -115 -14.5 -237.5t-47.5 -239.5t-85 -221.5t-127 -182t-172 -124 t-220 -46.5q-101 -1 -161 49q-47 39 -47 110q0 19 3 40l84 633q4 33 -8 48t-36.5 19.5t-58.5 3t-73 -1.5z" />
<glyph unicode="w" horiz-adv-x="1615" d="M86 874l12 109q70 20 144.5 44t148.5 25q63 0 105 -37q33 -28 32 -79q0 -14 -2 -29l-88 -663q-4 -31 -2 -55.5t31 -24.5q66 0 126 74.5t104 196.5q45 123 67 277q15 101 14 203q0 55 -4 109h230q5 -66 5 -130q1 -54 -3 -108q-8 -114 -24.5 -214.5t-35 -183.5t-31.5 -144 q-6 -31 3.5 -55.5t37.5 -24.5q66 0 129.5 76.5t109.5 199.5q47 122 67 276q11 82 10 164q0 72 -8 144h274q0 -109 -13.5 -228.5t-45 -236.5t-82.5 -223.5t-126 -186t-173.5 -128t-225.5 -48.5q-23 0 -51 7.5t-54 22.5t-44 40t-21 57q-66 -66 -148.5 -96.5t-174.5 -30.5 q-103 -1 -159 49q-44 40 -45 112q0 18 3 38l84 633q4 33 -8 48t-36.5 19.5t-58.5 3t-73 -1.5z" />
<glyph unicode="x" horiz-adv-x="1216" d="M92 111q0 16 7 37.5t22.5 42t38 34t55.5 13.5q27 0 50.5 -10.5t47.5 -10.5q27 0 60 39t63.5 89t54 97t33.5 66l-88 283q-12 39 -41.5 57t-61.5 23.5t-61.5 2t-44.5 -3.5l-43 101q59 25 128 52.5t139 27.5t108.5 -27t60 -68t34 -91t26.5 -99q27 45 59.5 95t73.5 92t91 70 t114 28q14 0 45 -4.5t61 -18.5t50 -42q19 -26 18 -65v-8q-2 -16 -9 -37.5t-22.5 -41t-38 -33t-53.5 -13.5q-29 0 -52.5 9.5t-51.5 9.5q-27 0 -59 -37t-61.5 -84t-54 -92t-32.5 -62q4 -14 15 -54t26.5 -89t32 -100t32.5 -86q10 -27 35 -38t53.5 -13t55 0t41.5 4l49 -103 q-25 -10 -56.5 -24.5t-66.5 -26.5t-71 -20.5t-68 -8.5q-68 0 -106 30t-61.5 75t-35.5 98t-27 98q-27 -43 -59.5 -96t-73.5 -98t-92 -76t-113 -31q-25 0 -55.5 8.5t-58.5 24.5q-28 18 -46 44q-17 24 -16 54v7z" />
<glyph unicode="y" horiz-adv-x="1191" d="M86 874l12 109q70 20 144.5 44t148.5 24q63 0 105 -36q32 -28 32 -79q0 -14 -2 -29l-90 -657q-4 -39 11.5 -58.5t37.5 -19.5q68 2 119 53t90 132t65.5 179.5t45 191.5t29 173t16.5 123h250l-123 -899q-18 -133 -52 -250t-97.5 -204t-161 -137t-242.5 -50 q-59 0 -114.5 16.5t-97.5 45t-66 67.5q-20 35 -20 74v10q3 45 38 95t108 102l88 -84q-37 -33 -46 -56.5t2.5 -39t37 -22.5t58.5 -7q74 0 127 30.5t90 85t59.5 126t34.5 151.5l14 98q-45 -88 -135 -145.5t-186 -57.5q-66 0 -113 22.5t-75.5 59.5t-39.5 85q-6 31 -6 62 q0 18 2 36l78 567q4 33 -8 48t-36.5 19.5t-58.5 3t-73 -1.5z" />
<glyph unicode="z" horiz-adv-x="1128" d="M92 0l17 139l587 692h-149q-45 0 -94 3q-41 0 -71 -9.5t-52.5 -27t-42 -41t-41.5 -54.5l-123 33q18 49 40.5 101.5t55.5 95.5t79 70.5t112 27.5l643 -6l-13 -104l-616 -727q27 0 72 -1.5t88 -1.5q51 -2 104 -2q41 0 69.5 12.5t52.5 34t43 49t42 58.5l123 -33 q-18 -49 -36.5 -104t-47.5 -102.5t-72 -78t-108 -30.5z" />
<glyph unicode="{" horiz-adv-x="808" d="M123 440l27 199q61 -6 102 17.5t65.5 67.5t37 101.5t18.5 118t9 117.5t9 100q25 197 151 287t388 90l-29 -211q-82 0 -132 -18.5t-77.5 -50t-39 -73.5t-14.5 -91.5t-4 -102.5t-7 -104q-12 -102 -50 -195.5t-126 -159.5q51 -49 68.5 -115.5t15 -138t-16.5 -143.5t-24 -133 q-8 -49 -14.5 -95t9 -83t60.5 -58.5t139 -21.5l-29 -211q-254 0 -357 94t-79 295q4 39 17.5 92.5t24.5 110.5t15.5 114.5t-8 101.5t-47.5 71.5t-102 27.5z" />
<glyph unicode="|" horiz-adv-x="686" d="M147 -467l267 2005h258l-266 -2005h-259z" />
<glyph unicode="}" horiz-adv-x="808" d="M8 -467l29 211q82 0 132 18.5t78.5 50t40 73.5t14.5 91.5t3 102.5t6 104q14 100 50 194.5t126 160.5q-51 49 -68.5 115.5t-14 138t16.5 143.5t23 133q8 49 14.5 95t-9 83t-60.5 58.5t-139 21.5l29 211q254 0 357 -94t79 -295q-4 -39 -17.5 -92t-24.5 -110.5t-15.5 -115 t9 -101.5t47 -71.5t101.5 -27.5l-27 -199q-61 6 -102 -17.5t-65.5 -67.5t-37 -101.5t-18.5 -117.5t-9 -117.5t-9 -100.5q-25 -197 -151 -287t-388 -90z" />
<glyph unicode="~" horiz-adv-x="712" d="M-27 489q27 25 57.5 52.5t64.5 50t72 37t77 14.5q31 0 59.5 -10t55 -23.5t53 -24t55.5 -10.5q45 0 83 25t68 53l121 -137q-23 -25 -51.5 -53.5t-60 -51t-67.5 -38t-73 -15.5q-31 0 -59.5 10.5t-57 24t-57 23.5t-59.5 10q-47 0 -86 -23.5t-72 -52.5z" />
<glyph unicode="&#xa1;" horiz-adv-x="649" d="M162 0l174 1030h221l-94 -1030h-301zM322 1288q4 33 21 63.5t43 52t56.5 35t65.5 13.5q68 0 108.5 -48t32.5 -116q-4 -35 -21.5 -64.5t-43 -51t-57 -35t-64.5 -13.5q-35 0 -62.5 13.5t-47 35t-28 51t-3.5 64.5z" />
<glyph unicode="&#xa2;" d="M240 373q0 96 23.5 200.5t73.5 196.5t129 164t191 100l21 146h203l-19 -131q76 -8 113 -41t49 -79t7 -102.5t-13 -113.5h-146q-6 39 -15 66.5t-26 37.5l-79 -596q80 41 192 141l45 -188q-57 -59 -124.5 -105t-143.5 -71l-21 -152h-202l16 131q-84 10 -137 51.5t-84 98.5 t-42 122.5t-11 123.5zM481 399q0 -76 14.5 -125t49.5 -71l84 606q-43 -33 -72 -85t-45 -110.5t-23.5 -116t-7.5 -98.5z" />
<glyph unicode="&#xa3;" d="M68 -8l24 172q8 0 34 1t53.5 4t51 11t25.5 25l43 311h-158l29 195h156l20 147q14 104 57 180t109 124t148.5 70.5t177.5 22.5q47 0 86 -5t76.5 -15t79 -26.5t94.5 -39.5l-48 -338h-196q10 66 8 113t-6 70q-35 23 -63.5 31t-71.5 8q-86 0 -128 -34t-53 -120l-26 -188h241 l-28 -195h-242l-43 -317h305q10 25 21.5 69.5t21.5 112.5h197l-55 -389q-47 0 -104.5 3t-112.5 3l-429 2q-59 0 -142 -4t-152 -4z" />
<glyph unicode="&#xa4;" d="M133 334l88 86q-82 113 -82 252t82 252l-88 86l92 90l90 -88q47 39 110.5 60.5t135.5 21.5q68 0 131.5 -20.5t114.5 -61.5l90 88l92 -90l-90 -86q41 -53 62.5 -117t21.5 -135q0 -143 -86 -252l92 -86l-92 -90l-90 88q-51 -41 -114.5 -61.5t-131.5 -20.5 q-72 0 -135.5 21.5t-110.5 60.5l-90 -88zM283 672q0 -63 21.5 -116.5t59 -92.5t88 -60.5t109.5 -21.5q57 0 108.5 21.5t89.5 60.5t59.5 92.5t21.5 116.5t-21.5 116.5t-59.5 92.5t-89.5 60.5t-108.5 21.5q-59 0 -109.5 -21.5t-88 -60.5t-59 -92.5t-21.5 -116.5z" />
<glyph unicode="&#xa5;" d="M143 274l27 195h295l-25 70h-260l27 194h168l-99 291q-4 14 -18 22.5t-30.5 12.5t-32 5t-23.5 1l25 174q35 -2 61.5 -4t50 -3t48 -2t55.5 -1q59 0 129.5 3t142.5 7l-25 -174q-8 0 -26.5 -1t-36.5 -5t-30.5 -12.5t-8.5 -22.5l96 -291h33l170 293q8 14 -2 22.5t-28.5 12.5 t-37 5t-26.5 1l24 172q70 0 119 -4t109 -4q61 0 107 4t116 4l-25 -172q-8 0 -25.5 -1t-38 -5t-38.5 -12.5t-27 -22.5l-174 -293h174l-26 -194h-262l-41 -70h293l-27 -195h-307l-11 -69q-2 -16 19.5 -24.5t49.5 -11.5t54.5 -4t34.5 -1l-24 -172q-70 0 -152 4t-141 4 q-31 0 -68 -1t-77 -3t-78.5 -3t-73.5 -1l24 172q8 0 35 1t55.5 4t53 11t26.5 25l11 69h-308z" />
<glyph unicode="&#xa6;" horiz-adv-x="686" d="M147 -467l111 838h258l-110 -838h-259zM303 700l111 838h258l-111 -838h-258z" />
<glyph unicode="&#xa7;" horiz-adv-x="1067" d="M193 -233l38 272h175q-6 -43 -7.5 -70.5t2.5 -42.5q29 -14 61 -19t68 -5q31 0 63 10t56.5 28.5t42 43t21.5 51.5q6 47 -31 77.5t-94.5 57.5t-126 53.5t-123.5 66.5t-88 98t-21 147q6 53 30 98t57.5 83t75.5 69.5t85 56.5q-59 41 -98 102.5t-27 147.5q12 82 56.5 149.5 t109 113.5t141 71.5t152.5 25.5q68 0 137.5 -15.5t151.5 -54.5l-39 -272h-174q6 41 7 67.5t-1 43.5q-55 27 -131 26q-55 0 -104.5 -32.5t-55.5 -79.5t31 -79t95 -58.5t128 -55.5t126 -70t90 -99t22 -144q-16 -106 -84 -181t-154 -124q59 -41 92 -101.5t21 -150.5 q-12 -92 -60.5 -162t-116 -117t-150.5 -71.5t-165 -24.5q-68 0 -137.5 15.5t-146.5 54.5zM485 565q-4 -31 11.5 -53.5t40 -38.5t54.5 -28.5t54 -20.5q23 12 53.5 30.5t59 41t50.5 48t26 52.5q6 37 -9.5 60.5t-40 40t-55.5 26.5t-57 22q-25 -14 -56.5 -32.5t-59.5 -42 t-47.5 -50t-23.5 -55.5z" />
<glyph unicode="&#xa8;" horiz-adv-x="712" d="M14 1329q8 66 59.5 111t116.5 45q66 0 105 -45t31 -111q-10 -66 -61.5 -110.5t-117.5 -44.5t-104.5 45t-28.5 110zM389 1329q8 66 59.5 111t116.5 45q66 0 104.5 -45t30.5 -111q-10 -66 -61 -110.5t-117 -44.5t-104.5 45t-28.5 110z" />
<glyph unicode="&#xa9;" horiz-adv-x="1650" d="M186 713q20 154 98 288t192 234t257.5 158.5t296.5 58.5q154 0 280 -58.5t212 -158.5t124.5 -234t18.5 -288q-23 -154 -99.5 -288t-190 -234.5t-257 -159t-297.5 -58.5t-279.5 58.5t-211.5 159t-126 234.5t-18 288zM379 713q-16 -113 12.5 -212.5t93 -174t157.5 -117.5 t206 -43t219.5 43t190 117.5t141.5 174t74 212.5t-12.5 212t-93 174t-159 118t-207.5 43t-218 -43t-190 -118t-141.5 -174.5t-72.5 -211.5zM551 709q12 80 45 154.5t88 133t134 94t181 35.5q100 0 155.5 -31.5t90.5 -62.5l-31 -215h-157q4 35 6 54.5t-4 50.5q-16 16 -40 21 t-52 5q-74 0 -125 -64.5t-66 -156.5q-16 -111 18.5 -180.5t129.5 -69.5q16 0 36.5 4t38.5 8q10 29 15.5 47.5t9.5 47.5h158l-31 -219q-90 -37 -151.5 -51.5t-122.5 -14.5q-100 0 -168 35t-107 92t-50 131t-1 152z" />
<glyph unicode="&#xaa;" horiz-adv-x="911" d="M283 1022q10 61 50 100t97 64q55 25 115.5 38t120.5 23l6 53q6 41 -12.5 56.5t-61.5 15.5q-39 0 -67.5 -22.5t-34.5 -63.5h-138l23 174q86 43 147.5 60.5t130.5 17.5q115 0 179.5 -54t50.5 -167l-39 -275q-4 -33 13 -41t52 -12l-18 -137h-168q-31 0 -47 14.5t-27 32.5 q-29 -29 -77 -45t-95 -16q-45 0 -85 12t-67.5 36.5t-41 58.5t-6.5 77zM498 1040q-4 -27 15 -36t42 -5q25 4 46.5 13.5t31.5 15.5l12 86q-18 -4 -41.5 -9t-46.5 -13t-39 -21.5t-20 -30.5z" />
<glyph unicode="&#xab;" horiz-adv-x="1390" d="M197 532l452 474l164 -127l-295 -347l199 -346l-201 -127zM776 532l453 474l164 -127l-295 -347l198 -346l-200 -127z" />
<glyph unicode="&#xac;" d="M172 434l31 228h901l-78 -553h-227l47 325h-674z" />
<glyph unicode="&#xad;" horiz-adv-x="430" />
<glyph unicode="&#xae;" horiz-adv-x="1650" d="M186 713q20 154 98 288t192 234t257.5 158.5t296.5 58.5q154 0 280 -58.5t212 -158.5t124.5 -234t18.5 -288q-23 -154 -99.5 -288t-190 -234.5t-257 -159t-297.5 -58.5t-279.5 58.5t-211.5 159t-126 234.5t-18 288zM379 713q-16 -113 12.5 -212.5t93 -174t157.5 -117.5 t206 -43t219.5 43t190 117.5t141.5 174t74 212.5t-12.5 212t-93 174t-159 118t-207.5 43t-218 -43t-190 -118t-141.5 -174.5t-72.5 -211.5zM553 311l18 131q16 -2 29 0q27 4 29 15l69 491q0 10 -26 15q-12 2 -27 0l21 147q49 0 87 -1t68 -1q33 0 56.5 1t40.5 1q68 0 132 -8 t112 -35t73.5 -77t13.5 -134q-10 -63 -32.5 -103t-49 -63.5t-50 -35t-36.5 -17.5l45 -105q16 -35 35 -55t56 -24l-19 -142h-111q-55 0 -89.5 34t-58.5 81t-39 97t-30 81h-18l-21 -147q-2 -10 17 -15q8 -2 18 0l-18 -131q-49 0 -76 1t-61 1q-35 0 -71 -1t-87 -1zM879 778h28 q53 0 86 12.5t41 65.5q6 49 -19.5 64.5t-84.5 15.5h-29z" />
<glyph unicode="&#xaf;" horiz-adv-x="712" d="M33 1245l24 168h623l-25 -168h-622z" />
<glyph unicode="&#xb0;" horiz-adv-x="917" d="M336 1165q8 59 37.5 111.5t75 91.5t100.5 61.5t115 22.5q59 0 108 -22.5t82 -61.5t48 -91.5t7 -111.5t-37.5 -111.5t-74.5 -91t-100.5 -61t-114.5 -22.5t-108.5 22.5t-82.5 61t-48 91t-7 111.5zM506 1165q-6 -47 22.5 -81.5t77.5 -34.5q47 0 87 34.5t46 81.5t-23.5 82 t-76.5 35q-49 0 -88 -35t-45 -82z" />
<glyph unicode="&#xb1;" d="M125 98l31 228h901l-31 -228h-901zM217 756l31 227h338l47 336h227l-47 -336h336l-31 -227h-338l-47 -336h-227l47 336h-336z" />
<glyph unicode="&#xb2;" horiz-adv-x="1425" d="M201 0v1024h1024v-1024h-1024zM430 229h565v566h-565v-566z" />
<glyph unicode="&#xb3;" horiz-adv-x="1425" d="M201 0v1024h1024v-1024h-1024zM430 229h565v566h-565v-566z" />
<glyph unicode="&#xb4;" horiz-adv-x="712" d="M84 1262l442 292l103 -208l-471 -236z" />
<glyph unicode="&#xb5;" horiz-adv-x="1425" d="M201 0v1024h1024v-1024h-1024zM430 229h565v566h-565v-566z" />
<glyph unicode="&#xb6;" horiz-adv-x="1421" d="M180 997q20 137 87 223.5t156 132.5t188.5 62.5t183.5 16.5q14 0 53 -1t84 -2.5t91 -2.5t77 -1t84 1t113.5 3.5t116.5 3.5t91 1l-22 -172q-8 0 -34 -1t-54.5 -4.5t-51 -12.5t-24.5 -23l-135 -1016q-2 -16 18.5 -24.5t47 -11.5t52 -4t33.5 -1l-24 -172q-35 0 -84 1 t-101.5 3t-99.5 3t-78 1l166 1237h-110l-168 -1237q-31 0 -79 -1t-100.5 -3t-102.5 -3t-85 -1l25 172q8 0 33.5 1t54 4t51 11t24.5 25l41 336h-6q-106 0 -206.5 17t-175 67.5t-112.5 139.5t-18 232z" />
<glyph unicode="&#xb7;" d="M475 547q4 33 21.5 63.5t43 52t56.5 35t66 13.5q68 0 108.5 -48t32.5 -116q-6 -35 -23.5 -64.5t-43 -51t-57.5 -35t-65 -13.5q-68 0 -108.5 48t-30.5 116z" />
<glyph unicode="&#xb8;" horiz-adv-x="712" d="M135 -446l78 153q27 -10 52.5 -17t53.5 -7q14 0 32 5t18 23q0 23 -19.5 43.5t-47.5 36.5t-56.5 28.5t-44.5 18.5l82 162h204l-36 -70q53 -35 90 -87.5t37 -118.5q0 -51 -21.5 -92.5t-57.5 -70t-81 -44t-92 -15.5q-51 0 -98.5 14.5t-92.5 37.5z" />
<glyph unicode="&#xb9;" horiz-adv-x="1425" d="M201 0v1024h1024v-1024h-1024zM430 229h565v566h-565v-566z" />
<glyph unicode="&#xba;" horiz-adv-x="909" d="M274 1180q8 66 38 130t81 114.5t122 82t163 31.5q88 0 147.5 -29.5t94 -79t46 -111t3.5 -122.5q-10 -66 -39 -130.5t-80 -115.5t-122 -81.5t-163 -30.5q-88 0 -148.5 29.5t-95 77.5t-46 109.5t-1.5 125.5zM495 1135.5q-1 -33.5 6 -63.5t27.5 -51.5t61.5 -21.5 q63 0 103 48.5t50 134.5q4 25 5.5 58.5t-6 63t-29 51t-60.5 21.5q-63 0 -103 -48t-50 -134q-4 -25 -5 -58.5z" />
<glyph unicode="&#xbb;" horiz-adv-x="1390" d="M147 186l297 346l-200 347l200 127l322 -474l-455 -473zM727 186l297 346l-201 347l201 127l322 -474l-455 -473z" />
<glyph unicode="&#xbc;" horiz-adv-x="1425" d="M201 0v1024h1024v-1024h-1024zM430 229h565v566h-565v-566z" />
<glyph unicode="&#xbd;" horiz-adv-x="1425" d="M201 0v1024h1024v-1024h-1024zM430 229h565v566h-565v-566z" />
<glyph unicode="&#xbe;" horiz-adv-x="1425" d="M201 0v1024h1024v-1024h-1024zM430 229h565v566h-565v-566z" />
<glyph unicode="&#xbf;" horiz-adv-x="931" d="M250 250q0 68 28.5 137.5t83.5 126.5q45 47 89.5 80t80 63.5t58 64.5t22.5 81q0 61 -47 155l176 103q59 -86 90 -152.5t31 -130.5q0 -74 -43 -142.5t-135 -146.5q-23 -18 -50.5 -40.5t-52 -47t-42 -52t-19.5 -58.5q-4 -39 24.5 -74t82.5 -35q162 0 196 156h158l-31 -244 q-102 -59 -189 -90t-188 -31q-84 0 -144 22.5t-100 61.5t-59.5 88.5t-19.5 104.5zM606 1286q6 33 22.5 63.5t42 52t57.5 35t67 13.5q68 0 108.5 -48t30.5 -116q-4 -35 -21.5 -64.5t-43 -51t-57.5 -35t-64 -13.5q-35 0 -63 13.5t-47.5 35t-27.5 51t-4 64.5z" />
<glyph unicode="&#xc0;" horiz-adv-x="1456" d="M23 -6l22 170q8 0 32.5 1t53.5 5t54.5 12t31.5 23l561 1196l230 63l213 -1259q2 -16 23.5 -24.5t48 -11.5t51 -4t32.5 -1l-22 -170q-70 0 -151 3t-140 3q-31 0 -69 -1t-77.5 -2t-79.5 -2t-75 -1l22 170q8 0 37 1t59.5 4t54 11t21.5 25l-28 178h-387l-84 -178 q-6 -14 14.5 -22.5t49 -12.5t56 -5t35.5 -1l-22 -170q-35 0 -74 1t-79 2t-76.5 2t-67.5 1q-59 0 -130 -3t-140 -3zM637 580h256l-66 438zM651 1776l160 209l360 -293l-114 -152z" />
<glyph unicode="&#xc1;" horiz-adv-x="1456" d="M23 -6l22 170q8 0 32.5 1t53.5 5t54.5 12t31.5 23l561 1196l230 63l213 -1259q2 -16 23.5 -24.5t48 -11.5t51 -4t32.5 -1l-22 -170q-70 0 -151 3t-140 3q-31 0 -69 -1t-77.5 -2t-79.5 -2t-75 -1l22 170q8 0 37 1t59.5 4t54 11t21.5 25l-28 178h-387l-84 -178 q-6 -14 14.5 -22.5t49 -12.5t56 -5t35.5 -1l-22 -170q-35 0 -74 1t-79 2t-76.5 2t-67.5 1q-59 0 -130 -3t-140 -3zM637 580h256l-66 438zM750 1692l442 293l102 -209l-471 -236z" />
<glyph unicode="&#xc2;" horiz-adv-x="1456" d="M23 -6l22 170q8 0 32.5 1t53.5 5t54.5 12t31.5 23l561 1196l230 63l213 -1259q2 -16 23.5 -24.5t48 -11.5t51 -4t32.5 -1l-22 -170q-70 0 -151 3t-140 3q-31 0 -69 -1t-77.5 -2t-79.5 -2t-75 -1l22 170q8 0 37 1t59.5 4t54 11t21.5 25l-28 178h-387l-84 -178 q-6 -14 14.5 -22.5t49 -12.5t56 -5t35.5 -1l-22 -170q-35 0 -74 1t-79 2t-76.5 2t-67.5 1q-59 0 -130 -3t-140 -3zM516 1692l442 293l363 -293l-109 -138l-290 168l-336 -168zM637 580h256l-66 438z" />
<glyph unicode="&#xc3;" horiz-adv-x="1456" d="M23 -6l22 170q8 0 32.5 1t53.5 5t54.5 12t31.5 23l561 1196l230 63l213 -1259q2 -16 23.5 -24.5t48 -11.5t51 -4t32.5 -1l-22 -170q-70 0 -151 3t-140 3q-31 0 -69 -1t-77.5 -2t-79.5 -2t-75 -1l22 170q8 0 37 1t59.5 4t54 11t21.5 25l-28 178h-387l-84 -178 q-6 -14 14.5 -22.5t49 -12.5t56 -5t35.5 -1l-22 -170q-35 0 -74 1t-79 2t-76.5 2t-67.5 1q-59 0 -130 -3t-140 -3zM539 1761q27 25 57.5 52.5t64 50t70.5 37t76 14.5q33 0 60.5 -10.5t55 -23.5t54.5 -23.5t55 -10.5q45 0 83 24.5t69 53.5l121 -137q-23 -27 -51.5 -54.5 t-60.5 -51t-67.5 -38t-72.5 -14.5q-31 0 -59.5 10.5t-57.5 23.5t-57.5 23.5t-59.5 10.5q-47 0 -86 -23.5t-71 -52.5zM637 580h256l-66 438z" />
<glyph unicode="&#xc4;" horiz-adv-x="1456" d="M23 -6l22 170q8 0 32.5 1t53.5 5t54.5 12t31.5 23l561 1196l230 63l213 -1259q2 -16 23.5 -24.5t48 -11.5t51 -4t32.5 -1l-22 -170q-70 0 -151 3t-140 3q-31 0 -69 -1t-77.5 -2t-79.5 -2t-75 -1l22 170q8 0 37 1t59.5 4t54 11t21.5 25l-28 178h-387l-84 -178 q-6 -14 14.5 -22.5t49 -12.5t56 -5t35.5 -1l-22 -170q-35 0 -74 1t-79 2t-76.5 2t-67.5 1q-59 0 -130 -3t-140 -3zM594 1759q10 66 60.5 111t115.5 45q66 0 105.5 -45t29.5 -111t-61 -110.5t-117 -44.5t-104.5 45t-28.5 110zM637 580h256l-66 438zM969 1759q10 66 60 111 t116 45t105.5 -45t29.5 -111t-61.5 -110.5t-116.5 -44.5q-66 0 -105 45t-28 110z" />
<glyph unicode="&#xc5;" horiz-adv-x="1456" d="M23 -6l22 170q8 0 32.5 1t53.5 5t54.5 12t31.5 23l561 1196l230 63l213 -1259q2 -16 23.5 -24.5t48 -11.5t51 -4t32.5 -1l-22 -170q-70 0 -151 3t-140 3q-31 0 -69 -1t-77.5 -2t-79.5 -2t-75 -1l22 170q8 0 37 1t59.5 4t54 11t21.5 25l-28 178h-387l-84 -178 q-6 -14 14.5 -22.5t49 -12.5t56 -5t35.5 -1l-22 -170q-35 0 -74 1t-79 2t-76.5 2t-67.5 1q-59 0 -130 -3t-140 -3zM637 580h256l-66 438zM735 1812q6 47 29.5 88.5t59.5 72t79 48t90 17.5t85 -17.5t64.5 -48t38 -72t5.5 -88.5t-29.5 -88t-58.5 -71.5t-78 -48t-90 -17.5 t-86 17.5t-64.5 48t-38 71.5t-6.5 88zM885 1812q-4 -31 15.5 -53t49.5 -22q33 0 57.5 22t28.5 53t-14 53.5t-49 22.5q-33 0 -58.5 -22.5t-29.5 -53.5z" />
<glyph unicode="&#xc6;" horiz-adv-x="1894" d="M23 -8l24 172q8 0 30.5 1t48.5 5t48.5 12t32.5 23l747 1229q70 0 129.5 -4.5t118.5 -4.5h74.5t126.5 1t152.5 2.5t154.5 2.5t131 1h82l-53 -396h-191q10 53 12.5 98.5t-5.5 96.5l-365 -2l-55 -398h151q16 0 26.5 13.5t16.5 31t8 35t5 25.5h165q-4 -35 -8 -59.5t-8 -47 l-8 -45t-8 -51.5q-4 -31 -6.5 -52.5t-4.5 -43t-4 -46t-8 -59.5h-166q0 6 2 23.5t1 36t-7 32t-20 13.5h-152l-59 -440l374 -2q10 27 25.5 78t28.5 116h188l-57 -395h-79t-130 1t-157 2t-155.5 2t-129 1h-76.5q-31 0 -69 -1t-78 -3t-79.5 -3t-74.5 -1l24 172q8 0 35 1t55.5 4 t53 11t26.5 25l25 178h-383l-109 -178q-10 -14 7.5 -22.5t43 -12.5t50 -5t32.5 -1l-24 -172q-70 0 -145.5 4t-135.5 4q-61 0 -118.5 -4t-126.5 -4zM666 580h292l91 632z" />
<glyph unicode="&#xc7;" horiz-adv-x="1220" d="M79 457q-13 125 5 256q20 143 76.5 276t148.5 236.5t220 165t292 61.5q86 0 150.5 -15.5t113 -38t81 -49t55.5 -46.5l-43 -318h-199q10 55 11 91t-7 89q-37 39 -81 56.5t-109 17.5q-86 0 -158 -44t-126 -114.5t-89 -162t-49 -183.5q-18 -115 -12 -215t40.5 -176t99 -120 t165.5 -44q39 0 95 17.5t103 40.5q20 43 30.5 83.5t18.5 88.5h191l-47 -334q-86 -41 -167 -63.5t-159 -32.5l-27 -50q53 -35 89 -88t36 -118q0 -51 -21.5 -92.5t-56 -70t-79.5 -44t-95 -15.5q-49 0 -97 14.5t-91 37.5l78 153q25 -10 51.5 -17t54.5 -7q14 0 30.5 5t16.5 23 q0 23 -19 43.5t-46 36.5t-55.5 28.5t-44.5 18.5l71 139q-141 18 -234 86t-145.5 168.5t-65.5 225.5z" />
<glyph unicode="&#xc8;" horiz-adv-x="1200" d="M29 -6l22 170q8 0 35 1t56.5 4t54 11t26.5 25l137 1016q2 14 -19.5 23t-49 12.5t-54 4.5t-34.5 1l22 170q70 0 144.5 -3.5t134.5 -3.5h74.5t127 1t153.5 2.5t156 2.5t132 1h82l-53 -396h-191q10 53 12 98.5t-6 96.5l-364 -2l-56 -398h152q16 0 26.5 13.5t16.5 31t8 35 t4 25.5h166q-4 -35 -8 -59.5t-8 -47t-8.5 -45t-8.5 -51.5q-4 -31 -6 -52.5l-4 -43t-4 -46t-8 -59.5h-166q0 6 2 23.5t1 36t-7 32t-21 13.5h-151l-60 -440l375 -2q10 27 25.5 78t27.5 116h189l-57 -395h-78.5t-128 1t-153.5 2t-153.5 2t-128 1h-75.5q-31 0 -69 -1t-78 -2 l-80 -2t-74 -1zM494 1776l159 209l363 -293l-117 -152z" />
<glyph unicode="&#xc9;" horiz-adv-x="1200" d="M29 -6l22 170q8 0 35 1t56.5 4t54 11t26.5 25l137 1016q2 14 -19.5 23t-49 12.5t-54 4.5t-34.5 1l22 170q70 0 144.5 -3.5t134.5 -3.5h74.5t127 1t153.5 2.5t156 2.5t132 1h82l-53 -396h-191q10 53 12 98.5t-6 96.5l-364 -2l-56 -398h152q16 0 26.5 13.5t16.5 31t8 35 t4 25.5h166q-4 -35 -8 -59.5t-8 -47t-8.5 -45t-8.5 -51.5q-4 -31 -6 -52.5l-4 -43t-4 -46t-8 -59.5h-166q0 6 2 23.5t1 36t-7 32t-21 13.5h-151l-60 -440l375 -2q10 27 25.5 78t27.5 116h189l-57 -395h-78.5t-128 1t-153.5 2t-153.5 2t-128 1h-75.5q-31 0 -69 -1t-78 -2 l-80 -2t-74 -1zM688 1692l442 293l103 -209l-471 -236z" />
<glyph unicode="&#xca;" horiz-adv-x="1200" d="M29 -6l22 170q8 0 35 1t56.5 4t54 11t26.5 25l137 1016q2 14 -19.5 23t-49 12.5t-54 4.5t-34.5 1l22 170q70 0 144.5 -3.5t134.5 -3.5h74.5t127 1t153.5 2.5t156 2.5t132 1h82l-53 -396h-191q10 53 12 98.5t-6 96.5l-364 -2l-56 -398h152q16 0 26.5 13.5t16.5 31t8 35 t4 25.5h166q-4 -35 -8 -59.5t-8 -47t-8.5 -45t-8.5 -51.5q-4 -31 -6 -52.5l-4 -43t-4 -46t-8 -59.5h-166q0 6 2 23.5t1 36t-7 32t-21 13.5h-151l-60 -440l375 -2q10 27 25.5 78t27.5 116h189l-57 -395h-78.5t-128 1t-153.5 2t-153.5 2t-128 1h-75.5q-31 0 -69 -1t-78 -2 l-80 -2t-74 -1zM412 1692l442 293l363 -293l-109 -138l-291 168l-336 -168z" />
<glyph unicode="&#xcb;" horiz-adv-x="1200" d="M29 -6l22 170q8 0 35 1t56.5 4t54 11t26.5 25l137 1016q2 14 -19.5 23t-49 12.5t-54 4.5t-34.5 1l22 170q70 0 144.5 -3.5t134.5 -3.5h74.5t127 1t153.5 2.5t156 2.5t132 1h82l-53 -396h-191q10 53 12 98.5t-6 96.5l-364 -2l-56 -398h152q16 0 26.5 13.5t16.5 31t8 35 t4 25.5h166q-4 -35 -8 -59.5t-8 -47t-8.5 -45t-8.5 -51.5q-4 -31 -6 -52.5l-4 -43t-4 -46t-8 -59.5h-166q0 6 2 23.5t1 36t-7 32t-21 13.5h-151l-60 -440l375 -2q10 27 25.5 78t27.5 116h189l-57 -395h-78.5t-128 1t-153.5 2t-153.5 2t-128 1h-75.5q-31 0 -69 -1t-78 -2 l-80 -2t-74 -1zM481 1759q10 66 60.5 111t115.5 45q66 0 106 -45t30 -111t-61.5 -110.5t-117.5 -44.5t-104.5 45t-28.5 110zM856 1759q10 66 60.5 111t115.5 45q66 0 105.5 -45t29.5 -111t-61 -110.5t-117 -44.5t-104.5 45t-28.5 110z" />
<glyph unicode="&#xcc;" horiz-adv-x="788" d="M29 -6l22 170q8 0 35 1t56.5 4t54 11t26.5 25l137 1016q2 14 -19.5 23t-49 12.5t-54 4.5t-34.5 1l22 170q70 0 152 -3.5t141 -3.5q31 0 68 1t76.5 2.5t79.5 2.5t75 1l-22 -170q-8 0 -35 -1t-55.5 -4.5t-53 -12.5t-26.5 -23l-138 -1016q-2 -16 19.5 -24.5t49.5 -11.5 t53.5 -4t33.5 -1l-22 -170q-70 0 -151 3t-140 3q-31 0 -69 -1t-78 -2l-80 -2t-74 -1zM207 1776l160 209l362 -293l-117 -152z" />
<glyph unicode="&#xcd;" horiz-adv-x="788" d="M29 -6l22 170q8 0 35 1t56.5 4t54 11t26.5 25l137 1016q2 14 -19.5 23t-49 12.5t-54 4.5t-34.5 1l22 170q70 0 152 -3.5t141 -3.5q31 0 68 1t76.5 2.5t79.5 2.5t75 1l-22 -170q-8 0 -35 -1t-55.5 -4.5t-53 -12.5t-26.5 -23l-138 -1016q-2 -16 19.5 -24.5t49.5 -11.5 t53.5 -4t33.5 -1l-22 -170q-70 0 -151 3t-140 3q-31 0 -69 -1t-78 -2l-80 -2t-74 -1zM451 1692l444 293l100 -209l-471 -236z" />
<glyph unicode="&#xce;" horiz-adv-x="788" d="M29 -6l22 170q8 0 35 1t56.5 4t54 11t26.5 25l137 1016q2 14 -19.5 23t-49 12.5t-54 4.5t-34.5 1l22 170q70 0 152 -3.5t141 -3.5q31 0 68 1t76.5 2.5t79.5 2.5t75 1l-22 -170q-8 0 -35 -1t-55.5 -4.5t-53 -12.5t-26.5 -23l-138 -1016q-2 -16 19.5 -24.5t49.5 -11.5 t53.5 -4t33.5 -1l-22 -170q-70 0 -151 3t-140 3q-31 0 -69 -1t-78 -2l-80 -2t-74 -1zM160 1692l444 293l361 -293l-109 -138l-289 168l-338 -168z" />
<glyph unicode="&#xcf;" horiz-adv-x="788" d="M29 -6l22 170q8 0 35 1t56.5 4t54 11t26.5 25l137 1016q2 14 -19.5 23t-49 12.5t-54 4.5t-34.5 1l22 170q70 0 152 -3.5t141 -3.5q31 0 68 1t76.5 2.5t79.5 2.5t75 1l-22 -170q-8 0 -35 -1t-55.5 -4.5t-53 -12.5t-26.5 -23l-138 -1016q-2 -16 19.5 -24.5t49.5 -11.5 t53.5 -4t33.5 -1l-22 -170q-70 0 -151 3t-140 3q-31 0 -69 -1t-78 -2l-80 -2t-74 -1zM229 1759q10 66 60.5 111t116.5 45t105.5 -45t29.5 -111t-61.5 -110.5t-117.5 -44.5t-104.5 45t-28.5 110zM604 1759q10 66 60.5 111t115.5 45q66 0 105.5 -45t29.5 -111t-61 -110.5 t-117 -44.5t-104.5 45t-28.5 110z" />
<glyph unicode="&#xd0;" horiz-adv-x="1413" d="M29 -6l22 170q8 0 35 1t56.5 4t54 11t26.5 25l56 409h-166l26 197h166l55 410q2 14 -19.5 23t-49 12.5t-54 4.5t-34.5 1l22 170q68 0 148 -3.5t139 -3.5t115.5 3.5t87.5 3.5q168 0 303 -39t223 -124t125 -217.5t8 -316.5q-25 -164 -85 -300t-159.5 -234.5t-236.5 -152.5 t-315 -54q-14 0 -45 1t-67 2t-74 2t-68 1q-31 0 -68 -1t-76 -2t-79 -2t-72 -1zM487 203l109 -2q111 -2 194.5 35.5t144 107.5t99 167t56.5 214q35 236 -60.5 369t-312.5 129l-92 -2l-56 -410h275l-27 -197h-274z" />
<glyph unicode="&#xd1;" horiz-adv-x="1579" d="M29 -6l22 170q8 0 35 1t56.5 4t54 11t26.5 25l137 1016q2 14 -19.5 23t-49 12.5t-54 4.5t-34.5 1l22 170q70 0 142.5 -3.5t132.5 -3.5h145l449 -897l92 693q2 14 -19.5 23t-49 12.5t-54.5 4.5t-35 1l23 170q70 0 142.5 -3.5t131.5 -3.5t136 3.5t147 3.5l-23 -170 q-8 0 -34.5 -1t-55.5 -4.5t-53.5 -12.5t-26.5 -23l-164 -1221h-211l-485 969l-102 -764q-2 -16 19.5 -24.5t49 -11.5t53 -4t33.5 -1l-22 -170q-70 0 -141.5 3t-131.5 3q-59 0 -137 -3t-147 -3zM539 1761q27 25 57.5 52.5t64 50t70.5 37t76 14.5q33 0 60.5 -10.5t55 -23.5 t54.5 -23.5t55 -10.5q45 0 83 24.5t69 53.5l121 -137q-23 -27 -51.5 -54.5t-60.5 -51t-67.5 -38t-72.5 -14.5q-31 0 -59.5 10.5t-57.5 23.5t-57.5 23.5t-59.5 10.5q-47 0 -86 -23.5t-71 -52.5z" />
<glyph unicode="&#xd2;" horiz-adv-x="1388" d="M78.5 432q-17.5 131 3.5 266q20 141 77.5 276.5t149.5 242t221 171t295 64.5q162 0 270.5 -62.5t171 -164t79.5 -231.5t-3 -267q-20 -141 -77.5 -276.5t-150.5 -242t-222 -171t-295 -64.5q-162 0 -270.5 62.5t-170 164t-79 232.5zM357.5 457.5q21.5 -117.5 88 -195.5 t187.5 -78q115 0 204 78t146 195.5t78.5 254t1 254t-86.5 195.5t-185 78q-117 0 -206 -78t-146.5 -195.5t-80 -254t-1 -254zM575 1776l160 209l363 -293l-117 -152z" />
<glyph unicode="&#xd3;" horiz-adv-x="1388" d="M78.5 432q-17.5 131 3.5 266q20 141 77.5 276.5t149.5 242t221 171t295 64.5q162 0 270.5 -62.5t171 -164t79.5 -231.5t-3 -267q-20 -141 -77.5 -276.5t-150.5 -242t-222 -171t-295 -64.5q-162 0 -270.5 62.5t-170 164t-79 232.5zM357.5 457.5q21.5 -117.5 88 -195.5 t187.5 -78q115 0 204 78t146 195.5t78.5 254t1 254t-86.5 195.5t-185 78q-117 0 -206 -78t-146.5 -195.5t-80 -254t-1 -254zM731 1692l445 293l100 -209l-471 -236z" />
<glyph unicode="&#xd4;" horiz-adv-x="1388" d="M78.5 432q-17.5 131 3.5 266q20 141 77.5 276.5t149.5 242t221 171t295 64.5q162 0 270.5 -62.5t171 -164t79.5 -231.5t-3 -267q-20 -141 -77.5 -276.5t-150.5 -242t-222 -171t-295 -64.5q-162 0 -270.5 62.5t-170 164t-79 232.5zM357.5 457.5q21.5 -117.5 88 -195.5 t187.5 -78q115 0 204 78t146 195.5t78.5 254t1 254t-86.5 195.5t-185 78q-117 0 -206 -78t-146.5 -195.5t-80 -254t-1 -254zM453 1692l442 293l362 -293l-108 -138l-291 168l-336 -168z" />
<glyph unicode="&#xd5;" horiz-adv-x="1388" d="M78.5 432q-17.5 131 3.5 266q20 141 77.5 276.5t149.5 242t221 171t295 64.5q162 0 270.5 -62.5t171 -164t79.5 -231.5t-3 -267q-20 -141 -77.5 -276.5t-150.5 -242t-222 -171t-295 -64.5q-162 0 -270.5 62.5t-170 164t-79 232.5zM357.5 457.5q21.5 -117.5 88 -195.5 t187.5 -78q115 0 204 78t146 195.5t78.5 254t1 254t-86.5 195.5t-185 78q-117 0 -206 -78t-146.5 -195.5t-80 -254t-1 -254zM504 1761q27 25 57.5 52.5t64 50t71.5 37t77 14.5q31 0 59.5 -10.5t55 -23.5t53.5 -23.5t55 -10.5q45 0 83 24.5t69 53.5l121 -137 q-23 -27 -51.5 -54.5t-60.5 -51t-67.5 -38t-72.5 -14.5q-31 0 -59.5 10.5t-57.5 23.5t-57.5 23.5t-59.5 10.5q-47 0 -86 -23.5t-71 -52.5z" />
<glyph unicode="&#xd6;" horiz-adv-x="1388" d="M78.5 432q-17.5 131 3.5 266q20 141 77.5 276.5t149.5 242t221 171t295 64.5q162 0 270.5 -62.5t171 -164t79.5 -231.5t-3 -267q-20 -141 -77.5 -276.5t-150.5 -242t-222 -171t-295 -64.5q-162 0 -270.5 62.5t-170 164t-79 232.5zM357.5 457.5q21.5 -117.5 88 -195.5 t187.5 -78q115 0 204 78t146 195.5t78.5 254t1 254t-86.5 195.5t-185 78q-117 0 -206 -78t-146.5 -195.5t-80 -254t-1 -254zM549 1759q10 66 60 111t116 45t105.5 -45t29.5 -111t-61 -110.5t-117 -44.5t-104.5 45t-28.5 110zM924 1759q10 66 60 111t116 45t105.5 -45 t29.5 -111t-61.5 -110.5t-116.5 -44.5q-66 0 -105 45t-28 110z" />
<glyph unicode="&#xd7;" d="M180 287l299 262l-225 260l184 160l224 -260l296 260l138 -160l-297 -260l225 -260l-184 -162l-224 260l-299 -260z" />
<glyph unicode="&#xd8;" horiz-adv-x="1388" d="M10 -115l183 265q-84 104 -109 249.5t-2 298.5q20 141 77.5 276.5t149.5 242t221 171t295 64.5q133 0 236 -45l92 133h254l-180 -260q86 -104 112.5 -250.5t3.5 -302.5q-20 -141 -77.5 -276.5t-150.5 -242t-222 -171t-295 -64.5q-137 0 -242 47l-94 -135h-252zM348 574.5 q0 -91.5 23 -168.5l551 800q-59 33 -131 33q-82 0 -151 -40t-123 -107.5t-92 -153.5t-57.5 -179t-19.5 -184.5zM496 221q59 -37 137 -37q82 0 150.5 41t123 108.5t92 154.5t56 180.5t19 185.5t-22.5 170z" />
<glyph unicode="&#xd9;" horiz-adv-x="1466" d="M90 1262l23 170q70 0 151.5 -3.5t141.5 -3.5q31 0 67.5 1t76.5 2.5t80 2.5t75 1l-23 -170q-8 0 -34.5 -1t-55.5 -4.5t-53.5 -12.5t-26.5 -23l-104 -764q-20 -133 38 -192.5t189 -59.5q141 0 224 68.5t106 220.5l98 727q2 14 -19.5 23t-49 12.5t-54.5 4.5t-35 1l23 170 q70 0 144.5 -3.5t133.5 -3.5t139 3.5t150 3.5l-22 -170q-8 0 -35 -1t-55.5 -4.5t-53 -12.5t-26.5 -23l-99 -734q-39 -250 -196.5 -382t-399.5 -132q-117 0 -210 28t-156.5 87t-89 151.5t-7.5 219.5l103 762q2 14 -19.5 23t-49 12.5t-54.5 4.5t-35 1zM596 1776l160 209 l362 -293l-117 -152z" />
<glyph unicode="&#xda;" horiz-adv-x="1466" d="M90 1262l23 170q70 0 151.5 -3.5t141.5 -3.5q31 0 67.5 1t76.5 2.5t80 2.5t75 1l-23 -170q-8 0 -34.5 -1t-55.5 -4.5t-53.5 -12.5t-26.5 -23l-104 -764q-20 -133 38 -192.5t189 -59.5q141 0 224 68.5t106 220.5l98 727q2 14 -19.5 23t-49 12.5t-54.5 4.5t-35 1l23 170 q70 0 144.5 -3.5t133.5 -3.5t139 3.5t150 3.5l-22 -170q-8 0 -35 -1t-55.5 -4.5t-53 -12.5t-26.5 -23l-99 -734q-39 -250 -196.5 -382t-399.5 -132q-117 0 -210 28t-156.5 87t-89 151.5t-7.5 219.5l103 762q2 14 -19.5 23t-49 12.5t-54.5 4.5t-35 1zM590 1692l444 293 l101 -209l-471 -236z" />
<glyph unicode="&#xdb;" horiz-adv-x="1466" d="M90 1262l23 170q70 0 151.5 -3.5t141.5 -3.5q31 0 67.5 1t76.5 2.5t80 2.5t75 1l-23 -170q-8 0 -34.5 -1t-55.5 -4.5t-53.5 -12.5t-26.5 -23l-104 -764q-20 -133 38 -192.5t189 -59.5q141 0 224 68.5t106 220.5l98 727q2 14 -19.5 23t-49 12.5t-54.5 4.5t-35 1l23 170 q70 0 144.5 -3.5t133.5 -3.5t139 3.5t150 3.5l-22 -170q-8 0 -35 -1t-55.5 -4.5t-53 -12.5t-26.5 -23l-99 -734q-39 -250 -196.5 -382t-399.5 -132q-117 0 -210 28t-156.5 87t-89 151.5t-7.5 219.5l103 762q2 14 -19.5 23t-49 12.5t-54.5 4.5t-35 1zM449 1692l442 293 l362 -293l-108 -138l-291 168l-336 -168z" />
<glyph unicode="&#xdc;" horiz-adv-x="1466" d="M90 1262l23 170q70 0 151.5 -3.5t141.5 -3.5q31 0 67.5 1t76.5 2.5t80 2.5t75 1l-23 -170q-8 0 -34.5 -1t-55.5 -4.5t-53.5 -12.5t-26.5 -23l-104 -764q-20 -133 38 -192.5t189 -59.5q141 0 224 68.5t106 220.5l98 727q2 14 -19.5 23t-49 12.5t-54.5 4.5t-35 1l23 170 q70 0 144.5 -3.5t133.5 -3.5t139 3.5t150 3.5l-22 -170q-8 0 -35 -1t-55.5 -4.5t-53 -12.5t-26.5 -23l-99 -734q-39 -250 -196.5 -382t-399.5 -132q-117 0 -210 28t-156.5 87t-89 151.5t-7.5 219.5l103 762q2 14 -19.5 23t-49 12.5t-54.5 4.5t-35 1zM498 1759q10 66 60 111 t116 45t105.5 -45t29.5 -111t-61.5 -110.5t-116.5 -44.5q-66 0 -105 45t-28 110zM872 1759q10 66 60.5 111t116.5 45t105.5 -45t29.5 -111t-61.5 -110.5t-116.5 -44.5q-66 0 -105 45t-29 110z" />
<glyph unicode="&#xdd;" horiz-adv-x="1404" d="M92 1262l23 170q70 0 151.5 -3.5t141.5 -3.5q59 0 142 3.5t152 3.5l-22 -170q-8 0 -36 -3.5t-57.5 -10.5t-52 -18t-16.5 -26l156 -428l336 445q8 12 -11.5 20t-49 12t-57.5 6.5t-36 2.5l23 170q70 0 141.5 -3.5t130.5 -3.5t136 3.5t147 3.5l-23 -170q-8 0 -31.5 -2.5 t-51.5 -6.5t-53.5 -12t-33.5 -20l-477 -654l-49 -362q-2 -16 19.5 -24.5t49 -11.5t53 -4t33.5 -1l-22 -170q-70 0 -151 3t-140 3q-31 0 -68.5 -1t-77.5 -2l-80 -2t-75 -1l23 170q8 0 34.5 1t56 4t54.5 11t27 25l51 362l-252 654q-6 14 -28.5 22t-48.5 12.5t-49.5 5.5 t-31.5 1zM559 1692l445 293l100 -209l-471 -236z" />
<glyph unicode="&#xde;" horiz-adv-x="1155" d="M84 -520q39 295 67.5 506t48 359.5t33 246.5t23.5 170l17.5 126t15.5 115.5t19 140.5t28 199q4 33 -8.5 48.5t-37 19.5t-58 3t-72.5 -1l12 109q70 20 143.5 43.5t147.5 23.5q63 0 104 -35.5t31 -107.5l-80 -598q25 33 57.5 68.5t71.5 65.5t84 49.5t92 19.5 q92 0 145.5 -36t79 -90.5t31.5 -117t6 -113.5q0 -119 -28.5 -247t-91 -233t-164 -173t-244.5 -68q-18 0 -39.5 5.5t-42 13.5t-39 20.5t-28.5 26.5l-74 -559h-250zM428 193q23 -23 52.5 -35.5t51.5 -12.5q78 0 134.5 52.5t93.5 130.5t54 168t15 167.5t-22 130t-57 52.5 q-59 0 -108.5 -41t-86.5 -104.5t-61.5 -141.5t-34.5 -151z" />
<glyph unicode="&#xdf;" horiz-adv-x="1306" d="M16 66l15 122q33 0 63.5 -6t54 -6t40 13.5t22.5 52.5l100 747q10 78 38 157t78 142.5t126 103.5t186 40q61 0 124 -16.5t112 -50.5t79.5 -85t30.5 -123q0 -92 -32.5 -152.5t-72.5 -105.5t-73 -81t-33 -77q0 -20 25 -37.5t61.5 -37t78.5 -44t79 -60.5t61.5 -86t24.5 -118 q0 -96 -31.5 -167.5t-88 -119.5t-134.5 -73t-172 -25q-96 0 -141 17.5t-57.5 57.5t-2 103.5t22.5 155.5h123q-4 -35 -8 -61.5t0 -44t22.5 -26.5t61.5 -9q59 0 106 44t47 144q0 35 -24.5 59.5t-60.5 46t-77.5 45t-77.5 54.5t-60.5 75t-24.5 107q0 68 31.5 116t70.5 91 t70.5 88t31.5 105q0 39 -29.5 59.5t-76.5 20.5t-75.5 -22.5t-47 -57.5t-28 -75t-13.5 -75l-119 -885q-8 -57 -42.5 -90.5t-100.5 -33.5q-74 0 -145.5 29.5t-137.5 54.5z" />
<glyph unicode="&#xe0;" horiz-adv-x="1116" d="M84 315q0 111 29.5 239t95 238.5t171 184.5t257.5 74q51 0 99 -26t79 -62l35 61h145l-110 -815q-4 -31 10 -41t35.5 -11t47.5 5t44 10l-21 -143q-53 -16 -118.5 -36t-122.5 -20q-59 0 -95 41t-26 117l6 45q-53 -98 -129 -150.5t-174 -52.5q-76 0 -126 33t-78.5 84 t-41 111.5t-12.5 113.5zM324 344q-2 -76 15 -127t58 -51q59 0 109.5 46t88.5 114.5t62.5 148.5t34.5 146l27 184q-23 23 -50.5 35t-50.5 12q-68 0 -121 -51t-90.5 -127t-59 -165t-23.5 -165zM408 1346l161 208l361 -292l-117 -152z" />
<glyph unicode="&#xe1;" horiz-adv-x="1116" d="M84 315q0 111 29.5 239t95 238.5t171 184.5t257.5 74q51 0 99 -26t79 -62l35 61h145l-110 -815q-4 -31 10 -41t35.5 -11t47.5 5t44 10l-21 -143q-53 -16 -118.5 -36t-122.5 -20q-59 0 -95 41t-26 117l6 45q-53 -98 -129 -150.5t-174 -52.5q-76 0 -126 33t-78.5 84 t-41 111.5t-12.5 113.5zM324 344q-2 -76 15 -127t58 -51q59 0 109.5 46t88.5 114.5t62.5 148.5t34.5 146l27 184q-23 23 -50.5 35t-50.5 12q-68 0 -121 -51t-90.5 -127t-59 -165t-23.5 -165zM469 1262l444 292l101 -208l-471 -236z" />
<glyph unicode="&#xe2;" horiz-adv-x="1116" d="M84 315q0 111 29.5 239t95 238.5t171 184.5t257.5 74q51 0 99 -26t79 -62l35 61h145l-110 -815q-4 -31 10 -41t35.5 -11t47.5 5t44 10l-21 -143q-53 -16 -118.5 -36t-122.5 -20q-59 0 -95 41t-26 117l6 45q-53 -98 -129 -150.5t-174 -52.5q-76 0 -126 33t-78.5 84 t-41 111.5t-12.5 113.5zM289 1262l444 292l361 -292l-109 -138l-289 168l-338 -168zM324 344q-2 -76 15 -127t58 -51q59 0 109.5 46t88.5 114.5t62.5 148.5t34.5 146l27 184q-23 23 -50.5 35t-50.5 12q-68 0 -121 -51t-90.5 -127t-59 -165t-23.5 -165z" />
<glyph unicode="&#xe3;" horiz-adv-x="1116" d="M84 315q0 111 29.5 239t95 238.5t171 184.5t257.5 74q51 0 99 -26t79 -62l35 61h145l-110 -815q-4 -31 10 -41t35.5 -11t47.5 5t44 10l-21 -143q-53 -16 -118.5 -36t-122.5 -20q-59 0 -95 41t-26 117l6 45q-53 -98 -129 -150.5t-174 -52.5q-76 0 -126 33t-78.5 84 t-41 111.5t-12.5 113.5zM324 344q-2 -76 15 -127t58 -51q59 0 109.5 46t88.5 114.5t62.5 148.5t34.5 146l27 184q-23 23 -50.5 35t-50.5 12q-68 0 -121 -51t-90.5 -127t-59 -165t-23.5 -165zM324 1331q27 25 57.5 52.5t64 50t70.5 37t76 14.5q33 0 60.5 -10.5t55 -23.5 t54 -23.5t55.5 -10.5q45 0 83 24.5t69 53.5l121 -137q-25 -27 -52.5 -54.5t-59.5 -51t-68 -38t-72 -14.5q-31 0 -59.5 10.5t-57.5 23.5t-57.5 23.5t-59.5 10.5q-47 0 -86 -23.5t-72 -52.5z" />
<glyph unicode="&#xe4;" horiz-adv-x="1116" d="M84 315q0 111 29.5 239t95 238.5t171 184.5t257.5 74q51 0 99 -26t79 -62l35 61h145l-110 -815q-4 -31 10 -41t35.5 -11t47.5 5t44 10l-21 -143q-53 -16 -118.5 -36t-122.5 -20q-59 0 -95 41t-26 117l6 45q-53 -98 -129 -150.5t-174 -52.5q-76 0 -126 33t-78.5 84 t-41 111.5t-12.5 113.5zM324 344q-2 -76 15 -127t58 -51q59 0 109.5 46t88.5 114.5t62.5 148.5t34.5 146l27 184q-23 23 -50.5 35t-50.5 12q-68 0 -121 -51t-90.5 -127t-59 -165t-23.5 -165zM360 1329q10 66 61.5 111t117.5 45t104.5 -45t28.5 -111t-61.5 -110.5 t-114.5 -44.5q-66 0 -106 45t-30 110zM735 1329q10 66 61.5 111t116.5 45q66 0 105 -45t29 -111t-61.5 -110.5t-115.5 -44.5q-66 0 -105.5 45t-29.5 110z" />
<glyph unicode="&#xe5;" horiz-adv-x="1116" d="M84 315q0 111 29.5 239t95 238.5t171 184.5t257.5 74q51 0 99 -26t79 -62l35 61h145l-110 -815q-4 -31 10 -41t35.5 -11t47.5 5t44 10l-21 -143q-53 -16 -118.5 -36t-122.5 -20q-59 0 -95 41t-26 117l6 45q-53 -98 -129 -150.5t-174 -52.5q-76 0 -126 33t-78.5 84 t-41 111.5t-12.5 113.5zM324 344q-2 -76 15 -127t58 -51q59 0 109.5 46t88.5 114.5t62.5 148.5t34.5 146l27 184q-23 23 -50.5 35t-50.5 12q-68 0 -121 -51t-90.5 -127t-59 -165t-23.5 -165zM483 1382q6 47 30 88t58.5 72t77.5 48.5t90 17.5t86 -17.5t64.5 -48.5t38 -72 t6.5 -88t-29.5 -88t-59.5 -71.5t-79 -48t-90 -17.5t-85 17.5t-64.5 48t-38 71.5t-5.5 88zM633 1382q-4 -31 14.5 -53t50.5 -22q31 0 56.5 22t29.5 53t-15 53.5t-50 22.5t-56.5 -22.5t-29.5 -53.5z" />
<glyph unicode="&#xe6;" horiz-adv-x="1560" d="M84 315q0 111 29.5 239t95 238.5t171 184.5t257.5 74q74 0 137.5 -40t102.5 -93q61 59 143 96t188 37q55 0 106.5 -12.5t91.5 -40t64.5 -73.5t24.5 -112q0 -92 -59.5 -166t-147.5 -128t-190.5 -89t-188.5 -47q0 -31 6.5 -66.5t19.5 -65.5t36.5 -49.5t60.5 -19.5 q39 0 76 8.5t77 29t86 55t105 85.5l43 -188q-193 -199 -436 -199q-68 0 -118 21.5t-85 55.5t-56.5 78t-33.5 91q-31 -49 -62.5 -94t-71.5 -79t-91 -53.5t-123 -19.5q-76 0 -126 33t-78.5 84t-41 111.5t-12.5 113.5zM324 344q-2 -76 15 -127t58 -51q59 0 109.5 46t88.5 114.5 t62.5 148.5t34.5 146l27 184q-23 23 -50.5 35t-50.5 12q-68 0 -121 -51t-90.5 -127t-59 -165t-23.5 -165zM928 563q49 6 105.5 24.5t104.5 45t78.5 62.5t30.5 79q0 35 -20.5 55.5t-61.5 20.5q-84 0 -148.5 -80t-88.5 -207z" />
<glyph unicode="&#xe7;" horiz-adv-x="911" d="M84 373q0 109 29.5 228.5t96 219t172 165t257.5 65.5q98 0 145 -30t63.5 -78t11.5 -108.5t-13 -121.5h-146q-14 74 -39.5 103.5t-78.5 29.5q-78 0 -127 -50.5t-78 -121t-40 -146t-11 -129.5q0 -111 29.5 -164t115.5 -53q59 0 136 45t181 135l46 -190q-63 -66 -137 -112 t-158 -68l-31 -62q53 -35 89 -88t36 -118q0 -51 -21.5 -92.5t-56.5 -70t-80 -44t-94 -15.5t-97 14.5t-91 37.5l77 153q25 -10 51.5 -17t55.5 -7q14 0 30.5 5t16.5 23q0 23 -19.5 43.5t-46 36.5t-55.5 28.5t-45 18.5l74 144q-76 14 -124 57t-76 99.5t-38 117.5t-10 117z" />
<glyph unicode="&#xe8;" horiz-adv-x="972" d="M84 369q0 63 12.5 139t38 151.5t67.5 146.5t102.5 125t138 87t178.5 33q55 0 106 -12.5t91 -40t64.5 -73.5t24.5 -112q0 -92 -59.5 -166t-147.5 -128t-190 -89t-188 -47q0 -31 6 -66.5t19 -65.5t37 -49.5t60 -19.5q39 0 76 8.5t77 29t86 55t105 85.5l43 -188 q-193 -199 -436 -199q-98 0 -158.5 41t-94 101.5t-46 129t-12.5 124.5zM334 1346l160 208l360 -292l-115 -152zM340 563q49 6 105.5 24.5t104.5 45t78.5 62.5t30.5 79q0 35 -20.5 55.5t-60.5 20.5q-84 0 -148.5 -80t-89.5 -207z" />
<glyph unicode="&#xe9;" horiz-adv-x="972" d="M84 369q0 63 12.5 139t38 151.5t67.5 146.5t102.5 125t138 87t178.5 33q55 0 106 -12.5t91 -40t64.5 -73.5t24.5 -112q0 -92 -59.5 -166t-147.5 -128t-190 -89t-188 -47q0 -31 6 -66.5t19 -65.5t37 -49.5t60 -19.5q39 0 76 8.5t77 29t86 55t105 85.5l43 -188 q-193 -199 -436 -199q-98 0 -158.5 41t-94 101.5t-46 129t-12.5 124.5zM340 563q49 6 105.5 24.5t104.5 45t78.5 62.5t30.5 79q0 35 -20.5 55.5t-60.5 20.5q-84 0 -148.5 -80t-89.5 -207zM469 1262l444 292l101 -208l-471 -236z" />
<glyph unicode="&#xea;" horiz-adv-x="972" d="M84 369q0 63 12.5 139t38 151.5t67.5 146.5t102.5 125t138 87t178.5 33q55 0 106 -12.5t91 -40t64.5 -73.5t24.5 -112q0 -92 -59.5 -166t-147.5 -128t-190 -89t-188 -47q0 -31 6 -66.5t19 -65.5t37 -49.5t60 -19.5q39 0 76 8.5t77 29t86 55t105 85.5l43 -188 q-193 -199 -436 -199q-98 0 -158.5 41t-94 101.5t-46 129t-12.5 124.5zM252 1262l444 292l361 -292l-109 -138l-289 168l-337 -168zM340 563q49 6 105.5 24.5t104.5 45t78.5 62.5t30.5 79q0 35 -20.5 55.5t-60.5 20.5q-84 0 -148.5 -80t-89.5 -207z" />
<glyph unicode="&#xeb;" horiz-adv-x="972" d="M84 369q0 63 12.5 139t38 151.5t67.5 146.5t102.5 125t138 87t178.5 33q55 0 106 -12.5t91 -40t64.5 -73.5t24.5 -112q0 -92 -59.5 -166t-147.5 -128t-190 -89t-188 -47q0 -31 6 -66.5t19 -65.5t37 -49.5t60 -19.5q39 0 76 8.5t77 29t86 55t105 85.5l43 -188 q-193 -199 -436 -199q-98 0 -158.5 41t-94 101.5t-46 129t-12.5 124.5zM340 563q49 6 105.5 24.5t104.5 45t78.5 62.5t30.5 79q0 35 -20.5 55.5t-60.5 20.5q-84 0 -148.5 -80t-89.5 -207zM350 1329q10 66 61.5 111t116.5 45q66 0 105 -45t29 -111t-61.5 -110.5t-115.5 -44.5 q-66 0 -105.5 45t-29.5 110zM725 1329q10 66 61.5 111t116.5 45q66 0 104.5 -45t28.5 -111t-61 -110.5t-115 -44.5q-66 0 -105.5 45t-29.5 110z" />
<glyph unicode="&#xec;" horiz-adv-x="661" d="M86 874l12 109q70 20 143.5 44t147.5 24q63 0 104.5 -36t30.5 -108l-94 -698q-4 -31 10.5 -41t36 -11t47 5t43.5 10l-20 -143q-53 -16 -122 -36t-126 -20q-59 0 -99 41t-30 117l92 674q4 33 -8 48t-36.5 19.5t-58.5 3t-73 -1.5zM92 1346l160 208l362 -292l-116 -152z" />
<glyph unicode="&#xed;" horiz-adv-x="661" d="M86 874l12 109q70 20 143.5 44t147.5 24q63 0 104.5 -36t30.5 -108l-94 -698q-4 -31 10.5 -41t36 -11t47 5t43.5 10l-20 -143q-53 -16 -122 -36t-126 -20q-59 0 -99 41t-30 117l92 674q4 33 -8 48t-36.5 19.5t-58.5 3t-73 -1.5zM180 1262l445 292l100 -208l-471 -236z " />
<glyph unicode="&#xee;" horiz-adv-x="661" d="M20 1262l443 292l360 -292l-106 -138l-291 168l-338 -168zM86 874l12 109q70 20 143.5 44t147.5 24q63 0 104.5 -36t30.5 -108l-94 -698q-4 -31 10.5 -41t36 -11t47 5t43.5 10l-20 -143q-53 -16 -122 -36t-126 -20q-59 0 -99 41t-30 117l92 674q4 33 -8 48t-36.5 19.5 t-58.5 3t-73 -1.5z" />
<glyph unicode="&#xef;" horiz-adv-x="661" d="M86 874l12 109q70 20 143.5 44t147.5 24q63 0 104.5 -36t30.5 -108l-94 -698q-4 -31 10.5 -41t36 -11t47 5t43.5 10l-20 -143q-53 -16 -122 -36t-126 -20q-59 0 -99 41t-30 117l92 674q4 33 -8 48t-36.5 19.5t-58.5 3t-73 -1.5zM111 1329q10 66 61 111t117 45t104.5 -45 t28.5 -111t-61.5 -110.5t-116.5 -44.5q-66 0 -105 45t-28 110zM485 1329q10 66 61.5 111t117.5 45t104.5 -45t28.5 -111t-61.5 -110.5t-117.5 -44.5t-104.5 45t-28.5 110z" />
<glyph unicode="&#xf0;" horiz-adv-x="1093" d="M84 377q0 125 37 245.5t107.5 216t176 154t244.5 58.5q16 0 30.5 -1t31.5 -3q-39 96 -99 174l-274 -134l-49 132l229 110q-53 49 -118.5 95t-151.5 92h422q20 -16 42.5 -36t41.5 -38l217 104l49 -131l-172 -82q109 -152 139.5 -320.5t18.5 -385.5q-8 -123 -46 -241 t-109 -209t-173.5 -147.5t-237.5 -56.5q-92 0 -159.5 31t-111.5 85t-64.5 128t-20.5 160zM344 391q0 -33 4 -70.5t16.5 -69.5t38 -53.5t68.5 -21.5q86 0 139.5 46t83 116t40.5 149.5t11 145.5q0 33 -4 69.5t-16 69.5t-37.5 54.5t-69.5 21.5q-86 0 -139 -47t-82.5 -116 t-41 -148.5t-11.5 -145.5z" />
<glyph unicode="&#xf1;" horiz-adv-x="1191" d="M63 852l15 131q72 23 143.5 45.5t145.5 22.5q63 0 105 -36t34 -108l-8 -59q45 88 131 145.5t182 57.5q70 0 117 -20.5t73.5 -56.5t36 -84t0.5 -104l-77 -577q-4 -31 10 -41t35.5 -10t47.5 6t44 8l-21 -143q-53 -16 -125.5 -36t-130.5 -20q-59 0 -95 41t-26 117l86 643 q4 39 -9 52.5t-36 13.5q-70 0 -122 -50.5t-89.5 -129t-62.5 -176t-42 -190.5t-26.5 -172t-15.5 -122h-250l109 805q4 33 -13.5 46t-45 15t-60.5 -4t-60 -10zM315 1331q27 25 57.5 52.5t64.5 50t71 37t76 14.5q33 0 60.5 -10.5t55 -23.5t54 -23.5t55.5 -10.5q45 0 83 24.5 t69 53.5l120 -137q-25 -27 -52.5 -54.5t-59 -51t-67.5 -38t-73 -14.5q-31 0 -59.5 10.5t-57 23.5t-57 23.5t-59.5 10.5q-47 0 -86 -23.5t-72 -52.5z" />
<glyph unicode="&#xf2;" horiz-adv-x="1077" d="M84 377q0 125 37 245.5t107.5 216t176 154t244.5 58.5q92 0 160 -31t112 -85t64.5 -128t20.5 -160q0 -125 -37 -245.5t-107.5 -216t-177 -154t-244.5 -58.5q-92 0 -159.5 31t-111.5 85t-64.5 128t-20.5 160zM344 391q0 -33 4 -70.5t16.5 -69.5t38 -53.5t68.5 -21.5 q86 0 139.5 46t83 116t40.5 149.5t11 145.5q0 33 -4 69.5t-16 69.5t-37.5 54.5t-69.5 21.5q-86 0 -139 -47t-82.5 -116t-41 -148.5t-11.5 -145.5zM371 1346l159 208l363 -292l-117 -152z" />
<glyph unicode="&#xf3;" horiz-adv-x="1077" d="M84 377q0 125 37 245.5t107.5 216t176 154t244.5 58.5q92 0 160 -31t112 -85t64.5 -128t20.5 -160q0 -125 -37 -245.5t-107.5 -216t-177 -154t-244.5 -58.5q-92 0 -159.5 31t-111.5 85t-64.5 128t-20.5 160zM344 391q0 -33 4 -70.5t16.5 -69.5t38 -53.5t68.5 -21.5 q86 0 139.5 46t83 116t40.5 149.5t11 145.5q0 33 -4 69.5t-16 69.5t-37.5 54.5t-69.5 21.5q-86 0 -139 -47t-82.5 -116t-41 -148.5t-11.5 -145.5zM461 1262l444 292l101 -208l-471 -236z" />
<glyph unicode="&#xf4;" horiz-adv-x="1077" d="M84 377q0 125 37 245.5t107.5 216t176 154t244.5 58.5q92 0 160 -31t112 -85t64.5 -128t20.5 -160q0 -125 -37 -245.5t-107.5 -216t-177 -154t-244.5 -58.5q-92 0 -159.5 31t-111.5 85t-64.5 128t-20.5 160zM266 1262l443 292l360 -292l-106 -138l-291 168l-338 -168z M344 391q0 -33 4 -70.5t16.5 -69.5t38 -53.5t68.5 -21.5q86 0 139.5 46t83 116t40.5 149.5t11 145.5q0 33 -4 69.5t-16 69.5t-37.5 54.5t-69.5 21.5q-86 0 -139 -47t-82.5 -116t-41 -148.5t-11.5 -145.5z" />
<glyph unicode="&#xf5;" horiz-adv-x="1077" d="M84 377q0 125 37 245.5t107.5 216t176 154t244.5 58.5q92 0 160 -31t112 -85t64.5 -128t20.5 -160q0 -125 -37 -245.5t-107.5 -216t-177 -154t-244.5 -58.5q-92 0 -159.5 31t-111.5 85t-64.5 128t-20.5 160zM319 1331q27 25 58 52.5t64.5 50t70.5 37t76 14.5 q33 0 60.5 -10.5t55 -23.5t54 -23.5t55.5 -10.5q45 0 83 24.5t69 53.5l120 -137q-25 -27 -52 -54.5t-59 -51t-68 -38t-72 -14.5q-31 0 -60 10.5t-57.5 23.5t-57 23.5t-59.5 10.5q-47 0 -86 -23.5t-72 -52.5zM344 391q0 -33 4 -70.5t16.5 -69.5t38 -53.5t68.5 -21.5 q86 0 139.5 46t83 116t40.5 149.5t11 145.5q0 33 -4 69.5t-16 69.5t-37.5 54.5t-69.5 21.5q-86 0 -139 -47t-82.5 -116t-41 -148.5t-11.5 -145.5z" />
<glyph unicode="&#xf6;" horiz-adv-x="1077" d="M84 377q0 125 37 245.5t107.5 216t176 154t244.5 58.5q92 0 160 -31t112 -85t64.5 -128t20.5 -160q0 -125 -37 -245.5t-107.5 -216t-177 -154t-244.5 -58.5q-92 0 -159.5 31t-111.5 85t-64.5 128t-20.5 160zM344 391q0 -33 4 -70.5t16.5 -69.5t38 -53.5t68.5 -21.5 q86 0 139.5 46t83 116t40.5 149.5t11 145.5q0 33 -4 69.5t-16 69.5t-37.5 54.5t-69.5 21.5q-86 0 -139 -47t-82.5 -116t-41 -148.5t-11.5 -145.5zM354 1329q10 66 61.5 111t116.5 45q66 0 105 -45t29 -111t-61.5 -110.5t-115.5 -44.5q-66 0 -105.5 45t-29.5 110zM729 1329 q10 66 61.5 111t116.5 45q66 0 104.5 -45t28.5 -111t-61 -110.5t-115 -44.5q-66 0 -105.5 45t-29.5 110z" />
<glyph unicode="&#xf7;" d="M172 434l31 228h901l-31 -228h-901zM424 184q4 33 21.5 64t43 52.5t56 34.5t65.5 13q68 0 109 -48t33 -116q-6 -35 -23.5 -64.5t-43.5 -51t-57.5 -35t-64.5 -13.5q-68 0 -108.5 48.5t-30.5 115.5zM526 911q4 33 21.5 64t43 52.5t56.5 34.5t66 13q68 0 108.5 -48 t32.5 -116q-6 -35 -23.5 -64.5t-43 -51t-57.5 -34.5t-64 -13q-68 0 -109 48t-31 115z" />
<glyph unicode="&#xf8;" horiz-adv-x="1077" d="M-18 -115l163 236q-61 104 -61 256q0 125 37 245.5t107.5 216t176 154t244.5 58.5q76 0 131 -21l76 109h252l-164 -236q61 -104 62 -256q0 -125 -37 -245.5t-107.5 -216t-177 -154t-244.5 -58.5q-76 0 -131 21l-76 -109h-251zM344 406l307 438q-8 2 -15 3t-18 1 q-90 0 -143 -45t-81.5 -111.5t-39 -144.5t-10.5 -141zM438 180q8 -2 15.5 -3t17.5 -1q88 0 141.5 40t83 104.5t39.5 142t10 155.5z" />
<glyph unicode="&#xf9;" horiz-adv-x="1222" d="M86 874l12 109q70 20 144.5 44t148.5 24q63 0 104.5 -36t30.5 -108l-88 -647q-4 -39 13.5 -57.5t40.5 -18.5q63 0 113 50.5t88 129t64.5 176t45 190.5t30 172t17.5 122h250l-109 -815q-4 -31 10.5 -41t36 -11t47 5t43.5 10l-20 -143q-53 -16 -121.5 -36t-126.5 -20 q-29 0 -54.5 10.5t-44 31t-26.5 50t-4 66.5l4 39q-45 -88 -134 -142.5t-185 -54.5q-66 0 -113 22.5t-75.5 59.5t-39 85t-4.5 98l78 567q4 33 -8 48t-36.5 19.5t-58.5 3t-73 -1.5zM367 1346l159 208l363 -292l-117 -152z" />
<glyph unicode="&#xfa;" horiz-adv-x="1222" d="M86 874l12 109q70 20 144.5 44t148.5 24q63 0 104.5 -36t30.5 -108l-88 -647q-4 -39 13.5 -57.5t40.5 -18.5q63 0 113 50.5t88 129t64.5 176t45 190.5t30 172t17.5 122h250l-109 -815q-4 -31 10.5 -41t36 -11t47 5t43.5 10l-20 -143q-53 -16 -121.5 -36t-126.5 -20 q-29 0 -54.5 10.5t-44 31t-26.5 50t-4 66.5l4 39q-45 -88 -134 -142.5t-185 -54.5q-66 0 -113 22.5t-75.5 59.5t-39 85t-4.5 98l78 567q4 33 -8 48t-36.5 19.5t-58.5 3t-73 -1.5zM465 1262l444 292l101 -208l-471 -236z" />
<glyph unicode="&#xfb;" horiz-adv-x="1222" d="M86 874l12 109q70 20 144.5 44t148.5 24q63 0 104.5 -36t30.5 -108l-88 -647q-4 -39 13.5 -57.5t40.5 -18.5q63 0 113 50.5t88 129t64.5 176t45 190.5t30 172t17.5 122h250l-109 -815q-4 -31 10.5 -41t36 -11t47 5t43.5 10l-20 -143q-53 -16 -121.5 -36t-126.5 -20 q-29 0 -54.5 10.5t-44 31t-26.5 50t-4 66.5l4 39q-45 -88 -134 -142.5t-185 -54.5q-66 0 -113 22.5t-75.5 59.5t-39 85t-4.5 98l78 567q4 33 -8 48t-36.5 19.5t-58.5 3t-73 -1.5zM291 1262l442 292l361 -292l-107 -138l-291 168l-338 -168z" />
<glyph unicode="&#xfc;" horiz-adv-x="1222" d="M86 874l12 109q70 20 144.5 44t148.5 24q63 0 104.5 -36t30.5 -108l-88 -647q-4 -39 13.5 -57.5t40.5 -18.5q63 0 113 50.5t88 129t64.5 176t45 190.5t30 172t17.5 122h250l-109 -815q-4 -31 10.5 -41t36 -11t47 5t43.5 10l-20 -143q-53 -16 -121.5 -36t-126.5 -20 q-29 0 -54.5 10.5t-44 31t-26.5 50t-4 66.5l4 39q-45 -88 -134 -142.5t-185 -54.5q-66 0 -113 22.5t-75.5 59.5t-39 85t-4.5 98l78 567q4 33 -8 48t-36.5 19.5t-58.5 3t-73 -1.5zM369 1329q10 66 61 111t117 45t104.5 -45t28.5 -111t-61.5 -110.5t-114.5 -44.5 q-66 0 -106 45t-29 110zM743 1329q10 66 61.5 111t117.5 45t104.5 -45t28.5 -111t-61.5 -110.5t-114.5 -44.5q-66 0 -106 45t-30 110z" />
<glyph unicode="&#xfd;" horiz-adv-x="1191" d="M86 874l12 109q70 20 144.5 44t148.5 24q63 0 104.5 -36t30.5 -108l-90 -657q-4 -39 11.5 -58.5t37.5 -19.5q68 2 119 53t90 132t65.5 179.5t45 191.5t29 173t16.5 123h250l-123 -899q-18 -133 -52 -250t-97.5 -204t-161 -137t-242.5 -50q-59 0 -114.5 16.5t-97.5 45 t-65.5 67.5t-20.5 84t38 95t108 102l88 -84q-37 -33 -46 -56.5t2.5 -39t37 -22.5t58.5 -7q74 0 127 30.5t90 85t59.5 126t34.5 151.5l14 98q-45 -88 -135 -145.5t-186 -57.5q-66 0 -113 22.5t-75.5 59.5t-39 85t-4.5 98l78 567q4 33 -8 48t-36.5 19.5t-58.5 3t-73 -1.5z M465 1262l444 292l101 -208l-471 -236z" />
<glyph unicode="&#xfe;" horiz-adv-x="1171" d="M29 -6l22 170q8 0 35 1t56.5 4t54 11t26.5 25l137 1016q2 14 -19.5 23t-49 12.5t-54 4.5t-34.5 1l22 170q70 0 152 -3.5t141 -3.5q31 0 68 1t76.5 2.5t79.5 2.5t75 1l-22 -170q-8 0 -35 -1t-56.5 -4.5t-53 -12.5t-25.5 -23l-11 -93q16 2 40 2h34q86 0 176 -15t161 -60 t108.5 -126t19.5 -212q-18 -127 -75.5 -209t-137.5 -130t-176 -66.5t-197 -18.5h-67l-13 -88q-2 -16 19.5 -24.5t49.5 -11.5t53.5 -4t33.5 -1l-22 -170q-70 0 -151 3t-140 3q-31 0 -69 -1t-78 -2l-80 -2t-74 -1zM526 496h72q117 0 189 48t90 171q18 121 -37.5 164t-165.5 41 l-88 -2z" />
<glyph unicode="&#xff;" horiz-adv-x="1191" d="M86 874l12 109q70 20 144.5 44t148.5 24q63 0 104.5 -36t30.5 -108l-90 -657q-4 -39 11.5 -58.5t37.5 -19.5q68 2 119 53t90 132t65.5 179.5t45 191.5t29 173t16.5 123h250l-123 -899q-18 -133 -52 -250t-97.5 -204t-161 -137t-242.5 -50q-59 0 -114.5 16.5t-97.5 45 t-65.5 67.5t-20.5 84t38 95t108 102l88 -84q-37 -33 -46 -56.5t2.5 -39t37 -22.5t58.5 -7q74 0 127 30.5t90 85t59.5 126t34.5 151.5l14 98q-45 -88 -135 -145.5t-186 -57.5q-66 0 -113 22.5t-75.5 59.5t-39 85t-4.5 98l78 567q4 33 -8 48t-36.5 19.5t-58.5 3t-73 -1.5z M365 1329q10 66 61 111t117 45t104.5 -45t28.5 -111t-61.5 -110.5t-114.5 -44.5q-66 0 -106 45t-29 110zM739 1329q10 66 61.5 111t117.5 45t104.5 -45t28.5 -111t-61.5 -110.5t-115.5 -44.5q-66 0 -105.5 45t-29.5 110z" />
<glyph unicode="&#x152;" horiz-adv-x="1892" d="M78.5 432q-17.5 131 3.5 266q20 141 77.5 276.5t149.5 242t221 171t295 64.5q90 0 170 -22q53 0 105.5 -2.5t95.5 -2.5h74.5t127 1t153.5 2.5t156 2.5t132 1h82l-53 -396h-191q10 53 12.5 98.5t-6.5 96.5l-364 -2l-55 -398h151q16 0 26.5 13.5t16.5 31t8 35t4 25.5h166 q-4 -35 -8 -59.5t-8 -47l-8 -45t-8 -51.5q-4 -31 -6.5 -52.5t-4.5 -43t-4 -46t-8 -59.5h-166q0 6 2 23.5t1 36t-7 32t-20 13.5h-152l-59 -440l374 -2q10 27 25.5 78t28.5 116h188l-57 -395h-78t-128 1t-154 2t-153.5 2t-128 1h-75.5q-49 0 -120 -2t-136 -4 q-39 -10 -80 -15.5t-88 -5.5q-162 0 -270.5 62.5t-170 164t-79 232.5zM357.5 457.5q21.5 -117.5 88 -195.5t187.5 -78q94 0 172 54.5t133 140.5l94 694q-33 74 -91 120t-150 46q-117 0 -206 -78t-146.5 -195.5t-80 -254t-1 -254z" />
<glyph unicode="&#x153;" horiz-adv-x="1615" d="M84 377q0 125 37 245.5t107.5 216t176 154t244.5 58.5q100 0 171 -36t114 -97q59 59 141 96t189 37q55 0 106 -12.5t91 -40t64.5 -73.5t24.5 -112q0 -92 -59 -166t-147.5 -128t-190.5 -89t-188 -47q0 -31 6 -66.5t19.5 -65.5t37 -49.5t59.5 -19.5q39 0 76 8.5t77 29 t86 55t106 85.5l43 -188q-193 -199 -437 -199q-94 0 -153.5 38t-93.5 95q-68 -61 -155 -97t-196 -36q-92 0 -159.5 31t-111.5 85t-64.5 128t-20.5 160zM344 391q0 -33 4 -70.5t16.5 -69.5t38 -53.5t68.5 -21.5q86 0 139.5 46t83 116t40.5 149.5t11 145.5q0 33 -4 69.5 t-16 69.5t-37.5 54.5t-69.5 21.5q-86 0 -139 -47t-82.5 -116t-41 -148.5t-11.5 -145.5zM983 563q49 6 105.5 24.5t104.5 45t79 62.5t31 79q0 35 -20.5 55.5t-61.5 20.5q-84 0 -148.5 -80t-89.5 -207z" />
<glyph unicode="&#x178;" horiz-adv-x="1404" d="M92 1262l23 170q70 0 151.5 -3.5t141.5 -3.5q59 0 142 3.5t152 3.5l-22 -170q-8 0 -35 -3.5t-56.5 -10.5t-51 -18t-19.5 -26l156 -428l336 445q6 14 -14.5 22t-49 12.5t-55.5 5.5t-35 1l23 170q70 0 141.5 -3.5t130.5 -3.5t136 3.5t147 3.5l-23 -170q-8 0 -32.5 -1 t-53.5 -5.5t-53.5 -12.5t-30.5 -22l-477 -654l-49 -362q-2 -16 19.5 -24.5t49 -11.5t53 -4t33.5 -1l-22 -170q-70 0 -151 3t-140 3q-31 0 -68.5 -1t-77.5 -2l-80 -2t-75 -1l23 170q8 0 34.5 1t56 4t54.5 11t27 25l51 362l-252 654q-2 14 -24.5 23t-49 12.5t-51.5 4.5t-33 1z M477 1759q10 66 61.5 111t116.5 45q66 0 104.5 -45t28.5 -111t-61 -110.5t-117 -44.5t-104.5 45t-28.5 110zM852 1759q10 66 61.5 111t116.5 45q66 0 104.5 -45t28.5 -111t-61 -110.5t-117 -44.5t-104.5 45t-28.5 110z" />
<glyph unicode="&#x2c6;" horiz-adv-x="712" d="M-45 1262l442 292l361 -292l-107 -138l-291 168l-337 -168z" />
<glyph unicode="&#x2dc;" horiz-adv-x="712" d="M-27 1331q27 25 57.5 52.5t64.5 50t72 37t77 14.5q31 0 59.5 -10.5t55 -23.5t53 -23.5t55.5 -10.5q45 0 83 24.5t68 53.5l121 -137q-23 -27 -51.5 -54.5t-60 -51t-67.5 -38t-73 -14.5q-31 0 -59.5 10.5t-57 23.5t-57 23.5t-59.5 10.5q-47 0 -86 -23.5t-72 -52.5z" />
<glyph unicode="&#x2000;" horiz-adv-x="1019" />
<glyph unicode="&#x2001;" horiz-adv-x="2038" />
<glyph unicode="&#x2002;" horiz-adv-x="1019" />
<glyph unicode="&#x2003;" horiz-adv-x="2038" />
<glyph unicode="&#x2004;" horiz-adv-x="679" />
<glyph unicode="&#x2005;" horiz-adv-x="509" />
<glyph unicode="&#x2006;" horiz-adv-x="339" />
<glyph unicode="&#x2007;" horiz-adv-x="339" />
<glyph unicode="&#x2008;" horiz-adv-x="254" />
<glyph unicode="&#x2009;" horiz-adv-x="407" />
<glyph unicode="&#x200a;" horiz-adv-x="113" />
<glyph unicode="&#x2010;" horiz-adv-x="811" d="M152 434l30 228h631l-31 -228h-630z" />
<glyph unicode="&#x2011;" horiz-adv-x="811" d="M152 434l30 228h631l-31 -228h-630z" />
<glyph unicode="&#x2012;" horiz-adv-x="811" d="M152 434l30 228h631l-31 -228h-630z" />
<glyph unicode="&#x2013;" d="M168 434l33 228h901l-33 -228h-901z" />
<glyph unicode="&#x2014;" horiz-adv-x="1611" d="M150 434l30 228h1434l-31 -228h-1433z" />
<glyph unicode="&#x2018;" horiz-adv-x="630" d="M242 1034q8 61 39.5 120.5t76.5 114t99.5 100.5t109.5 83l97 -111q-12 -8 -35 -25.5t-46.5 -41t-43 -50t-23.5 -53.5q29 -23 44 -59.5t9 -77.5q-4 -35 -21.5 -64.5t-43 -51t-57 -35t-64.5 -13.5q-35 0 -62.5 13.5t-47 35t-27.5 51t-4 64.5z" />
<glyph unicode="&#x2019;" horiz-adv-x="630" d="M233 981q12 8 35 25.5t46.5 41t43 50t23.5 53.5q-29 23 -43 59.5t-10 77.5q6 33 22.5 63.5t42 52t57 35t66.5 13.5q68 0 108.5 -48t30.5 -116q-8 -61 -39.5 -120.5t-76.5 -114t-99.5 -100.5t-107.5 -83z" />
<glyph unicode="&#x201a;" horiz-adv-x="622" d="M72 -170q12 8 34.5 25.5t46 41t43 50t23.5 53.5q-29 23 -43 59.5t-10 77.5q6 33 22.5 63.5t42 52t57 35t66.5 13.5q68 0 109 -48t31 -116q-8 -61 -40 -120.5t-77 -114t-99.5 -100.5t-107.5 -83z" />
<glyph unicode="&#x201c;" horiz-adv-x="1069" d="M242 1034q8 61 39.5 120.5t76.5 114t99.5 100.5t109.5 83l97 -111q-12 -8 -35 -25.5t-46.5 -41t-43 -50t-23.5 -53.5q29 -23 44 -59.5t9 -77.5q-4 -35 -21.5 -64.5t-43 -51t-57 -35t-64.5 -13.5q-35 0 -62.5 13.5t-47 35t-27.5 51t-4 64.5zM688 1034q8 61 40 120.5 t77 114t99 100.5t110 83l96 -111q-12 -8 -34.5 -25.5t-46 -41t-43 -50t-23.5 -53.5q29 -23 44 -59.5t9 -77.5q-4 -35 -21.5 -64.5t-43 -51t-57.5 -35t-65 -13.5q-35 0 -62.5 13.5t-47 35t-27.5 51t-4 64.5z" />
<glyph unicode="&#x201d;" horiz-adv-x="1069" d="M233 981q12 8 35 25.5t46.5 41t43 50t23.5 53.5q-29 23 -43 59.5t-10 77.5q6 33 22.5 63.5t42 52t57 35t66.5 13.5q68 0 108.5 -48t30.5 -116q-8 -61 -39.5 -120.5t-76.5 -114t-99.5 -100.5t-107.5 -83zM680 981q12 8 34.5 25.5t46 41t43 50t23.5 53.5q-29 23 -43 59.5 t-10 77.5q6 33 22.5 63.5t42 52t57.5 35t67 13.5q68 0 108.5 -48t30.5 -116q-8 -61 -40 -120.5t-77 -114t-99.5 -100.5t-107.5 -83z" />
<glyph unicode="&#x201e;" horiz-adv-x="1069" d="M72 -170q12 8 34.5 25.5t46 41t43 50t23.5 53.5q-29 23 -43 59.5t-10 77.5q6 33 22.5 63.5t42 52t57 35t66.5 13.5q68 0 109 -48t31 -116q-8 -61 -40 -120.5t-77 -114t-99.5 -100.5t-107.5 -83zM518 -170q12 8 34.5 25.5t46.5 41t43.5 50t23.5 53.5q-29 23 -43.5 59.5 t-10.5 77.5q6 33 22.5 63.5t42 52t57.5 35t67 13.5q68 0 108.5 -48t30.5 -116q-8 -61 -40 -120.5t-77 -114t-99 -100.5t-108 -83z" />
<glyph unicode="&#x2022;" horiz-adv-x="868" d="M199 547q8 63 40.5 120.5t81 100.5t108.5 67.5t126 24.5t119 -24.5t90 -67.5t53 -100.5t8 -120.5q-10 -66 -41.5 -122t-81 -99t-110 -68t-125.5 -25q-66 0 -119 25t-89 68t-53.5 99t-6.5 122z" />
<glyph unicode="&#x2026;" horiz-adv-x="1572" d="M166 137q6 33 22.5 63.5t42 52t57 35t66.5 13.5q68 0 109 -48t31 -116q-4 -35 -21.5 -64.5t-43.5 -51t-57.5 -35t-64.5 -13.5q-35 0 -62.5 13.5t-47 35t-27.5 51t-4 64.5zM641 137q6 33 22.5 63.5t42 52t57.5 35t66 13.5q68 0 109 -48t31 -116q-4 -35 -21.5 -64.5 t-43 -51t-57.5 -35t-65 -13.5q-35 0 -62.5 13.5t-47 35t-27.5 51t-4 64.5zM1116 137q6 33 22.5 63.5t42 52t57.5 35t67 13.5q68 0 108.5 -48t30.5 -116q-4 -35 -21.5 -64.5t-43 -51t-57.5 -35t-65 -13.5q-35 0 -62.5 13.5t-47 35t-27.5 51t-4 64.5z" />
<glyph unicode="&#x202f;" horiz-adv-x="407" />
<glyph unicode="&#x2039;" horiz-adv-x="811" d="M197 532l452 474l164 -127l-295 -347l199 -346l-201 -127z" />
<glyph unicode="&#x203a;" horiz-adv-x="811" d="M147 186l297 346l-200 347l200 127l322 -474l-455 -473z" />
<glyph unicode="&#x205f;" horiz-adv-x="509" />
<glyph unicode="&#x20ac;" d="M158 614q14 104 64 218t137 207.5t211 154.5t288 61q63 0 118.5 -15t101.5 -36.5t79.5 -46.5t56.5 -43l-43 -309h-186q10 72 9 119t-3 63q-35 41 -77 54.5t-89 13.5q-123 0 -214 -79t-138 -226h158q14 0 25.5 17t18.5 40.5t11 45t6 30.5h172q-10 -72 -23.5 -140.5 t-23.5 -128.5q-8 -59 -13 -127.5t-16 -140.5h-172q0 8 3.5 29.5t2.5 45t-7.5 41t-20.5 17.5h-158q8 -145 76 -224t190 -79q47 0 87 8.5t98 46.5q6 16 19.5 66.5t23.5 126.5h188l-43 -311q-80 -55 -185.5 -97.5t-215.5 -42.5q-170 0 -277.5 61.5t-165 156t-73 207t-0.5 216.5 z" />
<glyph unicode="&#x2122;" horiz-adv-x="1835" d="M293 1276l33 242q33 0 79 -1t91 -1t81.5 -1.5t51.5 -1.5q12 0 49 1.5t83 1.5t94 1t81 1l-35 -242h-108q4 23 6 47.5t-2 40.5h-86l-56 -389q0 -6 8.5 -10t18.5 -6.5t21.5 -3.5t17.5 -1l-14 -104q-61 0 -101.5 2t-66.5 2q-29 0 -69 -2t-101 -2l14 104q6 0 17.5 1t23.5 3.5 t21.5 6.5t11.5 10l53 389h-88q-8 -16 -12 -41t-9 -47h-108zM946 850l15 104q6 0 17 1t23.5 3.5t21.5 6.5t9 10l70 416q0 6 -8.5 10t-19.5 6t-22.5 3t-17.5 1l15 107q63 0 89.5 -2.5t55.5 -2.5t52.5 1.5t64.5 1.5l145 -232l232 232h102q29 0 52.5 1t82.5 1l-14 -107h-16.5 t-24.5 -2t-22.5 -6t-10.5 -10l-49 -418q0 -6 8 -10t19.5 -6.5t23.5 -3.5t19 -1l-17 -104q-63 0 -102 2t-68 2q-27 0 -65.5 -2t-104.5 -2l15 104q6 0 17 1t22.5 3.5t20.5 6.5t9 10l29 223l-228 -225l-135 215l-34 -211q-2 -8 5 -12t18 -6.5t21.5 -3.5t16.5 -1l-14 -104 q-61 0 -95 2t-61 2q-29 0 -65.5 -2t-96.5 -2z" />
<glyph unicode="&#x25fc;" horiz-adv-x="1054" d="M0 0v1055h1055v-1055h-1055z" />
<glyph unicode="&#xfb01;" horiz-adv-x="1241" d="M-145 -518l24 184q14 -2 27 -4q10 -2 20.5 -3t16.5 -1q82 0 116.5 37t44.5 121l136 999h-152l23 174l157 35l19 141q14 113 60 194t111.5 132t143.5 74.5t156 23.5q74 0 149.5 -10t137 -35.5t100.5 -71.5t39 -116q0 -29 -11.5 -59.5t-33 -56.5t-51 -42t-68.5 -16 q-70 0 -103.5 43t-33.5 98q0 23 -16.5 35t-39 17t-47 5h-41.5q-45 0 -80.5 -19.5t-60.5 -50t-40 -70.5t-21 -81l-19 -135h160q63 0 117.5 5t113.5 15q12 2 26.5 3.5t33.5 1.5q63 0 104 -35t31 -107l-94 -698q-4 -31 10 -41t35.5 -11t47 5t44.5 10l-21 -143 q-53 -16 -121.5 -36t-125.5 -20q-59 0 -99.5 41t-29.5 117l92 684h-353l-143 -1059q-10 -76 -44 -130t-85 -90t-112.5 -52t-127.5 -16q-23 0 -58.5 4t-63.5 10z" />
<glyph unicode="&#xfb02;" horiz-adv-x="1241" d="M-145 -518l24 184q14 -2 27 -4q10 -2 20.5 -3t16.5 -1q82 0 116.5 37t44.5 121l136 999h-152l23 174l157 35l19 141q14 113 60 194t111.5 132t143.5 74.5t156 23.5h280q63 0 105.5 -35.5t34.5 -107.5l-168 -1237q-4 -31 10 -41t36.5 -11t47 5t43.5 10l-21 -143 q-53 -16 -121.5 -36t-125.5 -20q-59 0 -99.5 41t-29.5 117l92 684h-353l-143 -1059q-10 -76 -44 -130t-85 -90t-112.5 -52t-127.5 -16q-23 0 -58.5 4t-63.5 10zM518 1024h352l39 291q2 23 -17.5 36t-48 19t-58 8t-46.5 2q-45 0 -80.5 -19.5t-60.5 -50t-40 -70.5t-21 -81z " />
<glyph unicode="&#xfb03;" horiz-adv-x="1843" d="M-145 -518l24 184q14 -2 27 -4q10 -2 20.5 -3t16.5 -1q82 0 116.5 37t44.5 121l136 999h-152l23 174l157 35l17 121q14 113 54 192.5t97.5 131t129 76t151.5 24.5q29 0 62.5 -4t86.5 -19l-39 -262q-33 45 -63.5 58.5t-65.5 13.5q-59 0 -92 -37t-50 -89t-24.5 -108.5 t-13.5 -97.5h352l19 141q14 113 60 194t111.5 132t143.5 74.5t156 23.5q74 0 149.5 -10t137 -35.5t100.5 -71.5t39 -116q0 -29 -11.5 -59.5t-33 -56.5t-51 -42t-68.5 -16q-70 0 -103.5 43t-33.5 98q0 23 -16.5 35t-39 17t-47 5h-41.5q-45 0 -80.5 -19.5t-60 -50t-40 -70.5 t-21.5 -81l-19 -135h160q63 0 117.5 5t113.5 15q12 2 26.5 3.5t33.5 1.5q63 0 104 -35t31 -107l-94 -698q-4 -31 10 -41t35.5 -11t47.5 5t44 10l-20 -143q-53 -16 -122 -36t-126 -20q-59 0 -99.5 41t-29.5 117l92 684h-352l-144 -1059q-10 -76 -44 -130t-85 -90t-112.5 -52 t-126.5 -16q-23 0 -59 4t-64 10l24 184q14 -2 27 -4q10 -2 20.5 -3t16.5 -1q82 0 116.5 37t45.5 121l135 999h-353l-143 -1059q-10 -76 -44 -130t-85 -90t-112.5 -52t-127.5 -16q-23 0 -58.5 4t-63.5 10z" />
<glyph unicode="&#xfb04;" horiz-adv-x="1843" d="M-145 -518l24 184q14 -2 27 -4q10 -2 20.5 -3t16.5 -1q82 0 116.5 37t44.5 121l136 999h-152l23 174l157 35l17 121q14 113 54 192.5t97.5 131t129 76t151.5 24.5q29 0 62.5 -4t86.5 -19l-39 -262q-33 45 -63.5 58.5t-65.5 13.5q-59 0 -92 -37t-50 -89t-24.5 -108.5 t-13.5 -97.5h352l19 141q14 113 60 194t111.5 132t143.5 74.5t156 23.5h280q63 0 105.5 -35.5t34.5 -107.5l-168 -1237q-4 -31 10 -41t36.5 -11t47.5 5t43 10l-20 -143q-53 -16 -122 -36t-126 -20q-59 0 -99.5 41t-29.5 117l92 684h-352l-144 -1059q-10 -76 -44 -130 t-85 -90t-112.5 -52t-126.5 -16q-23 0 -59 4t-64 10l24 184q14 -2 27 -4q10 -2 20.5 -3t16.5 -1q82 0 116.5 37t45.5 121l135 999h-353l-143 -1059q-10 -76 -44 -130t-85 -90t-112.5 -52t-127.5 -16q-23 0 -58.5 4t-63.5 10zM1120 1024h353l38 291q2 23 -17 36t-48 19 t-58.5 8t-46.5 2q-45 0 -80.5 -19.5t-60 -50t-40 -70.5t-21.5 -81z" />
</font>
</defs>
</svg>
