<?xml version="1.0" standalone="no"?>
<!DOCTYPE svg PUBLIC "-//W3C//DTD SVG 1.1//EN" "http://www.w3.org/Graphics/SVG/1.1/DTD/svg11.dtd" >
<svg xmlns="http://www.w3.org/2000/svg">
<metadata></metadata>
<defs>
<font id="hollandserifitalic" horiz-adv-x="1122" >
<font-face units-per-em="2048" ascent="1638" descent="-410" />
<missing-glyph horiz-adv-x="512" />
<glyph horiz-adv-x="0" />
<glyph unicode="&#xd;" horiz-adv-x="512" />
<glyph horiz-adv-x="0" />
<glyph horiz-adv-x="0" />
<glyph unicode=" "  horiz-adv-x="512" />
<glyph unicode="&#x09;" horiz-adv-x="512" />
<glyph unicode="&#xa0;" horiz-adv-x="512" />
<glyph unicode="!" horiz-adv-x="528" d="M147 90q6 47 45 82t87 35q49 0 78.5 -35t23.5 -82q-4 -47 -43 -82t-88 -35q-47 0 -77 35t-26 82zM233 395l93 1030h204l-157 -1030h-140z" />
<glyph unicode="&#x22;" horiz-adv-x="638" d="M231 997l21 428h168l-82 -428h-107zM506 997l20 428h168l-82 -428h-106z" />
<glyph unicode="#" d="M70 348l16 125h211l35 283h-232l17 125h229l41 348h133l-39 -348h232l41 348h135l-41 -348h205l-17 -125h-205l-32 -283h223l-16 -125h-222l-43 -348h-135l43 348h-233l-41 -348h-135l43 348h-213zM432 473h232l34 283h-233z" />
<glyph unicode="$" d="M178 35l33 266h104q-8 -59 -2 -104t11 -56q35 -23 88 -33t104 -10l57 475q-53 25 -106 59t-94 78t-62.5 99t-13.5 123q10 80 43 137t81 95t108.5 58.5t127.5 28.5l17 135h117l-17 -131q70 -4 134 -19t130 -48l-32 -266h-105q8 59 1 104t-9 55q-29 20 -62.5 31.5 t-70.5 17.5l-51 -415q53 -27 105 -59.5t91 -76.5t59.5 -103.5t10.5 -137.5q-10 -80 -41 -139.5t-79 -102.5t-108.5 -70.5t-128.5 -41.5l-16 -138h-117l15 127q-90 0 -163 14.5t-159 47.5zM467 954q-8 -70 34 -112.5t97 -73.5l43 356q-66 -12 -115 -53t-59 -117zM635 113 q66 23 112 70.5t56 123.5t-26 125t-93 84z" />
<glyph unicode="%" d="M156 0l848 1425h126l-847 -1425h-127zM190 1155q6 47 27 99.5t55.5 96.5t84 72.5t114.5 28.5q63 0 104 -29.5t65 -73.5t31 -95.5t1 -94.5q-6 -47 -26.5 -99t-55.5 -97t-85 -74t-116 -29q-61 0 -102 30t-64.5 74t-31 95t-1.5 96zM317 1095.5q2 -34.5 11.5 -64.5t29 -48 t50.5 -18t53 17t38.5 45t27 60.5t14.5 63.5q4 33 2 67.5t-11.5 63.5t-29 47.5t-49.5 18.5q-31 0 -54.5 -17.5t-40 -44t-25.5 -59.5t-14 -64q-4 -33 -2 -67.5zM614 268q6 47 25.5 99.5t54.5 96.5t85 72.5t116 28.5q63 0 104 -29.5t63.5 -73.5t30 -95.5t1.5 -94.5 q-6 -47 -25.5 -99t-54.5 -97t-85 -74t-116 -29q-63 0 -104 30t-63.5 74t-30 95t-1.5 96zM740 208.5q1 -34.5 11.5 -64t30 -48t49.5 -18.5q31 0 53.5 17.5t39 45t27 60t14.5 63.5q4 33 2 68t-11.5 63.5t-29 47t-49.5 18.5q-31 0 -54.5 -17.5t-40 -44t-25.5 -59.5t-14 -64 q-4 -33 -3 -67.5z" />
<glyph unicode="&#x26;" horiz-adv-x="1331" d="M145 373q8 74 37 134t71 111.5t95 94.5t115 80q-25 35 -48.5 74.5t-41 83.5t-25.5 92.5t-2 101.5q8 68 43 125t88 97t120 62.5t138 22.5q63 0 120.5 -21.5t98.5 -62.5t61.5 -98.5t12.5 -128.5h-162q4 33 -5 65.5t-29.5 60t-50 45t-66.5 17.5q-90 0 -145.5 -55t-63.5 -123 q-4 -31 -3 -60.5t11 -60.5t31.5 -67.5t56.5 -83.5l406 -537q61 78 108 173t55 190q2 20 -9 33.5t-29.5 19.5t-41 8t-40.5 2l10 88q35 0 79 -4t105 -4q27 0 61 3t44 3q-18 -160 -81 -317.5t-162 -282.5t-235.5 -203t-304.5 -78q-92 0 -174 27t-140 77t-89 124.5t-19 171.5z M324 377q-6 -49 7 -98.5t46 -89t83 -64.5t120 -25q98 0 179 40t134 81l-354 465q-94 -55 -148.5 -136t-66.5 -173z" />
<glyph unicode="'" horiz-adv-x="356" d="M231 997l21 428h168l-82 -428h-107z" />
<glyph unicode="(" horiz-adv-x="649" d="M152 260q-2 133 16 277q18 143 52 277t92.5 260t142.5 243t200 227l76 -69q-102 -113 -172 -241t-115 -254t-68.5 -241.5t-33.5 -201.5q-10 -88 -14 -204t9 -242t52 -253t115 -239l-92 -70q-90 111 -146.5 228.5t-84 243.5t-29.5 259z" />
<glyph unicode=")" horiz-adv-x="649" d="M51 -401q100 113 170 240.5t115 253.5t69.5 242t34.5 202q10 88 14.5 202.5t-10 240.5t-53.5 254t-112 241l92 69q88 -100 142 -219t82 -249t30.5 -267t-13.5 -272t-53 -272.5t-95 -268.5t-142 -250t-195 -217z" />
<glyph unicode="*" horiz-adv-x="856" d="M248 1137l67 147l201 -90l6 231h162l-51 -231l223 90l31 -147l-228 -58l127 -170l-141 -94l-94 193l-141 -193l-117 94l168 170z" />
<glyph unicode="+" d="M170 477l16 141h379l47 379h144l-47 -379h378l-16 -141h-379l-47 -379h-143l47 379h-379z" />
<glyph unicode="," horiz-adv-x="528" d="M78 -205q25 20 47 37.5t40.5 36t30 39t15.5 47.5q2 14 -7 24.5t-20.5 23.5t-20.5 32.5t-5 54.5q6 47 45 82t86 35q49 0 78.5 -35t23.5 -82q-8 -63 -32.5 -112.5t-61.5 -91.5t-82 -79.5t-92 -74.5z" />
<glyph unicode="-" horiz-adv-x="757" d="M133 477l17 141h514l-17 -141h-514z" />
<glyph unicode="." horiz-adv-x="528" d="M147 90q6 47 45 82t87 35q49 0 78.5 -35t23.5 -82q-4 -47 -43 -82t-88 -35q-47 0 -77 35t-26 82z" />
<glyph unicode="/" horiz-adv-x="569" d="M147 -467l242 2005h166l-242 -2005h-166z" />
<glyph unicode="0" d="M160 387q-6 111 6 213q14 111 49 226.5t96.5 211t152.5 156.5t218 61q123 0 195.5 -58t108.5 -148.5t42 -199t-6 -210.5q-12 -111 -46 -228.5t-95.5 -215t-152.5 -160t-220 -62.5q-121 0 -194.5 59.5t-110.5 151.5t-43 203zM329 476q-1 -93 17.5 -176t62.5 -140.5 t126 -57.5q78 0 134 52.5t93 129t57.5 162.5t28.5 154q6 47 9 105.5t-1 117t-16.5 113.5t-36 97t-61 67.5t-93.5 25.5q-78 0 -133 -51t-92 -124.5t-57.5 -157.5t-28.5 -152q-8 -72 -9 -165z" />
<glyph unicode="1" d="M297 -6l10 82q16 0 48 1t64 7t56.5 19.5t28.5 37.5l121 895l-254 -57l-9 119q53 10 116 31.5t118 44.5q66 25 129 55h98l-145 -1088q-4 -25 18.5 -38t53 -19t62.5 -7t48 -1l-10 -82q-16 0 -51 1t-75 2l-80 2t-71 1t-71.5 -1t-80.5 -2t-74 -2t-50 -1z" />
<glyph unicode="2" d="M145 0l19 147q45 35 112.5 89.5t142.5 119t149.5 135t137 140t103.5 135t47 117.5q14 111 -45 179t-170 68q-98 0 -168 -49t-84 -120h-80l23 184q86 53 175 81.5t181 28.5q86 0 153.5 -21.5t113.5 -65.5t66.5 -110.5t8.5 -156.5q-14 -119 -91 -228.5t-183 -213.5 q-94 -92 -189.5 -173t-199.5 -161h391q59 0 94 27.5t57 109.5h84l-32 -268q-10 0 -48.5 3t-91.5 3h-676z" />
<glyph unicode="3" d="M176 -20l78 79q35 -29 63.5 -49t57 -32.5t61.5 -17.5t76 -5q51 0 98 23.5t84 61.5t59.5 84t28.5 93q10 90 -15.5 146.5t-76.5 89t-120.5 45t-145.5 14.5l14 113q63 6 128 23.5t119 50t91 85t47 127.5q12 98 -37 155.5t-135 57.5q-55 0 -97 -15t-71.5 -40t-46 -55.5 t-18.5 -59.5h-82l22 189q164 113 334 112q66 0 125.5 -19t102.5 -58t64 -99.5t11 -142.5q-6 -57 -31.5 -109.5t-61.5 -96.5t-80 -76.5t-89 -51.5q102 -39 157.5 -111.5t70 -158.5t-11 -176t-86 -164t-154 -121t-213.5 -47q-104 0 -176 37t-144 119z" />
<glyph unicode="4" d="M115 221l14 107l705 901h139l-109 -871h207l-16 -137h-207l-27 -227q-4 -25 12.5 -38t41 -19.5t51 -7.5t43.5 -1l-13 -86q-16 0 -44.5 1t-61.5 2t-67.5 2t-65.5 1t-67 -1t-69.5 -2t-62.5 -2t-45 -1l12 86q16 0 43 1t52.5 7.5t45 19.5t23.5 38l27 227h-561zM293 358h399 l76 615z" />
<glyph unicode="5" d="M143 -25l74 74q72 -53 134.5 -76.5t148.5 -23.5q59 0 111.5 28.5t92 73.5t64.5 97.5t31 99.5q12 98 -10.5 165.5t-86 106.5t-173 50.5t-269.5 -1.5l195 660h471q53 0 91 3t48 3l-33 -268h-86q-2 82 -28.5 109.5t-83.5 27.5h-242l-123 -422q174 12 279.5 -26t160 -102.5 t66.5 -146t4 -157.5q-12 -98 -58.5 -177t-115 -134.5t-153.5 -86t-177 -30.5q-117 0 -192.5 42t-139.5 111z" />
<glyph unicode="6" d="M159 326.5q-5 101.5 7 212.5q20 162 73.5 321.5t148.5 284.5t236.5 202.5t338.5 77.5h41l-15 -125h-41q-104 0 -194 -35.5t-161 -97t-121 -144.5t-77 -177q55 55 138 78.5t153 23.5q109 0 183.5 -37t117.5 -100t57.5 -149.5t2.5 -186.5q-12 -109 -55.5 -200t-111 -158.5 t-158.5 -105.5t-202 -38q-129 0 -205.5 47.5t-113.5 126t-42 180zM330 349.5q2 -66.5 23.5 -123t63.5 -93.5t115 -37q82 0 141.5 29t100.5 79t64.5 115.5t33.5 139.5q8 68 3 132t-29.5 116.5t-71.5 84t-125 31.5q-72 0 -127 -30.5t-94 -79.5t-62.5 -111.5t-31.5 -126.5 q-6 -59 -4 -125.5z" />
<glyph unicode="7" d="M168 -178l653 1282h-401q-57 0 -92 -27.5t-56 -109.5h-82l33 268q10 0 48 -3t91 -3h699l-719 -1407h-174z" />
<glyph unicode="8" d="M129 328q8 72 40 130t78 107t102.5 88t115.5 70q-51 29 -94 62.5t-72 75.5t-41 95.5t-4 122.5q10 88 51 154.5t101.5 111t135 66t154.5 21.5q74 0 141.5 -18.5t117 -58.5t73.5 -101.5t14 -145.5q-6 -61 -32.5 -113.5t-66.5 -95.5t-89 -79t-100 -64q55 -29 102 -70t80 -92 t48 -111.5t7 -130.5q-12 -92 -59 -162.5t-117 -118.5t-151.5 -73t-163.5 -25q-80 0 -153 20.5t-125 63.5t-78.5 111t-14.5 160zM303 348q-6 -59 9.5 -105t48 -78t79.5 -49.5t101 -17.5q49 0 96 17.5t84 48.5t62.5 74t31.5 96q6 57 -12.5 106t-54 89t-81.5 72t-92 54 q-49 -27 -96 -56.5t-84 -65t-61.5 -81.5t-30.5 -104zM426 1104q-6 -53 11.5 -97t50 -79t73.5 -62.5t84 -48.5q45 27 84 52.5t69.5 56t50 68.5t25.5 91q14 106 -48 163t-160 57q-88 0 -158 -54.5t-82 -146.5z" />
<glyph unicode="9" d="M147 729q12 104 53.5 200.5t109 168t159.5 114.5t209 43q125 0 202.5 -45t117.5 -120.5t48 -174.5t-6 -208q-23 -180 -63.5 -341t-124.5 -281t-224.5 -189.5t-361.5 -69.5q-29 0 -54.5 1t-53.5 3l14 119q27 0 53.5 -1t53.5 -1q209 0 347 93t187 304q-57 -55 -142 -78.5 t-159 -23.5q-109 0 -183.5 38.5t-118.5 105.5t-59.5 155t-3.5 188zM318 610q4 -65 27.5 -119.5t70.5 -88t127 -33.5t139 32.5t99 85t62.5 119.5t30.5 135q8 59 5.5 128t-25.5 127.5t-67 97.5t-119 39q-86 0 -146.5 -35t-102.5 -90.5t-65.5 -125t-31.5 -141.5q-8 -66 -4 -131 z" />
<glyph unicode=":" horiz-adv-x="528" d="M147 90q6 47 45 82t87 35q49 0 78.5 -35t23.5 -82q-4 -47 -43 -82t-88 -35q-47 0 -77 35t-26 82zM252 934q6 47 45 82t86 35t77.5 -35t24.5 -82t-45 -82t-86 -35t-77.5 35t-24.5 82z" />
<glyph unicode=";" horiz-adv-x="528" d="M68 -205q25 20 47 37.5t40.5 36t30 39t15.5 47.5q2 14 -7.5 24.5t-20.5 23.5t-20.5 32.5t-5.5 54.5q6 47 45 82t87 35q49 0 78.5 -35t23.5 -82q-8 -63 -32.5 -112.5t-61.5 -91.5t-82 -79.5t-92 -74.5zM252 934q6 47 45 82t86 35t77.5 -35t24.5 -82t-45 -82t-86 -35 t-77.5 35t-24.5 82z" />
<glyph unicode="&#x3c;" d="M264 489l15 119l745 340l-20 -170l-545 -231l487 -230l-20 -170z" />
<glyph unicode="=" d="M152 332l16 141h901l-16 -141h-901zM186 623l19 141h901l-19 -141h-901z" />
<glyph unicode="&#x3e;" d="M229 147l21 170l545 232l-488 229l21 170l661 -342l-14 -119z" />
<glyph unicode="?" horiz-adv-x="843" d="M256 1155l23 184q86 53 164.5 82t170.5 29q63 0 117.5 -18.5t92.5 -54.5t54.5 -90t8.5 -128q-10 -90 -52 -149.5t-94.5 -106.5t-104.5 -88t-82 -93t-28 -121t58 -171l-103 -65q-86 117 -104.5 202.5t5.5 151t75 118t105 101.5t98.5 100.5t52.5 114.5q8 66 -31 117 t-119 51q-98 0 -157.5 -47t-75.5 -119h-74zM299 90q6 47 45 82t86 35q49 0 78.5 -35t23.5 -82q-4 -47 -42.5 -82t-88.5 -35q-47 0 -76.5 35t-25.5 82z" />
<glyph unicode="@" horiz-adv-x="1785" d="M90 500q0 205 62.5 380t177 302t276.5 198.5t361 71.5q166 0 300 -45t229 -136t147.5 -227.5t52.5 -316.5q0 -113 -34 -229.5t-97.5 -212t-156.5 -155.5t-212 -60q-66 0 -102.5 24.5t-55 63.5t-22.5 88t0 96q-23 -47 -60.5 -95t-84 -88t-97.5 -64.5t-100 -24.5 q-63 0 -104.5 29.5t-66 75.5t-34.5 101.5t-10 106.5q0 111 27.5 230.5t86 219t150.5 165t223 65.5q43 0 82 -14.5t74 -38.5l41 47h108q-25 -186 -58.5 -373.5t-33.5 -372.5q0 -47 16.5 -74.5t65.5 -27.5q55 0 108.5 44t95.5 114.5t67.5 157.5t25.5 173q0 307 -143.5 465 t-436.5 158q-166 0 -297 -63.5t-221 -173t-138 -257t-48 -317.5q0 -172 47 -302t133 -217t209 -132t277 -45q174 0 322.5 57t295.5 160l61 -99q-156 -117 -332.5 -184t-369.5 -67q-188 0 -337.5 55t-254 159.5t-160 257t-55.5 347.5zM618 420q0 -29 4.5 -65t15.5 -67.5 t32.5 -53t56.5 -21.5q31 0 59.5 14.5t55 37t49 49t39.5 51.5q39 61 63.5 125.5t40 131t24.5 135t19 140.5q-35 20 -72.5 29.5t-78.5 9.5q-90 0 -149.5 -52.5t-94.5 -131t-49.5 -168.5t-14.5 -164z" />
<glyph unicode="A" horiz-adv-x="1247" d="M29 -8l12 84q37 0 76 17.5t55 58.5l551 1251l160 53l211 -1309q8 -45 42.5 -58t71.5 -13l-12 -84q-35 2 -79 5t-105 3q-59 0 -125 -3t-101 -5l15 84q80 0 103.5 21.5t19.5 47.5q-12 59 -21 121q-10 53 -18 112.5t-17 113.5h-411l-154 -367q-6 -14 8.5 -23.5t37 -15.5 t48 -8t41.5 -2l-14 -84q-35 0 -97.5 4t-121.5 4q-61 0 -101.5 -4t-74.5 -4zM516 625h330l-88 559z" />
<glyph unicode="B" horiz-adv-x="1110" d="M29 -6l12 82q14 0 36.5 1t44 7t38 20.5t20.5 40.5l156 1131q1 6 1 11q0 33 -35 45q-40 14 -93 18l10 82q35 0 91.5 -3.5t117.5 -3.5q59 0 115.5 3.5t87.5 3.5q74 0 150.5 -12.5t136.5 -50.5q62 -39 94 -107q23 -48 22 -117q0 -30 -4 -64q-14 -113 -62 -190.5t-147 -124.5 q49 -16 91 -45t73 -73t44 -102q7 -33 7 -70q0 -29 -4 -60q-16 -109 -64 -187.5t-120 -131t-161 -78t-185 -25.5q-16 0 -48 1t-70 2t-78 2t-70 1q-59 0 -116 -3t-91 -3zM348 127l121 -2q66 0 129.5 15.5t114.5 49t85 85.5t44 124q4 30 4 58q0 96 -54 154q-70 75 -192 75h-174 zM442 815h162q47 0 90 20.5t76 55.5t55.5 83t30.5 103q3 25 3 46q0 80 -46 123q-57 52 -153 52h-7l-145 -2z" />
<glyph unicode="C" horiz-adv-x="1112" d="M78 426q-8 60 -7 124q0 76 11 157q20 150 74.5 284.5t140.5 237t206 163t271 60.5q80 0 139.5 -14.5t102.5 -35t69.5 -43t40.5 -36.5l-39 -287h-106q6 37 6 72q0 20 -2 40q-6 54 -8 64q-45 55 -99.5 81t-132.5 26q-102 0 -183 -53.5t-139 -136t-95 -185t-52 -201.5 q-12 -87 -11 -171q0 -32 1 -64q6 -116 44 -205.5t112 -146t194 -56.5q49 0 116 23.5t118 52.5q4 10 23.5 58.5t29.5 107.5h103l-39 -276q-100 -49 -201.5 -71t-200.5 -22q-150 0 -251 59.5t-159.5 160t-76.5 233.5z" />
<glyph unicode="D" horiz-adv-x="1290" d="M29 -6l12 82h31.5t44 6t40 20.5t21.5 40.5l158 1139v7q0 33 -35 45q-39 12 -92 16l12 82q35 0 91.5 -3.5t117.5 -3.5t119.5 3.5t89.5 3.5q160 0 285 -39t206.5 -122t114.5 -213q18 -72 18 -160q0 -72 -12 -155q-25 -170 -83 -308t-153 -236.5t-225.5 -151.5t-297.5 -53 q-16 0 -46 1t-67 2l-74 2t-67 1q-61 0 -118 -3t-91 -3zM348 127l162 -2h10q117 0 208 43q95 45 162.5 125t109 189.5t59.5 236.5q9 66 9 127q0 60 -8 112q-18 108 -70 184q-52 78 -139 118q-83 39 -199 38h-11l-131 -2z" />
<glyph unicode="E" horiz-adv-x="1034" d="M29 -6l12 82h31.5t44 6t40 20.5t21.5 40.5l158 1141v7q0 33 -35 43q-39 12 -92 16l12 82q33 0 89.5 -3.5t117.5 -3.5h71.5t118 1t140 2.5t138.5 2.5t110 1h57l-45 -328h-103q6 31 6.5 62.5t-3 59t-6.5 47t-3 25.5l-401 -2l-68 -495h254q20 0 33.5 17.5t22 40t10.5 43 t2 26.5h84q-6 -47 -15 -86q-6 -35 -11 -66t-7 -43q-2 -14 -4 -44t-6 -62q-4 -37 -8 -82h-82q0 10 2 30.5t0 42t-9.5 38t-25.5 16.5h-256l-76 -545l412 -2q2 6 10 25.5t18.5 48t19.5 60.5t13 63h103l-45 -328h-58.5t-111 1t-139 2t-143.5 2t-121 1h-73q-59 0 -114.5 -3 t-89.5 -3z" />
<glyph unicode="F" horiz-adv-x="1024" d="M29 -6l12 82h31.5t44 6t40 20.5t21.5 40.5l158 1139v7q0 33 -35 45q-39 12 -92 16l12 82q33 0 89.5 -3.5t117.5 -3.5h71.5t118 1t140 2.5t138.5 2.5t110 1h57l-45 -328h-103q6 31 6.5 62.5t-3 59t-6.5 47t-3 25.5l-401 -2l-68 -495h254q20 0 33.5 17.5t22 40t10.5 43 t2 26.5h84q-6 -47 -15 -86q-6 -35 -11 -66t-7 -43q-2 -14 -4 -44t-6 -62q-4 -37 -8 -82h-82q0 10 2 30.5t0 42t-9.5 38t-25.5 16.5h-256l-74 -535q-4 -23 13.5 -35t41 -18t47 -7t33.5 -1l-14 -82q-33 0 -99.5 3t-127.5 3q-59 0 -120 -3t-95 -3z" />
<glyph unicode="G" horiz-adv-x="1187" d="M78 426q-7 60 -7 124q0 76 11 157q20 150 75.5 284.5t142.5 237t207 163t271 60.5q78 0 139.5 -15.5t107.5 -36t75 -43t43 -36.5l-39 -291h-105q6 31 6.5 60.5t-2 54t-5.5 42t-3 23.5q-90 109 -247 109q-102 0 -183.5 -53.5t-140.5 -136t-97 -185t-53 -201.5 q-12 -88 -12 -171q0 -37 2 -72q8 -117 47 -205t112 -140.5t185 -52.5q49 0 110.5 17.5t121.5 46.5l45 328q2 20 -15.5 31.5t-42 16.5t-49 6t-37.5 1l13 96h321l-80 -579q-104 -49 -215.5 -71t-210.5 -22q-152 0 -254 59.5t-160.5 160t-76.5 233.5z" />
<glyph unicode="H" horiz-adv-x="1384" d="M29 -6l12 82q10 0 31.5 1t44 7t40 18.5t21.5 34.5l160 1149v6q0 30 -35 42q-39 12 -92 16l12 82q35 0 96.5 -3.5t122.5 -3.5t121 3.5t94 3.5l-10 -82q-12 0 -34.5 -2t-45 -8.5t-40 -18.5t-19.5 -33l-66 -487h607l65 485v6q0 30 -35 42q-39 12 -92 16l12 82 q35 0 97.5 -3.5t122.5 -3.5q61 0 120.5 3.5t94.5 3.5l-11 -82q-12 0 -33.5 -2t-44 -8.5t-40 -18.5t-19.5 -33l-160 -1151q-4 -23 13.5 -35t41 -18t47 -7t34.5 -1l-15 -82q-35 0 -99.5 3t-125.5 3t-121.5 -3t-95.5 -3l12 82q10 0 32.5 1t45.5 7t40 18.5t21 34.5l74 535h-604 l-76 -535q-4 -23 13.5 -35t41 -18t47 -7t33.5 -1l-14 -82q-16 0 -43 1t-57.5 2t-62.5 2t-62 1q-61 0 -122 -3t-95 -3z" />
<glyph unicode="I" horiz-adv-x="649" d="M29 -6l12 82q10 0 31.5 1t44 7t40 18.5t21.5 34.5l158 1149v6q0 30 -35 42q-39 12 -92 16l12 82q35 0 97.5 -3.5t121.5 -3.5q61 0 120.5 3.5t94.5 3.5l-10 -82q-12 0 -33.5 -2t-44 -9.5t-40 -19.5t-19.5 -33l-158 -1149q-4 -23 13.5 -35t41 -18t47 -7t33.5 -1l-14 -82 q-16 0 -43 1t-57.5 2t-62.5 2t-62 1q-61 0 -122 -3t-95 -3z" />
<glyph unicode="J" horiz-adv-x="624" d="M-92 -199q41 20 91 56.5t95 83.5t78 102t41 117l154 1126v6q0 30 -34 42q-38 12 -91 16l10 82q35 0 96.5 -3.5t122.5 -3.5q59 0 119.5 3.5t95.5 3.5l-10 -82q-12 0 -33.5 -2t-44.5 -9.5t-40 -19.5t-19 -33l-131 -967q-18 -127 -49 -222t-85.5 -168.5t-137.5 -131 t-206 -108.5z" />
<glyph unicode="K" horiz-adv-x="1368" d="M29 -6l12 82q10 0 31.5 1t44 7t40 18.5t21.5 34.5l158 1149v6q0 30 -35 42q-39 12 -92 16l12 82q35 0 97.5 -3.5t121.5 -3.5q61 0 121 3.5t94 3.5l-10 -82q-12 0 -33.5 -2t-44 -9.5t-40 -19.5t-19.5 -33l-84 -618l573 624q25 25 -2 37q-23 14 -94 21l8 82q35 0 96.5 -3.5 t120.5 -3.5q61 0 119.5 3.5t93.5 3.5l-8 -84q-117 -10 -182 -80l-436 -477l350 -607q35 -59 86 -80.5t106 -27.5l-14 -82q-16 0 -46 1t-64.5 2t-70.5 2t-67 1t-65.5 -1t-67.5 -2t-60.5 -2t-43.5 -1l12 82q59 4 91 20q19 9 19 25q0 12 -10 29l-284 499l-191 -198l-43 -314 q-4 -23 13.5 -35t41 -18t47 -7t33.5 -1l-14 -82q-16 0 -43 1t-57.5 2t-62.5 2t-62 1q-61 0 -122 -3t-95 -3z" />
<glyph unicode="L" horiz-adv-x="993" d="M29 -6l12 82h31.5t44 6t40 19.5t21.5 39.5l158 1145v6q0 30 -35 42q-39 12 -92 16l12 82q35 0 96.5 -3.5t120.5 -3.5q61 0 122 3.5t95 3.5l-10 -82q-12 0 -33.5 -2t-44 -9.5t-40 -19.5t-19.5 -33l-160 -1159l422 -2q2 6 10 25.5t18.5 48t19.5 60.5t13 63h103l-45 -328 h-59.5t-113 1t-141 2t-145.5 2t-123 1h-74q-59 0 -114.5 -3t-89.5 -3z" />
<glyph unicode="M" horiz-adv-x="1740" d="M45 -6l12 82q10 0 33 1t45.5 7t40 18.5t21.5 34.5l153 1149v6q0 30 -35 42q-39 12 -92 16l13 82q35 0 90 -3.5t114 -3.5h152l295 -839l586 839h81q61 0 115.5 3.5t89.5 3.5l-12 -82q-12 0 -33.5 -2t-43 -9.5t-39 -19.5t-19.5 -33l-154 -1149q-4 -23 13.5 -35t41 -18 t47 -7t33.5 -1l-14 -82q-16 0 -43 1t-57.5 2t-63.5 2t-63 1q-61 0 -122 -3t-95 -3l14 82q10 0 31.5 1t43 7t39 18.5t21.5 34.5l131 971l-622 -893l-322 928l-137 -1006q-4 -23 13.5 -35t40 -18t46 -7t33.5 -1l-14 -82q-35 0 -89.5 3t-115.5 3t-114.5 -3t-88.5 -3z" />
<glyph unicode="N" horiz-adv-x="1431" d="M43 -6l12 82q10 0 32 1t44.5 7t39.5 18.5t22 34.5l157 1149v6q0 30 -35 42q-39 12 -92 16l13 82q35 0 85 -3.5t109 -3.5h125l492 -1073l129 936q2 23 -13.5 35t-38 18.5t-45 7.5t-32.5 1l12 82q35 0 89 -3.5t114 -3.5q61 0 113 3.5t87 3.5l-10 -82q-10 0 -31.5 -1 t-43 -7.5t-40 -18.5t-20.5 -35l-178 -1288h-142l-526 1147l-139 -1010q-4 -23 13 -35t41 -18t47.5 -7t33.5 -1l-14 -82q-35 0 -91.5 3t-115.5 3q-61 0 -114.5 -3t-88.5 -3z" />
<glyph unicode="O" horiz-adv-x="1298" d="M80 419q-8 60 -8 123q0 72 10 148q20 147 74.5 284.5t142.5 244t209 170t272 63.5q143 0 242.5 -59.5t157.5 -157.5q57 -99 74 -229q8 -60 7 -122q0 -73 -10 -149q-20 -147 -75.5 -284.5t-142.5 -244t-207.5 -170t-272.5 -63.5q-145 0 -244.5 59.5t-156 158t-72.5 228.5z M260 508q6 -112 42 -201.5t105.5 -146t180.5 -56.5q100 0 181 53.5t141.5 138.5t98.5 190.5t52 207.5q10 82 10 163q0 29 -1 59q-5 110 -41 200t-104.5 146.5t-179.5 56.5q-100 0 -181 -53.5t-141.5 -138.5t-99 -189t-53.5 -207q-12 -81 -11 -162q-1 -31 1 -61z" />
<glyph unicode="P" horiz-adv-x="1019" d="M29 -6l12 82q18 0 40.5 2t43 8t35 19.5t18.5 37.5l158 1137v7q0 33 -35 45q-39 14 -92 18l10 82q35 0 90.5 -3.5t116.5 -3.5q59 0 114.5 3.5t86.5 3.5q84 0 164.5 -17.5t140.5 -62.5q62 -45 92 -123q20 -51 20 -122q0 -37 -6 -79q-16 -123 -67 -204t-125 -129t-164 -68.5 t-184 -20.5h-84l-64 -469q-4 -23 13.5 -35t41 -18t47 -7t33.5 -1l-14 -82q-35 0 -99.5 3t-125.5 3q-59 0 -121 -3t-96 -3zM432 735h98q131 0 216 64.5t108 214.5q5 35 5 66q1 102 -51 154q-62 64 -180 64h-18l-100 -2z" />
<glyph unicode="Q" horiz-adv-x="1335" d="M78 418q-7 60 -7 121q0 74 11 151q20 147 75.5 284.5t142.5 243t208 170t272 64.5q143 0 243.5 -59.5t158 -158.5t73.5 -230q7 -59 7 -119q0 -76 -11 -154q-16 -111 -51 -220.5t-92 -204.5t-136 -171t-181 -121q66 -31 115.5 -74.5t109.5 -82.5q16 -10 39.5 -18.5 t70.5 -18.5l-12 -90h-135q-63 0 -107.5 26.5t-83.5 61.5l-165 153q-16 -2 -35 -3t-35 -1q-145 0 -244.5 60.5t-156 160t-74.5 230.5zM260 506q6 -111 42 -201t105.5 -147.5t180.5 -57.5q100 0 181 54.5t141.5 139.5t99.5 190.5t53 209.5q10 80 10 161q0 29 -1 59 q-5 110 -41 200t-105.5 147.5t-180.5 57.5q-100 0 -181 -53.5t-141.5 -138.5t-99 -190.5t-53.5 -209.5q-12 -79 -12 -160q0 -30 2 -61z" />
<glyph unicode="R" horiz-adv-x="1175" d="M29 -6l12 82q18 0 40.5 2t43 8t35 19.5t18.5 37.5l158 1137v7q0 33 -35 45q-39 14 -92 18l10 82q35 0 91.5 -3.5t117.5 -3.5q59 0 113.5 3.5t85.5 3.5q84 0 164.5 -17.5t141 -62.5t91.5 -123q20 -50 20 -120q0 -38 -6 -81q-23 -156 -97.5 -246t-180.5 -131l172 -458 q14 -39 29.5 -59.5t31.5 -31.5q23 -12 52.5 -17t54.5 -9l-10 -76h-164q-35 0 -61.5 12.5t-46 31.5t-32 43t-20.5 44l-180 479q-23 -2 -44.5 -3t-43.5 -1h-84l-64 -469q-4 -23 13.5 -35t41 -18t47 -7t33.5 -1l-14 -82q-35 0 -99.5 3t-125.5 3q-59 0 -121 -3t-96 -3zM432 735 h98q131 0 216 64.5t108 214.5q5 35 5 66q1 102 -51 154q-62 64 -180 64h-18l-102 -2z" />
<glyph unicode="S" horiz-adv-x="1034" d="M31 45l41 293h104q-4 -31 -4 -60.5t1 -54t4 -42t3 -23.5q41 -31 107.5 -42.5t122.5 -11.5q51 0 101 17.5t90 51.5t68.5 81t37.5 108q2 19 2 37q-1 45 -15 80q-20 49 -59 86t-88 64.5t-98 52.5q-55 29 -108.5 62.5t-93.5 79.5q-41 46 -61 106q-14 40 -13 89q0 24 3 50 q14 102 60.5 175t112 119t145 67.5t159.5 21.5q170 0 324 -78l-41 -293h-105q4 31 4.5 60.5t-0.5 54.5t-4.5 42t-3.5 24q-41 33 -96 45t-104 12q-45 0 -90 -12.5t-83 -38t-65 -65.5t-35 -95q-2 -13 -1 -25q0 -58 38 -105q47 -56 118 -102.5t145.5 -86t121.5 -78.5 q59 -51 93 -124q23 -50 23 -114q0 -30 -5 -63q-14 -109 -63.5 -191t-119 -136t-155.5 -82t-174 -28q-174 0 -344 72z" />
<glyph unicode="T" horiz-adv-x="1105" d="M104 1104l46 330q10 0 44.5 -1t83 -1t102.5 -3t104.5 -2.5t91 -0.5t61.5 -1q31 0 105.5 1t156.5 3.5t151 3.5t85 1l-43 -330h-103q4 44 5 100v9q0 51 -11 94l-270 -4l-162 -1166q-4 -23 13.5 -35t40 -18t46 -7t33.5 -1l-12 -82q-16 0 -43 1t-57.5 2t-62.5 2t-63 1 q-61 0 -121.5 -3t-95.5 -3l11 82q10 0 32.5 1t45 7t40 18.5t21.5 34.5l160 1166l-269 4q-25 -47 -40 -102.5t-23 -100.5h-103z" />
<glyph unicode="U" horiz-adv-x="1306" d="M92 1350l12 82q35 0 97.5 -3.5t122.5 -3.5q61 0 122.5 3.5t96.5 3.5l-11 -82q-12 0 -34.5 -2t-45 -9.5t-41 -19.5t-20.5 -33l-117 -837q-6 -40 -6 -75q0 -107 53 -167q70 -80 224 -80q160 0 255 85t120 261l112 813v6q0 30 -37 42q-41 12 -94 16l12 82q35 0 94.5 -3.5 t118.5 -3.5q61 0 115.5 3.5t89.5 3.5l-10 -82q-12 0 -33.5 -2t-44 -9.5t-40 -19.5t-19.5 -33l-115 -805q-35 -250 -181.5 -379t-369.5 -129q-109 0 -192.5 27t-139.5 82t-78 143q-13 51 -13 115q0 45 7 96l117 850v6q0 30 -35 42q-39 12 -92 16z" />
<glyph unicode="V" horiz-adv-x="1249" d="M80 1350l12 82q35 0 80 -3.5t107 -3.5q31 0 66.5 1t70.5 2.5t64.5 2.5t47.5 1l-16 -82q-6 0 -28.5 -2t-45 -8.5t-40 -18.5t-13.5 -33l133 -1044l473 1046q8 20 -8 31.5t-40.5 18t-50.5 8.5t-34 2l14 82q35 0 97.5 -3.5t122.5 -3.5q61 0 114 3.5t88 3.5l-12 -82 q-12 0 -33.5 -2t-43 -9.5t-42 -19.5t-28.5 -33l-586 -1286h-166l-178 1288q-4 20 -21.5 32.5t-38 19t-40 8.5t-25.5 2z" />
<glyph unicode="W" horiz-adv-x="1929" d="M80 1350l12 82q35 0 80 -3.5t107 -3.5q31 0 66.5 1t70.5 2.5t64.5 2.5t47.5 1l-16 -82q-6 0 -28.5 -2t-45 -8.5t-40 -18.5t-13.5 -33l129 -1016l418 873h137l162 -860l438 1005q8 20 -7 31.5t-40 18t-50.5 8.5t-33.5 2l12 82q35 0 97.5 -3.5t121.5 -3.5q61 0 115.5 3.5 t89.5 3.5l-10 -82q-12 0 -33.5 -2t-44 -9.5t-43 -19.5t-28.5 -33l-564 -1286h-149l-166 854l-406 -854h-145l-180 1288q-4 20 -21.5 32.5t-38 19t-40 8.5t-25.5 2z" />
<glyph unicode="X" horiz-adv-x="1331" d="M20 -6l11 82q35 0 85 12t83 57l422 572l-250 563q-10 20 -27.5 34.5t-38 21.5t-42 10.5t-38.5 3.5l11 82q35 0 87 -3.5t113 -3.5q31 0 72 1t82 2.5t75.5 2.5t51.5 1l-10 -82q-10 0 -35 -1t-50.5 -7.5t-42 -18.5t-6.5 -33l175 -411l303 411q16 23 0.5 35t-41 17.5t-53 6.5 t-35.5 1l10 82q16 0 48 -1t68.5 -2.5t73.5 -2.5t68 -1q61 0 106 3.5t80 3.5l-10 -80q-35 0 -79 -14.5t-77 -57.5l-393 -537l268 -598q20 -43 68.5 -56t83.5 -13l-10 -82q-35 0 -98.5 3t-124.5 3q-31 0 -69 -1l-76 -2t-69.5 -2t-48.5 -1l11 82q12 0 37.5 1t49 6t39 17.5 t5.5 34.5l-193 455l-336 -455q-16 -23 -1.5 -34t38 -17t49 -7t33.5 -1l-10 -82q-16 0 -50 1t-74 2l-80 2t-71 1q-61 0 -97 -3t-71 -3z" />
<glyph unicode="Y" horiz-adv-x="1136" d="M86 1350l10 82q35 0 80 -3.5t107 -3.5q31 0 64.5 1t66 2.5t60.5 2.5t46 1l-12 -82q-6 0 -29.5 -2t-46 -8.5t-39 -18.5t-10.5 -33l172 -561l324 563q10 18 -5.5 30.5t-40 19t-49 8.5t-32.5 2l12 82q35 0 95.5 -3.5t119.5 -3.5q61 0 114.5 3.5t88.5 3.5l-11 -82 q-12 0 -32.5 -3.5t-43 -10.5t-42 -19t-31.5 -31l-420 -706l-59 -443q-4 -23 13 -35t39.5 -18t46.5 -7t34 -1l-12 -82q-16 0 -42 1t-56.5 2t-62.5 2t-63 1q-61 0 -120.5 -3t-94.5 -3l11 82q10 0 32.5 1t45 7t40 18.5t21.5 34.5l57 443l-223 708q-6 20 -23.5 32.5t-38 19 t-38 8.5t-23.5 2z" />
<glyph unicode="Z" horiz-adv-x="1050" d="M25 0l10 80l870 1220l-528 3q-23 -45 -38 -99.5t-24 -99.5h-106l41 330q10 0 59 -3.5t105 -3.5l727 -2l-15 -102l-845 -1200l573 -2q23 45 39 100t22 101h107l-41 -330q-6 0 -22.5 1t-41 2t-53 2t-55.5 1z" />
<glyph unicode="[" horiz-adv-x="641" d="M63 -467l271 2005h381l-17 -125h-209l-239 -1755h209l-15 -125h-381z" />
<glyph unicode="\" horiz-adv-x="694" d="M147 -467l265 2005h166l-265 -2005h-166z" />
<glyph unicode="]" horiz-adv-x="641" d="M82 -467l16 125h209l240 1755h-209l14 125h381l-270 -2005h-381z" />
<glyph unicode="^" horiz-adv-x="712" d="M70 1268l370 264l285 -266l-86 -101l-229 172l-285 -172z" />
<glyph unicode="_" d="M102 -440l17 141h901l-16 -141h-902z" />
<glyph unicode="`" horiz-adv-x="712" d="M172 1391l109 143l317 -250l-76 -96z" />
<glyph unicode="a" horiz-adv-x="1015" d="M84 299q0 111 29.5 242t91 244.5t158 189.5t229.5 76q47 0 94 -19.5t86 -46.5l45 39h84l-113 -834q-4 -25 -5 -43t4.5 -31.5t18.5 -20.5t40 -7q10 0 46.5 1t59.5 3l-8 -57q-51 -20 -115.5 -41t-115.5 -21q-47 -1 -72 23q-20 18 -20 53q0 10 2 21l28 209 q-27 -49 -64.5 -102.5t-83.5 -98.5t-99.5 -75t-110.5 -30q-66 0 -107 32t-63.5 81t-30.5 106.5t-8 106.5zM250 338q0 -33 4 -75t15.5 -79t33 -61.5t57.5 -24.5q33 0 64 21.5t57.5 51.5t49 63.5t38.5 58.5q41 63 67 133t42 140.5t26.5 143t20.5 146.5q-33 23 -78 45.5 t-80 22.5q-55 0 -100 -31t-80 -80t-61.5 -112.5t-43 -129t-24.5 -127t-8 -106.5z" />
<glyph unicode="b" horiz-adv-x="1024" d="M125 0l184 1370q3 24 3 44t-3 34q-6 29 -57 29q-23 0 -49.5 -1t-65.5 -3l8 55q61 20 119 40.5t123 20.5q47 1 71 -23q20 -19 20 -56q0 -9 -1 -19l-96 -717q49 84 95 139.5t92 87t93.5 45t98.5 13.5q53 0 90 -26.5t60.5 -69.5t33.5 -98.5t10 -114.5q0 -119 -28.5 -255.5 t-92 -252t-165 -192.5t-244.5 -77q-53 0 -97 19.5t-85 46.5l-47 -39h-70zM299 162q43 -23 82 -35t80 -12q102 0 165.5 60.5t98.5 149.5t47 190t12 185q0 31 -5 70t-17 73t-33.5 56.5t-56.5 22.5q-43 0 -84 -28t-77 -73t-66.5 -102t-55 -116.5t-40 -118t-21.5 -103.5z" />
<glyph unicode="c" horiz-adv-x="808" d="M84 360q0 109 29.5 230t92 223t158 170t226.5 68q80 0 119 -22.5t53 -60.5q12 -31 12 -70q0 -8 -1 -18q-3 -50 -9 -100h-66q0 68 -40 104t-126 36q-57 0 -101 -28t-76.5 -72t-56.5 -101t-37 -115.5t-19 -115t-6 -99.5q0 -53 9 -101t32.5 -84t61.5 -56.5t97 -20.5 q74 0 143.5 42t135.5 99l24 -110q-72 -80 -171 -132.5t-206 -52.5q-84 0 -137 36t-84.5 91.5t-44 124t-12.5 135.5z" />
<glyph unicode="d" horiz-adv-x="1028" d="M82 305q0 59 11 137t36 161t64.5 164t94 143.5t126 101.5t161.5 39q49 0 96.5 -14.5t76.5 -41.5l51 375q3 24 3 43t-3 34q-6 30 -58 30q-20 0 -46.5 -1t-67.5 -3l8 55q59 20 119.5 40.5t124.5 20.5q43 -1 69 -25q21 -20 20 -55q0 -8 -1 -18l-176 -1298q-3 -27 -3 -47 q0 -17 2 -30q5 -28 56 -28q10 0 47 1t61 3l-8 -57q-25 -10 -54.5 -20.5t-60 -19.5t-61.5 -15.5t-55 -6.5q-47 -1 -73 23q-19 17 -19 51q0 11 2 25l28 209q-27 -47 -63.5 -101.5t-82.5 -100.5t-100.5 -76t-111.5 -30q-68 0 -110 33t-65.5 82t-30.5 107.5t-7 109.5zM248 352 q0 -33 4 -76t16.5 -80.5t34 -64.5t55.5 -27q33 0 64 20.5t58.5 51.5t51 64.5t39.5 58.5q47 74 83 168t48 186l27 203q-33 29 -74 47.5t-94 18.5q-72 0 -129 -58.5t-98 -145.5t-63.5 -186.5t-22.5 -179.5z" />
<glyph unicode="e" horiz-adv-x="876" d="M84 356q0 70 11 150t36 156.5t62.5 147.5t92 124t125 85t158.5 32q49 0 93.5 -11.5t76 -37t51 -65.5t19.5 -97q0 -55 -28.5 -101.5t-75 -84.5t-106.5 -66.5t-123.5 -50t-126 -35t-113.5 -21.5q-4 -23 -5.5 -49t-1.5 -45q0 -43 8.5 -90t27 -85t50 -62.5t80.5 -24.5 q92 0 163 37t149 108l22 -112q-78 -88 -175 -136.5t-210 -48.5q-80 0 -130 37t-80 93.5t-40 124t-10 128.5zM250 580q49 8 117.5 24.5t130 43t105.5 64.5t44 89q0 59 -31.5 88t-89.5 29q-63 0 -110 -31t-80 -80t-53.5 -109.5t-32.5 -117.5z" />
<glyph unicode="f" horiz-adv-x="655" d="M-139 -524l16 102q20 -2 24.5 -3t16.5 -1q106 0 149.5 54.5t55.5 150.5l151 1116h-151l12 92l154 37l24 162q14 109 51 185.5t89.5 124.5t116 70.5t132.5 22.5q27 0 53.5 -3t49.5 -9l-17 -156q-12 16 -38.5 26.5t-65.5 10.5q-29 0 -62.5 -9t-63.5 -33.5t-53.5 -70 t-33.5 -116.5l-29 -205h232l-19 -129h-229l-158 -1165q-10 -68 -37.5 -118t-69.5 -82t-95.5 -47t-112.5 -15q-20 0 -42 2t-50 6z" />
<glyph unicode="g" horiz-adv-x="1028" d="M64 -314q22 60 104 117l41 -41q-46 -56 -46 -99q0 -13 4 -24q17 -51 120 -51q90 0 154.5 43t108.5 113t68.5 156t34.5 172l25 190q-25 -49 -58.5 -100t-77.5 -93t-98.5 -69t-119.5 -27q-66 0 -107 32t-63.5 80t-29.5 104.5t-7 107.5q0 113 29.5 244t92 244.5t160 189.5 t230.5 76q47 0 93 -19.5t87 -46.5l43 39h82l-123 -901q-47 -342 -175 -498.5t-337 -156.5q-84 0 -146.5 30.5t-86.5 79.5q-12 26 -12 54q0 26 10 54zM283 336q0 -33 4 -74t15 -76.5t32.5 -60.5t58.5 -25q31 0 61.5 20.5t58.5 49.5t49.5 61.5t37.5 57.5q41 63 66.5 133 t43 141.5t28 145t22.5 147.5q-41 20 -77 42t-83 22q-82 0 -142.5 -66t-99.5 -158t-57 -191t-18 -169z" />
<glyph unicode="h" d="M129 0l184 1370q3 24 3 43t-3 34q-6 30 -59 30q-23 0 -48.5 -1t-64.5 -3l9 55q61 20 117.5 40.5t121.5 20.5q47 1 73 -23q21 -19 20 -57q0 -9 -1 -18l-100 -741q35 68 77 124t90 97t103.5 64.5t116.5 23.5q51 0 87 -18.5t57.5 -50.5t27.5 -72q3 -20 3 -42t-3 -45 l-86 -638q-3 -26 -3 -46q0 -17 2 -30q5 -29 56 -29q23 0 46.5 1t62.5 3l-8 -57q-55 -20 -114.5 -41t-119.5 -21q-89 0 -89 79q0 9 1 20l96 712q2 13 2 25q0 34 -13 61q-16 35 -67 35h-6q-59 -2 -110 -44t-93 -108.5t-75 -149.5t-57.5 -167t-41 -158.5t-22.5 -125.5l-20 -152 h-152z" />
<glyph unicode="i" horiz-adv-x="585" d="M98 934l8 55q59 18 119 40t123 22q48 1 72 -23q20 -19 19 -57q0 -9 -1 -19l-102 -759q-3 -26 -3 -46q0 -17 2 -30q5 -29 56 -29q20 0 44 1t65 3l-8 -57q-53 -20 -113 -41t-119 -21q-46 -1 -72 23q-21 19 -21 57q0 9 1 19l102 757q3 24 3 43.5t-3 34.5q-6 31 -57 31 q-20 0 -48 -1t-67 -3zM317 1358q0 25 9.5 48.5t25 42.5t38 31.5t46.5 12.5q45 0 69.5 -28.5t24.5 -73.5q0 -49 -32.5 -92.5t-85.5 -43.5q-45 0 -70 29t-25 74z" />
<glyph unicode="j" horiz-adv-x="536" d="M-154 -524l15 102q18 -2 23 -3t16 -1q104 0 151 55.5t60 149.5l143 1055q3 24 3 42.5t-3 33.5q-6 28 -57 28q-23 0 -49.5 -1t-65.5 -3l8 55q59 18 117.5 40t124.5 22q45 0 70 -23q21 -19 21 -56q0 -8 -1 -18l-164 -1224q-10 -68 -39 -118t-73 -82t-98 -47t-111 -15 q-20 0 -41 2t-50 6zM285 1358q0 25 9 48.5t24.5 42.5t38 31.5t46.5 12.5q45 0 70 -28.5t25 -73.5q0 -49 -33 -92.5t-86 -43.5q-45 0 -69.5 29t-24.5 74z" />
<glyph unicode="k" horiz-adv-x="1064" d="M125 0l184 1370l4 40t-3 34t-17 23.5t-39 9.5q-23 0 -50.5 -1t-66.5 -3l8 55q57 18 118 39.5t122 21.5q49 -1 73 -25q20 -20 20 -55q0 -9 -1 -18l-129 -956l389 368q14 12 26.5 25.5t12.5 23.5t-24.5 12.5t-104.5 2.5l6 51q47 8 90 16q37 6 74 11.5t60 5.5q33 0 54 -22.5 t21 -53.5q0 -16 -7 -32.5t-23 -33.5l-304 -284l158 -430q16 -47 38 -78t79 -35q23 0 48.5 -1t64.5 -1v-57q-23 -8 -44.5 -16.5t-46.5 -16.5q-25 -6 -50 -11.5t-52 -5.5q-47 0 -86 20.5t-59 74.5l-164 448l-182 -172l-43 -344h-154z" />
<glyph unicode="l" horiz-adv-x="569" d="M135 72l174 1298q3 24 3 43t-3 34q-6 30 -55 30q-20 0 -49 -1t-68 -3l8 55q57 18 118 39.5t124 21.5q47 1 71 -23q20 -19 20 -56q0 -9 -1 -19l-176 -1298q-3 -26 -3 -46q0 -17 2 -30q5 -29 54 -29q20 0 46 1t65 3l-8 -57q-55 -20 -115.5 -41t-120.5 -21q-45 -1 -69 23 q-19 19 -18 56q0 9 1 20z" />
<glyph unicode="m" horiz-adv-x="1634" d="M88 934l8 55q59 18 117.5 40t124.5 22q48 1 72 -23q20 -19 19 -55q0 -9 -1 -19l-29 -209q70 133 160 219.5t215 86.5q53 0 88 -18.5t53.5 -49.5t23.5 -72q2 -19 2 -38q0 -23 -3 -46l-10 -71q70 129 160 212t212 83q53 0 88 -18.5t55.5 -49.5t26.5 -72q2 -18 2 -36 q0 -23 -4 -48l-88 -637q-4 -27 -4 -47q0 -17 3 -29q7 -26 55 -26q20 0 45.5 1t64.5 3l-8 -57q-57 -23 -118.5 -42.5t-114.5 -19.5q-47 -1 -71 23q-19 19 -19 55q0 9 1 19l97 710q2 15 2 28q-1 33 -11 58q-14 35 -67 35q-59 -2 -109.5 -43t-91.5 -107.5t-72.5 -149.5 t-55 -166t-38 -158.5t-22.5 -126.5l-21 -150h-149l106 780q2 16 2 31q0 31 -9 55q-13 35 -66 35q-59 -2 -109.5 -43t-91.5 -107.5t-73 -149.5t-55.5 -166t-38.5 -158.5t-22 -126.5l-20 -150h-152l113 834q3 24 3 42q0 20 -3 34q-6 28 -59 28q-23 0 -47.5 -1t-65.5 -3z" />
<glyph unicode="n" horiz-adv-x="1126" d="M86 934l8 55q61 18 117.5 40t122.5 22q46 1 72 -23q21 -19 21 -56q0 -9 -1 -18l-29 -209q72 135 168.5 220.5t220.5 85.5q51 0 87 -18.5t57.5 -49.5t27.5 -72q3 -20 4 -40q0 -22 -4 -44l-86 -634q-4 -25 -5 -43.5t4.5 -33t18.5 -21.5t40 -7q20 0 43.5 1t62.5 3l-8 -57 q-57 -20 -115.5 -41t-117.5 -21q-89 0 -89 77q0 9 1 20l96 710q2 13 2 24q1 34 -13 61q-18 36 -73 36q-59 -2 -109.5 -44t-92.5 -108.5t-75.5 -149.5t-58.5 -166t-40 -157.5t-24 -125.5l-22 -150h-150l111 834q3 24 3 42q0 20 -3 34q-6 28 -57 28q-20 0 -47 -1t-68 -3z" />
<glyph unicode="o" horiz-adv-x="993" d="M84 365q0 115 30.5 236.5t93 221t161 164t233.5 64.5q88 0 148.5 -33t95.5 -87t50 -125t15 -147q0 -115 -30.5 -236.5t-93 -221t-161 -164t-233.5 -64.5q-90 0 -149.5 33t-94 87t-50 125t-15.5 147zM252 381q0 -47 7 -96t27.5 -89t53.5 -67t86 -27q96 0 157.5 55.5 t97.5 137.5t49 176t13 172q0 45 -7 95t-27.5 90t-54 67t-85.5 27q-96 0 -157.5 -55.5t-97 -137.5t-49 -176t-13.5 -172z" />
<glyph unicode="p" horiz-adv-x="1056" d="M74 -520l182 1354q3 24 3 42.5t-3 33.5q-6 28 -57 28q-20 0 -47 -1t-68 -3l8 55q61 18 118.5 40t123.5 22q47 0 72 -23q19 -19 19 -55q0 -9 -1 -19l-29 -211q27 51 63 105.5t80 99.5t98 74t120 29q68 0 110.5 -31t67 -77t34 -102.5t9.5 -107.5q0 -139 -35 -275 t-103.5 -244t-173 -174.5t-243.5 -66.5q-33 0 -64.5 6.5t-62.5 16.5l-70 -516h-151zM315 150q82 -39 168 -39q100 0 165 59t99.5 146t48 187.5t13.5 182.5q0 31 -5 69t-17.5 70.5t-35 54t-57.5 21.5t-67.5 -18.5t-61.5 -42.5q-72 -61 -113.5 -144.5t-68.5 -176.5t-41 -188 t-27 -181z" />
<glyph unicode="q" horiz-adv-x="1017" d="M111 295q0 74 13 160t39.5 170t67.5 160.5t97.5 136t128 94.5t161.5 35q47 0 93.5 -19.5t87.5 -46.5l43 39h84l-181 -1337q-3 -21 -3 -38q0 -22 4 -38q8 -29 57 -29q20 0 45.5 1t64.5 3l-4 -57q-55 -20 -118.5 -40.5t-122.5 -20.5q-45 0 -70 24q-20 18 -20 53q0 10 2 21 l94 700q-25 -49 -62 -100t-83 -94t-100 -71t-112 -28q-66 0 -105.5 31t-62 79t-30.5 104.5t-8 107.5zM276 334q0 -33 4.5 -74t15.5 -75.5t32.5 -59.5t58.5 -25q33 0 62.5 20.5t56 49.5t49.5 61.5t39 57.5q41 63 66.5 133t42 141.5t27 145t22.5 147.5q-41 23 -77 43.5 t-83 20.5q-55 0 -99 -31t-80 -80t-61.5 -112.5t-42 -129t-25 -127t-8.5 -106.5z" />
<glyph unicode="r" horiz-adv-x="763" d="M86 934l8 55q59 18 118.5 40t125.5 22q48 1 72 -23q18 -18 18 -51q0 -11 -2 -23l-29 -202q18 49 47 101t67 96t85 73t102 29q55 1 76 -15q22 -16 22 -45q0 -24 -14 -55q-14 -33 -30 -66q-10 4 -27.5 4h-32.5q-63 0 -114.5 -39.5t-90 -104t-68.5 -145.5t-49.5 -161 t-32.5 -152.5t-20 -121.5l-20 -150h-150l111 834q3 24 3 42q0 20 -3 34q-6 28 -57 28q-20 0 -47 -1t-68 -3z" />
<glyph unicode="s" horiz-adv-x="790" d="M74 121q0 51 8 123h65q10 -66 45 -104t107 -38q37 0 76 9.5t70.5 29t52 51t20.5 76.5q0 61 -32.5 100.5t-79.5 69.5q-45 29 -91.5 57.5t-83 63.5t-60.5 80t-24 109q0 78 34 135t87.5 94t120 55.5t133.5 18.5q78 0 118 -18.5t56 -54.5q13 -31 13 -73q-1 -7 -1 -13 q-2 -50 -10 -112h-65q-10 66 -46 104t-108 38q-31 0 -62.5 -9.5t-58 -26t-43 -43t-16.5 -59.5q0 -53 35 -89t76 -62q45 -31 92 -60.5t86 -66.5t62.5 -85t23.5 -114q0 -84 -31 -147.5t-84 -104.5t-125 -61.5t-155 -20.5q-80 0 -124 15.5t-62.5 48.5t-18.5 84z" />
<glyph unicode="t" horiz-adv-x="686" d="M115 895l10 94l156 35l38 287l158 63l-47 -350h229l-14 -129h-233q-20 -162 -39 -289q-8 -55 -15.5 -107.5l-13.5 -94.5t-9 -68.5t-3 -28.5q-4 -31 -6 -63.5t4 -61t22.5 -47t48.5 -18.5q31 0 74 16.5t98 54.5l19 -118q-57 -41 -124 -69t-132 -28q-74 0 -108 40 q-34 41 -46 97q-8 39 -9 81q0 19 2 37q5 62 11 104l76 563h-147z" />
<glyph unicode="u" horiz-adv-x="1146" d="M86 934l8 55q59 18 117.5 40t124.5 22q48 0 72 -25q20 -20 19 -56q0 -9 -1 -18l-96 -708q-1 -12 -2 -23q0 -35 15 -62q19 -36 75 -36q59 0 109.5 42t92.5 108.5t75.5 149.5t58 166t40 158.5t23.5 126.5l23 150h149l-112 -825q-4 -25 -5.5 -44.5t3 -35t16.5 -23.5t39 -8 q20 0 44.5 1t65.5 3l-8 -57q-57 -20 -115.5 -41t-117.5 -21q-89 0 -89 77q0 9 1 20l28 209q-72 -135 -168 -220.5t-221 -85.5q-53 0 -89 18.5t-58.5 49.5t-29.5 71q-4 22 -4 45q0 20 3 40l86 634q3 24 3 43t-3 34q-6 30 -59 30q-20 0 -47 -1t-66 -3z" />
<glyph unicode="v" horiz-adv-x="972" d="M70 934l8 55q59 18 117.5 40t123.5 22q47 0 72 -25q20 -20 20 -56q0 -9 -1 -18l-99 -725q-2 -14 -2 -27q-1 -30 9 -50q14 -30 55 -29q96 0 168.5 88t118 222t61.5 293q8 80 8 155t-8 145h174q0 -109 -14.5 -227.5t-45 -235.5t-78.5 -223.5t-115 -187t-151.5 -129 t-189.5 -48.5q-156 0 -156 132q0 15 2 32l95 694q3 24 3 43t-3 34q-6 30 -58 30q-23 0 -49 -1t-65 -3z" />
<glyph unicode="w" horiz-adv-x="1470" d="M70 934l8 55q61 18 118.5 40t122.5 22q47 1 72 -23q20 -19 20 -56q0 -9 -1 -18l-99 -727q-2 -17 -3 -32q0 -27 8 -45q10 -30 51 -29q57 0 109 45t97 118.5t80 169t57 196.5q22 100 32 197q5 50 5 95q0 43 -4 82h152q0 -135 -13.5 -241.5t-29.5 -197.5t-29.5 -176 t-13.5 -180v-34.5t4 -35t15.5 -27.5t33.5 -11q63 0 118.5 41t98.5 111.5t75 161.5t50 191q17 102 19 204v27q0 88 -11 167h181v-25q-1 -93 -13 -198q-14 -119 -45.5 -235.5t-81 -223t-117 -188.5t-152.5 -131.5t-189 -49.5q-86 0 -113 41q-19 29 -19 79q0 20 3 44l10 94 q-37 -55 -76 -103t-84 -82t-97 -53.5t-118 -19.5q-90 0 -126 39q-28 30 -28 87q0 18 3 38l92 697q3 22 3 41t-3 33q-6 30 -58 30q-20 0 -47.5 -1t-66.5 -3z" />
<glyph unicode="x" horiz-adv-x="1062" d="M74 74q2 33 20.5 63.5t52.5 30.5q27 0 49.5 -11.5t49.5 -11.5q35 0 66.5 29t62.5 77t61.5 110.5t65.5 132.5l-99 333q-16 51 -36.5 77t-48 34t-61.5 5t-73 -7l-20 49q49 23 99 44.5t106 21.5q43 0 81.5 -18.5t53.5 -67.5l88 -295q37 74 73.5 142.5t77.5 121.5t87.5 85 t105.5 32q14 0 36.5 -5.5t44 -17.5t37.5 -32q14 -17 13 -40v-6q-2 -31 -21.5 -61.5t-54.5 -30.5q-29 0 -52.5 10.5t-51.5 10.5q-35 0 -65.5 -29t-60.5 -76t-60.5 -111.5t-65.5 -134.5l104 -327q18 -57 42 -83t50.5 -33t57.5 -3t61 6l21 -49q-47 -23 -95.5 -44.5 t-103.5 -21.5q-45 0 -81 20.5t-50 69.5l-92 293q-39 -74 -76 -142.5t-78 -121.5t-87 -86t-103 -33q-14 0 -37 5.5t-44.5 17.5t-36.5 32q-13 17 -13 40v6z" />
<glyph unicode="y" horiz-adv-x="1064" d="M86 934l8 55q59 18 116.5 40t123.5 22q47 0 74 -23q20 -19 20 -53q0 -11 -2 -23l-98 -708q-2 -15 -2 -28q0 -32 10 -57q14 -36 67 -36q59 0 108.5 42t89.5 108.5t70.5 149.5t53.5 166t37 157.5t22 125.5l23 152h156l-199 -1196q-12 -78 -45 -143.5t-87 -113.5t-129 -75.5 t-171 -27.5q-86 0 -147.5 30.5t-84.5 79.5q-13 26 -13 54q0 26 11 54q21 60 103 117l41 -41q-46 -56 -46 -99q0 -13 4 -24q17 -51 119 -51q68 0 120.5 19.5t90 53.5t61 77t32.5 90l79 440q-72 -131 -157.5 -213t-208.5 -82q-53 0 -87 18.5t-53.5 49.5t-24.5 71q-2 18 -2 37 q0 23 3 48l86 637q3 24 3 42.5t-3 33.5q-6 28 -57 28q-20 0 -53 -1t-62 -3z" />
<glyph unicode="z" horiz-adv-x="952" d="M61 0l11 92l606 811q-66 0 -117 1t-86 1q-41 0 -74 2q-45 0 -77.5 -9t-58 -25.5t-46 -41t-41.5 -53.5l-47 15q14 43 32.5 86t45.5 76.5t62.5 54t84.5 20.5l557 -6l-657 -903q63 -2 125.5 -2t114.5 -2q59 -2 114 -2q43 0 75 11t56.5 31.5t45 49.5t40.5 61l50 -14 q-12 -37 -26.5 -82t-38.5 -85t-57.5 -66.5t-82.5 -26.5z" />
<glyph unicode="{" horiz-adv-x="716" d="M131 481l12 111q2 0 21.5 6t44 17.5t50.5 26.5t40 34q31 37 46 102.5t24.5 140t14.5 146.5t11 119q27 186 131.5 270t313.5 84l-21 -129q-86 0 -137 -25.5t-79 -69.5t-39 -103.5t-15 -127.5q-4 -43 -6 -87t-8 -87q-8 -59 -20.5 -114.5t-36 -102.5t-58.5 -87t-90 -68 q45 -29 70.5 -69t34.5 -88t6 -103.5t-11 -114.5q-6 -43 -15 -87t-20 -89q-12 -63 -18 -122t8 -104t58 -71.5t135 -26.5l-21 -129q-207 0 -288 84t-56 272q6 43 21.5 115t27.5 146.5t15.5 141t-17.5 103.5q-10 18 -30.5 33.5t-42 27t-38 18.5t-18.5 7z" />
<glyph unicode="|" horiz-adv-x="591" d="M147 -467l265 2005h166l-265 -2005h-166z" />
<glyph unicode="}" horiz-adv-x="716" d="M10 -467l19 129q86 0 137 25.5t78.5 69.5t38 103.5t16.5 127.5q4 43 6 87t8 87q8 59 21.5 114.5t36 103.5t58.5 88t89 69q-45 29 -69.5 68.5t-33.5 86.5t-7 102.5t10 114.5q6 43 15 87t20 89q12 63 19 122t-8 104t-59.5 71.5t-134.5 26.5l21 129q207 0 289 -84t55 -272 q-6 -43 -21.5 -115t-28 -146.5t-14.5 -142t17 -102.5q10 -18 30.5 -33.5t42 -27t38 -17.5t20.5 -6l-14 -111q-2 0 -21.5 -7t-44.5 -18.5t-50.5 -26.5t-39.5 -34q-31 -37 -46.5 -102.5t-24.5 -140t-14 -146.5t-11 -119q-27 -186 -130.5 -270t-312.5 -84z" />
<glyph unicode="~" horiz-adv-x="712" d="M66 496q47 49 101 83.5t122 34.5q37 0 66.5 -12t57 -27.5t55.5 -27.5t62 -12q41 0 77 18t67 49l67 -82q-47 -53 -102 -87t-123 -34q-39 0 -70.5 12.5t-59.5 26t-54.5 25.5t-55.5 12q-41 0 -74.5 -15.5t-68.5 -47.5z" />
<glyph unicode="&#xa1;" horiz-adv-x="528" d="M152 0l159 1030h140l-95 -1030h-204zM301 1335q6 47 45 82t86 35q49 0 79 -35t24 -82t-44 -81.5t-88 -34.5q-47 0 -77.5 34.5t-24.5 81.5z" />
<glyph unicode="&#xa2;" d="M268 360q0 98 24.5 208t75 206t127 169t183.5 97l16 138h117l-14 -127q66 -8 99.5 -27.5t44.5 -52.5t8 -80.5t-11 -110.5h-66q-16 102 -92 129l-94 -774q55 16 108.5 52t104.5 81l25 -110q-53 -59 -118 -102.5t-138 -65.5l-17 -144h-116l14 127q-86 -2 -140.5 35 t-86 93.5t-43 126t-11.5 132.5zM420 387q0 -94 31.5 -165.5t117.5 -90.5l95 780q-72 -18 -118 -80.5t-75 -141.5t-40 -161t-11 -141z" />
<glyph unicode="&#xa3;" d="M98 -8l11 90q29 0 57.5 2t51 10t37.5 20.5t17 35.5l50 405h-156l14 117h156l24 202q12 100 52.5 173t99.5 119t136 67.5t165 21.5q90 0 157.5 -18t149.5 -57l-35 -287h-104q2 31 2 60.5t-3 54t-6 42t-3 21.5q-43 33 -87 46t-98 13q-102 0 -166.5 -48t-78.5 -162l-31 -248 h260l-14 -117h-260l-54 -432l414 -2q2 6 10 26.5t16.5 50t16.5 62.5t12 62h103l-39 -330q-6 0 -22.5 1t-41 2t-53.5 2t-55 1l-459 2q-31 0 -66.5 -1t-69.5 -3t-63.5 -3t-46.5 -1z" />
<glyph unicode="&#xa4;" d="M133 334l88 86q-82 113 -82 252t82 252l-88 86l92 90l90 -88q47 39 110.5 60.5t135.5 21.5q68 0 131.5 -20.5t114.5 -61.5l90 88l92 -90l-90 -86q41 -53 62.5 -117t21.5 -135q0 -143 -86 -252l92 -86l-92 -90l-90 88q-51 -41 -114.5 -61.5t-131.5 -20.5 q-72 0 -135.5 21.5t-110.5 60.5l-90 -88zM283 672q0 -63 21.5 -116.5t59 -92.5t88 -60.5t109.5 -21.5q57 0 108.5 21.5t89.5 60.5t59.5 92.5t21.5 116.5t-21.5 116.5t-59.5 92.5t-89.5 60.5t-108.5 21.5q-59 0 -109.5 -21.5t-88 -60.5t-59 -92.5t-21.5 -116.5z" />
<glyph unicode="&#xa5;" d="M203 1139l10 90h414l-11 -90q-16 0 -42.5 -2t-50 -8.5t-38 -15.5t-8.5 -23l176 -441l297 449q8 12 -4 19t-31 11q-23 6 -47 8.5t-45 2.5l13 90h376l-10 -90q-10 0 -25.5 -2t-34 -7.5t-35.5 -15.5t-28 -27l-311 -464h213l-16 -123h-263l-10 -92h262l-16 -121h-260 l-19 -137q-4 -25 13.5 -37.5t42 -17.5t51.5 -5h41l-10 -90h-484l11 90h43.5t51 5t44 17.5t22.5 37.5l19 137h-260l14 121h260l10 92h-258l15 123h209l-189 464q-14 35 -49 43.5t-53 8.5z" />
<glyph unicode="&#xa6;" horiz-adv-x="591" d="M147 -467l111 838h166l-111 -838h-166zM301 700l111 838h166l-111 -838h-166z" />
<glyph unicode="&#xa7;" horiz-adv-x="1067" d="M193 -246l26 211h86q-4 -35 0 -67.5t6 -38.5q39 -23 79 -31t87 -8q37 0 77 14t72.5 39t55.5 58.5t27 74.5q8 63 -29 103.5t-94.5 70t-126 57t-126 64.5t-91 92.5t-23.5 138.5q6 57 34 105.5t67.5 87.5t87 70.5t96.5 58.5q-37 18 -70 45t-57.5 59.5t-36.5 72.5t-6 85 q8 76 47 137.5t95 105.5t124 67.5t137 23.5q63 0 126 -14.5t120 -42.5l-25 -211h-86q4 35 0 65.5t-4 36.5q-78 43 -172 43q-35 0 -69.5 -12t-63 -33.5t-48 -52.5t-23.5 -68q-8 -61 28.5 -101t95 -71t128 -59.5t128 -66.5t93 -93t24.5 -139q-6 -57 -31.5 -105.5t-64.5 -88.5 t-86 -70.5t-96 -55.5q76 -41 125 -103.5t36 -162.5q-10 -84 -51 -148.5t-101.5 -109.5t-134 -67.5t-149.5 -22.5q-129 0 -243 57zM381 565q-6 -45 12.5 -76.5t49 -54t67.5 -39t70 -28.5q33 18 72.5 41.5t75.5 53.5t62.5 63.5t32.5 72.5q6 51 -11 83t-48 53.5t-69 36.5 t-72 32q-35 -20 -75 -44t-75 -52.5t-60.5 -63.5t-31.5 -78z" />
<glyph unicode="&#xa8;" horiz-adv-x="712" d="M109 1372q6 47 45 82t86 35q49 0 78.5 -35t23.5 -82t-44 -82t-87 -35q-47 0 -78 35t-24 82zM446 1372q6 47 45 82t87 35q49 0 78.5 -35t23.5 -82t-44 -82t-87 -35q-47 0 -78 35t-25 82z" />
<glyph unicode="&#xa9;" horiz-adv-x="1650" d="M174 713q18 154 93 288t187.5 234t254 158.5t295.5 58.5t280.5 -58.5t214.5 -158.5t130 -234t24 -288t-93 -288t-187.5 -234.5t-255 -159t-296.5 -58.5t-280.5 58.5t-214.5 159t-129 234.5t-23 288zM287 713q-16 -129 18.5 -244t109 -200t183.5 -134t238 -49t249.5 49 t216 134t159 200t79.5 244q14 129 -20.5 243.5t-109.5 199.5t-183.5 134t-237.5 49t-250 -49t-216 -134t-158.5 -199.5t-77.5 -243.5zM543 709q10 86 42.5 164.5t87 138t130.5 95.5t174 36q100 0 152 -30.5t75 -53.5l-22 -191h-92q4 35 -1.5 70t-5.5 41q-49 51 -129 51 q-55 0 -100 -26.5t-78 -68.5t-53.5 -96.5t-26.5 -109.5q-8 -66 -2 -126t30 -106t67 -74t110 -28q25 0 59.5 6.5t61.5 20.5q2 6 16.5 40t18.5 68h92l-23 -188q-74 -33 -137 -46t-125 -13q-96 0 -161.5 34.5t-104.5 93t-52.5 135.5t-2.5 163z" />
<glyph unicode="&#xaa;" horiz-adv-x="819" d="M264 1004q6 49 32 80.5t62.5 53t78.5 34t81 22.5q29 8 60.5 14t60.5 13l10 94q14 123 -106 123q-47 0 -85 -20.5t-55 -74.5h-61l16 127q61 35 113.5 51.5t114.5 16.5q100 0 152.5 -50t37.5 -157l-41 -340q-4 -29 -3 -39t5 -14q6 -4 29 -7t33 -5l-11 -72h-114 q-33 0 -46.5 20.5t-17.5 43.5q-41 -35 -87 -57.5t-97 -22.5q-78 0 -125 44t-37 122zM389 1022q-6 -43 17.5 -60.5t64.5 -17.5q29 0 72 20.5t69 43.5l17 135q-23 -6 -62 -13.5t-78 -21.5t-67.5 -34.5t-32.5 -51.5z" />
<glyph unicode="&#xab;" horiz-adv-x="1210" d="M186 532l453 480l100 -76l-346 -404l246 -405l-119 -74zM653 532l451 480l100 -76l-344 -404l246 -405l-119 -74z" />
<glyph unicode="&#xac;" d="M158 477l18 141h901l-71 -509h-142l54 368h-760z" />
<glyph unicode="&#xad;" horiz-adv-x="430" />
<glyph unicode="&#xae;" horiz-adv-x="1638" d="M174 713q18 154 93 288t187.5 234t254 158.5t295.5 58.5t280.5 -58.5t214.5 -158.5t130 -234t24 -288t-93 -288t-187.5 -234.5t-255 -159t-296.5 -58.5t-280.5 58.5t-214.5 159t-129 234.5t-23 288zM287 713q-16 -129 18.5 -244t109 -200t183.5 -134t238 -49t249.5 49 t216 134t159 200t79.5 244q14 129 -20.5 243.5t-109.5 199.5t-183.5 134t-237.5 49t-250 -49t-216 -134t-158.5 -199.5t-77.5 -243.5zM555 297l8 76h22.5t29 2t24.5 7t12 15l78 631q0 10 -9 15.5t-22.5 7.5t-28 2h-22.5l10 75q20 0 65.5 -2t80.5 -2q37 0 66.5 2t48.5 2 q51 0 105 -10t96 -37.5t64.5 -75t14.5 -120.5q-10 -86 -53 -137.5t-103 -77.5l101 -224q20 -45 41.5 -55t62.5 -16l-8 -78h-104q-49 0 -81 29.5t-42 54.5l-115 256q-12 0 -23.5 -1t-23.5 -1h-33l-29 -238q-2 -10 7.5 -15t24 -7t28.5 -2h22l-8 -76q-23 0 -67.5 3t-85.5 3 q-39 0 -85 -3t-69 -3zM831 745h46q76 0 120 32t54 104q10 74 -27 107.5t-115 29.5l-45 -2z" />
<glyph unicode="&#xaf;" horiz-adv-x="712" d="M76 1303l20 137h541l-21 -137h-540z" />
<glyph unicode="&#xb0;" horiz-adv-x="917" d="M326 1165q6 55 33.5 103.5t67.5 85.5t91 57.5t107 20.5q55 0 101 -20.5t78 -57.5t46 -85.5t8 -103.5t-33.5 -103t-67.5 -85t-91.5 -57.5t-106.5 -20.5t-101 20.5t-78 57.5t-46.5 85t-7.5 103zM451 1165q-8 -59 27.5 -100t94.5 -41t105.5 41t54.5 100t-28.5 100.5 t-96.5 41.5q-59 0 -104 -41t-53 -101z" />
<glyph unicode="&#xb1;" d="M133 184l17 142h903l-19 -142h-901zM205 772l16 143h381l43 355h141l-43 -355h381l-18 -143h-381l-43 -354h-141l43 354h-379z" />
<glyph unicode="&#xb2;" horiz-adv-x="1425" d="M201 0v1024h1024v-1024h-1024zM352 152h721v720h-721v-720z" />
<glyph unicode="&#xb3;" horiz-adv-x="1425" d="M201 0v1024h1024v-1024h-1024zM352 152h721v720h-721v-720z" />
<glyph unicode="&#xb4;" horiz-adv-x="712" d="M172 1284l375 250l71 -143l-399 -203z" />
<glyph unicode="&#xb5;" horiz-adv-x="1425" d="M201 0v1024h1024v-1024h-1024zM352 152h721v720h-721v-720z" />
<glyph unicode="&#xb6;" horiz-adv-x="1220" d="M160 1012q12 111 68.5 190.5t137 130.5t176 76t185.5 25q100 0 147.5 -1t71 -3.5t39.5 -3.5t59 -1q98 0 159 4.5t104 4.5l-11 -91q-16 0 -42.5 -1t-52 -6t-46 -17t-22.5 -35l-156 -1143q-4 -23 13.5 -35t42 -17t51 -6t42.5 -1l-10 -90q-16 0 -54 1t-83 3t-90 3t-76 1 l174 1298h-113l-174 -1298q-31 0 -75.5 -1t-90 -3t-83 -3t-54.5 -1l11 90q16 0 42.5 1t52 6t44 17.5t22.5 34.5l68 420h-16q-102 0 -192.5 27.5t-155 83t-96.5 140.5t-17 200z" />
<glyph unicode="&#xb7;" d="M512 547q6 47 44 82t87 35q47 0 77.5 -35t24.5 -82t-44.5 -82t-86.5 -35q-49 0 -78.5 35t-23.5 82z" />
<glyph unicode="&#xb8;" horiz-adv-x="712" d="M180 -471l37 96q23 -10 46.5 -18t45.5 -8q35 0 66 15t31 54q0 29 -18.5 53.5t-43.5 45t-51.5 34t-40.5 21.5l86 178h117l-54 -113q74 -39 104 -94t30 -106q0 -49 -19.5 -85t-51.5 -59.5t-73 -34t-84 -10.5q-29 0 -62.5 8.5t-64.5 22.5z" />
<glyph unicode="&#xb9;" horiz-adv-x="1425" d="M201 0v1024h1024v-1024h-1024zM352 152h721v720h-721v-720z" />
<glyph unicode="&#xba;" horiz-adv-x="819" d="M254 1178q8 70 34.5 135t70.5 115.5t105.5 80t141.5 29.5q74 0 126 -28.5t83 -77t41 -109.5t2 -127q-10 -70 -36.5 -134.5t-70.5 -114.5t-105.5 -79.5t-139.5 -29.5q-74 0 -126 28.5t-83 75.5t-41 108.5t-2 127.5zM387 1114q2 -45 14.5 -85t40 -67.5t76.5 -27.5 q47 0 83 20.5t60.5 54t39 78t20.5 93.5q4 35 3 81t-13.5 85.5t-40 67.5t-76.5 28q-47 0 -83 -20.5t-60.5 -55.5t-40 -79t-21.5 -93q-4 -35 -2 -80z" />
<glyph unicode="&#xbb;" horiz-adv-x="1210" d="M135 129l346 403l-245 406l118 74l334 -480l-450 -479zM602 129l344 403l-244 406l117 74l336 -480l-453 -479z" />
<glyph unicode="&#xbc;" horiz-adv-x="1425" d="M201 0v1024h1024v-1024h-1024zM352 152h721v720h-721v-720z" />
<glyph unicode="&#xbd;" horiz-adv-x="1425" d="M201 0v1024h1024v-1024h-1024zM352 152h721v720h-721v-720z" />
<glyph unicode="&#xbe;" horiz-adv-x="1425" d="M201 0v1024h1024v-1024h-1024zM352 152h721v720h-721v-720z" />
<glyph unicode="&#xbf;" horiz-adv-x="884" d="M256 264q10 88 53 148.5t95.5 107.5t104.5 88t82 93.5t27.5 121t-57.5 170.5l103 66q86 -117 104 -203t-5.5 -151.5t-74.5 -117.5t-105.5 -101.5t-98.5 -100.5t-52 -115q-4 -33 3 -63.5t26.5 -53t49.5 -37t71 -14.5q98 0 157.5 47.5t73.5 118.5h74l-23 -184 q-86 -53 -163.5 -82t-170.5 -29q-66 0 -119 18.5t-90.5 54.5t-55 90t-9.5 128zM610 1335q6 47 45 82t86 35q49 0 79 -35t24 -82t-44 -81.5t-87 -34.5q-47 0 -78 34.5t-25 81.5z" />
<glyph unicode="&#xc0;" horiz-adv-x="1247" d="M29 -8l12 84q37 0 76 17.5t55 58.5l551 1251l160 53l211 -1309q8 -45 42.5 -58t71.5 -13l-12 -84q-35 2 -79 5t-105 3q-59 0 -125 -3t-101 -5l15 84q80 0 103.5 21.5t19.5 47.5q-12 59 -21 121q-10 53 -18 112.5t-17 113.5h-411l-154 -367q-6 -14 8.5 -23.5t37 -15.5 t48 -8t41.5 -2l-14 -84q-35 0 -97.5 4t-121.5 4q-61 0 -101.5 -4t-74.5 -4zM434 1800l109 144l317 -250l-76 -97zM516 625h330l-88 559z" />
<glyph unicode="&#xc1;" horiz-adv-x="1247" d="M29 -8l12 84q37 0 76 17.5t55 58.5l551 1251l160 53l211 -1309q8 -45 42.5 -58t71.5 -13l-12 -84q-35 2 -79 5t-105 3q-59 0 -125 -3t-101 -5l15 84q80 0 103.5 21.5t19.5 47.5q-12 59 -21 121q-10 53 -18 112.5t-17 113.5h-411l-154 -367q-6 -14 8.5 -23.5t37 -15.5 t48 -8t41.5 -2l-14 -84q-35 0 -97.5 4t-121.5 4q-61 0 -101.5 -4t-74.5 -4zM516 625h330l-88 559zM739 1694l375 250l72 -144l-400 -203z" />
<glyph unicode="&#xc2;" horiz-adv-x="1247" d="M29 -8l12 84q37 0 76 17.5t55 58.5l551 1251l160 53l211 -1309q8 -45 42.5 -58t71.5 -13l-12 -84q-35 2 -79 5t-105 3q-59 0 -125 -3t-101 -5l15 84q80 0 103.5 21.5t19.5 47.5q-12 59 -21 121q-10 53 -18 112.5t-17 113.5h-411l-154 -367q-6 -14 8.5 -23.5t37 -15.5 t48 -8t41.5 -2l-14 -84q-35 0 -97.5 4t-121.5 4q-61 0 -101.5 -4t-74.5 -4zM516 625h330l-88 559zM524 1694l367 250l309 -250l-76 -97l-258 154l-293 -154z" />
<glyph unicode="&#xc3;" horiz-adv-x="1247" d="M29 -8l12 84q37 0 76 17.5t55 58.5l551 1251l160 53l211 -1309q8 -45 42.5 -58t71.5 -13l-12 -84q-35 2 -79 5t-105 3q-59 0 -125 -3t-101 -5l15 84q80 0 103.5 21.5t19.5 47.5q-12 59 -21 121q-10 53 -18 112.5t-17 113.5h-411l-154 -367q-6 -14 8.5 -23.5t37 -15.5 t48 -8t41.5 -2l-14 -84q-35 0 -97.5 4t-121.5 4q-61 0 -101.5 -4t-74.5 -4zM489 1778q47 49 101.5 83.5t122.5 34.5q37 0 66.5 -12t57 -27.5t55.5 -27.5t62 -12q41 0 77 18t67 49l67 -82q-47 -53 -102 -87t-123 -34q-39 0 -70.5 12.5t-59.5 26t-54.5 25.5t-55.5 12 q-41 0 -74.5 -15.5t-68.5 -47.5zM516 625h330l-88 559z" />
<glyph unicode="&#xc4;" horiz-adv-x="1247" d="M29 -8l12 84q37 0 76 17.5t55 58.5l551 1251l160 53l211 -1309q8 -45 42.5 -58t71.5 -13l-12 -84q-35 2 -79 5t-105 3q-59 0 -125 -3t-101 -5l15 84q80 0 103.5 21.5t19.5 47.5q-12 59 -21 121q-10 53 -18 112.5t-17 113.5h-411l-154 -367q-6 -14 8.5 -23.5t37 -15.5 t48 -8t41.5 -2l-14 -84q-35 0 -97.5 4t-121.5 4q-61 0 -101.5 -4t-74.5 -4zM516 625h330l-88 559zM553 1782q6 47 45 81.5t86 34.5t77.5 -34.5t24.5 -81.5t-45 -82t-86 -35t-77.5 35t-24.5 82zM901 1782q6 47 45 81.5t86 34.5t78 -34.5t25 -81.5t-45 -82t-86 -35t-78 35 t-25 82z" />
<glyph unicode="&#xc5;" horiz-adv-x="1247" d="M29 -8l12 84q37 0 76 17.5t55 58.5l551 1251l160 53l211 -1309q8 -45 42.5 -58t71.5 -13l-12 -84q-35 2 -79 5t-105 3q-59 0 -125 -3t-101 -5l15 84q80 0 103.5 21.5t19.5 47.5q-12 59 -21 121q-10 53 -18 112.5t-17 113.5h-411l-154 -367q-6 -14 8.5 -23.5t37 -15.5 t48 -8t41.5 -2l-14 -84q-35 0 -97.5 4t-121.5 4q-61 0 -101.5 -4t-74.5 -4zM516 625h330l-88 559zM668 1790q4 37 22.5 70.5t46 58.5t63.5 39t72 14q76 0 122 -53t38 -129q-4 -37 -22.5 -70.5t-46 -58.5t-63.5 -39t-73 -14t-68.5 14t-53 39t-31.5 58.5t-6 70.5zM768 1790 q-4 -35 16.5 -58.5t55.5 -23.5t61.5 23.5t30.5 58.5t-16.5 58.5t-55.5 23.5t-61.5 -23.5t-30.5 -58.5z" />
<glyph unicode="&#xc6;" horiz-adv-x="1652" d="M27 -8l12 84q18 0 39.5 4t43 13t40 23.5t28.5 35.5l719 1273h146h71.5t118 1t140 2.5t138 2.5t110 1h57.5l-45 -328h-103q4 31 4 62.5t-2 59t-5 47t-3 25.5l-401 -2l-68 -495h254q20 0 33.5 17.5t21.5 40t10.5 43t2.5 26.5h84q-6 -47 -15 -86q-6 -35 -11 -66t-7 -43 q-2 -14 -5 -44t-8 -62q-4 -37 -8 -82h-82q0 10 3 30.5t1 42t-9 38t-25 16.5h-256l-76 -545l411 -2q2 6 10.5 25.5t17.5 48t18.5 60.5t15.5 63h102l-45 -328h-58t-110.5 1t-139.5 2t-143.5 2t-120.5 1h-73q-59 0 -114.5 -3t-90.5 -3l11 82h31.5t44 6t41 20.5t22.5 40.5 l47 349h-336l-199 -367q-8 -14 3.5 -23.5t30 -15.5t42 -8t39.5 -2l-12 -84q-35 0 -96.5 4t-120.5 4q-61 0 -101.5 -4t-74.5 -4zM592 625h278l93 665z" />
<glyph unicode="&#xc7;" horiz-adv-x="1112" d="M76.5 443q-13.5 126 5.5 264q20 150 74.5 284.5t140.5 237t206 163t271 60.5q80 0 139.5 -14.5t102.5 -35t69.5 -43t40.5 -36.5l-39 -291h-106q6 31 6 60.5t-2 54t-5 42t-3 23.5q-45 55 -99.5 81t-132.5 26q-102 0 -183 -53.5t-139 -136t-95 -185t-52 -201.5 q-16 -119 -10 -234.5t44 -205.5t112 -146.5t194 -56.5q49 0 116 23.5t118 52.5q2 6 9 21.5t15.5 39t16.5 51t12 58.5h103l-39 -280q-92 -45 -182.5 -67t-180.5 -26l-39 -86l19 -10q76 -43 102.5 -107.5t10 -125t-74 -103.5t-151.5 -43q-29 0 -62.5 8.5t-64.5 22.5l37 96 q23 -10 46.5 -18t45.5 -8q43 0 67.5 19.5t28.5 47t-14 59t-61 56.5q-18 10 -33 18q-12 8 -24.5 14.5t-18.5 10.5l74 153q-129 14 -216.5 78t-136.5 163t-62.5 225z" />
<glyph unicode="&#xc8;" horiz-adv-x="1034" d="M29 -6l12 82h31.5t44 6t40 20.5t21.5 40.5l158 1141q4 39 -35 50.5t-92 15.5l12 82q33 0 89.5 -3.5t117.5 -3.5h71.5t118 1t140 2.5t138.5 2.5t110 1h57l-45 -328h-103q6 31 6.5 62.5t-3 59t-6.5 47t-3 25.5l-401 -2l-68 -495h254q20 0 33.5 17.5t22 40t10.5 43t2 26.5 h84q-6 -47 -15 -86q-6 -35 -11 -66t-7 -43q-2 -14 -4 -44t-6 -62q-4 -37 -8 -82h-82q0 10 2 30.5t0 42t-9.5 38t-25.5 16.5h-256l-76 -545l412 -2q2 6 10 25.5t18.5 48t19.5 60.5t13 63h103l-45 -328h-58.5t-111 1t-139 2t-143.5 2t-121 1h-73q-59 0 -114.5 -3t-89.5 -3z M424 1800l108 144l318 -250l-76 -97z" />
<glyph unicode="&#xc9;" horiz-adv-x="1034" d="M29 -6l12 82h31.5t44 6t40 20.5t21.5 40.5l158 1141q4 39 -35 50.5t-92 15.5l12 82q33 0 89.5 -3.5t117.5 -3.5h71.5t118 1t140 2.5t138.5 2.5t110 1h57l-45 -328h-103q6 31 6.5 62.5t-3 59t-6.5 47t-3 25.5l-401 -2l-68 -495h254q20 0 33.5 17.5t22 40t10.5 43t2 26.5 h84q-6 -47 -15 -86q-6 -35 -11 -66t-7 -43q-2 -14 -4 -44t-6 -62q-4 -37 -8 -82h-82q0 10 2 30.5t0 42t-9.5 38t-25.5 16.5h-256l-76 -545l412 -2q2 6 10 25.5t18.5 48t19.5 60.5t13 63h103l-45 -328h-58.5t-111 1t-139 2t-143.5 2t-121 1h-73q-59 0 -114.5 -3t-89.5 -3z M520 1694l375 250l72 -144l-400 -203z" />
<glyph unicode="&#xca;" horiz-adv-x="1034" d="M29 -6l12 82h31.5t44 6t40 20.5t21.5 40.5l158 1141q4 39 -35 50.5t-92 15.5l12 82q33 0 89.5 -3.5t117.5 -3.5h71.5t118 1t140 2.5t138.5 2.5t110 1h57l-45 -328h-103q6 31 6.5 62.5t-3 59t-6.5 47t-3 25.5l-401 -2l-68 -495h254q20 0 33.5 17.5t22 40t10.5 43t2 26.5 h84q-6 -47 -15 -86q-6 -35 -11 -66t-7 -43q-2 -14 -4 -44t-6 -62q-4 -37 -8 -82h-82q0 10 2 30.5t0 42t-9.5 38t-25.5 16.5h-256l-76 -545l412 -2q2 6 10 25.5t18.5 48t19.5 60.5t13 63h103l-45 -328h-58.5t-111 1t-139 2t-143.5 2t-121 1h-73q-59 0 -114.5 -3t-89.5 -3z M342 1694l367 250l309 -250l-76 -97l-258 154l-293 -154z" />
<glyph unicode="&#xcb;" horiz-adv-x="1034" d="M29 -6l12 82h31.5t44 6t40 20.5t21.5 40.5l158 1141q4 39 -35 50.5t-92 15.5l12 82q33 0 89.5 -3.5t117.5 -3.5h71.5t118 1t140 2.5t138.5 2.5t110 1h57l-45 -328h-103q6 31 6.5 62.5t-3 59t-6.5 47t-3 25.5l-401 -2l-68 -495h254q20 0 33.5 17.5t22 40t10.5 43t2 26.5 h84q-6 -47 -15 -86q-6 -35 -11 -66t-7 -43q-2 -14 -4 -44t-6 -62q-4 -37 -8 -82h-82q0 10 2 30.5t0 42t-9.5 38t-25.5 16.5h-256l-76 -545l412 -2q2 6 10 25.5t18.5 48t19.5 60.5t13 63h103l-45 -328h-58.5t-111 1t-139 2t-143.5 2t-121 1h-73q-59 0 -114.5 -3t-89.5 -3z M393 1782q6 47 45 81.5t86 34.5t78 -34.5t25 -81.5t-45 -82t-86 -35t-78 35t-25 82zM741 1782q6 47 45 81.5t86 34.5t78 -34.5t25 -81.5t-45 -82t-86 -35t-78 35t-25 82z" />
<glyph unicode="&#xcc;" horiz-adv-x="649" d="M29 -6l12 82q10 0 31.5 1t44 7t40 18.5t21.5 34.5l158 1149q4 35 -35 47.5t-92 16.5l12 82q35 0 97.5 -3.5t121.5 -3.5q61 0 120.5 3.5t94.5 3.5l-10 -82q-12 0 -33.5 -2t-44 -9.5t-40 -19.5t-19.5 -33l-158 -1149q-4 -23 13.5 -35t41 -18t47 -7t33.5 -1l-14 -82 q-16 0 -43 1t-57.5 2t-62.5 2t-62 1q-61 0 -122 -3t-95 -3zM190 1800l109 144l317 -250l-75 -97z" />
<glyph unicode="&#xcd;" horiz-adv-x="649" d="M29 -6l12 82q10 0 31.5 1t44 7t40 18.5t21.5 34.5l158 1149q4 35 -35 47.5t-92 16.5l12 82q35 0 97.5 -3.5t121.5 -3.5q61 0 120.5 3.5t94.5 3.5l-10 -82q-12 0 -33.5 -2t-44 -9.5t-40 -19.5t-19.5 -33l-158 -1149q-4 -23 13.5 -35t41 -18t47 -7t33.5 -1l-14 -82 q-16 0 -43 1t-57.5 2t-62.5 2t-62 1q-61 0 -122 -3t-95 -3zM319 1694l375 250l72 -144l-399 -203z" />
<glyph unicode="&#xce;" horiz-adv-x="649" d="M29 -6l12 82q10 0 31.5 1t44 7t40 18.5t21.5 34.5l158 1149q4 35 -35 47.5t-92 16.5l12 82q35 0 97.5 -3.5t121.5 -3.5q61 0 120.5 3.5t94.5 3.5l-10 -82q-12 0 -33.5 -2t-44 -9.5t-40 -19.5t-19.5 -33l-158 -1149q-4 -23 13.5 -35t41 -18t47 -7t33.5 -1l-14 -82 q-16 0 -43 1t-57.5 2t-62.5 2t-62 1q-61 0 -122 -3t-95 -3zM125 1694l367 250l309 -250l-76 -97l-258 154l-293 -154z" />
<glyph unicode="&#xcf;" horiz-adv-x="649" d="M29 -6l12 82q10 0 31.5 1t44 7t40 18.5t21.5 34.5l158 1149q4 35 -35 47.5t-92 16.5l12 82q35 0 97.5 -3.5t121.5 -3.5q61 0 120.5 3.5t94.5 3.5l-10 -82q-12 0 -33.5 -2t-44 -9.5t-40 -19.5t-19.5 -33l-158 -1149q-4 -23 13.5 -35t41 -18t47 -7t33.5 -1l-14 -82 q-16 0 -43 1t-57.5 2t-62.5 2t-62 1q-61 0 -122 -3t-95 -3zM199 1782q6 47 45 81.5t86 34.5t77.5 -34.5t24.5 -81.5t-45 -82t-86 -35t-77.5 35t-24.5 82zM547 1782q6 47 45 81.5t86 34.5t77.5 -34.5t24.5 -81.5t-45 -82t-86 -35t-77.5 35t-24.5 82z" />
<glyph unicode="&#xd0;" horiz-adv-x="1290" d="M29 -6l12 82h31.5t44 6t40 20.5t21.5 40.5l70 508h-137l16 123h139l70 508q4 39 -35 51.5t-92 16.5l12 82q35 0 91.5 -3.5t117.5 -3.5t119.5 3.5t89.5 3.5q160 0 285 -39t206.5 -122t114.5 -213.5t6 -314.5q-25 -170 -83 -308t-153 -236.5t-225.5 -151.5t-297.5 -53 q-16 0 -46 1t-67 2l-74 2t-67 1q-61 0 -118 -3t-91 -3zM348 127l162 -2q123 -2 218 43t162.5 125t109 189.5t59.5 236.5q18 131 0.5 238.5t-69.5 184.5t-139 117.5t-210 38.5l-131 -2l-72 -522h301l-16 -123h-303z" />
<glyph unicode="&#xd1;" horiz-adv-x="1368" d="M43 -6l12 82q10 0 32 1t44.5 7t39.5 18.5t22 34.5l157 1149q4 35 -35 47.5t-92 16.5l13 82q35 0 85 -3.5t109 -3.5h125l492 -1073l129 936q2 23 -13.5 35t-38 18.5t-45 7.5t-32.5 1l12 82q35 0 89 -3.5t114 -3.5q61 0 113 3.5t87 3.5l-10 -82q-10 0 -31.5 -1t-43 -7.5 t-40 -18.5t-20.5 -35l-178 -1288h-142l-526 1147l-139 -1010q-4 -23 13 -35t41 -18t47.5 -7t33.5 -1l-14 -82q-35 0 -91.5 3t-115.5 3q-61 0 -114.5 -3t-88.5 -3zM492 1778q47 49 101 83.5t122 34.5q37 0 66.5 -12t57 -27.5t55.5 -27.5t62 -12q41 0 77 18t67 49l67 -82 q-47 -53 -102 -87t-123 -34q-39 0 -70.5 12.5t-59.5 26t-54.5 25.5t-55.5 12q-41 0 -74.5 -15.5t-68.5 -47.5z" />
<glyph unicode="&#xd2;" horiz-adv-x="1298" d="M79.5 419q-16.5 130 2.5 271q20 147 74.5 284.5t142.5 244t209 170t272 63.5q143 0 242.5 -59.5t157 -157.5t74.5 -228.5t-3 -271.5q-20 -147 -75.5 -284.5t-142.5 -244t-207.5 -170t-272.5 -63.5q-145 0 -244.5 59.5t-156 158t-73 228.5zM260 508.5q6 -111.5 42 -201.5 t105.5 -146.5t180.5 -56.5q100 0 181 53.5t141.5 138.5t98.5 190.5t52 207.5q14 111 9 221.5t-41 200.5t-104.5 146.5t-179.5 56.5q-100 0 -181 -53.5t-141.5 -138.5t-99 -189t-53.5 -207q-16 -111 -10 -222.5zM467 1800l108 144l318 -250l-76 -97z" />
<glyph unicode="&#xd3;" horiz-adv-x="1298" d="M79.5 419q-16.5 130 2.5 271q20 147 74.5 284.5t142.5 244t209 170t272 63.5q143 0 242.5 -59.5t157 -157.5t74.5 -228.5t-3 -271.5q-20 -147 -75.5 -284.5t-142.5 -244t-207.5 -170t-272.5 -63.5q-145 0 -244.5 59.5t-156 158t-73 228.5zM260 508.5q6 -111.5 42 -201.5 t105.5 -146.5t180.5 -56.5q100 0 181 53.5t141.5 138.5t98.5 190.5t52 207.5q14 111 9 221.5t-41 200.5t-104.5 146.5t-179.5 56.5q-100 0 -181 -53.5t-141.5 -138.5t-99 -189t-53.5 -207q-16 -111 -10 -222.5zM631 1694l375 250l71 -144l-399 -203z" />
<glyph unicode="&#xd4;" horiz-adv-x="1298" d="M79.5 419q-16.5 130 2.5 271q20 147 74.5 284.5t142.5 244t209 170t272 63.5q143 0 242.5 -59.5t157 -157.5t74.5 -228.5t-3 -271.5q-20 -147 -75.5 -284.5t-142.5 -244t-207.5 -170t-272.5 -63.5q-145 0 -244.5 59.5t-156 158t-73 228.5zM260 508.5q6 -111.5 42 -201.5 t105.5 -146.5t180.5 -56.5q100 0 181 53.5t141.5 138.5t98.5 190.5t52 207.5q14 111 9 221.5t-41 200.5t-104.5 146.5t-179.5 56.5q-100 0 -181 -53.5t-141.5 -138.5t-99 -189t-53.5 -207q-16 -111 -10 -222.5zM451 1694l366 250l309 -250l-75 -97l-258 154l-293 -154z" />
<glyph unicode="&#xd5;" horiz-adv-x="1298" d="M79.5 419q-16.5 130 2.5 271q20 147 74.5 284.5t142.5 244t209 170t272 63.5q143 0 242.5 -59.5t157 -157.5t74.5 -228.5t-3 -271.5q-20 -147 -75.5 -284.5t-142.5 -244t-207.5 -170t-272.5 -63.5q-145 0 -244.5 59.5t-156 158t-73 228.5zM260 508.5q6 -111.5 42 -201.5 t105.5 -146.5t180.5 -56.5q100 0 181 53.5t141.5 138.5t98.5 190.5t52 207.5q14 111 9 221.5t-41 200.5t-104.5 146.5t-179.5 56.5q-100 0 -181 -53.5t-141.5 -138.5t-99 -189t-53.5 -207q-16 -111 -10 -222.5zM469 1778q47 49 101.5 83.5t121.5 34.5q37 0 66.5 -12 t57.5 -27.5t55.5 -27.5t62.5 -12q41 0 77 18t66 49l68 -82q-47 -53 -102.5 -87t-122.5 -34q-39 0 -71 12.5t-59.5 26t-54 25.5t-55.5 12q-41 0 -75 -15.5t-68 -47.5z" />
<glyph unicode="&#xd6;" horiz-adv-x="1298" d="M79.5 419q-16.5 130 2.5 271q20 147 74.5 284.5t142.5 244t209 170t272 63.5q143 0 242.5 -59.5t157 -157.5t74.5 -228.5t-3 -271.5q-20 -147 -75.5 -284.5t-142.5 -244t-207.5 -170t-272.5 -63.5q-145 0 -244.5 59.5t-156 158t-73 228.5zM260 508.5q6 -111.5 42 -201.5 t105.5 -146.5t180.5 -56.5q100 0 181 53.5t141.5 138.5t98.5 190.5t52 207.5q14 111 9 221.5t-41 200.5t-104.5 146.5t-179.5 56.5q-100 0 -181 -53.5t-141.5 -138.5t-99 -189t-53.5 -207q-16 -111 -10 -222.5zM551 1782q6 47 45 81.5t86 34.5t77.5 -34.5t24.5 -81.5 t-45 -82t-86 -35t-77.5 35t-24.5 82zM899 1782q6 47 45 81.5t86 34.5t78 -34.5t25 -81.5t-45 -82t-87 -35q-47 0 -77.5 35t-24.5 82z" />
<glyph unicode="&#xd7;" d="M207 256l330 291l-248 291l114 100l250 -289l332 289l86 -98l-332 -291l250 -291l-117 -100l-249 288l-330 -288z" />
<glyph unicode="&#xd8;" horiz-adv-x="1298" d="M8 -115l174 250q-78 100 -105.5 247.5t-6.5 307.5q18 147 70.5 284.5t138.5 244t205.5 170t271.5 63.5q86 0 154.5 -20.5t123.5 -57.5l117 166h141l-172 -246q84 -98 112 -246.5t7 -312.5q-18 -147 -70.5 -284.5t-138.5 -244t-205.5 -170t-271.5 -63.5q-172 0 -285 82 l-121 -170h-139zM252 505.5q8 -114.5 47 -204.5l639 934q-39 41 -91 63.5t-124 22.5q-100 0 -180 -53.5t-139.5 -138.5t-96.5 -190t-49 -208q-14 -111 -6 -225.5zM365 195q39 -43 94 -68t127 -25q100 0 180 54.5t138.5 139.5t95.5 190.5t49 207.5q14 113 6 229.5t-49 206.5z " />
<glyph unicode="&#xd9;" horiz-adv-x="1306" d="M92 1350l12 82q35 0 97.5 -3.5t122.5 -3.5q61 0 122.5 3.5t96.5 3.5l-11 -82q-12 0 -34.5 -2t-45 -9.5t-41 -19.5t-20.5 -33l-117 -837q-23 -162 47 -242t224 -80q160 0 255 85t120 261l112 813q4 35 -37 47.5t-94 16.5l12 82q35 0 94.5 -3.5t118.5 -3.5q61 0 115.5 3.5 t89.5 3.5l-10 -82q-12 0 -33.5 -2t-44 -9.5t-40 -19.5t-19.5 -33l-115 -805q-35 -250 -181.5 -379t-369.5 -129q-109 0 -192.5 27t-139 82t-78 143t-6.5 211l117 850q4 35 -35 47.5t-92 16.5zM438 1800l109 144l317 -250l-76 -97z" />
<glyph unicode="&#xda;" horiz-adv-x="1306" d="M92 1350l12 82q35 0 97.5 -3.5t122.5 -3.5q61 0 122.5 3.5t96.5 3.5l-11 -82q-12 0 -34.5 -2t-45 -9.5t-41 -19.5t-20.5 -33l-117 -837q-23 -162 47 -242t224 -80q160 0 255 85t120 261l112 813q4 35 -37 47.5t-94 16.5l12 82q35 0 94.5 -3.5t118.5 -3.5q61 0 115.5 3.5 t89.5 3.5l-10 -82q-12 0 -33.5 -2t-44 -9.5t-40 -19.5t-19.5 -33l-115 -805q-35 -250 -181.5 -379t-369.5 -129q-109 0 -192.5 27t-139 82t-78 143t-6.5 211l117 850q4 35 -35 47.5t-92 16.5zM571 1694l375 250l72 -144l-400 -203z" />
<glyph unicode="&#xdb;" horiz-adv-x="1306" d="M92 1350l12 82q35 0 97.5 -3.5t122.5 -3.5q61 0 122.5 3.5t96.5 3.5l-11 -82q-12 0 -34.5 -2t-45 -9.5t-41 -19.5t-20.5 -33l-117 -837q-23 -162 47 -242t224 -80q160 0 255 85t120 261l112 813q4 35 -37 47.5t-94 16.5l12 82q35 0 94.5 -3.5t118.5 -3.5q61 0 115.5 3.5 t89.5 3.5l-10 -82q-12 0 -33.5 -2t-44 -9.5t-40 -19.5t-19.5 -33l-115 -805q-35 -250 -181.5 -379t-369.5 -129q-109 0 -192.5 27t-139 82t-78 143t-6.5 211l117 850q4 35 -35 47.5t-92 16.5zM397 1694l367 250l309 -250l-76 -97l-258 154l-293 -154z" />
<glyph unicode="&#xdc;" horiz-adv-x="1306" d="M92 1350l12 82q35 0 97.5 -3.5t122.5 -3.5q61 0 122.5 3.5t96.5 3.5l-11 -82q-12 0 -34.5 -2t-45 -9.5t-41 -19.5t-20.5 -33l-117 -837q-23 -162 47 -242t224 -80q160 0 255 85t120 261l112 813q4 35 -37 47.5t-94 16.5l12 82q35 0 94.5 -3.5t118.5 -3.5q61 0 115.5 3.5 t89.5 3.5l-10 -82q-12 0 -33.5 -2t-44 -9.5t-40 -19.5t-19.5 -33l-115 -805q-35 -250 -181.5 -379t-369.5 -129q-109 0 -192.5 27t-139 82t-78 143t-6.5 211l117 850q4 35 -35 47.5t-92 16.5zM463 1782q6 47 45 81.5t86 34.5t77.5 -34.5t24.5 -81.5t-45 -82t-86 -35 t-77.5 35t-24.5 82zM811 1782q6 47 45 81.5t86 34.5t77.5 -34.5t24.5 -81.5t-44.5 -82t-86.5 -35q-47 0 -77.5 35t-24.5 82z" />
<glyph unicode="&#xdd;" horiz-adv-x="1136" d="M86 1350l10 82q35 0 80 -3.5t107 -3.5q31 0 64.5 1t66 2.5t60.5 2.5t46 1l-12 -82q-6 0 -29.5 -2t-46 -8.5t-39 -18.5t-10.5 -33l172 -561l324 563q10 18 -5.5 30.5t-40 19t-49 8.5t-32.5 2l12 82q35 0 95.5 -3.5t119.5 -3.5q61 0 114.5 3.5t88.5 3.5l-11 -82 q-12 0 -32.5 -3.5t-43 -10.5t-42 -19t-31.5 -31l-420 -706l-59 -443q-4 -23 13 -35t39.5 -18t46.5 -7t34 -1l-12 -82q-16 0 -42 1t-56.5 2t-62.5 2t-63 1q-61 0 -120.5 -3t-94.5 -3l11 82q10 0 32.5 1t45 7t40 18.5t21.5 34.5l57 443l-223 708q-6 20 -23.5 32.5t-38 19 t-38 8.5t-23.5 2zM516 1694l375 250l72 -144l-400 -203z" />
<glyph unicode="&#xde;" horiz-adv-x="1019" d="M29 -6l12 82q18 0 40.5 2t43 8t35 19.5t18.5 37.5l123 877l35 266q4 35 -35 47.5t-92 16.5l12 82q35 0 97.5 -3.5t121.5 -3.5q61 0 121 3.5t94 3.5l-10 -82q-12 0 -33.5 -2t-44 -9.5t-40 -19.5t-19.5 -33l-23 -162h35q16 0 32.5 1t33.5 1q84 0 164.5 -17t141 -62.5 t91 -123t14.5 -200.5t-67 -204t-125 -129t-164 -68.5t-184 -20.5h-84l-23 -164q-4 -23 13.5 -35t41 -18t47 -7t33.5 -1l-14 -82q-35 0 -99.5 3t-125.5 3q-59 0 -121 -3t-96 -3zM391 430h98q131 0 216.5 64.5t105.5 214.5q23 152 -44 220t-198 64l-100 -2z" />
<glyph unicode="&#xdf;" horiz-adv-x="1208" d="M16 55l7 54q29 -2 56 -5.5t56 -3.5q25 0 38 9.5t20.5 25t9.5 34.5l4 38l104 794q10 82 35 160t68 137.5t108.5 96.5t161.5 37q57 0 109.5 -14.5t92.5 -45.5t63.5 -77t23.5 -109q0 -92 -37 -151.5t-82 -105.5t-82 -88t-37 -98q0 -33 25.5 -55t64.5 -44.5t84 -47.5 t84 -59.5t64.5 -81.5t25.5 -117q0 -92 -28.5 -159.5t-80.5 -114t-125 -69t-159 -22.5q-94 0 -140 15.5t-62.5 49.5t-10.5 88t17 130h75q-4 -53 1 -84t22.5 -46t49.5 -18.5t79 -3.5q80 0 140.5 58.5t60.5 169.5q0 47 -25 79.5t-62.5 58.5t-81.5 49.5t-82 53t-62.5 70.5 t-24.5 102q0 74 34.5 121t77.5 89t78 90.5t35 123.5q0 63 -41 96t-100 33q-55 0 -90 -27.5t-55.5 -69.5t-30 -92t-15.5 -93l-123 -942q-6 -45 -28.5 -68.5t-69.5 -23.5q-59 0 -121.5 25.5t-118.5 47.5z" />
<glyph unicode="&#xe0;" horiz-adv-x="1015" d="M84 299q0 111 29.5 242t91 244.5t158 189.5t229.5 76q47 0 94 -19.5t86 -46.5l45 39h84l-113 -834q-4 -25 -5 -43t4.5 -31.5t18.5 -20.5t40 -7q10 0 46.5 1t59.5 3l-8 -57q-51 -20 -115.5 -41t-115.5 -21q-47 0 -72 23.5t-18 73.5l28 209q-27 -49 -64.5 -102.5 t-83.5 -98.5t-99.5 -75t-110.5 -30q-66 0 -107 32t-63.5 81t-30.5 106.5t-8 106.5zM250 338q0 -33 4 -75t15.5 -79t33 -61.5t57.5 -24.5q33 0 64 21.5t57.5 51.5t49 63.5t38.5 58.5q41 63 67 133t42 140.5t26.5 143t20.5 146.5q-33 23 -78 45.5t-80 22.5q-55 0 -100 -31 t-80 -80t-61.5 -112.5t-43 -129t-24.5 -127t-8 -106.5zM397 1391l109 143l317 -250l-75 -96z" />
<glyph unicode="&#xe1;" horiz-adv-x="1015" d="M84 299q0 111 29.5 242t91 244.5t158 189.5t229.5 76q47 0 94 -19.5t86 -46.5l45 39h84l-113 -834q-4 -25 -5 -43t4.5 -31.5t18.5 -20.5t40 -7q10 0 46.5 1t59.5 3l-8 -57q-51 -20 -115.5 -41t-115.5 -21q-47 0 -72 23.5t-18 73.5l28 209q-27 -49 -64.5 -102.5 t-83.5 -98.5t-99.5 -75t-110.5 -30q-66 0 -107 32t-63.5 81t-30.5 106.5t-8 106.5zM250 338q0 -33 4 -75t15.5 -79t33 -61.5t57.5 -24.5q33 0 64 21.5t57.5 51.5t49 63.5t38.5 58.5q41 63 67 133t42 140.5t26.5 143t20.5 146.5q-33 23 -78 45.5t-80 22.5q-55 0 -100 -31 t-80 -80t-61.5 -112.5t-43 -129t-24.5 -127t-8 -106.5zM424 1284l375 250l71 -143l-399 -203z" />
<glyph unicode="&#xe2;" horiz-adv-x="1015" d="M84 299q0 111 29.5 242t91 244.5t158 189.5t229.5 76q47 0 94 -19.5t86 -46.5l45 39h84l-113 -834q-4 -25 -5 -43t4.5 -31.5t18.5 -20.5t40 -7q10 0 46.5 1t59.5 3l-8 -57q-51 -20 -115.5 -41t-115.5 -21q-47 0 -72 23.5t-18 73.5l28 209q-27 -49 -64.5 -102.5 t-83.5 -98.5t-99.5 -75t-110.5 -30q-66 0 -107 32t-63.5 81t-30.5 106.5t-8 106.5zM250 338q0 -33 4 -75t15.5 -79t33 -61.5t57.5 -24.5q33 0 64 21.5t57.5 51.5t49 63.5t38.5 58.5q41 63 67 133t42 140.5t26.5 143t20.5 146.5q-33 23 -78 45.5t-80 22.5q-55 0 -100 -31 t-80 -80t-61.5 -112.5t-43 -129t-24.5 -127t-8 -106.5zM281 1284l366 250l309 -250l-75 -96l-258 153l-293 -153z" />
<glyph unicode="&#xe3;" horiz-adv-x="1015" d="M84 299q0 111 29.5 242t91 244.5t158 189.5t229.5 76q47 0 94 -19.5t86 -46.5l45 39h84l-113 -834q-4 -25 -5 -43t4.5 -31.5t18.5 -20.5t40 -7q10 0 46.5 1t59.5 3l-8 -57q-51 -20 -115.5 -41t-115.5 -21q-47 0 -72 23.5t-18 73.5l28 209q-27 -49 -64.5 -102.5 t-83.5 -98.5t-99.5 -75t-110.5 -30q-66 0 -107 32t-63.5 81t-30.5 106.5t-8 106.5zM250 338q0 -33 4 -75t15.5 -79t33 -61.5t57.5 -24.5q33 0 64 21.5t57.5 51.5t49 63.5t38.5 58.5q41 63 67 133t42 140.5t26.5 143t20.5 146.5q-33 23 -78 45.5t-80 22.5q-55 0 -100 -31 t-80 -80t-61.5 -112.5t-43 -129t-24.5 -127t-8 -106.5zM281 1368q47 49 101 84t122 35q37 0 66.5 -12.5t57 -27.5t55.5 -27.5t62 -12.5q41 0 77 18.5t67 49.5l65 -82q-45 -53 -100 -87t-123 -34q-39 0 -70.5 12t-59.5 25.5t-54.5 26t-54.5 12.5q-41 0 -75 -15.5t-69 -48.5z " />
<glyph unicode="&#xe4;" horiz-adv-x="1015" d="M84 299q0 111 29.5 242t91 244.5t158 189.5t229.5 76q47 0 94 -19.5t86 -46.5l45 39h84l-113 -834q-4 -25 -5 -43t4.5 -31.5t18.5 -20.5t40 -7q10 0 46.5 1t59.5 3l-8 -57q-51 -20 -115.5 -41t-115.5 -21q-47 0 -72 23.5t-18 73.5l28 209q-27 -49 -64.5 -102.5 t-83.5 -98.5t-99.5 -75t-110.5 -30q-66 0 -107 32t-63.5 81t-30.5 106.5t-8 106.5zM250 338q0 -33 4 -75t15.5 -79t33 -61.5t57.5 -24.5q33 0 64 21.5t57.5 51.5t49 63.5t38.5 58.5q41 63 67 133t42 140.5t26.5 143t20.5 146.5q-33 23 -78 45.5t-80 22.5q-55 0 -100 -31 t-80 -80t-61.5 -112.5t-43 -129t-24.5 -127t-8 -106.5zM342 1372q6 47 45 82t86 35q49 0 78.5 -35t23.5 -82t-43.5 -82t-87.5 -35q-47 0 -77.5 35t-24.5 82zM680 1372q6 47 45 82t86 35q49 0 78.5 -35t23.5 -82t-44 -82t-87 -35q-47 0 -77.5 35t-24.5 82z" />
<glyph unicode="&#xe5;" horiz-adv-x="1015" d="M84 299q0 111 29.5 242t91 244.5t158 189.5t229.5 76q47 0 94 -19.5t86 -46.5l45 39h84l-113 -834q-4 -25 -5 -43t4.5 -31.5t18.5 -20.5t40 -7q10 0 46.5 1t59.5 3l-8 -57q-51 -20 -115.5 -41t-115.5 -21q-47 0 -72 23.5t-18 73.5l28 209q-27 -49 -64.5 -102.5 t-83.5 -98.5t-99.5 -75t-110.5 -30q-66 0 -107 32t-63.5 81t-30.5 106.5t-8 106.5zM250 338q0 -33 4 -75t15.5 -79t33 -61.5t57.5 -24.5q33 0 64 21.5t57.5 51.5t49 63.5t38.5 58.5q41 63 67 133t42 140.5t26.5 143t20.5 146.5q-33 23 -78 45.5t-80 22.5q-55 0 -100 -31 t-80 -80t-61.5 -112.5t-43 -129t-24.5 -127t-8 -106.5zM465 1382q4 37 22.5 71t46 58.5t63.5 39t73 14.5q76 0 121.5 -53.5t37.5 -129.5q-4 -37 -22.5 -70.5t-46 -58t-63 -39t-72.5 -14.5t-69 14.5t-53.5 39t-31.5 58.5t-6 70zM565 1382q-4 -35 16.5 -58.5t55.5 -23.5 t61.5 23.5t30.5 58.5t-16.5 58.5t-55.5 23.5t-61.5 -23.5t-30.5 -58.5z" />
<glyph unicode="&#xe6;" horiz-adv-x="1456" d="M84 299q0 111 29.5 242t91 244.5t159 189.5t232.5 76q53 0 122.5 -21.5t145.5 -93.5q51 51 121 83t162 32q100 0 171 -48t71 -163q0 -82 -61.5 -144.5t-151 -106.5t-188.5 -70.5t-177 -39.5q-4 -23 -5 -47t-1 -43q0 -43 8 -90t26.5 -86t51.5 -63.5t82 -24.5 q92 0 162.5 37t148.5 108l25 -112q-78 -88 -175.5 -136.5t-213.5 -48.5q-68 0 -114 27t-75 69t-44 93t-21 102q-29 -47 -66 -98t-83 -94t-102.5 -71t-119.5 -28q-66 0 -108 32t-64.5 81t-30.5 106.5t-8 106.5zM250 338q0 -33 4 -75t16.5 -79t34 -61.5t55.5 -24.5 q33 0 64 21.5t58.5 51.5t50 63.5t38.5 58.5q43 63 69 133t41 140.5t24.5 144t19.5 147.5q-29 29 -74 47.5t-82 18.5q-55 0 -101 -31t-81 -80t-61.5 -112.5t-43 -129t-24.5 -127t-8 -106.5zM827 582q51 8 120 24.5t130.5 42t104.5 63.5t43 91q0 59 -32 88t-87 29 q-66 0 -114 -32t-81.5 -81t-54 -108.5t-29.5 -116.5z" />
<glyph unicode="&#xe7;" horiz-adv-x="808" d="M84 358q0 109 29.5 231t92 224t158 170t226.5 68q74 0 111.5 -20.5t52 -56.5t11.5 -85.5t-11 -108.5h-66q-10 66 -47 103t-109 37q-86 0 -143 -59.5t-91 -142.5t-48 -175t-14 -156q0 -55 9 -102t32.5 -82t61.5 -55.5t97 -20.5q74 0 143.5 41t135.5 98l24 -110 q-59 -66 -135 -111t-155 -61l-37 -82l18 -11q76 -43 102.5 -107.5t10 -124.5t-73.5 -103t-152 -43q-29 0 -62.5 8t-64.5 22l37 97q23 -10 46.5 -18.5t45.5 -8.5q43 0 68 19.5t29 47t-14.5 59.5t-61.5 56q-18 10 -33 19q-12 8 -24.5 14t-18.5 10l66 135q-78 10 -126 49 t-75 93.5t-36 119t-9 123.5z" />
<glyph unicode="&#xe8;" horiz-adv-x="876" d="M84 356q0 70 11 150t36 156.5t62.5 147.5t92 124t125 85t158.5 32q49 0 93.5 -11.5t76 -37t51 -65.5t19.5 -97q0 -55 -28.5 -101.5t-75 -84.5t-106.5 -66.5t-123.5 -50t-126 -35t-113.5 -21.5q-4 -23 -5.5 -49t-1.5 -45q0 -43 8.5 -90t27 -85t50 -62.5t80.5 -24.5 q92 0 163 37t149 108l22 -112q-78 -88 -175 -136.5t-210 -48.5q-80 0 -130 37t-80 93.5t-40 124t-10 128.5zM250 580q49 8 117.5 24.5t130 43t105.5 64.5t44 89q0 59 -31.5 88t-89.5 29q-63 0 -110 -31t-80 -80t-53.5 -109.5t-32.5 -117.5zM322 1391l108 143l318 -250 l-76 -96z" />
<glyph unicode="&#xe9;" horiz-adv-x="876" d="M84 356q0 70 11 150t36 156.5t62.5 147.5t92 124t125 85t158.5 32q49 0 93.5 -11.5t76 -37t51 -65.5t19.5 -97q0 -55 -28.5 -101.5t-75 -84.5t-106.5 -66.5t-123.5 -50t-126 -35t-113.5 -21.5q-4 -23 -5.5 -49t-1.5 -45q0 -43 8.5 -90t27 -85t50 -62.5t80.5 -24.5 q92 0 163 37t149 108l22 -112q-78 -88 -175 -136.5t-210 -48.5q-80 0 -130 37t-80 93.5t-40 124t-10 128.5zM250 580q49 8 117.5 24.5t130 43t105.5 64.5t44 89q0 59 -31.5 88t-89.5 29q-63 0 -110 -31t-80 -80t-53.5 -109.5t-32.5 -117.5zM424 1284l375 250l71 -143 l-399 -203z" />
<glyph unicode="&#xea;" horiz-adv-x="876" d="M84 356q0 70 11 150t36 156.5t62.5 147.5t92 124t125 85t158.5 32q49 0 93.5 -11.5t76 -37t51 -65.5t19.5 -97q0 -55 -28.5 -101.5t-75 -84.5t-106.5 -66.5t-123.5 -50t-126 -35t-113.5 -21.5q-4 -23 -5.5 -49t-1.5 -45q0 -43 8.5 -90t27 -85t50 -62.5t80.5 -24.5 q92 0 163 37t149 108l22 -112q-78 -88 -175 -136.5t-210 -48.5q-80 0 -130 37t-80 93.5t-40 124t-10 128.5zM250 580q49 8 117.5 24.5t130 43t105.5 64.5t44 89q0 59 -31.5 88t-89.5 29q-63 0 -110 -31t-80 -80t-53.5 -109.5t-32.5 -117.5zM252 1284l366 250l310 -250 l-76 -96l-258 153l-293 -153z" />
<glyph unicode="&#xeb;" horiz-adv-x="876" d="M84 356q0 70 11 150t36 156.5t62.5 147.5t92 124t125 85t158.5 32q49 0 93.5 -11.5t76 -37t51 -65.5t19.5 -97q0 -55 -28.5 -101.5t-75 -84.5t-106.5 -66.5t-123.5 -50t-126 -35t-113.5 -21.5q-4 -23 -5.5 -49t-1.5 -45q0 -43 8.5 -90t27 -85t50 -62.5t80.5 -24.5 q92 0 163 37t149 108l22 -112q-78 -88 -175 -136.5t-210 -48.5q-80 0 -130 37t-80 93.5t-40 124t-10 128.5zM250 580q49 8 117.5 24.5t130 43t105.5 64.5t44 89q0 59 -31.5 88t-89.5 29q-63 0 -110 -31t-80 -80t-53.5 -109.5t-32.5 -117.5zM330 1372q6 47 45 82t86 35 t77.5 -35t24.5 -82t-45 -82t-86 -35t-77.5 35t-24.5 82zM668 1372q6 47 45 82t86 35t77.5 -35t24.5 -82t-45 -82t-86 -35t-77.5 35t-24.5 82z" />
<glyph unicode="&#xec;" horiz-adv-x="585" d="M96 1391l109 143l317 -250l-76 -96zM98 934l8 55q59 18 119 40t123 22q47 0 71.5 -23.5t18.5 -75.5l-102 -759q-6 -47 -1 -76t56 -29q20 0 44 1t65 3l-8 -57q-53 -20 -113 -41t-119 -21q-47 0 -72.5 23.5t-19.5 75.5l102 757q6 47 0 78t-57 31q-20 0 -48 -1t-67 -3z" />
<glyph unicode="&#xed;" horiz-adv-x="585" d="M98 934l8 55q59 18 119 40t123 22q47 0 71.5 -23.5t18.5 -75.5l-102 -759q-6 -47 -1 -76t56 -29q20 0 44 1t65 3l-8 -57q-53 -20 -113 -41t-119 -21q-47 0 -72.5 23.5t-19.5 75.5l102 757q6 47 0 78t-57 31q-20 0 -48 -1t-67 -3zM285 1284l374 250l72 -143l-399 -203z " />
<glyph unicode="&#xee;" horiz-adv-x="585" d="M53 1284l367 250l309 -250l-76 -96l-258 153l-293 -153zM98 934l8 55q59 18 119 40t123 22q47 0 71.5 -23.5t18.5 -75.5l-102 -759q-6 -47 -1 -76t56 -29q20 0 44 1t65 3l-8 -57q-53 -20 -113 -41t-119 -21q-47 0 -72.5 23.5t-19.5 75.5l102 757q6 47 0 78t-57 31 q-20 0 -48 -1t-67 -3z" />
<glyph unicode="&#xef;" horiz-adv-x="585" d="M98 934l8 55q59 18 119 40t123 22q47 0 71.5 -23.5t18.5 -75.5l-102 -759q-6 -47 -1 -76t56 -29q20 0 44 1t65 3l-8 -57q-53 -20 -113 -41t-119 -21q-47 0 -72.5 23.5t-19.5 75.5l102 757q6 47 0 78t-57 31q-20 0 -48 -1t-67 -3zM123 1372q6 47 45 82t86 35t77.5 -35 t24.5 -82t-45 -82t-86 -35t-77.5 35t-24.5 82zM461 1372q6 47 45 82t86 35t77.5 -35t24.5 -82t-45 -82t-86 -35t-77.5 35t-24.5 82z" />
<glyph unicode="&#xf0;" horiz-adv-x="993" d="M84 365q0 115 30.5 236.5t93 221t161 164t233.5 64.5q16 0 33.5 -2t34.5 -7q-20 51 -46 97.5t-53 85.5l-292 -74l-15 127l223 57q-43 51 -87 95.5t-85 85.5h195q29 -29 60.5 -65t64.5 -77l291 74l16 -127l-229 -57q86 -137 142 -283.5t56 -321.5q0 -115 -30.5 -236.5 t-93 -221t-161 -164t-233.5 -64.5q-90 0 -149.5 33t-94 87t-50 125t-15.5 147zM252 381q0 -47 7 -96t27.5 -89t53.5 -67t86 -27q96 0 157.5 55.5t97.5 137.5t49 176t13 172q0 45 -7 95t-27.5 90t-54 67t-85.5 27q-96 0 -157.5 -55.5t-97 -137.5t-49 -176t-13.5 -172z" />
<glyph unicode="&#xf1;" horiz-adv-x="1126" d="M86 934l8 55q61 18 117.5 40t122.5 22q47 0 72.5 -23.5t19.5 -73.5l-29 -209q72 135 168.5 220.5t220.5 85.5q51 0 87 -18.5t57.5 -49.5t28 -72t-0.5 -84l-86 -634q-4 -25 -5 -43.5t4.5 -33t18.5 -21.5t40 -7q20 0 43.5 1t62.5 3l-8 -57q-57 -20 -115.5 -41t-117.5 -21 q-100 0 -88 97l96 710q6 49 -11.5 85t-72.5 36q-59 -2 -109.5 -44t-92.5 -108.5t-75.5 -149.5t-58.5 -166t-40 -157.5t-24 -125.5l-22 -150h-150l111 834q6 47 0 75.5t-57 28.5q-20 0 -47 -1t-68 -3zM315 1368q47 49 101.5 84t122.5 35q37 0 66.5 -12.5t57 -27.5t55 -27.5 t62.5 -12.5q41 0 77 18.5t67 49.5l65 -82q-45 -53 -100 -87t-123 -34q-39 0 -70.5 12t-59.5 25.5t-54.5 26t-55.5 12.5q-41 0 -74.5 -15.5t-68.5 -48.5z" />
<glyph unicode="&#xf2;" horiz-adv-x="993" d="M84 365q0 115 30.5 236.5t93 221t161 164t233.5 64.5q88 0 148.5 -33t95.5 -87t50 -125t15 -147q0 -115 -30.5 -236.5t-93 -221t-161 -164t-233.5 -64.5q-90 0 -149.5 33t-94 87t-50 125t-15.5 147zM252 381q0 -47 7 -96t27.5 -89t53.5 -67t86 -27q96 0 157.5 55.5 t97.5 137.5t49 176t13 172q0 45 -7 95t-27.5 90t-54 67t-85.5 27q-96 0 -157.5 -55.5t-97 -137.5t-49 -176t-13.5 -172zM375 1391l108 143l318 -250l-76 -96z" />
<glyph unicode="&#xf3;" horiz-adv-x="993" d="M84 365q0 115 30.5 236.5t93 221t161 164t233.5 64.5q88 0 148.5 -33t95.5 -87t50 -125t15 -147q0 -115 -30.5 -236.5t-93 -221t-161 -164t-233.5 -64.5q-90 0 -149.5 33t-94 87t-50 125t-15.5 147zM252 381q0 -47 7 -96t27.5 -89t53.5 -67t86 -27q96 0 157.5 55.5 t97.5 137.5t49 176t13 172q0 45 -7 95t-27.5 90t-54 67t-85.5 27q-96 0 -157.5 -55.5t-97 -137.5t-49 -176t-13.5 -172zM463 1284l375 250l71 -143l-399 -203z" />
<glyph unicode="&#xf4;" horiz-adv-x="993" d="M84 365q0 115 30.5 236.5t93 221t161 164t233.5 64.5q88 0 148.5 -33t95.5 -87t50 -125t15 -147q0 -115 -30.5 -236.5t-93 -221t-161 -164t-233.5 -64.5q-90 0 -149.5 33t-94 87t-50 125t-15.5 147zM252 381q0 -47 7 -96t27.5 -89t53.5 -67t86 -27q96 0 157.5 55.5 t97.5 137.5t49 176t13 172q0 45 -7 95t-27.5 90t-54 67t-85.5 27q-96 0 -157.5 -55.5t-97 -137.5t-49 -176t-13.5 -172zM299 1284l367 250l309 -250l-76 -96l-258 153l-293 -153z" />
<glyph unicode="&#xf5;" horiz-adv-x="993" d="M84 365q0 115 30.5 236.5t93 221t161 164t233.5 64.5q88 0 148.5 -33t95.5 -87t50 -125t15 -147q0 -115 -30.5 -236.5t-93 -221t-161 -164t-233.5 -64.5q-90 0 -149.5 33t-94 87t-50 125t-15.5 147zM252 381q0 -47 7 -96t27.5 -89t53.5 -67t86 -27q96 0 157.5 55.5 t97.5 137.5t49 176t13 172q0 45 -7 95t-27.5 90t-54 67t-85.5 27q-96 0 -157.5 -55.5t-97 -137.5t-49 -176t-13.5 -172zM293 1368q47 49 101.5 84t121.5 35q37 0 66.5 -12.5t57.5 -27.5t55.5 -27.5t62.5 -12.5q41 0 76.5 18.5t66.5 49.5l66 -82q-45 -53 -100.5 -87 t-123.5 -34q-39 0 -70.5 12t-59 25.5t-54.5 26t-55 12.5q-41 0 -75 -15.5t-69 -48.5z" />
<glyph unicode="&#xf6;" horiz-adv-x="993" d="M84 365q0 115 30.5 236.5t93 221t161 164t233.5 64.5q88 0 148.5 -33t95.5 -87t50 -125t15 -147q0 -115 -30.5 -236.5t-93 -221t-161 -164t-233.5 -64.5q-90 0 -149.5 33t-94 87t-50 125t-15.5 147zM252 381q0 -47 7 -96t27.5 -89t53.5 -67t86 -27q96 0 157.5 55.5 t97.5 137.5t49 176t13 172q0 45 -7 95t-27.5 90t-54 67t-85.5 27q-96 0 -157.5 -55.5t-97 -137.5t-49 -176t-13.5 -172zM365 1372q6 47 45 82t86 35t77.5 -35t24.5 -82t-45 -82t-86 -35t-78 35t-24 82zM702 1372q6 47 45 82t87 35q47 0 77.5 -35t24.5 -82t-45 -82t-86 -35 t-78 35t-25 82z" />
<glyph unicode="&#xf7;" d="M150 477l16 141h942l-16 -141h-942zM475 246q6 47 44 81.5t87 34.5q47 0 78 -34.5t25 -81.5t-45 -82t-86 -35q-49 0 -79 35t-24 82zM549 850q6 47 44 82t87 35q47 0 77.5 -35t24.5 -82t-45 -82t-86 -35q-49 0 -78.5 35t-23.5 82z" />
<glyph unicode="&#xf8;" horiz-adv-x="995" d="M-8 -115l151 217q-33 53 -46 121t-13 142q0 115 30.5 236.5t93 221t161 164t233.5 64.5q53 0 95 -11.5t77 -33.5l92 133h142l-154 -219q33 -53 45 -121t12 -140q0 -115 -30.5 -236.5t-93 -221t-161 -164t-233.5 -64.5q-53 0 -94 11.5t-76 31.5l-92 -131h-139zM252 381 q0 -27 2 -54.5t8 -54.5l418 600q-20 23 -47 36.5t-64 13.5q-96 0 -157.5 -55.5t-97 -137.5t-49 -176t-13.5 -172zM315 150q43 -47 111 -48q96 0 157.5 55.5t97.5 137.5t49 176t13 172q0 57 -8 105z" />
<glyph unicode="&#xf9;" horiz-adv-x="1146" d="M86 934l8 55q59 18 117.5 40t124.5 22q47 0 71.5 -25t18.5 -74l-96 -708q-6 -49 13 -85t75 -36q59 0 109.5 42t92.5 108.5t75.5 149.5t58 166t40 158.5t23.5 126.5l23 150h149l-112 -825q-4 -25 -5.5 -44.5t3 -35t16.5 -23.5t39 -8q20 0 44.5 1t65.5 3l-8 -57 q-57 -20 -115.5 -41t-117.5 -21q-100 0 -88 97l28 209q-72 -135 -168 -220.5t-221 -85.5q-53 0 -89 18.5t-58.5 49.5t-29.5 71t-1 85l86 634q6 47 0 77t-59 30q-20 0 -47 -1t-66 -3zM389 1391l109 143l317 -250l-76 -96z" />
<glyph unicode="&#xfa;" horiz-adv-x="1146" d="M86 934l8 55q59 18 117.5 40t124.5 22q47 0 71.5 -25t18.5 -74l-96 -708q-6 -49 13 -85t75 -36q59 0 109.5 42t92.5 108.5t75.5 149.5t58 166t40 158.5t23.5 126.5l23 150h149l-112 -825q-4 -25 -5.5 -44.5t3 -35t16.5 -23.5t39 -8q20 0 44.5 1t65.5 3l-8 -57 q-57 -20 -115.5 -41t-117.5 -21q-100 0 -88 97l28 209q-72 -135 -168 -220.5t-221 -85.5q-53 0 -89 18.5t-58.5 49.5t-29.5 71t-1 85l86 634q6 47 0 77t-59 30q-20 0 -47 -1t-66 -3zM465 1284l375 250l71 -143l-399 -203z" />
<glyph unicode="&#xfb;" horiz-adv-x="1146" d="M86 934l8 55q59 18 117.5 40t124.5 22q47 0 71.5 -25t18.5 -74l-96 -708q-6 -49 13 -85t75 -36q59 0 109.5 42t92.5 108.5t75.5 149.5t58 166t40 158.5t23.5 126.5l23 150h149l-112 -825q-4 -25 -5.5 -44.5t3 -35t16.5 -23.5t39 -8q20 0 44.5 1t65.5 3l-8 -57 q-57 -20 -115.5 -41t-117.5 -21q-100 0 -88 97l28 209q-72 -135 -168 -220.5t-221 -85.5q-53 0 -89 18.5t-58.5 49.5t-29.5 71t-1 85l86 634q6 47 0 77t-59 30q-20 0 -47 -1t-66 -3zM332 1284l366 250l310 -250l-76 -96l-258 153l-293 -153z" />
<glyph unicode="&#xfc;" horiz-adv-x="1146" d="M86 934l8 55q59 18 117.5 40t124.5 22q47 0 71.5 -25t18.5 -74l-96 -708q-6 -49 13 -85t75 -36q59 0 109.5 42t92.5 108.5t75.5 149.5t58 166t40 158.5t23.5 126.5l23 150h149l-112 -825q-4 -25 -5.5 -44.5t3 -35t16.5 -23.5t39 -8q20 0 44.5 1t65.5 3l-8 -57 q-57 -20 -115.5 -41t-117.5 -21q-100 0 -88 97l28 209q-72 -135 -168 -220.5t-221 -85.5q-53 0 -89 18.5t-58.5 49.5t-29.5 71t-1 85l86 634q6 47 0 77t-59 30q-20 0 -47 -1t-66 -3zM373 1372q6 47 45 82t86 35t77.5 -35t24.5 -82t-45 -82t-86 -35t-77.5 35t-24.5 82z M711 1372q6 47 45 82t86 35t77.5 -35t24.5 -82t-45 -82t-86 -35t-77.5 35t-24.5 82z" />
<glyph unicode="&#xfd;" horiz-adv-x="1064" d="M86 934l8 55q59 18 116.5 40t123.5 22q47 0 73.5 -23.5t18.5 -75.5l-98 -708q-6 -49 8 -85t67 -36q59 0 108.5 42t89.5 108.5t70.5 149.5t53.5 166t37 157.5t22 125.5l23 152h156l-199 -1196q-12 -78 -45 -143.5t-87 -113.5t-129 -75.5t-171 -27.5q-86 0 -147.5 30.5 t-85 79.5t-2 108.5t103.5 116.5l41 -41q-59 -72 -42 -123t119 -51q68 0 120.5 19.5t90 53.5t61 77t32.5 90l79 440q-72 -131 -157.5 -213t-208.5 -82q-53 0 -87 18.5t-53.5 49.5t-24.5 71t1 85l86 637q6 47 0 75.5t-57 28.5q-20 0 -53 -1t-62 -3zM477 1284l375 250l72 -143 l-400 -203z" />
<glyph unicode="&#xfe;" horiz-adv-x="1056" d="M74 -520q41 301 69.5 516t49 367.5t34 253t23.5 172t17 127t15.5 117t19.5 140t28 197.5q6 47 0 77t-56 30q-20 0 -48.5 -1t-67.5 -3l8 55q57 18 117.5 39.5t124.5 21.5q47 0 72.5 -23.5t17.5 -74.5q-23 -160 -36 -259t-21.5 -161.5t-13.5 -98.5t-9 -65.5t-9.5 -65.5 t-13.5 -98q27 51 63 105.5t80 99.5t98 74t120 29q68 0 110.5 -31t67 -77t34 -102.5t9.5 -107.5q0 -139 -35 -275t-103.5 -244t-173 -174.5t-243.5 -66.5q-33 0 -64.5 6.5t-62.5 16.5l-70 -516h-151zM315 150q82 -39 168 -39q100 0 165 59t99.5 146t48 187.5t13.5 182.5 q0 31 -5 69t-17.5 70.5t-35 54t-57.5 21.5t-67.5 -18.5t-61.5 -42.5q-72 -61 -113.5 -144.5t-68.5 -176.5t-41 -188t-27 -181z" />
<glyph unicode="&#xff;" horiz-adv-x="1085" d="M86 934l4 55q61 16 121.5 39t126.5 23q47 0 73.5 -23.5t18.5 -75.5l-98 -708q-6 -49 6 -85t65 -36q59 0 108.5 42t89.5 108.5t70.5 149.5t53.5 166t37 157.5t22 125.5l23 152h156l-199 -1196q-12 -78 -45 -143.5t-87 -113.5t-129 -75.5t-171 -27.5q-86 0 -147.5 30.5 t-85 79.5t-2 108.5t103.5 116.5l41 -41q-59 -72 -42 -123t119 -51q68 0 120.5 19.5t90 53.5t61 77t32.5 90l79 440q-72 -131 -157.5 -213t-208.5 -82q-53 0 -87 18.5t-53.5 49.5t-24.5 71t1 85l86 637q6 47 0 75.5t-57 28.5q-20 0 -53 -1t-62 -3zM354 1378q10 47 50 82 t90 35q49 0 74.5 -35t15.5 -84q-10 -47 -50 -80.5t-88 -33.5q-49 0 -75.5 34.5t-16.5 81.5zM682 1378q10 47 50 82t89 35t75.5 -35t16.5 -84q-10 -47 -51 -80.5t-88 -33.5q-49 0 -75.5 34.5t-16.5 81.5z" />
<glyph unicode="&#x152;" horiz-adv-x="1705" d="M79.5 419q-16.5 130 2.5 271q20 147 74.5 284.5t142.5 244t209 170t272 63.5q49 0 91 -7t81 -20h148h71.5t118 1t140 2.5t138 2.5t110 1h57.5l-45 -328h-103q4 31 4 62.5t-2 59t-5 47t-3 25.5l-401 -2l-68 -495h254q20 0 33.5 17.5t22 40t10.5 43t2 26.5h84 q-6 -47 -15 -86q-6 -35 -11 -66t-7 -43q-2 -14 -4 -44t-6 -62q-4 -37 -9 -82h-82q0 10 2.5 30.5t0 42t-9.5 38t-25 16.5h-256l-76 -545l412 -2q2 6 10 25.5t17 48t18.5 60.5t15.5 63h102l-45 -328h-58t-110.5 1t-139.5 2t-143.5 2t-120.5 1h-73h-172q-41 -12 -87 -19.5 t-93 -7.5q-145 0 -244.5 59.5t-156 158t-73 228.5zM260 508.5q6 -111.5 42 -201.5t105.5 -146.5t180.5 -56.5q82 0 150.5 37t125.5 97l129 950q-39 59 -99 95t-149 36q-100 0 -181 -53.5t-141.5 -138.5t-99 -189t-53.5 -207q-16 -111 -10 -222.5z" />
<glyph unicode="&#x153;" horiz-adv-x="1529" d="M84 365q0 115 30.5 236.5t94 221t163 164t234.5 64.5q111 0 176.5 -50.5t98.5 -128.5q59 80 143 129.5t197 49.5q100 0 170.5 -48t70.5 -163q0 -84 -60.5 -145.5t-149.5 -105.5t-188 -69.5t-177 -38.5q-4 -23 -6 -49t-2 -45q0 -43 8 -90t26.5 -85t51 -62.5t82.5 -24.5 q92 0 162.5 37t148.5 108l22 -112q-78 -88 -175 -136.5t-212 -48.5q-41 0 -75.5 18.5t-62.5 48.5t-49.5 64.5t-35.5 67.5q-63 -88 -156.5 -143.5t-220.5 -55.5q-90 0 -149.5 33t-94 87t-50 125t-15.5 147zM252 381q0 -47 7 -96t27.5 -89t54.5 -67t87 -27q96 0 158.5 55.5 t98.5 137.5t49.5 176t13.5 172q0 45 -7.5 95t-28 90t-54 67t-87.5 27q-96 0 -158.5 -55.5t-98 -137.5t-49 -176t-13.5 -172zM901 580q51 8 120 25.5t130 44t104 64.5t43 87q0 59 -31.5 88t-86.5 29q-66 0 -114 -32t-82 -81t-54.5 -108.5t-28.5 -116.5z" />
<glyph unicode="&#x178;" horiz-adv-x="1105" d="M84 1350l10 82q35 0 80 -3.5t107 -3.5q31 0 64.5 1t66 2.5t60.5 2.5t46 1l-12 -82q-6 0 -29.5 -2t-46 -8.5t-39 -18.5t-10.5 -33l174 -561l324 563q10 18 -5.5 30.5t-40 19t-49 8.5t-32.5 2l12 82q35 0 95.5 -3.5t119.5 -3.5q61 0 114.5 3.5t88.5 3.5l-11 -82 q-12 0 -32.5 -3.5t-43 -10.5t-42 -19t-31.5 -31l-420 -706l-59 -443q-4 -23 13 -35t39.5 -18t46.5 -7t34 -1l-12 -82q-16 0 -42 1t-56.5 2t-62.5 2t-63 1q-61 0 -120.5 -3t-94.5 -3l11 82q10 0 32.5 1t45 7t40 18.5t21.5 34.5l57 443l-225 708q-6 20 -23.5 32.5t-38 19 t-38 8.5t-23.5 2zM362 1782q6 47 45 81.5t87 34.5q47 0 77.5 -34.5t24.5 -81.5t-45 -82t-86 -35t-78 35t-25 82zM711 1782q6 47 45 81.5t86 34.5t77.5 -34.5t24.5 -81.5t-45 -82t-86 -35t-77.5 35t-24.5 82z" />
<glyph unicode="&#x2c6;" horiz-adv-x="712" d="M18 1284l367 250l309 -250l-76 -96l-258 153l-292 -153z" />
<glyph unicode="&#x2dc;" horiz-adv-x="712" d="M18 1368q47 49 101.5 84t122.5 35q37 0 66.5 -12.5t57 -27.5t56.5 -27.5t63 -12.5q41 0 76 18.5t68 49.5l65 -82q-47 -53 -102 -87t-123 -34q-39 0 -70.5 12t-59.5 25.5t-54.5 26t-55.5 12.5q-41 0 -74.5 -15.5t-68.5 -48.5z" />
<glyph unicode="&#x2000;" horiz-adv-x="986" />
<glyph unicode="&#x2001;" horiz-adv-x="1972" />
<glyph unicode="&#x2002;" horiz-adv-x="986" />
<glyph unicode="&#x2003;" horiz-adv-x="1972" />
<glyph unicode="&#x2004;" horiz-adv-x="657" />
<glyph unicode="&#x2005;" horiz-adv-x="493" />
<glyph unicode="&#x2006;" horiz-adv-x="328" />
<glyph unicode="&#x2007;" horiz-adv-x="328" />
<glyph unicode="&#x2008;" horiz-adv-x="246" />
<glyph unicode="&#x2009;" horiz-adv-x="394" />
<glyph unicode="&#x200a;" horiz-adv-x="109" />
<glyph unicode="&#x2010;" horiz-adv-x="757" d="M133 477l17 141h514l-17 -141h-514z" />
<glyph unicode="&#x2011;" horiz-adv-x="757" d="M133 477l17 141h514l-17 -141h-514z" />
<glyph unicode="&#x2012;" horiz-adv-x="757" d="M133 477l17 141h514l-17 -141h-514z" />
<glyph unicode="&#x2013;" d="M150 477l16 141h942l-16 -141h-942z" />
<glyph unicode="&#x2014;" horiz-adv-x="1521" d="M170 477l16 141h1301l-17 -141h-1300z" />
<glyph unicode="&#x2018;" horiz-adv-x="536" d="M238 1094q8 63 32.5 112t61.5 91t82 80t92 75l45 -63q-49 -41 -88 -75t-45 -85q-2 -14 7 -24.5t20.5 -24t20.5 -33t5 -53.5q-6 -47 -45 -82t-86 -35q-49 0 -79 35t-23 82z" />
<glyph unicode="&#x2019;" horiz-adv-x="536" d="M229 1040q25 20 48.5 38t42 36.5t29.5 39t16 46.5q2 14 -8.5 24.5t-21.5 24t-19.5 32.5t-4.5 54q6 47 45 82t86 35q49 0 79 -35t24 -82q-8 -63 -33 -112t-61.5 -91t-81.5 -80t-93 -75z" />
<glyph unicode="&#x201a;" horiz-adv-x="528" d="M78 -205q25 20 47 37.5t40.5 36t30 39t15.5 47.5q2 14 -7 24.5t-20.5 23.5t-20.5 32.5t-5 54.5q6 47 45 82t86 35q49 0 78.5 -35t23.5 -82q-8 -63 -32.5 -112.5t-61.5 -91.5t-82 -79.5t-92 -74.5z" />
<glyph unicode="&#x201c;" horiz-adv-x="833" d="M238 1094q8 63 32.5 112t61.5 91t82 80t92 75l45 -63q-49 -41 -88 -75t-45 -85q-2 -14 7 -24.5t20.5 -24t20.5 -33t5 -53.5q-6 -47 -45 -82t-86 -35q-49 0 -79 35t-23 82zM535 1094q8 63 32.5 112t61.5 91t82 80t92 75l45 -63q-49 -41 -88 -75t-45 -85q-2 -14 7 -24.5 t20.5 -24t20.5 -33t5 -53.5q-6 -47 -45 -82t-86 -35q-49 0 -79 35t-23 82z" />
<glyph unicode="&#x201d;" horiz-adv-x="833" d="M229 1040q25 20 48.5 38t42 36.5t29.5 39t16 46.5q2 14 -8.5 24.5t-21.5 24t-19.5 32.5t-4.5 54q6 47 45 82t86 35q49 0 79 -35t24 -82q-8 -63 -33 -112t-61.5 -91t-81.5 -80t-93 -75zM526 1040q25 20 48.5 38t42 36.5t29.5 39t16 46.5q2 14 -8.5 24.5t-21.5 24 t-19.5 32.5t-4.5 54q6 47 45 82t86 35q49 0 79 -35t24 -82q-8 -63 -33 -112t-61.5 -91t-81.5 -80t-93 -75z" />
<glyph unicode="&#x201e;" horiz-adv-x="823" d="M78 -205q25 20 47 37.5t40.5 36t30 39t15.5 47.5q2 14 -7 24.5t-20.5 23.5t-20.5 32.5t-5 54.5q6 47 45 82t86 35q49 0 78.5 -35t23.5 -82q-8 -63 -32.5 -112.5t-61.5 -91.5t-82 -79.5t-92 -74.5zM375 -205q25 20 47 37.5t40.5 36t30 39t15.5 47.5q2 14 -7 24.5 t-20.5 23.5t-20.5 32.5t-5 54.5q6 47 45 82t86 35q49 0 78.5 -35t23.5 -82q-8 -63 -32.5 -112.5t-61.5 -91.5t-82 -79.5t-92 -74.5z" />
<glyph unicode="&#x2022;" horiz-adv-x="774" d="M199 547q8 55 35.5 103t68.5 85t92 57.5t107 20.5q55 0 101 -20.5t77 -57.5t45 -85t6 -103t-35.5 -103.5t-69.5 -85t-93.5 -57t-106.5 -20.5t-101 20.5t-77 57t-44.5 85t-4.5 103.5z" />
<glyph unicode="&#x2026;" horiz-adv-x="1290" d="M147 90q6 47 45 82t87 35q49 0 78.5 -35t23.5 -82q-4 -47 -43 -82t-88 -35q-47 0 -77 35t-26 82zM528 90q6 47 45 82t86 35q49 0 79 -35t24 -82q-4 -47 -43 -82t-88 -35q-47 0 -77 35t-26 82zM909 90q6 47 45 82t86 35q49 0 79 -35t24 -82q-4 -47 -43 -82t-88 -35 q-47 0 -77 35t-26 82z" />
<glyph unicode="&#x202f;" horiz-adv-x="394" />
<glyph unicode="&#x2039;" horiz-adv-x="737" d="M186 532l447 480l98 -76l-340 -404l242 -405l-117 -74z" />
<glyph unicode="&#x203a;" horiz-adv-x="739" d="M135 129l342 403l-241 406l116 74l332 -480l-448 -479z" />
<glyph unicode="&#x205f;" horiz-adv-x="493" />
<glyph unicode="&#x20ac;" d="M186 614q12 106 60.5 220t129.5 208.5t196.5 153.5t265.5 59q57 0 110 -14t96 -34.5t74 -42.5t45 -36l-33 -264h-104q4 31 4 58.5t-2 51t-4 39t-2 19.5q-41 66 -95.5 83.5t-107.5 17.5q-82 0 -148.5 -32t-116.5 -81t-86 -109.5t-54 -117.5h241q12 0 19.5 9t11.5 21.5 t7 25.5t3 21h80q-4 -18 -8 -51t-10 -67q-8 -39 -15 -84h-362l-8 -52l-4 -55h362q0 -4 -2 -29.5t-5 -58.5t-6 -65.5t-5 -49.5h-80q2 8 3 21.5t-1 26t-7 21.5t-18 9h-241q6 -63 28.5 -123.5t62.5 -108.5t97 -77t135 -29q51 0 103.5 11.5t124.5 70.5q2 4 8 22.5t13 44 t13.5 56.5t10.5 62h104l-33 -265q-25 -16 -62.5 -37.5t-83.5 -41t-101.5 -34t-112.5 -14.5q-156 0 -256.5 60.5t-156.5 154t-72.5 207t-4.5 219.5z" />
<glyph unicode="&#x2122;" horiz-adv-x="1628" d="M276 1337l23 181q14 0 51 -1t79 -1t79 -1.5t49 -1.5q14 0 51 1.5t80 1.5t81 1t52 1l-22 -181h-72q4 59 -2 90l-117 -2l-61 -495q-2 -4 7 -6t19 -2q12 -2 23.5 -1t17.5 1l-8 -72q-29 0 -64.5 2t-62.5 2q-29 0 -64.5 -2t-64.5 -2l10 72q4 0 15.5 -1t23.5 1q29 0 31 8 l59 495l-116 2q-8 -16 -13.5 -38.5t-9.5 -51.5h-74zM813 850l8 72q4 0 16.5 -1t24.5 -1q10 0 19.5 2t9.5 6l74 510q0 4 -9.5 6t-19.5 2q-10 2 -22.5 2h-16.5l8 70q29 0 51.5 -2.5t51.5 -2.5q27 0 48 1.5t44 1.5l157 -347l263 347h79q29 0 47.5 1t47.5 1l-8 -68h-41 q-12 -2 -21.5 -4t-9.5 -6l-55 -512q0 -4 9 -5t19 -1q12 -2 24.5 -1t16.5 1l-8 -72q-29 0 -64.5 2t-64.5 2q-27 0 -63.5 -2t-65.5 -2l8 72q4 0 16.5 -1t24.5 1q10 0 19.5 1t9.5 5l41 387l-273 -357l-161 357l-58 -387q0 -4 9.5 -5t19.5 -1q12 -2 24.5 -1t16.5 1l-8 -72 q-29 0 -59.5 2t-59.5 2t-59.5 -2t-59.5 -2z" />
<glyph unicode="&#x25fc;" horiz-adv-x="1054" d="M0 0v1055h1055v-1055h-1055z" />
<glyph unicode="&#xfb01;" horiz-adv-x="1175" d="M-139 -524l16 102q20 -2 24.5 -3t16.5 -1q106 0 149.5 54.5t55.5 150.5l151 1116h-151l12 92l156 37l24 162q14 109 56.5 185.5t100.5 124.5t127 70.5t138 22.5q43 0 107.5 -6t126 -27.5t104.5 -60t43 -104.5q0 -49 -30.5 -92.5t-83.5 -43.5q-45 0 -65.5 29t-20.5 74 q0 39 -22 60.5t-52.5 31.5t-64.5 11t-60 1q-29 0 -68 -9t-75.5 -34.5t-65.5 -72t-39 -117.5l-29 -205h211q78 0 122 4t70.5 9t47 9.5t51.5 4.5q47 0 71.5 -23.5t18.5 -75.5l-100 -759q-6 -47 -1 -76t56 -29q20 0 44 1t65 3l-8 -57q-53 -20 -114 -41t-120 -21 q-47 0 -71.5 23.5t-18.5 75.5l113 823h-453l-158 -1165q-10 -68 -37.5 -118t-69.5 -82t-95.5 -47t-112.5 -15q-20 0 -42 2t-50 6z" />
<glyph unicode="&#xfb02;" horiz-adv-x="1187" d="M-139 -524l16 102q20 -2 24.5 -3t16.5 -1q106 0 149.5 54.5t55.5 150.5l151 1116h-151l12 92l156 37l24 162q14 109 51 185.5t88.5 124.5t115 70.5t132.5 22.5h314q47 0 71.5 -23.5t18.5 -74.5l-176 -1298q-6 -47 -1 -76t54 -29q20 0 46 1t65 3l-9 -57 q-55 -20 -115.5 -41t-119.5 -21q-45 0 -68.5 23.5t-17.5 75.5l113 823h-451l-158 -1165q-10 -68 -37.5 -118t-69.5 -82t-95.5 -47t-112.5 -15q-20 0 -42 2t-50 6zM442 1024h451l47 346q4 37 -20.5 55.5t-64.5 26.5t-87 9t-84 1q-29 0 -62.5 -9t-63.5 -34.5t-53.5 -72 t-33.5 -117.5z" />
<glyph unicode="&#xfb03;" horiz-adv-x="1761" d="M-139 -524l16 102q20 -2 24.5 -3t16.5 -1q106 0 149.5 54.5t55.5 150.5l151 1116h-151l12 92l154 37l20 141q16 109 54 185.5t91.5 125t119 71t135.5 22.5q27 0 56.5 -3t51.5 -10l-16 -155q-12 16 -42 26.5t-69 10.5q-29 0 -63.5 -9.5t-66.5 -34t-56.5 -69.5t-34.5 -117 l-27 -184h443l24 162q14 109 56.5 185.5t99.5 124.5t124.5 70.5t137.5 22.5q43 0 107.5 -6t124 -27.5t102.5 -60t43 -104.5q0 -49 -31 -92.5t-84 -43.5q-45 0 -65.5 29t-20.5 74q0 39 -20.5 60.5t-50 31.5t-63.5 11t-60 1q-29 0 -67 -9t-73.5 -34.5t-64.5 -72t-39 -117.5 l-29 -205h203q78 0 122 4t70.5 9t47 9.5t51.5 4.5q47 0 71.5 -23.5t18.5 -75.5l-100 -759q-6 -47 -1 -76t56 -29q20 0 43.5 1t64.5 3l-8 -57q-53 -20 -113.5 -41t-119.5 -21q-47 0 -71.5 23.5t-18.5 75.5l112 823h-444l-158 -1165q-10 -68 -37.5 -118t-69.5 -82t-95.5 -47 t-112.5 -15q-20 0 -42 2t-50 6l16 102q20 -2 24.5 -3t16.5 -1q106 0 149.5 54.5t55.5 150.5l151 1116h-442l-158 -1165q-10 -68 -37.5 -118t-69.5 -82t-95.5 -47t-112.5 -15q-20 0 -42 2t-50 6z" />
<glyph unicode="&#xfb04;" horiz-adv-x="1783" d="M-139 -524l16 102q20 -2 24.5 -3t16.5 -1q106 0 149.5 54.5t55.5 150.5l151 1116h-151l12 92l154 37l20 141q16 109 54 185.5t91.5 125t119 71t135.5 22.5q27 0 56.5 -3t51.5 -10l-16 -155q-12 16 -42 26.5t-69 10.5q-29 0 -63.5 -9.5t-66.5 -34t-56.5 -69.5t-34.5 -117 l-27 -184h443l24 162q14 109 51 185.5t88.5 124.5t115 70.5t132.5 22.5h306q47 0 71.5 -23.5t18.5 -74.5l-176 -1298q-6 -47 -1 -76t54 -29q20 0 45.5 1t64.5 3l-8 -57q-55 -20 -115.5 -41t-119.5 -21q-45 0 -69 23.5t-17 75.5l112 823h-442l-158 -1165q-10 -68 -37.5 -118 t-69.5 -82t-95.5 -47t-112.5 -15q-20 0 -42 2t-50 6l16 102q20 -2 24.5 -3t16.5 -1q106 0 149.5 54.5t55.5 150.5l151 1116h-442l-158 -1165q-10 -68 -37.5 -118t-69.5 -82t-95.5 -47t-112.5 -15q-20 0 -42 2t-50 6zM1036 1024h443l47 346q4 37 -19.5 55.5t-62.5 26.5t-84 9 t-82 1q-29 0 -62.5 -9t-63.5 -34.5t-53.5 -72t-33.5 -117.5z" />
</font>
</defs>
</svg>
