<?xml version="1.0" encoding="utf-8"?>
<!-- Generator: Adobe Illustrator 16.0.0, SVG Export Plug-In . SVG Version: 6.00 Build 0)  -->
<!DOCTYPE svg PUBLIC "-//W3C//DTD SVG 1.1//EN" "http://www.w3.org/Graphics/SVG/1.1/DTD/svg11.dtd">
<svg version="1.1" id="Layer_1" xmlns="http://www.w3.org/2000/svg" xmlns:xlink="http://www.w3.org/1999/xlink" x="0px" y="0px"
	 width="200px" height="200px" viewBox="0 0 200 200" enable-background="new 0 0 200 200" xml:space="preserve">
<g>
	<path fill="#FFFFFF" d="M112.86,159.048c-0.223,0.021-0.038,0.343-0.172,0.594c-0.15,0.302-0.461,0.419-0.364,0.502
		c0.088,0.093,0.247,0,0.397-0.2C112.881,159.738,113.073,159.006,112.86,159.048 M114.546,156.333
		c-0.264,0-0.443,0.409-0.544,0.657c-0.093,0.292-0.694,0.275-0.636,0.48c0.055,0.205-0.076,0.641,0.055,0.803
		c0.112,0.185,0.07-0.176,0.347-0.414c0.268-0.201,0.54-0.728,0.61-0.916C114.42,156.76,114.788,156.308,114.546,156.333z
		 M111.216,163.875c-0.13,0.201,0,0.227-0.059,0.318c-0.075,0.104-0.477,0.251-0.359,0.439c0.1,0.18,0.217,0.108,0.297,0.18
		c0.079,0.07-0.272,0.803-0.168,0.803c0.097,0.047,0.23,0.109,0.406-0.363c0.184-0.535,0.025-0.553,0.017-0.762
		c0-0.205,0.088-0.652-0.029-0.636C111.216,163.875,111.216,163.875,111.216,163.875z M99.344,164.014
		c-0.069,0.158,0.196,0.451,0.103,0.594c-0.094,0.138-0.397,0.209-0.329,0.297c0.055,0.139,0.082,0.782,0.136,1.05
		c0.082,0.272,0.021,0.782,0.18,0.736c0.142-0.024-0.073-0.419,0.163-0.845c0.218-0.436,0.171-0.803,0.188-0.987
		c0.017-0.2,0.061-0.683-0.132-0.862C99.458,163.758,99.396,163.875,99.344,164.014z M98.042,160.193
		c-0.082,0-0.249,0.093-0.159,0.248c0.09,0.166,0.433,0.51,0.445,0.719c0.029,0.201,0,1.017-0.012,1.139
		c0,0.092-0.125,0.25-0.057,0.409c0.057,0.142,0.205,0,0.228-0.042c0.033-0.05-0.104-0.271-0.082-0.484
		c0.033-0.176,0.082-0.842,0.05-1c-0.059-0.159-0.038-0.687-0.153-0.808C98.187,160.261,98.109,160.211,98.042,160.193z
		 M100.377,158.889c-0.117,0.025-0.117,0.477-0.13,0.637c-0.008,0.137-0.008,0.551-0.111,0.551c-0.09-0.02-0.331,0-0.217,0.088
		c0.127,0.093,0.205,0.072,0.32,0c0.111-0.066,0.262-0.088,0.376-0.158c0.101-0.088,0.09-0.163,0.048-0.318
		C100.615,159.529,100.557,158.863,100.377,158.889z M98.672,158.32c-0.094,0.041-0.082,1.205-0.082,1.205s0.171,0.418,0.217,0.639
		c0.061,0.201-0.085,0.569-0.038,0.595c0.038,0.05,0.308-0.025,0.278,0.238c-0.025,0.247-0.232,0.134-0.299,0.264
		c-0.056,0.142,0.021,0.966,0.115,1.163c0.082,0.184,0.046,0.824,0.046,0.824s0.113,0.07,0.146-0.109
		c0.021-0.162-0.103-0.48-0.052-0.602c0.061-0.113,0.061-0.067,0.19,0.07c0.144,0.113,0.238,0.803,0.295,0.92
		c0.073,0.088,0.077,0.227,0.171,0.227c0.09,0,0.021-0.41,0-0.594c-0.013-0.184-0.048-0.687-0.048-0.687s-0.184,0.134-0.196,0
		c0-0.142-0.18-1.071-0.048-1.188c0.151-0.088,0.236,0.029,0.245-0.367c0.036-0.41,0.111-0.816,0.09-0.934
		c-0.008-0.112-0.245-0.347-0.218-0.459c0.008-0.135,0.159-0.758-0.061-0.732c-0.241,0.029-0.171,0.293-0.119,0.396
		c0.038,0.088,0.119,0.523,0.05,0.633c-0.042,0.117-0.193,0.092-0.222,0.021c-0.04-0.063-0.107-0.046-0.188,0
		c-0.078,0.075-0.09,0.029-0.106-0.181c-0.027-0.209,0.008-0.526,0.008-0.736C98.848,158.73,98.796,158.273,98.672,158.32z
		 M52.331,155.806c-0.099,0.108,0.048,0.108,0.138,0.185c0.09,0.05,0.103,0.502,0.278,0.455c0.167-0.024,0.224,0.072,0.224-0.05
		c0-0.088-0.261-0.292-0.297-0.36C52.619,156.002,52.331,155.806,52.331,155.806z M52.87,150.682c-0.111,0.07,0,0.293,0.069,0.367
		c0.057,0.043,0.232,0.293,0.262,0.185c0.04-0.075-0.042-0.209-0.09-0.326C53.05,150.803,52.931,150.635,52.87,150.682z
		 M52.313,148.757c-0.123,0.055,0.143,0.071,0.082,0.255c-0.082,0.189-0.188,0.527-0.188,0.711c0.013,0.131,0.025,0.369,0.085,0.369
		c0.025,0,0.159-0.264,0.167-0.398c0.025-0.129-0.052-0.225,0.038-0.409c0.122-0.185,0.09-0.288,0.023-0.41
		C52.46,148.812,52.313,148.757,52.313,148.757z M55.604,144.963c0,0,0.057,0.07,0.151,0.255c0.106,0.159,0.106,0.159,0.144,0.108
		c0.027-0.066,0.207-0.133,0.082-0.293c-0.115-0.137-0.32-0.233-0.32-0.209C55.647,144.824,55.604,144.963,55.604,144.963z
		 M55.202,144.666c-0.09,0.021-0.253,0.184-0.069,0.255c0.184,0.088,0.274-0.071,0.266-0.142
		C55.399,144.687,55.309,144.641,55.202,144.666z M55.378,143.595c-0.073,0-0.347,0-0.347,0.088c0,0.093,0.171,0.143,0.213,0.143
		c0.064,0.046,0.119,0.112,0.18,0.067C55.489,143.796,55.44,143.595,55.378,143.595z M52.771,153.325
		c-0.115-0.017-0.364,0.05-0.347,0.142c0.027,0.072,0.086,0.209,0.19,0.209c0.09,0,0.259-0.054,0.259-0.054
		S52.897,153.426,52.771,153.325z M52.996,149.493c-0.078,0.093-0.036,0.36,0.054,0.335c0.086,0,0.22-0.042,0.249-0.135
		c0.017-0.107,0-0.271,0-0.288C53.294,149.401,53.073,149.355,52.996,149.493z M53.796,151.547c-0.061,0.092-0.025,0.302,0.05,0.302
		c0.065-0.029,0.167-0.046,0.184-0.138c0.019-0.072,0-0.205,0-0.205C54.031,151.48,53.87,151.459,53.796,151.547z M54.733,153.35
		c-0.067,0.076-0.029,0.302,0.04,0.302c0.062-0.029,0.167-0.05,0.188-0.138c0.025-0.071,0-0.205,0-0.205
		C54.961,153.287,54.803,153.267,54.733,153.35z M55.972,141.699c-0.073,0.067-0.038,0.344,0.057,0.344
		c0.082,0,0.218-0.055,0.245-0.139c0.017-0.112,0.013-0.271,0-0.301C56.269,141.578,56.058,141.578,55.972,141.699z
		 M126.255,130.418c-0.432,0.447-0.72,1.012-0.941,1.581c0.222,0.368,0.51-0.293,0.51-0.159c-0.288,0.527-0.791,0.916-0.791,1.553
		c-0.054,0.572-0.568,0.803-0.422,1.355c-0.192,0.246-0.665,0.518-0.439,0.865c-0.188,0.264-0.514,0.594-0.271,0.938
		c-0.515,0.024-0.648,0.594-0.992,0.887c0.055,0.23,0.239,0.552,0.055,0.854l-0.134-0.302c-0.343,0.185-0.146,0.619,0.084,0.712
		c-0.084,0.409-1.021,0.887-0.46,1.438l-0.15-0.205c-0.314,0.322-0.465,0.892-0.276,1.339l-0.126-0.201
		c-0.158,0.782-0.48,1.715-1.15,2.284c0.088,0.757-0.552,1.214-0.51,1.966c-0.322,0.234-0.042,0.896-0.322,1.146l-0.465,0.924
		l-0.138-0.188c-0.192,0.188,0,0.732-0.192,1.021c-0.051,0.423-0.762,0.343-0.527,0.854l-0.234-0.088
		c-0.41,0.448-0.275,1.097-0.184,1.544c-0.134,0.322-0.134,0.439-0.092,0.807c-0.126-0.158-0.042-0.367-0.23-0.439
		c-0.381-0.088-0.334,0.277-0.431,0.527h0.05v0.318h-0.05c0-0.092-0.042-0.134-0.097-0.184c-0.088,0.138-0.23,0.184-0.188,0.367
		l0.284,0.047c-0.423,0.259,0.05,0.711-0.46,0.891c0.041-0.264,0.326-0.502,0.092-0.795c-0.477,0.227-0.368,0.861-0.744,1.23
		c0.121,0.041,0.033,0.271,0.225,0.229l0.093-0.092c-0.569,0.394,0.092,1.33-0.61,1.515c0,0.547-0.561,1.029-0.135,1.605
		c0,0.264-0.191,0.633-0.376,0.703c-0.661,0.686-0.72,1.824-1.272,2.469c-0.088,0-0.246,0-0.283-0.093
		c0.477-0.845,0.979-1.69,1.459-2.677l0.097-0.021l-0.151-0.205c-0.283,0.051-0.283,0.344-0.464,0.527l0.088,0.066
		c-0.828,0.39-0.804,1.465-1.447,1.992c0.042,0.184-0.092,0.477,0.176,0.623l0.092-0.117c0.101,0.163,0.188,0.297,0.146,0.544
		l-0.247,0.071c-0.041-0.18,0.067-0.359-0.088-0.447c-0.561-0.164-0.18,0.497-0.431,0.707c0.205,0.502-0.033,1.028,0.097,1.438
		c-0.465-0.368-0.377,0.276-0.607,0.414c0.285,0.209,0.135,0.569,0.185,0.896c-0.506,0.288-0.506-0.599-0.376-0.896
		c0.191-0.372,0.422-0.916,0.1-1.347c-0.979,0.711,0.193,1.849-0.703,2.677c-0.096,0.478,0.419,0.544,0.093,1.024
		c-0.093,0.478,0.185,1.076,0,1.603l-0.519-0.526c-0.326,0.25-0.051,0.757-0.242,1.054c0.045-0.093-0.088-0.159-0.193-0.255
		c-0.226,0.845-0.268,1.715-0.088,2.492c-0.088-0.049-0.138,0.113-0.238,0.201c-0.138,0.185,0.238,0.276,0,0.418l-0.28-0.188
		c0.201,0.368-0.28,0.941,0.201,1.264l0.271-0.23c-0.138,0.636,0.239,0.982,0,1.465v0.188c-0.271-0.46,0.239-1.213-0.531-1.422
		c-0.263,0.313-0.229,0.891-0.088,1.234h0.088v0.188c-0.364-0.092-0.317,0.359-0.364,0.611c-0.05,0.92,0.135,2.175-0.138,2.911
		c0.05-0.234-0.142-0.376-0.188-0.536c-0.138,0.348-0.473,0.448-0.284,0.762l0.192-0.134c0,0.8,0.092,2.171-0.427,2.991
		c-0.192-0.414-0.321-0.598-0.418-0.982c-0.569,0.66,0.368,1.326-0.343,1.852c-0.41,4.021-1.69,8.459-3.891,12.006
		c-0.372,0.318-0.804,0.816-0.753,1.369c-0.975,0.66-1.447,1.418-2.399,2.18c-0.416,0.887-1.548,1.297-2.259,1.873
		c-0.136-0.088-0.32-0.088-0.5-0.088c-0.571,0.633-0.989,1.389-1.222,2.234c-0.245,0.139-0.65,0.139-0.759,0.506
		c0.105-0.209-0.18-0.25-0.238-0.393c-0.318,0.066-0.318,0.367-0.699,0.393c-0.188,0.344-0.38-1.283-0.943-0.367l-0.517-0.549
		l-0.096,0.047c-0.65-0.57-0.799-1.326-1.117-2.125l-0.151,0.133c-0.422-0.367-0.274-0.986-0.508-1.463
		c-0.382-1.072-0.943-2.014-1.847-2.725c-0.364-1.393-1.59-2.719-2.198-4.115c-0.604-1.594-1.922-2.627-2.489-4.227
		c-0.924-1.086-1.493-2.51-2.424-3.676c-4.33-6.012-9.063-12.366-15.602-16.252c-1.554-1.469-3.752-2.406-5.687-3.117
		c-0.331-0.318-1.115-0.707-1.724-0.543c0.09-0.398-0.282-0.352-0.531-0.486h-0.316c-0.192-0.686-0.993,0-1.263-0.543
		c-0.625,0.18-0.665-0.854-1.136-0.302c-0.943,0.185-0.565-0.979-1.456-0.937c-0.707,0.184-1.36-0.227-1.885-0.687
		c-0.37,0-0.747-0.343-1.119-0.573c0-0.572-1.042-0.572-0.515-1.229c-0.098-0.272-0.479-0.181-0.621-0.097
		c0-0.129,0.048-0.313-0.098-0.435l0.098-0.067l0.274,0.272c0.379-0.226,0.379-0.753,0-1.029c0.523-0.522,0.523,0.824,1.046,0.121
		c0.429,0.201,0.981,0.435,1.46,0.318c-0.05-0.205-0.238-0.318-0.376-0.439c-0.424-0.251-1.169-0.205-1.366-0.711
		c-0.759,0.46-0.278-0.804-1.033-0.615v-0.222c0.09,0.088,0.188,0.23,0.334,0.134c0.184-0.046,0.09-0.229,0.09-0.313
		c0.655-0.055,1.083,0.451,1.554,0.088c0.228-0.139,0.801,0,1.123-0.201c0-0.05,0-0.184-0.09-0.234h-0.236
		c0-0.226,0-0.522-0.282-0.522c-0.09,0-0.192-0.021-0.243,0.108v0.143c-0.228-0.092-0.46-0.326-0.801-0.256
		c0-0.418-0.284,0.16-0.318-0.18c0.222-0.422,0.412,0,0.515-0.51c-0.197-0.841-1.65,0.088-1.372-1.117l0.343-0.234l-0.196-0.246
		c-0.184,0.209-0.282,0.133-0.523,0h-0.136c0.103-0.143,0.513-0.088,0.513-0.452c-0.038-0.163-0.274-0.298-0.184-0.522
		c0.094,0,0.184,0,0.245,0.088l0.184-0.143c-0.184-0.185-0.278-0.369-0.245-0.619l0.245-0.092c-0.046,0.142,0.098,0.209,0.192,0.234
		l0.228-0.139c-0.556,0-0.42-1.255-1.173-0.707c-0.282-0.548-0.883,0.113-1.029-0.603h0.241v0.101h0.316l0.094-0.645l0.284,0.293
		c-0.284,0.163-0.094,0.251,0,0.443l0.09,0.088c0.046-0.138,0.329-0.23,0.239-0.436l-0.192-0.175
		c0.903,0.435,1.545-0.034,2.443,0.083c-0.506-0.477-1.364-0.41-1.83-0.795l0.094-0.054l0.372,0.185l0.339-0.545l0.425,0.414
		c0.376-0.317,0.789-0.895,1.361-0.941c0.048,0.185-0.613,0.109-0.334,0.439c0.098,0.227,0.334,0.185,0.527,0.185
		c0.086-0.511,0.318-0.808,0-1.263l-0.393-0.272c0.09,0,0.249,0,0.287,0.075l0.228-0.238c-0.515-0.271-0.09-0.594-0.04-0.887
		c0.236-0.051,0.471-0.394,0.236-0.594l0.335,0.359c0.192-0.661,0.046-0.979,0.278-1.557c0.368-0.129,0.654,0.322,0.941-0.088
		c0.274,0.666,0.642-0.48,1.025,0.18c0.197-0.293,0.517-0.041,0.711-0.359c0.033,0.135,0.119,0.318,0.32,0.359
		c0.241-0.041,0.759,0.344,1.169,0c0.249,0.209,0.249,0.486,0.473,0.67c0.32-0.389,0.801,0.129,1.083-0.443
		c0.046,0.26,0.278,0.348,0.47,0.531l0.138-0.184c0.145,0.64,0.843,0.594,1.313,0.707c0.099-0.181,0.282-0.181,0.425-0.113
		c0.052,0.527,0.608,0.865,1.037,0.962c0.415-0.205,0.835,0.322,1.272,0.69l0.274-0.322c0.331,0.18,0.331,0.979,0.939,0.958
		c0.376-0.527,0.663,0.209,0.855,0.394l0.09-0.076c-0.197-0.108-0.061,0.511,0.228,0.511c0.38,0.264,0.895-0.259,0.937,0.431
		c0.759,0.071,1.177,1.033,1.834,1.125c0.433,1.364,2.106,0.842,2.736,1.875l0.27-0.088c0.375,0.698,1.226,0.728,1.696,1.409
		l0.28-0.108c2.437,1.326,3.847,3.426,5.581,5.693c1.173,0.456,0.891,2.15,2.223,2.535c0.318-0.477,0.134-1.213,0.188-1.694
		c-0.801-5.97,0.38-11.567,0-17.54c0.745-2.013-0.655-4.363,1.357-5.761c1.364-0.385,0.699-2.222,2.349-2.101
		c-0.18-0.824,0.741-0.137,0.937-0.711c0.661,0.461,0.699-0.891,1.362-0.184c0.241-0.297,0.42-1.188,1.033-0.753
		c1.41,0.702,2.711-0.093,3.941,1.468l0.192-0.213c0.661,0.619,1.27,1.715,2.296,1.557c0.282,1.418,1.885,2.309,2.738,3.334
		c-0.052,0.781,0.647,1.396,0.891,2.175c0.423,1.259,0.883,2.585,0.938,3.841l-0.43,0.594c0.241,2.468-0.466,4.476-0.09,6.635
		c-0.094,0.614-0.286,1.326-0.336,1.873l-0.086-0.074c-0.199,0.393-0.331,0.865-0.289,1.393c-0.234,0.275-0.131,0.846-0.521,1.075
		v0.603c-0.082,0.066-0.082-0.029-0.13-0.076c-0.144,1.168-0.192,2.201,0.052,3.297l0.18-0.184c0.144,0.066,0.09,0.226,0.09,0.363
		c-0.322,0.025-0.048,0.506-0.27,0.758c0.042,0.025,0.082,0.07,0.18,0.07c0.09-0.176,0.09-0.414,0.287-0.598
		c0.27,0.553-0.467,1.557,0.131,1.74c0.139,0.895-0.561,1.279-0.65,2.054c-0.192-0.313-0.061-0.711-0.192-1.033l-0.245,0.536
		c-0.09,0.937,0.094,2.07,0.155,3.016l0.192-0.113c2.343-7.613,6.894-14.549,11.396-20.949c3.43-4.961,8.086-8.551,12.633-11.98
		c1.268-1.164,2.359-2.724,3.338-4.279C127.572,128.176,126.066,128.938,126.255,130.418z"/>
	<polyline fill="#FFFFFF" points="47.601,147.461 47.53,147.553 47.645,147.661 47.796,147.553 47.601,147.461 	"/>
	<polyline fill="#FFFFFF" points="47.093,146.406 47.007,146.498 47.13,146.632 47.273,146.473 47.093,146.406 	"/>
	<polyline fill="#FFFFFF" points="51.65,142.996 51.569,143.084 51.697,143.201 51.834,143.068 51.65,142.996 	"/>
	<polyline fill="#FFFFFF" points="49.5,143.503 49.419,143.595 49.542,143.708 49.685,143.595 49.5,143.503 	"/>
	<polyline fill="#FFFFFF" points="46.553,152.719 46.317,152.693 46.346,152.928 46.562,152.928 46.553,152.719 	"/>
	<polyline fill="#FFFFFF" points="49.109,144.164 48.925,144.277 49.132,144.457 49.302,144.277 49.109,144.164 	"/>
	<polyline fill="#FFFFFF" points="48.21,144.615 48.013,144.721 48.227,144.896 48.39,144.721 48.21,144.615 	"/>
	<polyline fill="#FFFFFF" points="46.505,151.346 46.317,151.434 46.526,151.618 46.698,151.434 46.505,151.346 	"/>
	<polyline fill="#FFFFFF" points="50.69,150.635 50.601,150.777 50.747,150.861 50.866,150.752 50.69,150.635 	"/>
	<polyline fill="#FFFFFF" points="48.287,147.661 48.214,147.758 48.344,147.861 48.476,147.732 48.287,147.661 	"/>
	<polyline fill="#FFFFFF" points="52.023,143.043 51.843,143.156 52.048,143.344 52.207,143.156 52.023,143.043 	"/>
	<polyline fill="#FFFFFF" points="49.852,154.086 49.672,154.183 49.877,154.367 50.032,154.183 49.852,154.086 	"/>
	<polyline fill="#FFFFFF" points="48.214,149.945 48.03,150.066 48.241,150.25 48.402,150.066 48.214,149.945 	"/>
	<polyline fill="#FFFFFF" points="47.053,151.506 46.865,151.568 47.081,151.752 47.246,151.568 47.053,151.506 	"/>
	<polyline fill="#FFFFFF" points="54.761,142.285 54.581,142.356 54.786,142.541 54.94,142.356 54.761,142.285 	"/>
	<polyline fill="#FFFFFF" points="50.253,143.754 50.069,143.825 50.278,144.034 50.441,143.825 50.253,143.754 	"/>
	<polyline fill="#FFFFFF" points="48.344,149.539 47.547,149.259 47.601,149.493 48.241,149.674 48.344,149.539 	"/>
	<polyline fill="#FFFFFF" points="49.615,145.051 48.827,144.824 48.904,145.033 49.53,145.193 49.615,145.051 	"/>
	<polyline fill="#FFFFFF" points="48.07,153.584 47.151,153.217 47.204,153.472 47.984,153.719 48.07,153.584 	"/>
	<polyline fill="#FFFFFF" points="51.259,148.284 50.335,147.967 49.927,148.004 50.253,148.163 51.329,148.489 51.548,148.439 
		51.259,148.284 	"/>
	<path fill="#FFFFFF" d="M48.442,150.999l-1.012-0.317c0,0-0.337-0.067-0.337,0.046c0,0.134,0.496,0.251,0.496,0.251l1.05,0.343
		l0.073-0.159L48.442,150.999"/>
	<path fill="#FFFFFF" d="M48.421,146.652l0.341-0.221c0,0,0.184,0.334,0.305,0.518c0.107,0.185,0.496,0.093,0.496,0.093l-0.054-0.2
		l-0.441-0.344l-0.163-0.477c0,0-0.232,0.021-0.322,0.088c-0.103,0.07-0.266,0.393-0.266,0.393L48.421,146.652"/>
	<polyline fill="#FFFFFF" points="50.952,144.85 50.732,144.988 50.458,144.941 50.458,145.051 50.208,145.218 50.617,145.674 
		50.707,145.234 51.021,145.168 51.145,144.774 50.952,144.85 	"/>
	<path fill="#FFFFFF" d="M110.521,171.99c0.05,0,0.101-0.112,0.101-0.25c0-0.143-0.055-0.227-0.101-0.227
		c-0.05,0-0.101,0.084-0.101,0.227C110.421,171.878,110.472,171.99,110.521,171.99"/>
	<path fill="#FFFFFF" d="M110.663,172.719c0.067,0,0.113-0.088,0.113-0.18s-0.051-0.18-0.113-0.18s-0.112,0.088-0.112,0.18
		S110.604,172.719,110.663,172.719"/>
	<path fill="#FFFFFF" d="M116.779,153.426c0.059,0.021,0.151-0.051,0.192-0.113c0.059-0.117,0.047-0.205-0.004-0.234
		c-0.055-0.021-0.139,0.029-0.197,0.113C116.729,153.287,116.729,153.375,116.779,153.426"/>
	<polyline fill="#FFFFFF" points="50.648,155.668 50.576,155.76 50.69,155.844 50.841,155.734 50.648,155.668 	"/>
	<polyline fill="#FFFFFF" points="49.988,155.3 49.927,155.416 50.048,155.504 50.172,155.392 49.988,155.3 	"/>
	<polyline fill="#FFFFFF" points="51.941,153.948 51.864,154.045 51.979,154.153 52.129,154.045 51.941,153.948 	"/>
	<polyline fill="#FFFFFF" points="51.274,153.877 51.205,154.02 51.329,154.111 51.45,153.998 51.274,153.877 	"/>
	<polyline fill="#FFFFFF" points="49.971,149.401 49.89,149.539 50.009,149.605 50.155,149.519 49.971,149.401 	"/>
	<polyline fill="#FFFFFF" points="51.406,149.381 51.329,149.519 51.443,149.605 51.586,149.469 51.406,149.381 	"/>
	<polyline fill="#FFFFFF" points="51.466,148.996 51.397,149.1 51.508,149.201 51.659,149.084 51.466,148.996 	"/>
	<polyline fill="#FFFFFF" points="51.055,148.996 50.977,149.125 51.111,149.217 51.226,149.1 51.055,148.996 	"/>
	<polyline fill="#FFFFFF" points="51.274,150.728 51.205,150.84 51.329,150.961 51.45,150.819 51.274,150.728 	"/>
	<polyline fill="#FFFFFF" points="52.395,145.469 52.313,145.561 52.439,145.674 52.583,145.561 52.395,145.469 	"/>
	<polyline fill="#FFFFFF" points="54.537,143.406 54.472,143.503 54.585,143.595 54.725,143.482 54.537,143.406 	"/>
	<polyline fill="#FFFFFF" points="54.027,143.322 53.945,143.406 54.075,143.52 54.211,143.406 54.027,143.322 	"/>
	<polyline fill="#FFFFFF" points="52.46,143.938 52.378,144.047 52.494,144.143 52.644,144.034 52.46,143.938 	"/>
	<polyline fill="#FFFFFF" points="52.631,143.57 52.452,143.641 52.665,143.825 52.82,143.641 52.631,143.57 	"/>
	<polyline fill="#FFFFFF" points="49.938,148.209 49.747,148.284 49.954,148.465 50.122,148.284 49.938,148.209 	"/>
	<polyline fill="#FFFFFF" points="49.582,147.967 48.802,147.732 48.831,147.979 49.481,148.1 49.582,147.967 	"/>
	<polyline fill="#FFFFFF" points="51.994,145.264 51.508,145.009 51.557,145.234 51.904,145.398 51.994,145.264 	"/>
	<polyline fill="#FFFFFF" points="49.212,148.414 49.132,148.531 49.264,148.623 49.398,148.506 49.212,148.414 	"/>
	<polyline fill="#FFFFFF" points="53.596,144.758 53.514,144.875 53.638,144.988 53.771,144.85 53.596,144.758 	"/>
	<polyline fill="#FFFFFF" points="52.138,144.988 52.494,145.143 52.619,144.721 52.232,144.615 52.138,144.988 	"/>
	<polyline fill="#FFFFFF" points="52.722,143.018 52.529,143.084 52.751,143.269 52.906,143.084 52.722,143.018 	"/>
	<polyline fill="#FFFFFF" points="51.749,143.85 51.569,143.938 51.774,144.117 51.937,143.938 51.749,143.85 	"/>
	<polyline fill="#FFFFFF" points="55.309,141.395 55.125,141.486 55.321,141.675 55.484,141.486 55.309,141.395 	"/>
	<polyline fill="#FFFFFF" points="53.351,143.139 53.171,143.227 53.368,143.406 53.531,143.227 53.351,143.139 	"/>
	<polyline fill="#FFFFFF" points="53.548,143.186 53.364,143.269 53.568,143.457 53.723,143.269 53.548,143.186 	"/>
	<polyline fill="#FFFFFF" points="54.259,142.654 54.075,142.75 54.275,142.93 54.438,142.75 54.259,142.654 	"/>
	<polyline fill="#FFFFFF" points="53.707,142.675 53.625,142.791 53.749,142.859 53.891,142.75 53.707,142.675 	"/>
	<polyline fill="#FFFFFF" points="51.904,145.674 51.243,145.218 51.291,145.469 51.81,145.791 51.904,145.674 	"/>
	<polyline fill="#FFFFFF" points="49.877,146.929 49.685,147.017 49.829,147.092 49.975,147.017 49.877,146.929 	"/>
	<polyline fill="#FFFFFF" points="50.241,153.539 50.048,153.656 50.193,153.693 50.343,153.631 50.241,153.539 	"/>
	<polyline fill="#FFFFFF" points="52.207,152.041 52.023,152.096 52.155,152.188 52.313,152.078 52.207,152.041 	"/>
	<polyline fill="#FFFFFF" points="50.78,148.812 50.584,148.895 50.732,148.967 50.879,148.854 50.78,148.812 	"/>
	<polyline fill="#FFFFFF" points="52.408,151.711 52.22,151.803 52.424,151.982 52.583,151.803 52.408,151.711 	"/>
	<polyline fill="#FFFFFF" points="49.73,149.854 48.871,149.605 48.39,149.564 48.622,149.786 49.685,150.108 50,149.971 
		49.73,149.854 	"/>
	<polyline fill="#FFFFFF" points="50.253,151.233 50.069,151.321 50.278,151.506 50.441,151.321 50.253,151.233 	"/>
	<polyline fill="#FFFFFF" points="49.975,151.568 49.795,151.66 50,151.849 50.159,151.66 49.975,151.568 	"/>
	<polyline fill="#FFFFFF" points="51.145,154.551 50.96,154.635 51.178,154.822 51.341,154.635 51.145,154.551 	"/>
	<polyline fill="#FFFFFF" points="49.582,152.744 49.371,152.807 49.509,153.037 49.718,152.99 49.582,152.744 	"/>
	<polyline fill="#FFFFFF" points="49.685,153.312 49.62,153.472 49.747,153.631 49.938,153.426 49.685,153.312 	"/>
	<polyline fill="#FFFFFF" points="48.582,152.162 48.528,152.279 48.651,152.488 48.831,152.305 48.582,152.162 	"/>
	<polyline fill="#FFFFFF" points="51.205,153.426 50.458,153.057 50.506,153.312 51.111,153.56 51.205,153.426 	"/>
	<polyline fill="#FFFFFF" points="52.529,152.305 52.331,152.396 52.554,152.584 52.713,152.396 52.529,152.305 	"/>
	<polyline fill="#FFFFFF" points="48.369,153.656 48.176,153.719 48.39,153.928 48.549,153.719 48.369,153.656 	"/>
	<path fill="#FFFFFF" d="M50.69,150.38c0.376,0.117,0.588,0.444,0.925,0.025L50.69,150.38"/>
	<path fill="#FFFFFF" d="M51.192,152.873c-0.134,0.26,0.136,0.143,0.23,0.26v-0.163C51.389,152.832,51.282,152.873,51.192,152.873"
		/>
	<path fill="#FFFFFF" d="M51.611,156.445v0.293h0.184C51.795,156.58,51.659,156.562,51.611,156.445"/>
	<polyline fill="#FFFFFF" points="48.831,154.338 48.639,154.43 48.862,154.613 49.02,154.43 48.831,154.338 	"/>
	<polyline fill="#FFFFFF" points="50.523,154.388 50.343,154.471 50.548,154.66 50.707,154.471 50.523,154.388 	"/>
	<polyline fill="#FFFFFF" points="51.111,155.504 50.927,155.597 51.136,155.806 51.291,155.597 51.111,155.504 	"/>
	<polyline fill="#FFFFFF" points="53.33,143.641 53.15,143.754 53.351,143.938 53.514,143.754 53.33,143.641 	"/>
	<polyline fill="#FFFFFF" points="50.78,154.998 50.592,155.115 50.793,155.3 50.96,155.115 50.78,154.998 	"/>
	<polyline fill="#FFFFFF" points="50.891,156.148 50.707,156.236 50.918,156.421 51.075,156.236 50.891,156.148 	"/>
	<polyline fill="#FFFFFF" points="49.843,144.344 49.653,144.457 49.869,144.641 50.027,144.457 49.843,144.344 	"/>
	<polyline fill="#FFFFFF" points="50.485,144.507 50.301,144.6 50.506,144.774 50.678,144.6 50.485,144.507 	"/>
	<polyline fill="#FFFFFF" points="51.042,145.398 50.862,145.511 51.055,145.695 51.226,145.511 51.042,145.398 	"/>
	<polyline fill="#FFFFFF" points="50.241,150.016 50.057,150.108 50.253,150.293 50.425,150.108 50.241,150.016 	"/>
	<polyline fill="#FFFFFF" points="52.015,151.434 51.834,151.53 52.048,151.711 52.207,151.53 52.015,151.434 	"/>
	<polyline fill="#FFFFFF" points="52.354,152.371 52.155,152.438 52.378,152.623 52.542,152.438 52.354,152.371 	"/>
	<polyline fill="#FFFFFF" points="50.747,152.693 50.559,152.785 50.78,152.965 50.927,152.785 50.747,152.693 	"/>
	<polyline fill="#FFFFFF" points="53.891,143.912 53.707,143.98 53.907,144.164 54.075,143.98 53.891,143.912 	"/>
	<polyline fill="#FFFFFF" points="54.761,141.859 54.581,141.947 54.786,142.131 54.94,141.947 54.761,141.859 	"/>
	<polyline fill="#FFFFFF" points="50.998,143.85 50.81,143.938 51.021,144.117 51.178,143.938 50.998,143.85 	"/>
	<polyline fill="#FFFFFF" points="49.247,150.907 49.072,150.999 49.276,151.184 49.431,150.999 49.247,150.907 	"/>
	<polyline fill="#FFFFFF" points="50.768,149.259 50.584,149.355 50.78,149.539 50.952,149.355 50.768,149.259 	"/>
	<polyline fill="#FFFFFF" points="49.362,151.346 49.178,151.459 49.383,151.639 49.555,151.459 49.362,151.346 	"/>
	<polyline fill="#FFFFFF" points="48.116,151.957 47.371,151.618 47.43,151.849 48.021,152.096 48.116,151.957 	"/>
	<polyline fill="#FFFFFF" points="49.787,152.438 48.904,152.146 48.961,152.371 49.688,152.605 49.787,152.438 	"/>
	<path fill="#FFFFFF" d="M50.122,154.936c0,0-0.554-0.348-0.751-0.348c-0.192,0,0.048,0.234,0.048,0.234l0.613,0.252L50.122,154.936
		"/>
	<path fill="#FFFFFF" d="M49.398,146.223l-0.027,0.43l0.232-0.18c0,0,0.14,0.113,0.287,0.113c0.18,0,0.475-0.046,0.475-0.046
		l-0.063-0.159c0,0-0.232,0.088-0.347,0c-0.121-0.092-0.351-0.158-0.351-0.158H49.398"/>
	<polyline fill="#FFFFFF" points="49.938,145.168 49.869,145.326 50.082,145.469 50.082,145.193 49.938,145.168 	"/>
	<path fill="#FFFFFF" d="M53.05,144.395l-0.247,0.088c0,0-0.073,0.238,0.054,0.254c0.098,0.025,0.207-0.117,0.207-0.117
		L53.05,144.395"/>
	<polyline fill="#FFFFFF" points="51.178,151.547 51.603,151.547 51.63,151.393 51.218,151.346 51.178,151.547 	"/>
	<polyline fill="#FFFFFF" points="50.082,152.605 50.306,152.693 50.425,152.584 50.027,152.463 50.082,152.605 	"/>
	<polyline fill="#FFFFFF" points="48.925,152.584 48.888,152.744 48.994,152.898 49.178,152.719 48.925,152.584 	"/>
	<polyline fill="#FFFFFF" points="50.96,151.162 50.506,151.07 50.707,151.321 50.96,151.162 	"/>
	<polyline fill="#FFFFFF" points="51.406,145.791 51.291,146.084 51.659,146.105 51.406,145.791 	"/>
	<path fill="#FFFFFF" d="M132.542,0.432c0,0.619,0.201,1.418-0.511,1.694c-0.452,0.042-1.062,0.088-1.255-0.527
		c0.059-0.552-0.188-1.259,0.511-1.577C131.755,0.022,132.32-0.141,132.542,0.432"/>
	<path fill="#FFFFFF" d="M139.523,4.251c-0.097,0.682-0.368,1.556-1.159,1.731c-0.426,0.025-0.832-0.042-1.121-0.364
		c-0.359-0.477-0.543-1.05-0.61-1.594c0.427-0.778,0.478-1.97,1.531-2.242C139.427,1.984,139.34,3.306,139.523,4.251"/>
	<path fill="#FFFFFF" d="M152.747,13.463c0.937,1.217,0.594,2.953,0.937,4.438c-0.096,1.075-0.982,1.669-1.874,2.079
		c-1.347,0.247-2.735,0.389-3.259,1.92c-0.414,1.581-2.514,2.334-2.455,4.141c-0.938,2.535-2.694,4.849-4.669,6.882
		c-0.92,1.439-1.581,3.037-2.727,4.367c-0.988,2.192-1.975,4.258-1.457,6.906c0.745,1.899,0.921,4.008,1.774,5.857
		c0.176,1.581,2.083,2.422,2.229,4.003c0.515,2.1-0.096,4.096-1.108,5.761c-0.515,1.075-0.431,2.196-0.431,3.321
		c2.794,3.497,1.162,8.274,0.74,12.391c0.703,1.439,1.966,3.083,0.979,4.823c-0.502,1.95-2.041,3.522-2.317,5.577
		c-1.397,1.966,0.134,5.354-2.288,6.651c-1.352,1.352-1.807,3.092-2.781,4.602c-2.427,4.07-5.268,8.023-8.886,11.521
		c-0.653,0.92-1.535,2.078-2.468,2.886c-3.64,4.041-8.232,6.97-12.98,8.818c-4.101,2.292-8.653,3.966-13.554,3.827h-2.784
		c-0.462-0.736-1.722-1.309-1.113-2.292c-0.981-0.819-2.514-0.548-3.671-0.594c-0.878,0.757-1.818-0.134-2.661,0.757
		c0.707,0.368-0.236,0.778,0.09,1.209c-0.883,0.066-1.907-0.572-2.878-0.113c-1.54-0.18-3.351-0.205-4.838-0.728
		c-2.792-1.351-5.123-3.431-7.586-5.446c-4.608-3.539-4.374-9.212-6.892-13.717c-0.875-1.256-1.161-3-1.619-4.347
		c0-0.728-0.609-1.255-0.763-1.962c-2.073-3.154-2.973-7.162-3.148-10.977c0.318,0,0.175-0.36,0.364-0.502
		c-0.046-1.033-0.32-2.062-0.09-3.087c0.09-0.82-0.23-1.761,0.138-2.514c-0.652-0.736-0.048-2.033-0.502-2.744
		c-0.061-0.548-0.286-1.255,0.09-1.761c-0.05-0.456-0.245-0.979-0.151-1.389c0.151,0.385,0.669,0.452,1.021,0.268l0.47-0.389
		c0.638-1.096,0.094-2.769,1.496-3.384c0.466-0.226,0.09-1.004,0.552-1.439c-0.086-0.41,0.417-0.598,0.471-1.004
		c-0.09-1.485,0.184-3.451-0.282-4.936c-0.368-3.205,0.562-6.292,1.543-9.174c1.443-3.548,2.928-7.02,4.227-10.659
		c1.757-2.928,2.554-6.43,4.786-8.969c0.831-1.828,2.012-3.522,3.213-5.024c0.471,0.021,0.512-0.481,0.791-0.736h0.232
		c0.102,0.623-1.063,1.305-0.143,1.744c0.711-1.359,1.625-3.075,3.213-3.572c0.378-0.439,1.165-0.527,1.359-1.238
		c0.09-1.33,1.807-2.447,0.684-3.886c-0.462-0.749-1.529-1.188-1.203-2.146c0.274-0.502,0.834-0.686,1.387-0.753
		c0.473,0.109,0.789,0.456,0.981,0.841c0.274,0.845-0.65,1.602-0.042,2.38c0.283,1.029-0.184,2.167,0.042,3.066
		c-0.226,0.933-0.834,2.1-0.226,3.062c0.034-0.138,0.226-0.046,0.32-0.088c-0.042,1.782-0.65,3.539,0.18,5.112
		c0.939,0.301,1.071,1.355,2.052,1.561c0.232,0.41,0.891,0.64,1.36,0.41c0.548-0.23,1.104-0.548,1.713-0.736
		c0.466,1.439-0.082,3.159-0.883,4.321c-0.098,0.51-0.466,0.966-0.322,1.623c0.567,0.418,0.326,1.397,0.506,2.271
		c0.467,1.025,1.059,2.079,1.954,2.903c0.981-0.845,1.82-1.878,2.048-3.091c0.09-0.322,0.565-0.41,0.843-0.222
		c0.793,0.891-0.621,1.527-0.933,2.284c-0.283,1.029-1.213,1.945-0.845,2.966c0.661,0.807,0.755,1.811,1.543,2.568
		c0.557-0.326,0.557,0.979,1.023,0.18c0.412-0.05,0.883-0.05,1.165,0.314c0.09,0.255-0.148,0.577,0.184,0.686
		c0.747-0.544,1.851-0.87,2.228-1.874c0.601,0.042,0.471-0.757,0.931-1.029c1.255-1.351,1.857-2.999,3.213-4.321
		c0.059-0.573,0.757-0.983,0.618-1.694c0.598-0.41,0.188-1.209,0.409-1.715c0.519-1.092,0.519-2.217,0.327-3.476
		c-0.097-1.234,0.321-2.514-0.643-3.518c-0.617-0.435-1.441-0.917-1.724-1.673c-0.423-1.033,0.378-1.711,0.322-2.652
		c2.755-1.397,1.312-4.644,3.487-6.128c0.61-0.134,1.339-0.134,1.815,0.364c0.879,1.352-0.184,2.744-0.092,4.233
		c0.242,1.343,1.724,2.598,0.703,4.091c-0.703,1.715-0.703,3.84-0.795,5.664c0.092,0.255,0.092,0.527,0.33,0.711
		c0.047-0.318,0.364-0.272,0.599-0.272c0.982-1.117,1.401-2.376,2.48-3.405c0.686,0.247,1.435,0,1.803-0.598
		c1.209-0.933-1.07-2.719,0.92-3.309c0.527-0.046,0.941,0.226,1.172,0.703c0.092,0.757-0.046,1.397-0.519,1.945
		c0.15,2.657-1.941,6.856,1.497,8.417c2.758,1.648,0.754,4.844,1.08,7.588c0.912,0.941,2.354,0.941,3.346,1.941
		c0.824-0.389,1.071-1.46,1.762-2.129c1.762-1.326,3.204-3.472,5.451-4.091c1.898-1.443,4.417-2.129,5.723-4.229
		c1.301-1.761,2.697-3.64,4.225-5.217c0.619-2.15,3.078-2.401,4.422-3.999c1.033-2.33,2.054-4.706,3.911-6.697
		c1.255-1.443,1.029-3.48,2.233-4.94c0.557-2.288-0.409-6.083,2.786-6.635C149.902,13.007,151.676,12.346,152.747,13.463"/>
	<path fill="#FFFFFF" d="M137.014,16.6c-0.226,0.962,0.229,2.259-0.506,3.15c-0.276,0.234-0.603,0.418-1.038,0.347
		c-0.264-0.753-0.176-1.832-0.088-2.627C135.759,16.964,136.269,15.412,137.014,16.6"/>
	<path fill="#FFFFFF" d="M114.026,17.721c0.662,0.544,0.201,1.51,0.102,2.217c-0.285,0.506-0.846,1.079-1.452,1.079
		c-1.255-0.787,0.288-2.154-0.698-3.091c-0.051-0.389,0.376-0.728,0.744-0.456C112.997,17.926,113.7,17.604,114.026,17.721"/>
	<path fill="#FFFFFF" d="M125.94,20.783c-0.602,1.397,0.41,4.184-1.857,4.137c-1.447-1.021-0.284-2.782,0-4.037
		C124.497,20.415,125.622,19.805,125.94,20.783"/>
	<path fill="#FFFFFF" d="M87.457,23.569c-0.042,0.803,0.241,1.812-0.561,2.242c-0.657-0.109-1.577,0.23-1.719-0.615
		c-0.333-0.774,0.554-1.117,0.613-1.761C86.154,23.113,87.229,22.862,87.457,23.569"/>
	<path fill="#FFFFFF" d="M112.813,25.883c0.15,0.874-0.041,1.69-0.836,2.108c-0.557,0.129-1.436,0.272-1.716-0.418
		c0-0.707,0-1.439,0.368-2.054C111.183,25.017,112.538,25.017,112.813,25.883"/>
	<path fill="#FFFFFF" d="M94.34,33.814c-0.094,0.732,0.376,1.899-0.745,1.991c-0.792,0.113-1.731,0-1.958-0.824
		c0.046-0.645-0.18-1.464,0.51-1.878C92.943,33.199,94.021,32.781,94.34,33.814"/>
	<path fill="#FFFFFF" d="M95.562,39.482c0.217,0.435-0.061,0.828-0.245,1.217c-0.65,0.803-1.443,0.548-2.33,0.502
		c-0.466-0.234-0.466-0.92-0.322-1.397c0.138-0.456,0.364-0.933,0.837-1.142C94.291,38.416,95.37,38.55,95.562,39.482"/>
	<path fill="#FFFFFF" d="M86.533,123.565v0.063l-0.241-0.135C86.353,123.565,86.442,123.565,86.533,123.565"/>
</g>
</svg>
