<?xml version="1.0" encoding="utf-8"?>
<!-- Generator: Adobe Illustrator 16.0.0, SVG Export Plug-In . SVG Version: 6.00 Build 0)  -->
<!DOCTYPE svg PUBLIC "-//W3C//DTD SVG 1.1//EN" "http://www.w3.org/Graphics/SVG/1.1/DTD/svg11.dtd">
<svg version="1.1" id="Layer_1" xmlns="http://www.w3.org/2000/svg" xmlns:xlink="http://www.w3.org/1999/xlink" x="0px" y="0px"
	 width="138.075px" height="46.686px" viewBox="0 0 138.075 46.686" enable-background="new 0 0 138.075 46.686"
	 xml:space="preserve">
<g>
	<path fill="#FFFFFF" d="M15.534,37.129c-0.052,0.005-0.009,0.08-0.04,0.139c-0.035,0.07-0.107,0.097-0.085,0.117
		c0.02,0.021,0.058,0,0.093-0.047C15.539,37.29,15.584,37.119,15.534,37.129 M15.928,36.495c-0.062,0-0.104,0.096-0.127,0.154
		c-0.021,0.068-0.162,0.064-0.148,0.112c0.012,0.048-0.018,0.149,0.012,0.187c0.027,0.043,0.017-0.041,0.081-0.096
		c0.062-0.047,0.126-0.17,0.142-0.214C15.898,36.595,15.984,36.489,15.928,36.495z M15.15,38.256c-0.03,0.047,0,0.053-0.014,0.074
		c-0.017,0.025-0.11,0.059-0.083,0.103c0.023,0.042,0.05,0.025,0.069,0.042c0.019,0.016-0.063,0.187-0.039,0.187
		c0.022,0.011,0.053,0.026,0.095-0.085c0.043-0.125,0.005-0.129,0.003-0.177c0-0.048,0.021-0.153-0.006-0.149
		C15.15,38.256,15.15,38.256,15.15,38.256z M12.379,38.288c-0.016,0.037,0.046,0.106,0.024,0.139
		c-0.022,0.032-0.093,0.049-0.077,0.069c0.013,0.033,0.019,0.183,0.032,0.245c0.019,0.064,0.005,0.183,0.042,0.172
		c0.033-0.006-0.017-0.097,0.038-0.197c0.051-0.102,0.04-0.187,0.044-0.23c0.004-0.047,0.014-0.16-0.031-0.202
		C12.406,38.229,12.391,38.256,12.379,38.288z M12.075,37.397c-0.019,0-0.058,0.021-0.037,0.057
		c0.021,0.039,0.101,0.119,0.104,0.168c0.007,0.047,0,0.238-0.003,0.266c0,0.021-0.029,0.059-0.013,0.096
		c0.013,0.033,0.048,0,0.053-0.01c0.008-0.012-0.024-0.064-0.019-0.113c0.008-0.041,0.019-0.197,0.012-0.234
		c-0.014-0.037-0.009-0.16-0.036-0.188C12.109,37.412,12.091,37.401,12.075,37.397z M12.62,37.092
		c-0.027,0.006-0.027,0.111-0.03,0.148c-0.002,0.033-0.002,0.129-0.026,0.129c-0.021-0.005-0.077,0-0.051,0.021
		c0.03,0.021,0.048,0.016,0.075,0c0.026-0.016,0.061-0.021,0.088-0.037c0.023-0.021,0.021-0.038,0.011-0.074
		C12.676,37.241,12.662,37.086,12.62,37.092z M12.222,36.959c-0.022,0.01-0.019,0.281-0.019,0.281s0.04,0.098,0.051,0.15
		c0.014,0.047-0.02,0.133-0.009,0.139c0.009,0.011,0.072-0.006,0.065,0.055c-0.006,0.058-0.054,0.031-0.07,0.062
		c-0.013,0.033,0.005,0.225,0.027,0.271c0.019,0.043,0.011,0.193,0.011,0.193s0.026,0.016,0.034-0.026
		c0.005-0.038-0.024-0.112-0.012-0.14c0.014-0.027,0.014-0.016,0.044,0.016c0.034,0.027,0.056,0.188,0.069,0.215
		c0.017,0.021,0.018,0.053,0.04,0.053c0.021,0,0.005-0.096,0-0.139c-0.003-0.043-0.011-0.16-0.011-0.16s-0.043,0.031-0.046,0
		c0-0.033-0.042-0.25-0.011-0.277c0.035-0.021,0.055,0.006,0.057-0.086c0.008-0.096,0.026-0.191,0.021-0.218
		c-0.002-0.026-0.057-0.081-0.051-0.108c0.002-0.031,0.037-0.176-0.014-0.17c-0.056,0.006-0.04,0.068-0.028,0.092
		c0.009,0.021,0.028,0.122,0.012,0.148c-0.01,0.027-0.045,0.021-0.052,0.005c-0.009-0.015-0.025-0.011-0.044,0
		c-0.018,0.017-0.021,0.007-0.025-0.042c-0.006-0.049,0.002-0.123,0.002-0.172C12.263,37.055,12.251,36.948,12.222,36.959z
		 M1.404,36.372c-0.023,0.026,0.011,0.026,0.032,0.043c0.021,0.012,0.024,0.117,0.065,0.107c0.039-0.006,0.052,0.016,0.052-0.012
		c0-0.021-0.061-0.068-0.069-0.084C1.471,36.418,1.404,36.372,1.404,36.372z M1.53,35.176c-0.026,0.017,0,0.068,0.016,0.086
		c0.013,0.01,0.054,0.068,0.061,0.043c0.009-0.018-0.01-0.049-0.021-0.076C1.572,35.204,1.544,35.165,1.53,35.176z M1.4,34.727
		c-0.029,0.012,0.033,0.016,0.019,0.059C1.4,34.83,1.375,34.909,1.375,34.952c0.003,0.031,0.006,0.086,0.02,0.086
		c0.006,0,0.037-0.061,0.039-0.092c0.006-0.031-0.012-0.053,0.009-0.096c0.028-0.043,0.021-0.068,0.005-0.096
		C1.434,34.739,1.4,34.727,1.4,34.727z M2.168,33.841c0,0,0.013,0.017,0.035,0.06c0.025,0.037,0.025,0.037,0.034,0.025
		c0.006-0.016,0.048-0.031,0.019-0.068c-0.027-0.033-0.075-0.055-0.075-0.049C2.178,33.809,2.168,33.841,2.168,33.841z
		 M2.074,33.772c-0.021,0.005-0.059,0.043-0.016,0.059c0.043,0.021,0.064-0.016,0.062-0.033C2.12,33.777,2.099,33.766,2.074,33.772z
		 M2.115,33.522c-0.017,0-0.081,0-0.081,0.02c0,0.022,0.04,0.033,0.05,0.033c0.015,0.011,0.028,0.027,0.042,0.016
		C2.141,33.569,2.13,33.522,2.115,33.522z M1.507,35.793c-0.027-0.004-0.085,0.012-0.081,0.033c0.006,0.017,0.02,0.049,0.044,0.049
		c0.021,0,0.061-0.012,0.061-0.012S1.536,35.817,1.507,35.793z M1.559,34.899c-0.018,0.021-0.008,0.084,0.013,0.078
		c0.02,0,0.051-0.01,0.058-0.031c0.004-0.026,0-0.064,0-0.068C1.629,34.877,1.577,34.866,1.559,34.899z M1.746,35.378
		C1.732,35.4,1.74,35.448,1.758,35.448c0.015-0.006,0.039-0.01,0.043-0.032c0.004-0.016,0-0.048,0-0.048
		C1.801,35.363,1.763,35.358,1.746,35.378z M1.965,35.799c-0.016,0.018-0.007,0.07,0.009,0.07c0.015-0.006,0.039-0.011,0.044-0.032
		c0.006-0.016,0-0.048,0-0.048C2.018,35.784,1.981,35.78,1.965,35.799z M2.254,33.079c-0.017,0.016-0.009,0.08,0.013,0.08
		c0.019,0,0.051-0.012,0.057-0.032c0.004-0.026,0.003-0.063,0-0.07C2.323,33.051,2.274,33.051,2.254,33.079z M18.661,30.446
		c-0.101,0.104-0.168,0.236-0.22,0.369c0.052,0.086,0.119-0.069,0.119-0.037c-0.067,0.123-0.184,0.213-0.184,0.362
		c-0.012,0.134-0.133,0.187-0.099,0.316c-0.044,0.058-0.155,0.121-0.102,0.202c-0.044,0.062-0.12,0.139-0.063,0.219
		c-0.121,0.006-0.152,0.139-0.232,0.207c0.013,0.054,0.055,0.129,0.013,0.199l-0.032-0.07c-0.08,0.043-0.034,0.145,0.02,0.166
		c-0.02,0.096-0.238,0.207-0.108,0.336l-0.034-0.048c-0.074,0.075-0.109,0.208-0.065,0.313l-0.03-0.047
		c-0.037,0.182-0.112,0.4-0.268,0.533c0.021,0.177-0.129,0.283-0.119,0.459c-0.076,0.055-0.01,0.209-0.076,0.268l-0.108,0.215
		l-0.032-0.044c-0.045,0.044,0,0.171-0.045,0.239c-0.012,0.098-0.177,0.08-0.123,0.199l-0.054-0.021
		c-0.096,0.105-0.065,0.256-0.043,0.361c-0.032,0.075-0.032,0.102-0.022,0.188c-0.03-0.037-0.01-0.086-0.054-0.102
		c-0.089-0.021-0.078,0.064-0.1,0.123h0.011v0.074h-0.011c0-0.021-0.01-0.031-0.023-0.043c-0.021,0.032-0.054,0.043-0.044,0.086
		l0.067,0.011c-0.099,0.06,0.011,0.166-0.108,0.208c0.01-0.062,0.076-0.117,0.021-0.186c-0.11,0.053-0.085,0.201-0.173,0.287
		c0.028,0.01,0.008,0.064,0.052,0.054l0.022-0.021c-0.133,0.091,0.021,0.31-0.142,0.353c0,0.128-0.131,0.24-0.032,0.375
		c0,0.062-0.044,0.148-0.088,0.164c-0.154,0.16-0.168,0.426-0.296,0.576c-0.021,0-0.058,0-0.067-0.021
		c0.111-0.197,0.229-0.395,0.341-0.625l0.022-0.005l-0.035-0.048c-0.066,0.012-0.066,0.08-0.108,0.123l0.021,0.016
		c-0.194,0.091-0.188,0.342-0.339,0.465c0.01,0.043-0.021,0.111,0.041,0.145l0.022-0.027c0.023,0.038,0.044,0.069,0.034,0.127
		l-0.057,0.016c-0.01-0.042,0.015-0.084-0.021-0.104c-0.131-0.038-0.042,0.116-0.1,0.165c0.047,0.117-0.009,0.24,0.022,0.336
		c-0.109-0.086-0.088,0.064-0.142,0.096c0.067,0.049,0.032,0.133,0.043,0.209c-0.118,0.068-0.118-0.139-0.087-0.209
		c0.044-0.086,0.098-0.213,0.023-0.314c-0.229,0.166,0.044,0.432-0.164,0.625c-0.023,0.111,0.097,0.127,0.021,0.239
		c-0.021,0.112,0.043,0.251,0,0.374l-0.121-0.123c-0.076,0.059-0.012,0.177-0.057,0.246c0.011-0.021-0.02-0.037-0.044-0.059
		c-0.053,0.197-0.063,0.4-0.021,0.582c-0.021-0.012-0.032,0.026-0.055,0.047c-0.033,0.043,0.055,0.064,0,0.097l-0.066-0.044
		c0.047,0.086-0.066,0.22,0.047,0.295l0.063-0.053c-0.032,0.148,0.056,0.229,0,0.341v0.044c-0.063-0.107,0.056-0.283-0.124-0.332
		c-0.062,0.074-0.053,0.208-0.02,0.288h0.02v0.044c-0.085-0.021-0.074,0.084-0.085,0.143c-0.011,0.215,0.032,0.508-0.032,0.68
		c0.012-0.055-0.033-0.088-0.044-0.125c-0.032,0.081-0.11,0.104-0.066,0.177l0.044-0.031c0,0.187,0.022,0.507-0.099,0.698
		c-0.045-0.096-0.075-0.139-0.098-0.229c-0.132,0.154,0.087,0.309-0.079,0.432c-0.096,0.939-0.395,1.975-0.909,2.803
		c-0.087,0.074-0.187,0.191-0.176,0.32c-0.227,0.154-0.338,0.331-0.56,0.508c-0.097,0.207-0.361,0.303-0.527,0.438
		c-0.032-0.021-0.075-0.021-0.117-0.021c-0.133,0.148-0.231,0.325-0.285,0.522c-0.057,0.032-0.152,0.032-0.177,0.118
		c0.024-0.049-0.042-0.059-0.056-0.092c-0.074,0.016-0.074,0.086-0.163,0.092c-0.044,0.08-0.089-0.3-0.22-0.086l-0.121-0.128
		l-0.022,0.011c-0.152-0.133-0.187-0.31-0.261-0.496l-0.035,0.031c-0.099-0.086-0.064-0.23-0.119-0.342
		c-0.089-0.25-0.22-0.47-0.431-0.636c-0.085-0.325-0.371-0.634-0.513-0.96c-0.141-0.373-0.449-0.614-0.581-0.987
		C9,42.831,8.867,42.499,8.65,42.227c-1.011-1.404-2.116-2.887-3.642-3.794c-0.363-0.343-0.876-0.562-1.328-0.728
		c-0.077-0.074-0.26-0.165-0.402-0.127c0.021-0.092-0.066-0.082-0.124-0.113H3.08c-0.045-0.16-0.232,0-0.295-0.127
		c-0.146,0.042-0.155-0.199-0.265-0.07c-0.22,0.043-0.132-0.229-0.34-0.219c-0.165,0.043-0.317-0.053-0.44-0.16
		c-0.086,0-0.174-0.08-0.261-0.134c0-0.134-0.243-0.134-0.12-0.287c-0.023-0.063-0.112-0.042-0.145-0.022
		c0-0.031,0.011-0.074-0.023-0.102l0.023-0.016l0.064,0.064c0.088-0.053,0.088-0.176,0-0.24C1.4,36.03,1.4,36.344,1.522,36.18
		c0.1,0.047,0.229,0.101,0.341,0.074c-0.012-0.048-0.056-0.074-0.088-0.102c-0.099-0.059-0.273-0.048-0.319-0.166
		c-0.177,0.107-0.065-0.188-0.241-0.144V35.79c0.021,0.021,0.044,0.054,0.078,0.032c0.043-0.011,0.021-0.054,0.021-0.074
		c0.153-0.012,0.253,0.106,0.363,0.021c0.053-0.032,0.187,0,0.262-0.047c0-0.012,0-0.043-0.021-0.055H1.863
		c0-0.053,0-0.122-0.066-0.122c-0.021,0-0.045-0.005-0.057,0.026v0.033c-0.053-0.022-0.107-0.076-0.187-0.06
		c0-0.097-0.066,0.037-0.074-0.042c0.052-0.098,0.096,0,0.12-0.119c-0.046-0.196-0.385,0.021-0.32-0.261l0.08-0.054L1.313,35.01
		c-0.043,0.049-0.066,0.031-0.122,0H1.159c0.024-0.033,0.12-0.021,0.12-0.105c-0.009-0.039-0.064-0.07-0.043-0.123
		c0.022,0,0.043,0,0.057,0.021l0.043-0.033c-0.043-0.043-0.065-0.086-0.057-0.145l0.057-0.021c-0.011,0.033,0.023,0.049,0.045,0.054
		l0.053-0.032c-0.13,0-0.098-0.293-0.274-0.165c-0.066-0.128-0.206,0.027-0.24-0.14h0.056v0.023h0.074l0.022-0.15l0.066,0.068
		c-0.066,0.038-0.022,0.059,0,0.103l0.021,0.021c0.011-0.032,0.077-0.054,0.056-0.102L1.17,34.243
		c0.211,0.102,0.361-0.007,0.57,0.02c-0.118-0.111-0.318-0.096-0.427-0.186l0.022-0.012l0.087,0.043l0.079-0.127L1.6,34.077
		c0.088-0.074,0.184-0.209,0.318-0.219c0.011,0.043-0.143,0.025-0.078,0.102c0.023,0.053,0.078,0.043,0.123,0.043
		c0.02-0.119,0.074-0.188,0-0.295l-0.092-0.063c0.021,0,0.058,0,0.067,0.017l0.053-0.055c-0.12-0.064-0.021-0.139-0.009-0.207
		c0.055-0.012,0.11-0.092,0.055-0.139l0.078,0.084c0.045-0.154,0.011-0.229,0.065-0.363c0.086-0.031,0.153,0.075,0.22-0.021
		c0.064,0.155,0.15-0.112,0.239,0.042c0.046-0.068,0.121-0.01,0.166-0.084c0.008,0.031,0.028,0.074,0.075,0.084
		c0.056-0.01,0.177,0.08,0.273,0c0.058,0.049,0.058,0.113,0.11,0.156c0.075-0.09,0.187,0.031,0.253-0.103
		c0.011,0.06,0.065,0.081,0.11,0.124l0.032-0.043c0.034,0.149,0.197,0.139,0.307,0.165c0.023-0.042,0.066-0.042,0.099-0.026
		c0.012,0.123,0.142,0.202,0.242,0.224c0.097-0.048,0.195,0.075,0.297,0.161l0.064-0.075c0.077,0.042,0.077,0.229,0.219,0.224
		c0.088-0.123,0.155,0.049,0.2,0.092l0.021-0.018c-0.046-0.025-0.014,0.119,0.053,0.119c0.089,0.062,0.209-0.06,0.219,0.101
		c0.177,0.016,0.275,0.241,0.428,0.262c0.101,0.319,0.492,0.197,0.639,0.438l0.063-0.021c0.087,0.164,0.286,0.17,0.396,0.33
		l0.065-0.026c0.569,0.31,0.898,0.8,1.303,1.329c0.274,0.107,0.208,0.502,0.519,0.592c0.074-0.111,0.031-0.283,0.044-0.395
		c-0.187-1.394,0.089-2.701,0-4.095c0.174-0.47-0.153-1.019,0.317-1.345c0.318-0.09,0.163-0.518,0.548-0.49
		c-0.042-0.193,0.173-0.032,0.219-0.166c0.154,0.107,0.163-0.208,0.318-0.043c0.056-0.069,0.098-0.277,0.241-0.176
		c0.329,0.164,0.633-0.021,0.92,0.343l0.045-0.05c0.154,0.145,0.296,0.4,0.536,0.363c0.066,0.331,0.44,0.539,0.639,0.779
		c-0.012,0.182,0.151,0.326,0.208,0.507c0.099,0.294,0.206,0.604,0.219,0.897l-0.1,0.139c0.056,0.576-0.109,1.045-0.021,1.548
		c-0.022,0.144-0.067,0.31-0.079,0.438l-0.02-0.018c-0.046,0.092-0.077,0.203-0.067,0.326c-0.055,0.064-0.031,0.197-0.122,0.251
		v0.14c-0.019,0.016-0.019-0.007-0.03-0.017c-0.034,0.272-0.045,0.513,0.012,0.769l0.042-0.043c0.034,0.016,0.021,0.053,0.021,0.085
		c-0.075,0.006-0.011,0.118-0.063,0.177c0.01,0.006,0.019,0.016,0.042,0.016c0.021-0.041,0.021-0.096,0.067-0.139
		c0.063,0.129-0.109,0.363,0.031,0.406c0.032,0.209-0.131,0.299-0.152,0.48c-0.045-0.074-0.014-0.166-0.045-0.242l-0.057,0.125
		c-0.021,0.219,0.022,0.484,0.036,0.704l0.045-0.026c0.547-1.777,1.61-3.396,2.66-4.891c0.801-1.158,1.888-1.996,2.949-2.796
		c0.296-0.272,0.551-0.636,0.78-0.999C18.969,29.922,18.617,30.1,18.661,30.446z"/>
	<polyline fill="#FFFFFF" points="0.3,34.424 0.283,34.446 0.31,34.471 0.345,34.446 0.3,34.424 	"/>
	<polyline fill="#FFFFFF" points="0.181,34.178 0.161,34.199 0.19,34.231 0.223,34.194 0.181,34.178 	"/>
	<polyline fill="#FFFFFF" points="1.245,33.382 1.226,33.403 1.256,33.43 1.288,33.399 1.245,33.382 	"/>
	<polyline fill="#FFFFFF" points="0.743,33.5 0.724,33.522 0.753,33.548 0.786,33.522 0.743,33.5 	"/>
	<polyline fill="#FFFFFF" points="0.055,35.652 0,35.646 0.007,35.7 0.057,35.7 0.055,35.652 	"/>
	<polyline fill="#FFFFFF" points="0.652,33.655 0.609,33.681 0.657,33.723 0.697,33.681 0.652,33.655 	"/>
	<polyline fill="#FFFFFF" points="0.442,33.76 0.396,33.784 0.446,33.825 0.484,33.784 0.442,33.76 	"/>
	<polyline fill="#FFFFFF" points="0.044,35.331 0,35.352 0.049,35.395 0.089,35.352 0.044,35.331 	"/>
	<polyline fill="#FFFFFF" points="1.021,35.165 1,35.198 1.034,35.218 1.062,35.193 1.021,35.165 	"/>
	<polyline fill="#FFFFFF" points="0.46,34.471 0.443,34.493 0.473,34.518 0.504,34.488 0.46,34.471 	"/>
	<polyline fill="#FFFFFF" points="1.332,33.393 1.29,33.419 1.338,33.463 1.375,33.419 1.332,33.393 	"/>
	<polyline fill="#FFFFFF" points="0.825,35.971 0.783,35.993 0.831,36.036 0.867,35.993 0.825,35.971 	"/>
	<polyline fill="#FFFFFF" points="0.443,35.004 0.4,35.032 0.449,35.075 0.487,35.032 0.443,35.004 	"/>
	<polyline fill="#FFFFFF" points="0.172,35.368 0.128,35.383 0.178,35.426 0.217,35.383 0.172,35.368 	"/>
	<polyline fill="#FFFFFF" points="1.971,33.216 1.929,33.233 1.977,33.276 2.013,33.233 1.971,33.216 	"/>
	<polyline fill="#FFFFFF" points="0.919,33.559 0.876,33.575 0.925,33.624 0.963,33.575 0.919,33.559 	"/>
	<polyline fill="#FFFFFF" points="0.473,34.909 0.287,34.844 0.3,34.899 0.449,34.941 0.473,34.909 	"/>
	<polyline fill="#FFFFFF" points="0.77,33.862 0.586,33.809 0.604,33.858 0.75,33.895 0.77,33.862 	"/>
	<polyline fill="#FFFFFF" points="0.409,35.854 0.195,35.768 0.207,35.827 0.389,35.885 0.409,35.854 	"/>
	<polyline fill="#FFFFFF" points="1.154,34.616 0.938,34.542 0.843,34.551 0.919,34.588 1.17,34.664 1.221,34.653 1.154,34.616 	"/>
	<path fill="#FFFFFF" d="M0.496,35.25L0.26,35.176c0,0-0.079-0.016-0.079,0.011c0,0.031,0.116,0.058,0.116,0.058l0.245,0.08
		l0.017-0.037L0.496,35.25"/>
	<path fill="#FFFFFF" d="M0.491,34.236l0.08-0.052c0,0,0.043,0.078,0.071,0.121c0.025,0.043,0.116,0.021,0.116,0.021L0.745,34.28
		l-0.103-0.081l-0.038-0.111c0,0-0.054,0.005-0.075,0.021c-0.024,0.016-0.062,0.091-0.062,0.091L0.491,34.236"/>
	<polyline fill="#FFFFFF" points="1.082,33.815 1.031,33.847 0.967,33.836 0.967,33.862 0.908,33.901 1.004,34.007 1.025,33.905 
		1.098,33.889 1.127,33.797 1.082,33.815 	"/>
	<path fill="#FFFFFF" d="M14.989,40.151c0.011,0,0.022-0.027,0.022-0.059c0-0.033-0.012-0.053-0.022-0.053
		c-0.013,0-0.024,0.02-0.024,0.053C14.965,40.124,14.977,40.151,14.989,40.151"/>
	<path fill="#FFFFFF" d="M15.021,40.321c0.016,0,0.027-0.021,0.027-0.042c0-0.022-0.012-0.042-0.027-0.042
		c-0.014,0-0.026,0.02-0.026,0.042C14.995,40.3,15.008,40.321,15.021,40.321"/>
	<path fill="#FFFFFF" d="M16.449,35.817c0.014,0.005,0.035-0.012,0.045-0.027c0.014-0.027,0.011-0.048-0.001-0.054
		c-0.012-0.005-0.032,0.006-0.046,0.026C16.438,35.784,16.438,35.805,16.449,35.817"/>
	<polyline fill="#FFFFFF" points="1.011,36.34 0.994,36.362 1.021,36.381 1.056,36.356 1.011,36.34 	"/>
	<polyline fill="#FFFFFF" points="0.857,36.254 0.843,36.281 0.871,36.302 0.9,36.276 0.857,36.254 	"/>
	<polyline fill="#FFFFFF" points="1.313,35.939 1.295,35.961 1.322,35.987 1.357,35.961 1.313,35.939 	"/>
	<polyline fill="#FFFFFF" points="1.157,35.922 1.141,35.955 1.17,35.977 1.198,35.95 1.157,35.922 	"/>
	<polyline fill="#FFFFFF" points="0.853,34.877 0.834,34.909 0.862,34.925 0.896,34.905 0.853,34.877 	"/>
	<polyline fill="#FFFFFF" points="1.188,34.872 1.17,34.905 1.197,34.925 1.23,34.893 1.188,34.872 	"/>
	<polyline fill="#FFFFFF" points="1.202,34.782 1.186,34.807 1.212,34.83 1.247,34.803 1.202,34.782 	"/>
	<polyline fill="#FFFFFF" points="1.106,34.782 1.088,34.813 1.119,34.834 1.146,34.807 1.106,34.782 	"/>
	<polyline fill="#FFFFFF" points="1.157,35.187 1.141,35.213 1.17,35.241 1.198,35.208 1.157,35.187 	"/>
	<polyline fill="#FFFFFF" points="1.419,33.959 1.4,33.981 1.429,34.007 1.463,33.981 1.419,33.959 	"/>
	<polyline fill="#FFFFFF" points="1.919,33.478 1.904,33.5 1.93,33.522 1.963,33.495 1.919,33.478 	"/>
	<polyline fill="#FFFFFF" points="1.8,33.458 1.781,33.478 1.811,33.504 1.843,33.478 1.8,33.458 	"/>
	<polyline fill="#FFFFFF" points="1.434,33.602 1.415,33.627 1.442,33.65 1.477,33.624 1.434,33.602 	"/>
	<polyline fill="#FFFFFF" points="1.474,33.516 1.432,33.532 1.482,33.575 1.518,33.532 1.474,33.516 	"/>
	<polyline fill="#FFFFFF" points="0.845,34.599 0.801,34.616 0.849,34.658 0.888,34.616 0.845,34.599 	"/>
	<polyline fill="#FFFFFF" points="0.762,34.542 0.58,34.488 0.587,34.545 0.739,34.573 0.762,34.542 	"/>
	<polyline fill="#FFFFFF" points="1.325,33.911 1.212,33.852 1.223,33.905 1.304,33.943 1.325,33.911 	"/>
	<polyline fill="#FFFFFF" points="0.676,34.647 0.657,34.674 0.688,34.696 0.719,34.668 0.676,34.647 	"/>
	<polyline fill="#FFFFFF" points="1.699,33.793 1.68,33.821 1.709,33.847 1.74,33.815 1.699,33.793 	"/>
	<polyline fill="#FFFFFF" points="1.359,33.847 1.442,33.883 1.471,33.784 1.381,33.76 1.359,33.847 	"/>
	<polyline fill="#FFFFFF" points="1.495,33.387 1.45,33.403 1.502,33.446 1.538,33.403 1.495,33.387 	"/>
	<polyline fill="#FFFFFF" points="1.268,33.581 1.226,33.602 1.274,33.644 1.312,33.602 1.268,33.581 	"/>
	<polyline fill="#FFFFFF" points="2.099,33.008 2.056,33.03 2.102,33.073 2.14,33.03 2.099,33.008 	"/>
	<polyline fill="#FFFFFF" points="1.642,33.415 1.6,33.436 1.646,33.478 1.684,33.436 1.642,33.415 	"/>
	<polyline fill="#FFFFFF" points="1.688,33.426 1.645,33.446 1.693,33.489 1.729,33.446 1.688,33.426 	"/>
	<polyline fill="#FFFFFF" points="1.854,33.302 1.811,33.324 1.858,33.366 1.896,33.324 1.854,33.302 	"/>
	<polyline fill="#FFFFFF" points="1.725,33.307 1.706,33.334 1.735,33.35 1.768,33.324 1.725,33.307 	"/>
	<polyline fill="#FFFFFF" points="1.304,34.007 1.15,33.901 1.161,33.959 1.282,34.034 1.304,34.007 	"/>
	<polyline fill="#FFFFFF" points="0.831,34.3 0.786,34.321 0.82,34.338 0.854,34.321 0.831,34.3 	"/>
	<polyline fill="#FFFFFF" points="0.916,35.843 0.871,35.87 0.905,35.879 0.94,35.864 0.916,35.843 	"/>
	<polyline fill="#FFFFFF" points="1.375,35.493 1.332,35.506 1.363,35.528 1.4,35.502 1.375,35.493 	"/>
	<polyline fill="#FFFFFF" points="1.042,34.739 0.996,34.759 1.031,34.776 1.065,34.749 1.042,34.739 	"/>
	<polyline fill="#FFFFFF" points="1.422,35.416 1.378,35.438 1.426,35.48 1.463,35.438 1.422,35.416 	"/>
	<polyline fill="#FFFFFF" points="0.797,34.983 0.596,34.925 0.484,34.915 0.538,34.967 0.786,35.042 0.86,35.01 0.797,34.983 	"/>
	<polyline fill="#FFFFFF" points="0.919,35.305 0.876,35.325 0.925,35.368 0.963,35.325 0.919,35.305 	"/>
	<polyline fill="#FFFFFF" points="0.854,35.383 0.812,35.405 0.86,35.448 0.897,35.405 0.854,35.383 	"/>
	<polyline fill="#FFFFFF" points="1.127,36.079 1.084,36.099 1.135,36.143 1.173,36.099 1.127,36.079 	"/>
	<polyline fill="#FFFFFF" points="0.762,35.657 0.713,35.672 0.745,35.726 0.794,35.715 0.762,35.657 	"/>
	<polyline fill="#FFFFFF" points="0.786,35.79 0.771,35.827 0.801,35.864 0.845,35.817 0.786,35.79 	"/>
	<polyline fill="#FFFFFF" points="0.529,35.522 0.516,35.549 0.545,35.598 0.587,35.555 0.529,35.522 	"/>
	<polyline fill="#FFFFFF" points="1.141,35.817 0.967,35.731 0.978,35.79 1.119,35.848 1.141,35.817 	"/>
	<polyline fill="#FFFFFF" points="1.45,35.555 1.404,35.576 1.456,35.62 1.493,35.576 1.45,35.555 	"/>
	<polyline fill="#FFFFFF" points="0.479,35.87 0.434,35.885 0.484,35.934 0.521,35.885 0.479,35.87 	"/>
	<path fill="#FFFFFF" d="M1.021,35.106c0.088,0.027,0.137,0.103,0.216,0.006L1.021,35.106"/>
	<path fill="#FFFFFF" d="M1.138,35.688c-0.031,0.06,0.032,0.033,0.054,0.06v-0.038C1.184,35.678,1.159,35.688,1.138,35.688"/>
	<path fill="#FFFFFF" d="M1.236,36.522v0.068h0.043C1.279,36.553,1.247,36.549,1.236,36.522"/>
	<polyline fill="#FFFFFF" points="0.587,36.03 0.542,36.051 0.594,36.094 0.631,36.051 0.587,36.03 	"/>
	<polyline fill="#FFFFFF" points="0.982,36.041 0.94,36.061 0.988,36.105 1.025,36.061 0.982,36.041 	"/>
	<polyline fill="#FFFFFF" points="1.119,36.302 1.076,36.323 1.125,36.372 1.161,36.323 1.119,36.302 	"/>
	<polyline fill="#FFFFFF" points="1.637,33.532 1.595,33.559 1.642,33.602 1.68,33.559 1.637,33.532 	"/>
	<polyline fill="#FFFFFF" points="1.042,36.184 0.998,36.211 1.045,36.254 1.084,36.211 1.042,36.184 	"/>
	<polyline fill="#FFFFFF" points="1.068,36.452 1.025,36.473 1.074,36.516 1.111,36.473 1.068,36.452 	"/>
	<polyline fill="#FFFFFF" points="0.823,33.697 0.779,33.723 0.829,33.766 0.866,33.723 0.823,33.697 	"/>
	<polyline fill="#FFFFFF" points="0.973,33.735 0.93,33.756 0.978,33.797 1.018,33.756 0.973,33.735 	"/>
	<polyline fill="#FFFFFF" points="1.103,33.943 1.061,33.969 1.106,34.012 1.146,33.969 1.103,33.943 	"/>
	<polyline fill="#FFFFFF" points="0.916,35.021 0.873,35.042 0.919,35.085 0.959,35.042 0.916,35.021 	"/>
	<polyline fill="#FFFFFF" points="1.33,35.352 1.288,35.374 1.338,35.416 1.375,35.374 1.33,35.352 	"/>
	<polyline fill="#FFFFFF" points="1.409,35.571 1.363,35.586 1.415,35.629 1.453,35.586 1.409,35.571 	"/>
	<polyline fill="#FFFFFF" points="1.034,35.646 0.99,35.667 1.042,35.709 1.076,35.667 1.034,35.646 	"/>
	<polyline fill="#FFFFFF" points="1.768,33.596 1.725,33.612 1.772,33.655 1.811,33.612 1.768,33.596 	"/>
	<polyline fill="#FFFFFF" points="1.971,33.116 1.929,33.137 1.977,33.18 2.013,33.137 1.971,33.116 	"/>
	<polyline fill="#FFFFFF" points="1.093,33.581 1.049,33.602 1.098,33.644 1.135,33.602 1.093,33.581 	"/>
	<polyline fill="#FFFFFF" points="0.684,35.229 0.643,35.25 0.691,35.293 0.727,35.25 0.684,35.229 	"/>
	<polyline fill="#FFFFFF" points="1.039,34.844 0.996,34.866 1.042,34.909 1.082,34.866 1.039,34.844 	"/>
	<polyline fill="#FFFFFF" points="0.711,35.331 0.668,35.358 0.716,35.4 0.756,35.358 0.711,35.331 	"/>
	<polyline fill="#FFFFFF" points="0.42,35.474 0.246,35.395 0.26,35.448 0.398,35.506 0.42,35.474 	"/>
	<polyline fill="#FFFFFF" points="0.81,35.586 0.604,35.518 0.617,35.571 0.787,35.625 0.81,35.586 	"/>
	<path fill="#FFFFFF" d="M0.888,36.169c0,0-0.129-0.081-0.175-0.081c-0.045,0,0.011,0.055,0.011,0.055l0.143,0.058L0.888,36.169"/>
	<path fill="#FFFFFF" d="M0.719,34.135l-0.006,0.101l0.054-0.042c0,0,0.033,0.026,0.067,0.026c0.042,0,0.111-0.011,0.111-0.011
		L0.93,34.172c0,0-0.054,0.021-0.081,0c-0.028-0.021-0.082-0.037-0.082-0.037H0.719"/>
	<polyline fill="#FFFFFF" points="0.845,33.889 0.829,33.926 0.879,33.959 0.879,33.895 0.845,33.889 	"/>
	<path fill="#FFFFFF" d="M1.572,33.708l-0.058,0.021c0,0-0.017,0.055,0.013,0.059c0.023,0.006,0.048-0.027,0.048-0.027L1.572,33.708
		"/>
	<polyline fill="#FFFFFF" points="1.135,35.378 1.234,35.378 1.24,35.342 1.144,35.331 1.135,35.378 	"/>
	<polyline fill="#FFFFFF" points="0.879,35.625 0.931,35.646 0.959,35.62 0.866,35.592 0.879,35.625 	"/>
	<polyline fill="#FFFFFF" points="0.609,35.62 0.6,35.657 0.625,35.694 0.668,35.652 0.609,35.62 	"/>
	<polyline fill="#FFFFFF" points="1.084,35.288 0.978,35.267 1.025,35.325 1.084,35.288 	"/>
	<polyline fill="#FFFFFF" points="1.188,34.034 1.161,34.103 1.247,34.108 1.188,34.034 	"/>
	<path fill="#FFFFFF" d="M20.129,0.101c0,0.144,0.047,0.331-0.119,0.395c-0.106,0.01-0.248,0.021-0.293-0.123
		c0.014-0.129-0.044-0.294,0.119-0.368C19.945,0.005,20.077-0.033,20.129,0.101"/>
	<path fill="#FFFFFF" d="M21.759,0.992c-0.022,0.16-0.086,0.364-0.271,0.405c-0.099,0.006-0.194-0.01-0.262-0.085
		C21.142,1.2,21.1,1.067,21.084,0.94c0.1-0.182,0.111-0.46,0.358-0.524C21.736,0.463,21.716,0.772,21.759,0.992"/>
	<path fill="#FFFFFF" d="M24.846,3.143c0.219,0.284,0.139,0.689,0.219,1.036c-0.023,0.251-0.23,0.39-0.438,0.485
		c-0.314,0.058-0.638,0.091-0.761,0.449c-0.096,0.369-0.587,0.544-0.573,0.966c-0.219,0.592-0.629,1.132-1.09,1.607
		c-0.214,0.336-0.369,0.709-0.637,1.019c-0.23,0.512-0.46,0.994-0.34,1.613c0.174,0.443,0.216,0.935,0.414,1.367
		c0.042,0.369,0.487,0.565,0.521,0.934c0.12,0.491-0.022,0.956-0.259,1.345c-0.12,0.251-0.1,0.513-0.1,0.775
		c0.652,0.817,0.271,1.932,0.173,2.893c0.163,0.336,0.458,0.72,0.228,1.126c-0.117,0.455-0.477,0.822-0.541,1.302
		c-0.326,0.459,0.031,1.25-0.534,1.553c-0.315,0.315-0.422,0.721-0.65,1.074c-0.566,0.95-1.229,1.873-2.074,2.689
		c-0.152,0.215-0.358,0.486-0.576,0.674c-0.85,0.943-1.922,1.627-3.03,2.059c-0.957,0.535-2.02,0.925-3.164,0.893h-0.65
		c-0.108-0.172-0.402-0.305-0.26-0.535c-0.229-0.191-0.587-0.128-0.857-0.139c-0.205,0.177-0.424-0.031-0.621,0.177
		c0.165,0.086-0.055,0.182,0.021,0.282c-0.206,0.016-0.445-0.133-0.672-0.026c-0.359-0.042-0.782-0.048-1.129-0.17
		c-0.652-0.315-1.196-0.801-1.771-1.271c-1.076-0.827-1.021-2.151-1.609-3.203c-0.204-0.293-0.271-0.7-0.378-1.014
		c0-0.17-0.142-0.293-0.178-0.458c-0.484-0.737-0.694-1.672-0.735-2.563c0.074,0,0.041-0.084,0.085-0.117
		c-0.011-0.241-0.075-0.481-0.021-0.721c0.021-0.191-0.054-0.411,0.032-0.587c-0.152-0.171-0.011-0.474-0.117-0.64
		c-0.014-0.128-0.067-0.293,0.021-0.411c-0.012-0.107-0.057-0.229-0.035-0.325c0.035,0.09,0.156,0.106,0.238,0.063l0.11-0.091
		c0.149-0.256,0.022-0.646,0.349-0.79c0.109-0.053,0.021-0.234,0.129-0.336c-0.02-0.096,0.097-0.139,0.11-0.234
		c-0.021-0.347,0.043-0.806-0.066-1.153c-0.086-0.748,0.131-1.468,0.36-2.141c0.337-0.828,0.684-1.639,0.987-2.488
		C5.387,9.427,5.573,8.61,6.094,8.017c0.194-0.427,0.47-0.822,0.75-1.173c0.11,0.005,0.12-0.112,0.185-0.172h0.054
		c0.024,0.146-0.248,0.305-0.033,0.407C7.216,6.762,7.429,6.362,7.8,6.245c0.088-0.102,0.272-0.123,0.317-0.289
		c0.021-0.31,0.422-0.571,0.16-0.907C8.169,4.874,7.92,4.772,7.996,4.548c0.064-0.117,0.195-0.16,0.324-0.176
		C8.43,4.398,8.504,4.479,8.549,4.569c0.064,0.197-0.152,0.374-0.01,0.555C8.605,5.364,8.496,5.63,8.549,5.84
		C8.496,6.058,8.354,6.33,8.496,6.555c0.008-0.032,0.053-0.011,0.075-0.021C8.561,6.95,8.419,7.361,8.613,7.728
		c0.219,0.07,0.25,0.316,0.479,0.364C9.146,8.188,9.3,8.241,9.409,8.188c0.128-0.054,0.258-0.128,0.4-0.172
		c0.109,0.336-0.019,0.737-0.206,1.009C9.58,9.144,9.494,9.25,9.528,9.404C9.66,9.501,9.604,9.73,9.646,9.934
		c0.109,0.239,0.247,0.485,0.456,0.678c0.229-0.198,0.425-0.439,0.478-0.722c0.021-0.075,0.132-0.096,0.197-0.052
		c0.185,0.208-0.145,0.357-0.218,0.533c-0.066,0.241-0.283,0.454-0.197,0.693c0.154,0.188,0.176,0.423,0.36,0.599
		c0.13-0.076,0.13,0.229,0.239,0.042c0.096-0.011,0.206-0.011,0.272,0.074c0.021,0.059-0.035,0.134,0.043,0.16
		c0.174-0.127,0.432-0.203,0.52-0.438c0.14,0.01,0.11-0.177,0.217-0.24c0.293-0.315,0.434-0.7,0.75-1.009
		c0.014-0.134,0.177-0.229,0.144-0.395c0.14-0.096,0.044-0.283,0.096-0.401c0.121-0.255,0.121-0.517,0.076-0.811
		c-0.022-0.288,0.076-0.587-0.15-0.822c-0.144-0.101-0.336-0.213-0.402-0.39c-0.099-0.241,0.088-0.4,0.075-0.619
		c0.643-0.326,0.306-1.084,0.814-1.431c0.143-0.031,0.313-0.031,0.424,0.085c0.205,0.315-0.043,0.641-0.021,0.988
		c0.056,0.314,0.402,0.607,0.163,0.955c-0.163,0.401-0.163,0.897-0.185,1.323c0.021,0.059,0.021,0.123,0.077,0.166
		c0.011-0.075,0.085-0.064,0.139-0.064c0.23-0.261,0.328-0.555,0.58-0.795c0.16,0.058,0.335,0,0.42-0.139
		c0.283-0.218-0.25-0.635,0.216-0.773c0.123-0.011,0.219,0.053,0.273,0.164c0.021,0.177-0.011,0.326-0.121,0.454
		c0.035,0.62-0.453,1.601,0.35,1.965c0.643,0.385,0.175,1.131,0.252,1.772c0.213,0.219,0.549,0.219,0.781,0.453
		c0.192-0.091,0.249-0.341,0.411-0.497c0.411-0.31,0.748-0.811,1.272-0.955c0.444-0.337,1.031-0.497,1.336-0.988
		c0.304-0.411,0.63-0.849,0.987-1.217c0.144-0.502,0.718-0.561,1.032-0.934c0.241-0.544,0.479-1.099,0.913-1.564
		c0.293-0.336,0.24-0.812,0.521-1.153c0.13-0.534-0.096-1.42,0.651-1.549C24.182,3.036,24.596,2.882,24.846,3.143"/>
	<path fill="#FFFFFF" d="M21.173,3.875C21.12,4.1,21.227,4.403,21.054,4.611c-0.064,0.054-0.14,0.097-0.241,0.081
		c-0.062-0.176-0.042-0.428-0.021-0.614C20.88,3.96,20.999,3.598,21.173,3.875"/>
	<path fill="#FFFFFF" d="M15.807,4.137c0.154,0.127,0.046,0.352,0.023,0.518c-0.066,0.118-0.197,0.251-0.339,0.251
		c-0.293-0.183,0.067-0.502-0.163-0.721c-0.011-0.091,0.088-0.17,0.174-0.107C15.566,4.185,15.73,4.11,15.807,4.137"/>
	<path fill="#FFFFFF" d="M18.588,4.852c-0.141,0.326,0.096,0.976-0.434,0.966c-0.338-0.239-0.066-0.65,0-0.943
		C18.251,4.766,18.513,4.623,18.588,4.852"/>
	<path fill="#FFFFFF" d="M9.604,5.502C9.594,5.69,9.66,5.925,9.473,6.026C9.32,6,9.105,6.079,9.072,5.882
		C8.994,5.701,9.201,5.621,9.215,5.471C9.3,5.396,9.551,5.337,9.604,5.502"/>
	<path fill="#FFFFFF" d="M15.523,6.042c0.035,0.204-0.009,0.395-0.195,0.492c-0.13,0.031-0.335,0.064-0.4-0.097
		c0-0.165,0-0.336,0.085-0.48C15.142,5.84,15.459,5.84,15.523,6.042"/>
	<path fill="#FFFFFF" d="M11.211,7.894c-0.022,0.171,0.088,0.443-0.174,0.465c-0.185,0.026-0.404,0-0.457-0.193
		c0.011-0.15-0.042-0.342,0.119-0.438C10.885,7.75,11.136,7.653,11.211,7.894"/>
	<path fill="#FFFFFF" d="M11.496,9.217c0.051,0.102-0.014,0.193-0.057,0.284c-0.152,0.188-0.337,0.128-0.544,0.117
		c-0.109-0.054-0.109-0.214-0.075-0.326c0.032-0.106,0.085-0.218,0.195-0.266C11.199,8.968,11.451,8.999,11.496,9.217"/>
	<path fill="#FFFFFF" d="M126.279,7.532c-0.01,0.175,0.225,0.25,0.171,0.437c0.044,0.22,0.151,0.417,0.14,0.652
		c0.182,0.656,0.064,1.414,0.096,2.129c0.065,0.021,0.033,0.091,0.033,0.139c-0.074,0.09,0.012,0.251-0.074,0.336
		c-0.098,0.208,0.053,0.538-0.141,0.715c-0.026,0.529-0.479,0.88-0.721,1.33c-0.096,0.325,0,0.73-0.111,1.057
		c0.016,0.203-0.055,0.442,0.059,0.619c0.032,0.139,0.097,0.272,0.097,0.432c-0.107,0.529,0.304,0.86,0.165,1.41
		c0.053,0.176,0.117,0.277,0.171,0.463c0.043,0.311,0.075,0.636,0.14,0.951c0.287,0.4,0.111,0.913,0.299,1.344
		c0.074,0.503,0.346,0.962,0.346,1.512c0.076,0.197,0.145,0.405,0.252,0.603c0.063,0.085,0,0.236,0.096,0.31
		c-0.032,0.156,0.074,0.241,0.063,0.379c0.065,0.337,0.229,0.646,0.288,0.993c0.084,0.064-0.026,0.204,0.098,0.262
		c-0.098,0.219,0.073,0.368,0.073,0.572c0.224,0.319,0.204,0.656,0.406,0.966c0,0.352,0.171,0.646,0.245,0.982
		c0.171,0.191,0.16,0.469,0.235,0.693c0.042,0.188,0.155,0.336,0.149,0.533c0.043,0.107,0.062,0.225,0.138,0.326
		c-0.048,0.48,0.386,0.758,0.508,1.17c0.054,0.047,0.112,0.078,0.091,0.154c0.332,0.762,0.944,1.424,1.346,2.15
		c0.245,0.256,0.448,0.555,0.641,0.848c0.246,0.348,0.64,0.695,0.459,1.176c-0.043,0.262-0.124,0.598-0.427,0.673
		c-0.358-0.075-0.77-0.032-1.074,0.14c-0.262-0.044-0.47,0.249-0.73,0.068c-0.363,0.139-0.737,0-1.036-0.188
		c-0.245-0.368-0.571-0.73-0.832-1.109c-0.15-0.192-0.471-0.379-0.535-0.636c-0.367-0.331-0.607-0.742-0.64-1.233
		c-0.106-0.336-0.421-0.576-0.502-0.913c-0.105-0.096-0.096-0.239-0.149-0.356c-0.085-0.191-0.052-0.455-0.234-0.619
		c-0.112-0.229-0.134-0.492-0.145-0.752c-0.143-0.354-0.465-0.803-0.869-0.877c-0.578-0.138-1.1,0.074-1.618,0.203
		c-0.432-0.149-0.604,0.348-0.967,0.373c-0.053,0.097-0.186,0.032-0.261,0.091c-0.326,0.204-0.806,0.118-1.009,0.507
		c-0.343,0.172-0.641,0.455-1.078,0.401c-0.063,0.075-0.192,0.011-0.267,0.054c-0.288,0.053-0.481,0.283-0.764,0.341
		c-0.197,0.06-0.4,0.118-0.598,0.183c-0.348-0.15-0.655-0.428-1.009-0.545c-0.257,0.043-0.587,0.102-0.817-0.032
		c-0.484,0.106-0.764-0.379-1.249-0.208c-0.197,0.135-0.469,0.09-0.698,0.122c-0.321-0.149-0.641-0.325-0.973-0.459
		c-0.191-0.116-0.374-0.319-0.598-0.294c-0.111-0.025-0.209-0.095-0.342-0.095c-0.319-0.103-0.598-0.412-1.009-0.263
		c-0.714,0.314-1.104,1.271-1.868,1.533c-0.218-0.021-0.368,0.106-0.55,0.176c-0.277,0.277-0.245,0.773-0.699,0.832
		c-0.347,0.074-0.539,0.501-0.88,0.598c-0.278,0.209-0.747,0-1.043,0.178c-0.271,0.073-0.495,0.233-0.783,0.26
		c-0.161-0.08-0.385-0.011-0.575-0.053c-0.38-0.092-0.738-0.219-1.063-0.427c-0.282-0.155-0.197-0.507-0.519-0.599
		c-0.608-0.346-0.673-1.066-0.96-1.627c-0.449-0.583-0.522-1.336-0.694-2.045c-0.085-0.16-0.138-0.336-0.272-0.475
		c-0.047-0.043-0.091-0.064-0.144-0.053c-0.171,0.191-0.443,0.218-0.55,0.475c-0.241,0.102-0.252,0.405-0.518,0.457
		c-0.149,0.055-0.331,0.064-0.395,0.241c-0.043,0.203-0.098,0.347-0.14,0.556c0,0.465,0.599,1.189-0.165,1.461
		c-0.219,0.035-0.443,0.221-0.502,0.439c-0.032,0.139-0.032,0.293-0.054,0.443c0.011,0.17-0.154,0.229-0.282,0.288
		c-0.305-0.118-0.599,0.048-0.906,0.025l-0.065,0.033c-0.287-0.118-0.833,0.218-0.896-0.294c-0.149-0.348-0.448-0.582-0.433-1.01
		c-0.091-0.447-0.325-0.827-0.261-1.333c-0.209-0.598-0.064-1.372-0.272-1.948c-0.022-0.508-0.197-1.02-0.166-1.586
		c-0.053-0.261-0.214-0.47-0.15-0.768c-0.096-0.135,0.022-0.352-0.106-0.47c-0.052-0.187-0.052-0.46,0-0.651
		c-0.091-0.225,0.183-0.395,0-0.598c-0.068-0.544-0.025-1.185-0.03-1.703c0.03-0.09-0.014-0.245-0.021-0.362
		c-0.092-0.305,0.052-0.556,0.17-0.796c0.394-0.127,0.63-0.683,1.078-0.614c0.256-0.144,0.63-0.058,0.887,0.016
		c0.24,0.177,0.106,0.449,0.268,0.657c0.233,0.4,0.677,0.694,0.512,1.261c0.079,0.133-0.01,0.335,0.079,0.479
		c0.059,0.139,0.032,0.335,0.219,0.412c0.171,0.074,0.368,0.095,0.556,0.138c0.191-0.064,0.363-0.192,0.544-0.298
		c0.422-0.07,0.608-0.587,1.025-0.673c0.225-0.246,0.523-0.277,0.817-0.342c0.196,0.049,0.314-0.085,0.512-0.042
		c0.058-0.07,0.154-0.028,0.218-0.037c0.14,0.037,0.278,0.079,0.427,0.128c0.375,0.175,0.594,0.603,0.865,0.928
		c0.251,0.362,0.129,0.859,0.545,1.152c0.128,0.336,0.235,0.694,0.336,1.052c0,0.187,0.187,0.283,0.118,0.491
		c0.075,0.042,0.011,0.155,0.053,0.208c0.188,0.422,0.325,0.881,0.556,1.275c0.021,0.304,0.187,0.523,0.305,0.807
		c0.262,0.207,0.262,0.533,0.555,0.729c0.118,0.177,0.325,0.304,0.502,0.423c0.191,0.209,0.507,0.262,0.79,0.176
		c0.438-0.156,0.87-0.331,1.29-0.513c0.198-0.356,0.674-0.389,0.829-0.763c0.25-0.508,0.858-0.336,1.04-0.859
		c0.118-0.117,0.314-0.076,0.459-0.17c0.183,0.031,0.257-0.123,0.369-0.221c0.01-0.399,0.282-0.735,0.453-1.093
		c0.352-0.502,0.608-1.004,1.026-1.49c0.063-0.144,0.169-0.261,0.244-0.389c0.203-0.166,0.599-0.219,0.566-0.566
		c-0.076-0.053-0.032-0.171-0.043-0.25c0.075-0.033,0.011-0.118,0.054-0.16c0.171-0.272,0.438-0.513,0.698-0.636
		c0.118-0.059,0.032-0.132,0.081-0.224c0.234-0.347,0.623-0.535,0.758-0.935c0.331-0.566,1.058-0.949,1.473-1.446
		c0.117-0.161,0.385-0.086,0.513-0.283c0.159-0.171,0.411-0.16,0.576-0.337c0.234-0.378,0.629-0.65,1.1-0.608
		c0.3-0.271,0.652-0.619,1.083-0.64c0.263-0.251,0.694-0.391,1.053-0.214c0.219,0.021,0.48-0.069,0.64,0.075
		c0.22,0.453,0.033,1.083,0.321,1.51c0.213,0.421-0.209,0.726-0.188,1.137c-0.079,0.293-0.229,0.641-0.555,0.774
		c-0.241,0.208-0.176,0.517-0.357,0.746c-0.188,0.209-0.47,0.4-0.48,0.694c-0.13,0.289-0.405,0.321-0.587,0.502
		c-0.226,0.208-0.423,0.421-0.481,0.693c-0.266,0.459-0.629,0.87-1.024,1.275c-0.166,0.695-0.95,0.748-1.44,0.978
		c-0.172,0.149-0.172,0.539-0.477,0.529c-0.77,0.352-1.366,1.131-2.225,1.291c-0.252,0.02-0.31,0.305-0.375,0.502
		c0.113,0.346,0.48,0.463,0.759,0.654c0.267,0.061,0.585-0.048,0.875,0.018c0.353,0.069,0.77-0.053,1.09,0.102
		c0.267-0.064,0.521,0.127,0.757-0.021c0.449-0.438,0.887-0.924,1.521-0.982c0.315-0.16,0.497-0.555,0.839-0.571
		c0.32,0,0.522-0.31,0.833-0.321c0.187-0.115,0.416-0.148,0.598-0.293c0.128-0.025,0.233-0.148,0.396-0.096
		c0.421-0.514,1.104-0.561,1.567-1.05l0.438-0.263c0.22-0.304,0.428-0.651,0.283-1.057c0.058-0.255-0.096-0.432-0.112-0.673
		c-0.022-0.096-0.022-0.251-0.075-0.357c-0.01-0.219-0.138-0.433-0.031-0.651c0.031-0.165-0.075-0.256-0.087-0.4
		c-0.063-0.112-0.104-0.241-0.116-0.384c-0.075-0.204-0.084-0.433-0.144-0.651c-0.113-0.064-0.033-0.198-0.054-0.294
		c0.129-0.106-0.064-0.251,0-0.379c-0.081-0.084-0.011-0.239-0.064-0.335c0-0.226-0.044-0.444-0.122-0.663
		c-0.064-0.378,0-0.822-0.129-1.186c-0.096-0.335-0.129-0.715-0.085-1.072c-0.144-0.448-0.032-1.004-0.177-1.458
		c-0.011-0.368-0.063-0.704-0.063-1.088l-0.032-0.043c-0.086-0.822,0.148-1.51,0.096-2.327c0.102-0.235,0.048-0.54,0.199-0.748
		V8.839c0.201-0.347,0.245-0.773,0.618-1.057c0.443-0.17,0.842-0.325,1.228-0.65c0.202-0.054,0.447-0.033,0.619-0.171
		c0.086,0,0.193-0.07,0.314-0.042C125.961,7.057,126.089,7.328,126.279,7.532"/>
	<path fill="#FFFFFF" d="M80.781,10.675c0.098,0.139,0.192,0.293,0.201,0.465c0.296,0.373,0.456,0.795,0.653,1.195v1.216
		l0.043,0.033c-0.022,0.624,0,1.222,0.127,1.771c-0.011,0.154-0.062,0.368,0.044,0.502v1.029l0.048,0.043
		c-0.021,0.406,0.032,0.839-0.048,1.228c0.091,0.192,0,0.48,0.08,0.673c-0.021,0.358,0.229,0.651,0.085,1.009
		c-0.154,0.635,0.123,1.286-0.085,1.895c0.079,0.234,0.031,0.529,0.042,0.79c-0.091,0.069,0,0.198-0.074,0.262
		c-0.017,0.795,0.011,1.729-0.021,2.539c0.005,0.338,0.208,0.711,0.021,1.031c-0.401,0.795-0.154,1.863-0.219,2.781
		c0.074,0.068,0,0.202,0.052,0.289c0.098,0.527,0.621,0.922,0.536,1.51c-0.021,0.129-0.162,0.182-0.252,0.266
		c-0.315-0.053-0.454,0.359-0.758,0.24c-0.442-0.111-0.523,0.679-0.987,0.459c-0.374-0.025-0.491-0.603-0.908-0.555
		c-0.053-0.063-0.149-0.048-0.225-0.074c-0.512-0.234-0.352-0.864-0.521-1.298c-0.075-0.214-0.064-0.475-0.064-0.714
		c-0.064-0.182-0.021-0.422-0.033-0.641c-0.147-0.4-0.367-0.79-0.197-1.271c-0.074-0.346-0.208-0.741-0.116-1.109
		c-0.054-0.075,0.009-0.203-0.092-0.262c0.017-0.443,0.101-0.967-0.074-1.367c-0.106-0.281,0.208-0.532,0.049-0.79
		c-0.039-0.293-0.124-0.582-0.091-0.891c0.096-0.203,0.073-0.492,0.021-0.7c-0.01-0.148-0.063-0.357,0.043-0.476
		c0.053-0.405-0.032-0.708,0-1.12c-0.097-0.235-0.075-0.587-0.021-0.849c-0.064-0.347,0.229-0.603,0.049-0.935
		c0.126-0.736-0.263-1.249-0.124-1.985c0.064-0.171,0.021-0.406,0.033-0.598c-0.054-0.155-0.054-0.369,0-0.507
		c0.021-0.124-0.043-0.277,0.063-0.343c0.01-0.491-0.012-0.966-0.063-1.43c0.144-0.283,0.26-0.571,0.116-0.881
		c0.061-0.235-0.021-0.523,0.07-0.748c-0.043-0.17,0.063-0.278,0.053-0.421c0.24-0.385,0.135-1.116,0.737-1.147
		c0.101-0.086,0.25-0.012,0.356-0.064c0.321-0.117,0.641-0.272,1.015-0.176C80.493,10.574,80.654,10.553,80.781,10.675"/>
	<path fill="#FFFFFF" d="M76.906,14.37c0.145,0.293,0.257,0.629,0.176,0.986c-0.154,0.315-0.336,0.609-0.315,0.988
		c-0.096,0.133,0.021,0.399-0.096,0.543c-0.054,0.203,0.031,0.471-0.085,0.652c-0.062,0.694-0.021,1.441-0.037,2.163l0.037,0.043
		c0.021,0.389-0.037,0.806,0.043,1.174c0.021,0.112,0.063,0.272-0.043,0.357c0.021,0.144-0.043,0.326,0.064,0.438
		c-0.033,0.357,0.138,0.629,0.074,0.998l0.042,0.032c-0.064,0.449,0.119,0.839,0,1.25c-0.01,0.106,0.013,0.181,0.054,0.26
		c-0.128,0.496,0.172,0.877,0.107,1.367c0.043,0.736-0.021,1.371,0.059,2.088c0.09,0.079,0,0.229,0.074,0.304
		c0.113,0.438-0.133,0.827,0,1.249c0.021,0.084-0.032,0.197,0.043,0.262c0.049,0.639-0.091,1.205-0.043,1.846
		c-0.074,0.055-0.01,0.166-0.053,0.24c-0.102,0.248-0.391,0.268-0.497,0.486c-0.416,0.144-0.679,0.629-1.152,0.496
		c-0.33-0.266-0.918-0.299-0.961-0.832c-0.053-0.107,0.012-0.283-0.097-0.368c0.021-0.472-0.01-0.924-0.117-1.335
		c-0.021-0.262,0.054-0.556-0.054-0.773c0.054-0.262-0.096-0.498-0.042-0.758c-0.08-0.107,0.042-0.305-0.08-0.418
		c0.017-0.608-0.219-1.266,0.037-1.825c-0.133-0.282-0.148-0.555-0.224-0.838c0.048-0.181-0.074-0.287-0.032-0.474
		c-0.086-0.177,0-0.401-0.086-0.576c-0.011-0.264,0.054-0.556-0.053-0.769c0.032-0.14-0.139-0.252-0.076-0.428l-0.041-0.032v-1.43
		c-0.081-0.076-0.011-0.229-0.064-0.315c-0.021-0.208-0.048-0.449,0.021-0.641c0.043-0.534-0.246-0.848-0.145-1.42
		c0.209-0.517,0.021-1.243,0.166-1.82l0.021-1.008c0.041-0.123,0.074-0.251,0.117-0.379c-0.076-0.208,0.128-0.293,0.053-0.501
		c0.086-0.087,0-0.241,0.086-0.337c-0.055-0.214,0.133-0.325,0.102-0.533c0.021-0.098,0.112-0.193,0.074-0.295
		c0.476-0.528,1.096-0.966,1.814-0.977c0.113-0.106,0.285,0.053,0.391-0.074C76.757,13.388,76.661,14.049,76.906,14.37"/>
	<path fill="#FFFFFF" d="M137.884,23.443c0.044,0.225,0.098,0.438,0.098,0.672c0.208,0.385-0.005,0.801,0.069,1.234
		c-0.069,0.469-0.336,0.859-0.454,1.301c-0.268,0.48-0.342,1.025-0.843,1.394c0.021,0.112-0.027,0.204-0.118,0.241
		c-0.423,0.062-0.769,0.762-1.238,0.304c-0.225-0.021-0.31-0.294-0.416-0.46c-0.043-0.149-0.074-0.298-0.118-0.453
		c-0.054-0.379-0.332-0.715-0.17-1.143c0.043-0.293,0.062-0.619,0.127-0.869c0.113-0.236,0.14-0.507,0.268-0.737
		c0.021-0.181,0.117-0.384,0.213-0.555c0.097-0.183,0.012-0.443,0.209-0.593c0.23-0.176,0.527-0.197,0.703-0.438
		c0.162-0.026,0.274-0.133,0.445-0.117c0.143-0.048,0.341,0.016,0.479-0.059c0.171,0.032,0.289-0.085,0.47-0.042L137.884,23.443"/>
	<path fill="#FFFFFF" d="M87.336,26.459c-0.416,0.191-0.886,0.4-1.152,0.838c-0.053,0.053,0.016,0.16-0.064,0.192
		c0.021,0.251-0.031,0.448-0.095,0.667c0.073,0.149,0.095,0.32,0.137,0.486c0.122,0.203,0.321,0.271,0.492,0.379
		c0.608,0.042,1.132-0.086,1.74-0.043c0.085-0.133,0.203,0.012,0.336-0.032c0.507-0.106,1.104-0.011,1.543-0.304
		c0.116-0.178,0.085-0.422,0.181-0.604c-0.032-0.235-0.086-0.438-0.159-0.645c-0.294-0.413-0.555-0.802-1.089-0.833
		c-0.139-0.111-0.32-0.102-0.465-0.203C88.275,26.395,87.742,26.273,87.336,26.459 M89.278,18.688
		c0.386,0.079,0.711,0.32,1.058,0.48c0.226,0.085,0.481,0.134,0.673,0.305c0.182,0.01,0.31,0.181,0.48,0.229
		c0.479,0.411,0.929,0.891,1.249,1.387c0.127,0.246,0.304,0.448,0.357,0.7c0.112,0.282,0.251,0.528,0.337,0.811
		c-0.032,0.22,0.105,0.363,0.144,0.551c0,0.293,0.144,0.56,0.144,0.886c0.171,0.229,0.16,0.587,0.149,0.837
		c0.171,0.453,0.171,0.988,0.087,1.484c-0.13,0.166-0.065,0.405-0.23,0.561c0.021,0.357,0.325,0.609,0.325,0.977l0.032,0.027
		c-0.022,0.326,0.053,0.678-0.096,0.938c0.021,0.321-0.118,0.567-0.097,0.876c-0.107,0.234-0.011,0.539-0.24,0.721
		c-0.368,0.139-0.699,0.399-1.03,0.629c-0.021,0.38-0.288,0.582-0.533,0.86c-0.097,0.118-0.282,0.085-0.405,0.176
		c-0.363-0.069-0.693-0.22-0.972-0.513c-0.224-0.186-0.577-0.153-0.849-0.102c-0.603,0.305-1.03,1.133-1.874,0.912
		c-0.17,0.044-0.32,0.166-0.495,0.221c-0.401,0-0.753,0.16-1.154,0.021c-0.475,0.282-1.158,0.149-1.627-0.118
		c-0.358-0.042-0.694-0.304-0.871-0.641c-0.128-0.058-0.144-0.25-0.262-0.34c-0.084-0.263-0.224-0.496-0.262-0.791
		c-0.074-0.122-0.021-0.229-0.03-0.337c-0.012-0.122-0.103-0.272,0.01-0.356c-0.043-0.103,0-0.198,0.048-0.283
		c0.16-0.641-0.32-1.078-0.048-1.639c-0.325-0.545,0.176-0.993,0.282-1.479c0.154-0.165,0.252-0.347,0.32-0.554
		c0.054-0.24,0.374-0.219,0.374-0.48c0.31-0.117,0.576-0.336,0.94-0.336c0.287,0,0.507-0.22,0.789-0.242
		c0.117-0.031,0.225-0.094,0.314-0.169c0.134-0.032,0.21,0.096,0.337,0.054c0.448-0.391,1.089-0.086,1.602-0.054
		c0.224,0.021,0.373,0.235,0.651,0.149c0.094,0.086,0.256,0.01,0.372,0.068c0.188-0.016,0.472,0.102,0.599-0.102
		c0.08-0.148,0.103-0.347,0.06-0.518c-0.155-0.305-0.476-0.373-0.7-0.625c-0.422-0.16-0.705-0.517-1.19-0.555
		c-0.187-0.08-0.399-0.075-0.608-0.117c-0.165-0.021-0.369-0.043-0.518,0.027c-0.416-0.059-0.843-0.124-1.254-0.176
		c-0.042-0.054-0.112-0.043-0.176-0.043c-0.182-0.107-0.358-0.278-0.567-0.262c-0.181-0.075-0.447,0.064-0.624-0.032
		c-0.133,0-0.262,0-0.358-0.085c-0.159-0.235-0.02-0.576-0.121-0.838c-0.022-0.16-0.055-0.315-0.038-0.491
		c0.074-0.128,0.079-0.294,0.159-0.422c-0.085-0.549,0.119-1.003,0.311-1.445c0.267-0.156,0.608-0.241,0.764-0.524
		c0.262-0.251,0.694-0.235,1.03-0.31c0.262,0.042,0.385-0.091,0.65-0.042c0.166-0.08,0.406,0.005,0.557-0.08
		C87.955,18.484,88.645,18.597,89.278,18.688z"/>
	<path fill="#FFFFFF" d="M65.763,27.276c-0.455,0.224-0.88,0.545-1.27,0.929c-0.357,0.288-0.749,0.72-1.249,0.656
		c-0.251,0.086-0.329,0.347-0.337,0.573c0.4,0.404,0.79,0.965,1.389,1.023c0.49,0.127,0.935,0.48,1.489,0.41
		c0.293,0.011,0.371-0.336,0.459-0.527c0.043-0.369,0.336-0.721,0.051-1.078c-0.075-0.172,0.013-0.422-0.075-0.599
		c0.045-0.212-0.087-0.368-0.043-0.599c-0.13-0.197,0.031-0.506-0.13-0.693C65.951,27.34,65.884,27.239,65.763,27.276
		 M53.391,11.882c0.252,0.075,0.552,0.017,0.835,0.042c0.402,0.176,0.513,0.646,0.595,1.053c0.233,0.074,0.555-0.112,0.71,0.149
		c0.116,0.175,0.044,0.416,0.185,0.582c0,0.128,0.109,0.208,0.152,0.326c0.054,0.224,0.305,0.368,0.282,0.63
		c0.063,0.054,0.033,0.149,0.099,0.192c0.097,0.155-0.086,0.229-0.119,0.335c-0.381,0.673-0.578,1.415-0.87,2.11
		c-0.035,0.422-0.392,0.715-0.307,1.195c-0.38,0.16-0.021,0.662-0.337,0.864c0.035,0.166-0.029,0.278-0.117,0.386v0.88
		c0.117,0.069,0.28,0.011,0.379,0.128c0.512-0.182,1.174-0.005,1.651-0.293c0.262-0.059,0.62,0.07,0.835-0.134
		c0.143-0.016,0.283,0.006,0.415,0.059c0.227-0.116,0.522-0.315,0.771-0.116c0.089-0.043,0.209-0.07,0.24,0.058
		c0.38,0.059,0.924-0.176,1.119,0.277c0.304,0.016,0.304,0.396,0.576,0.438c0.042,0.075,0.174,0.107,0.131,0.213
		c0.291,0.449,0.475,0.945,0.615,1.458c0.145,0.272,0.199,0.571,0.336,0.848c0.048,0.347,0.188,0.705,0,1.009
		c-0.041,0.118,0.089,0.177,0.066,0.278c0.36-0.076,0.521-0.508,0.915-0.572c0.032-0.133,0.229-0.059,0.262-0.175
		c0.282-0.278,0.651-0.38,0.944-0.641c0.238,0.011,0.348-0.262,0.596-0.219c0.208-0.117,0.479-0.106,0.695-0.181
		c0.078-0.075,0.23,0.011,0.308-0.075c0.249-0.053,0.531-0.037,0.749-0.176c0.271-0.096,0.586-0.081,0.89-0.085
		c0.053-0.08,0.173-0.011,0.239-0.054c0.324-0.016,0.728-0.102,0.999,0.075c0.357,0.204,0.74,0.449,0.987,0.816
		c0.23,0.043,0.403,0.262,0.576,0.38c0.067,0.075,0.118,0.01,0.197,0.054c0.401,0.168,0.66,0.463,0.758,0.879
		c0.152,0.107,0.1,0.299,0.283,0.391c0.057,0.17,0.132,0.346,0.175,0.523c0.044,0.234,0.293,0.39,0.315,0.629
		c-0.141,0.513,0.162,0.893,0.183,1.361c0.047,0.043,0.035,0.101,0.035,0.17c-0.043,0.053-0.063,0.107-0.056,0.182
		c0.102,0.102,0.056,0.289,0.045,0.416c-0.087,0.064,0,0.193-0.087,0.256c0.055,0.289,0.042,0.589,0.042,0.893
		c0.088,0.145,0.088,0.395,0,0.545c-0.021,0.207-0.129,0.406-0.064,0.629c0.022,0.492-0.129,0.962-0.488,1.314
		c0.075,0.309,0.066,0.688-0.187,0.912c-0.044,0.592-0.663,0.95-0.988,1.371c-0.142,0.177-0.347,0.316-0.575,0.338
		c-0.086,0.127-0.219-0.012-0.314,0.102c-0.119,0.015-0.217-0.027-0.304-0.081c-0.183,0.021-0.424,0.042-0.601-0.021
		c-0.236-0.033-0.41,0.148-0.629,0.102c-0.075,0.085-0.228,0-0.303,0.085c-0.25,0.048-0.501,0.171-0.773,0.214
		c-0.28-0.043-0.528-0.151-0.79-0.214c-0.643,0-1.165-0.124-1.708-0.332c-0.651,0.026-1.129-0.368-1.627-0.688
		c-0.608-0.25-0.608-0.918-1.175-1.291c-0.067-0.177-0.241-0.258-0.337-0.422c-0.294-0.748-1.029-1.303-1.192-2.104
		c-0.438-0.47-0.166-1.229-0.241-1.847c0.054-0.021,0.044-0.075,0.044-0.122c0.087-0.353,0.424-0.609,0.39-1.01
		c0.045-0.129,0.109-0.256,0.208-0.38c0.325-0.218,0.478-0.585,0.65-0.911c-0.229-0.044-0.501,0.021-0.715-0.055
		c-0.262,0.076-0.394-0.219-0.633-0.143c-0.347,0.153-0.573,0.512-1.02,0.438c-0.045,0.074-0.141,0.021-0.22,0.042
		c-0.389,0.396-0.943,0.165-1.422,0.192c-0.575-0.043-1,0.293-1.553,0.319c-0.317-0.068-0.531,0.193-0.771,0.241
		c-0.162,0.096-0.467,0.021-0.457,0.304c-0.393,0.183-0.055,0.7-0.445,0.907c0,0.262-0.13,0.545,0,0.795
		c0.099,0.252,0.047,0.567,0.209,0.797c0.063,0.255,0.053,0.587-0.142,0.789c0.205,0.523,0.336,1.067,0.39,1.628
		c0.173,0.503,0.131,1.091,0.424,1.537c0.021,0.183-0.032,0.354-0.024,0.509c0.488,0.367,0.336,1.072,0.673,1.531
		c0.035,0.207,0.145,0.379,0.307,0.539c0.053,0.288,0.259,0.512,0.436,0.752c0.402,0.197,0.978,0.064,1.248,0.502
		c0.044,0.326-0.062,0.561-0.055,0.912c-0.021,0.199,0.108,0.433,0.108,0.674c0.089,0.127,0.014,0.314,0.067,0.454
		c-0.133,0.612,0.337,1.489-0.339,1.851c-0.161,0.065-0.29,0.184-0.476,0.184c-0.12,0.144-0.314-0.055-0.436,0.096
		c-0.521,0.09-0.947-0.191-1.198-0.613c0.015-0.156-0.18-0.156-0.172-0.295c-0.26-0.176-0.553-0.256-0.801-0.449
		c-0.294-0.346-0.546-0.747-0.75-1.152c-0.449-0.576-0.676-1.25-1.081-1.846c-0.192-0.545-0.562-1.031-0.67-1.587
		c-0.195-0.378-0.357-0.772-0.315-1.248c-0.347-0.327-0.29-0.827-0.577-1.175c-0.083-0.443-0.227-0.854-0.336-1.291
		c-0.074-0.316-0.227-0.619-0.28-0.913c0-0.565-0.307-1.004-0.272-1.565c-0.165-0.27-0.175-0.607-0.423-0.816
		c-0.196,0.012-0.427-0.053-0.577,0.059c-0.424,0.027-0.718,0.477-1.15,0.529c-0.563,0.32-1.09,0.816-1.705,1.041
		c-0.229,0.363-0.796,0.598-0.599,1.11c0.034,0.347-0.163,0.747,0.022,1.083c0.152,0.438-0.142,0.908,0.095,1.298
		c-0.029,0.313-0.073,0.618-0.062,0.956c0.185,0.229,0.062,0.575,0.105,0.858c-0.086,0.054-0.009,0.165-0.065,0.239
		c-0.052,0.129-0.096,0.262-0.116,0.412c-0.078,0.054-0.011,0.171-0.054,0.24c0.031,0.24-0.134,0.399-0.241,0.576
		c-0.141,0.455-0.154,0.998-0.6,1.291c-0.564,0.013-1.151,0.172-1.625-0.138c-0.361-0.95-1.383-1.046-1.988-1.751
		c0.021-0.459-0.348-0.859-0.294-1.318c-0.067-0.326-0.198-0.614-0.265-0.939c-0.107-0.176-0.127-0.385-0.139-0.582
		c0.012-0.342-0.336-0.539-0.383-0.854c-0.151-0.102-0.096-0.289-0.215-0.396c-0.251-0.367-0.619-0.65-1.055-0.597
		c-0.074-0.085-0.148,0-0.237-0.085c-0.511-0.023-0.99-0.107-1.521-0.075c-0.11,0.085-0.283,0-0.379,0.075
		c-0.109,0-0.23-0.011-0.308,0.069c-0.127-0.069-0.326,0.042-0.436-0.069c-0.195,0.021-0.432-0.043-0.597,0.069
		c-0.15-0.038-0.324,0.073-0.485,0.028c-0.22,0-0.492,0-0.697,0.089c-0.229,0.011-0.394,0.128-0.618,0.095
		c-0.413,0-0.698,0.508-1.151,0.242c-0.306,0.096-0.612,0.207-0.958,0.218c-0.152,0.091-0.358-0.011-0.531-0.042
		c-0.194,0.047-0.337,0.234-0.554,0.219c-0.229-0.129-0.533-0.027-0.76-0.135c-0.284-0.037-0.328-0.545-0.632-0.379
		c-0.163,0.006-0.348-0.037-0.479,0.043c-0.229-0.025-0.445,0.192-0.661,0.032c-0.447-0.058-0.957,0.011-1.25-0.438
		c-0.248-0.469-0.513-0.934-0.718-1.436c0.045-0.158-0.075-0.305-0.032-0.485c-0.099-0.118,0.032-0.337-0.12-0.421
		c0.021-0.145-0.151-0.197-0.097-0.363c-0.087-0.129-0.02-0.3,0.009-0.433c0.102-0.187,0.328-0.347,0.264-0.577
		c0.029-0.062,0.108-0.117,0.072-0.219c0.166-0.105,0.251-0.352,0.47-0.309c0.139-0.06,0.292-0.069,0.434-0.145
		c0.055-0.181,0.253-0.207,0.381-0.305c0.217,0.112,0.317-0.105,0.576-0.032c0.16-0.042,0.336-0.063,0.488-0.116
		c0.205-0.043,0.411-0.075,0.619-0.119c0.078,0.028,0.196,0.055,0.283,0.018c0.057-0.086,0.159-0.006,0.226-0.065
		c0.482-0.16,0.971-0.325,1.512-0.313c0.53-0.389,1.284-0.293,1.869-0.502c0.141-0.031,0.262-0.14,0.425-0.117
		c0.073-0.074,0.219,0.01,0.292-0.074c0.358,0.031,0.599-0.252,0.936-0.262c0.434-0.241,0.966-0.251,1.434-0.438
		c0.304-0.032,0.487-0.16,0.815-0.138c0.174-0.054,0.358-0.118,0.531-0.178c0.216,0.033,0.348-0.148,0.573-0.084
		c0.134-0.033,0.264-0.076,0.405-0.118c0.175,0.011,0.271-0.155,0.479-0.102c0.028-0.073,0.106-0.016,0.171-0.026
		c0.13-0.133,0.327-0.154,0.357-0.362c0.108-0.129,0.108-0.359,0.077-0.546c-0.011-0.517-0.064-1.125,0.045-1.606
		c-0.166-0.592,0.391-0.971,0.194-1.585c0.03-0.134,0.1-0.25,0.1-0.4c-0.078-0.598,0.499-0.918,0.739-1.346
		c0.191-0.262,0.475-0.48,0.769-0.598c0.293,0.075,0.544-0.197,0.813-0.262c0.174,0.085,0.414,0,0.577,0.085
		c0.099-0.074,0.24-0.021,0.36-0.042c0.282,0.096,0.238,0.411,0.432,0.57c0.021,0.145,0.131,0.251,0.143,0.406
		c0.109,0.262,0.282,0.496,0.26,0.811c-0.073,0.054,0,0.187-0.099,0.246c-0.042,0.278-0.105,0.598,0.056,0.849
		c0.1,0.235,0.238,0.497,0.238,0.79c-0.021,0.421-0.151,0.891,0.143,1.26c0.01,0.118,0.144,0.175,0.219,0.272
		c0.336,0.054,0.53-0.256,0.856-0.219c0.078-0.085,0.219,0.011,0.292-0.079c0.424,0.042,0.643-0.247,1.099-0.139
		c0.196-0.107,0.436-0.117,0.671-0.139c0.153-0.032,0.295-0.102,0.46-0.123c0.076-0.085,0.229,0.015,0.294-0.075
		c0.358,0.096,0.555-0.187,0.878-0.139c0.164-0.058,0.185-0.229,0.262-0.357c0.021-0.294,0.109-0.565,0.075-0.891l0.045-0.043
		c0.021-0.293-0.066-0.646,0.075-0.891c0.009-0.059-0.022-0.123,0.042-0.144c0.014-0.134-0.052-0.305,0.056-0.391
		c0.012-0.465,0.11-0.902,0.38-1.259c-0.021-0.064,0.031-0.097,0.054-0.155c-0.109-0.31,0.109-0.556,0.119-0.833
		c0.089-0.075,0-0.229,0.089-0.293c-0.046-0.235,0.217-0.327,0.152-0.566c0.056-0.165,0.116-0.315,0.239-0.459
		c0.095-0.234,0.164-0.421,0.302-0.645c0.045-0.07,0.146-0.155,0.131-0.262c0.057-0.026,0.046-0.074,0.046-0.118
		c0.116-0.246,0.294-0.496,0.531-0.635c0.175-0.587,0.251-1.254,0.814-1.607c0.412-0.16,0.693-0.624,1.152-0.667l0.043-0.032
		C52.913,11.839,53.182,11.77,53.391,11.882z"/>
	<path fill="#FFFFFF" d="M9.388,28.846v0.015l-0.056-0.032C9.346,28.846,9.367,28.846,9.388,28.846"/>
</g>
</svg>
