<?xml version="1.0" encoding="utf-8"?>
<!-- Generator: Adobe Illustrator 19.1.0, SVG Export Plug-In . SVG Version: 6.00 Build 0)  -->
<svg version="1.1" id="Layer_1" xmlns="http://www.w3.org/2000/svg" xmlns:xlink="http://www.w3.org/1999/xlink" x="0px" y="0px"
	 viewBox="-59 141 200 200" style="enable-background:new -59 141 200 200;" xml:space="preserve">
<style type="text/css">
	.st0{fill:#FF6600;}
</style>
<g>
	<path class="st0" d="M53.9,300c-0.2,0,0,0.3-0.2,0.6c-0.2,0.3-0.5,0.4-0.4,0.5c0.1,0.1,0.2,0,0.4-0.2C53.9,300.7,54.1,300,53.9,300
		 M55.5,297.3c-0.3,0-0.4,0.4-0.5,0.7c-0.1,0.3-0.7,0.3-0.6,0.5c0.1,0.2-0.1,0.6,0.1,0.8c0.1,0.2,0.1-0.2,0.3-0.4
		c0.3-0.2,0.5-0.7,0.6-0.9C55.4,297.8,55.8,297.3,55.5,297.3z M52.2,304.9c-0.1,0.2,0,0.2-0.1,0.3c-0.1,0.1-0.5,0.3-0.4,0.4
		c0.1,0.2,0.2,0.1,0.3,0.2c0.1,0.1-0.3,0.8-0.2,0.8c0.1,0,0.2,0.1,0.4-0.4c0.2-0.5,0-0.6,0-0.8c0-0.2,0.1-0.7,0-0.6
		C52.2,304.9,52.2,304.9,52.2,304.9z M40.3,305c-0.1,0.2,0.2,0.5,0.1,0.6c-0.1,0.1-0.4,0.2-0.3,0.3c0.1,0.1,0.1,0.8,0.1,1.1
		c0.1,0.3,0,0.8,0.2,0.7c0.1,0-0.1-0.4,0.2-0.8c0.2-0.4,0.2-0.8,0.2-1c0-0.2,0.1-0.7-0.1-0.9C40.5,304.8,40.4,304.9,40.3,305z
		 M39,301.2c-0.1,0-0.2,0.1-0.2,0.2c0.1,0.2,0.4,0.5,0.4,0.7c0,0.2,0,1,0,1.1c0,0.1-0.1,0.2-0.1,0.4c0.1,0.1,0.2,0,0.2,0
		c0-0.1-0.1-0.3-0.1-0.5c0-0.2,0.1-0.8,0.1-1c-0.1-0.2,0-0.7-0.2-0.8C39.2,301.3,39.1,301.2,39,301.2z M41.4,299.9
		c-0.1,0-0.1,0.5-0.1,0.6c0,0.1,0,0.6-0.1,0.6c-0.1,0-0.3,0-0.2,0.1c0.1,0.1,0.2,0.1,0.3,0c0.1-0.1,0.3-0.1,0.4-0.2
		c0.1-0.1,0.1-0.2,0-0.3C41.6,300.5,41.6,299.9,41.4,299.9z M39.7,299.3c-0.1,0-0.1,1.2-0.1,1.2s0.2,0.4,0.2,0.6
		c0.1,0.2-0.1,0.6,0,0.6c0,0,0.3,0,0.3,0.2c0,0.2-0.2,0.1-0.3,0.3c-0.1,0.1,0,1,0.1,1.2c0.1,0.2,0,0.8,0,0.8s0.1,0.1,0.1-0.1
		c0-0.2-0.1-0.5-0.1-0.6c0.1-0.1,0.1-0.1,0.2,0.1c0.1,0.1,0.2,0.8,0.3,0.9c0.1,0.1,0.1,0.2,0.2,0.2c0.1,0,0-0.4,0-0.6
		c0-0.2,0-0.7,0-0.7s-0.2,0.1-0.2,0c0-0.1-0.2-1.1,0-1.2c0.2-0.1,0.2,0,0.2-0.4c0-0.4,0.1-0.8,0.1-0.9c0-0.1-0.2-0.3-0.2-0.5
		c0-0.1,0.2-0.8-0.1-0.7c-0.2,0-0.2,0.3-0.1,0.4c0,0.1,0.1,0.5,0.1,0.6c0,0.1-0.2,0.1-0.2,0c0-0.1-0.1,0-0.2,0
		c-0.1,0.1-0.1,0-0.1-0.2c0-0.2,0-0.5,0-0.7C39.8,299.7,39.8,299.3,39.7,299.3z M-6.7,296.8c-0.1,0.1,0,0.1,0.1,0.2
		c0.1,0.1,0.1,0.5,0.3,0.5c0.2,0,0.2,0.1,0.2,0c0-0.1-0.3-0.3-0.3-0.4C-6.4,297-6.7,296.8-6.7,296.8z M-6.1,291.7
		c-0.1,0.1,0,0.3,0.1,0.4c0.1,0,0.2,0.3,0.3,0.2c0-0.1,0-0.2-0.1-0.3C-6,291.8-6.1,291.6-6.1,291.7z M-6.7,289.8
		c-0.1,0.1,0.1,0.1,0.1,0.3c-0.1,0.2-0.2,0.5-0.2,0.7c0,0.1,0,0.4,0.1,0.4c0,0,0.2-0.3,0.2-0.4c0-0.1-0.1-0.2,0-0.4
		c0.1-0.2,0.1-0.3,0-0.4C-6.5,289.8-6.7,289.8-6.7,289.8z M-3.4,286c0,0,0.1,0.1,0.2,0.3c0.1,0.2,0.1,0.2,0.1,0.1
		c0-0.1,0.2-0.1,0.1-0.3c-0.1-0.1-0.3-0.2-0.3-0.2C-3.4,285.8-3.4,286-3.4,286z M-3.8,285.7c-0.1,0-0.3,0.2-0.1,0.3
		c0.2,0.1,0.3-0.1,0.3-0.1C-3.6,285.7-3.7,285.6-3.8,285.7z M-3.6,284.6c-0.1,0-0.3,0-0.3,0.1c0,0.1,0.2,0.1,0.2,0.1
		c0.1,0,0.1,0.1,0.2,0.1C-3.5,284.8-3.6,284.6-3.6,284.6z M-6.2,294.3c-0.1,0-0.4,0-0.3,0.1c0,0.1,0.1,0.2,0.2,0.2
		c0.1,0,0.3-0.1,0.3-0.1S-6.1,294.4-6.2,294.3z M-6,290.5c-0.1,0.1,0,0.4,0.1,0.3c0.1,0,0.2,0,0.2-0.1c0-0.1,0-0.3,0-0.3
		C-5.7,290.4-5.9,290.4-6,290.5z M-5.2,292.5c-0.1,0.1,0,0.3,0,0.3c0.1,0,0.2,0,0.2-0.1c0-0.1,0-0.2,0-0.2
		C-5,292.5-5.1,292.5-5.2,292.5z M-4.3,294.4c-0.1,0.1,0,0.3,0,0.3c0.1,0,0.2-0.1,0.2-0.1c0-0.1,0-0.2,0-0.2
		C-4,294.3-4.2,294.3-4.3,294.4z M-3,282.7c-0.1,0.1,0,0.3,0.1,0.3c0.1,0,0.2-0.1,0.2-0.1c0-0.1,0-0.3,0-0.3
		C-2.7,282.6-2.9,282.6-3,282.7z M67.3,271.4c-0.4,0.4-0.7,1-0.9,1.6c0.2,0.4,0.5-0.3,0.5-0.2c-0.3,0.5-0.8,0.9-0.8,1.6
		c-0.1,0.6-0.6,0.8-0.4,1.4c-0.2,0.2-0.7,0.5-0.4,0.9c-0.2,0.3-0.5,0.6-0.3,0.9c-0.5,0-0.6,0.6-1,0.9c0.1,0.2,0.2,0.6,0.1,0.9
		l-0.1-0.3c-0.3,0.2-0.1,0.6,0.1,0.7c-0.1,0.4-1,0.9-0.5,1.4l-0.2-0.2c-0.3,0.3-0.5,0.9-0.3,1.3l-0.1-0.2c-0.2,0.8-0.5,1.7-1.2,2.3
		c0.1,0.8-0.6,1.2-0.5,2c-0.3,0.2,0,0.9-0.3,1.1l-0.5,0.9l-0.1-0.2c-0.2,0.2,0,0.7-0.2,1c-0.1,0.4-0.8,0.3-0.5,0.9l-0.2-0.1
		c-0.4,0.4-0.3,1.1-0.2,1.5c-0.1,0.3-0.1,0.4-0.1,0.8c-0.1-0.2,0-0.4-0.2-0.4c-0.4-0.1-0.3,0.3-0.4,0.5h0.1v0.3h-0.1
		c0-0.1,0-0.1-0.1-0.2c-0.1,0.1-0.2,0.2-0.2,0.4l0.3,0c-0.4,0.3,0.1,0.7-0.5,0.9c0-0.3,0.3-0.5,0.1-0.8c-0.5,0.2-0.4,0.9-0.7,1.2
		c0.1,0,0,0.3,0.2,0.2l0.1-0.1c-0.6,0.4,0.1,1.3-0.6,1.5c0,0.5-0.6,1-0.1,1.6c0,0.3-0.2,0.6-0.4,0.7c-0.7,0.7-0.7,1.8-1.3,2.5
		c-0.1,0-0.2,0-0.3-0.1c0.5-0.8,1-1.7,1.5-2.7l0.1,0l-0.2-0.2c-0.3,0.1-0.3,0.3-0.5,0.5l0.1,0.1c-0.8,0.4-0.8,1.5-1.4,2
		c0,0.2-0.1,0.5,0.2,0.6l0.1-0.1c0.1,0.2,0.2,0.3,0.1,0.5l-0.2,0.1c0-0.2,0.1-0.4-0.1-0.4c-0.6-0.2-0.2,0.5-0.4,0.7
		c0.2,0.5,0,1,0.1,1.4c-0.5-0.4-0.4,0.3-0.6,0.4c0.3,0.2,0.1,0.6,0.2,0.9c-0.5,0.3-0.5-0.6-0.4-0.9c0.2-0.4,0.4-0.9,0.1-1.3
		c-1,0.7,0.2,1.8-0.7,2.7c-0.1,0.5,0.4,0.5,0.1,1c-0.1,0.5,0.2,1.1,0,1.6l-0.5-0.5c-0.3,0.2-0.1,0.8-0.2,1.1c0-0.1-0.1-0.2-0.2-0.3
		c-0.2,0.8-0.3,1.7-0.1,2.5c-0.1,0-0.1,0.1-0.2,0.2c-0.1,0.2,0.2,0.3,0,0.4l-0.3-0.2c0.2,0.4-0.3,0.9,0.2,1.3l0.3-0.2
		c-0.1,0.6,0.2,1,0,1.5v0.2c-0.3-0.5,0.2-1.2-0.5-1.4c-0.3,0.3-0.2,0.9-0.1,1.2h0.1v0.2c-0.4-0.1-0.3,0.4-0.4,0.6
		c-0.1,0.9,0.1,2.2-0.1,2.9c0.1-0.2-0.1-0.4-0.2-0.5c-0.1,0.3-0.5,0.4-0.3,0.8l0.2-0.1c0,0.8,0.1,2.2-0.4,3c-0.2-0.4-0.3-0.6-0.4-1
		c-0.6,0.7,0.4,1.3-0.3,1.9c-0.4,4-1.7,8.5-3.9,12c-0.4,0.3-0.8,0.8-0.8,1.4c-1,0.7-1.4,1.4-2.4,2.2c-0.4,0.9-1.5,1.3-2.3,1.9
		c-0.1-0.1-0.3-0.1-0.5-0.1c-0.6,0.6-1,1.4-1.2,2.2c-0.2,0.1-0.7,0.1-0.8,0.5c0.1-0.2-0.2-0.2-0.2-0.4c-0.3,0.1-0.3,0.4-0.7,0.4
		c-0.2,0.3-0.4-1.3-0.9-0.4l-0.5-0.5l-0.1,0c-0.7-0.6-0.8-1.3-1.1-2.1l-0.2,0.1c-0.4-0.4-0.3-1-0.5-1.5c-0.4-1.1-0.9-2-1.8-2.7
		c-0.4-1.4-1.6-2.7-2.2-4.1c-0.6-1.6-1.9-2.6-2.5-4.2c-0.9-1.1-1.5-2.5-2.4-3.7c-4.3-6-9.1-12.4-15.6-16.3c-1.6-1.5-3.8-2.4-5.7-3.1
		c-0.3-0.3-1.1-0.7-1.7-0.5c0.1-0.4-0.3-0.4-0.5-0.5H0.5c-0.2-0.7-1,0-1.3-0.5c-0.6,0.2-0.7-0.9-1.1-0.3c-0.9,0.2-0.6-1-1.5-0.9
		c-0.7,0.2-1.4-0.2-1.9-0.7c-0.4,0-0.7-0.3-1.1-0.6c0-0.6-1-0.6-0.5-1.2c-0.1-0.3-0.5-0.2-0.6-0.1c0-0.1,0-0.3-0.1-0.4l0.1-0.1
		l0.3,0.3c0.4-0.2,0.4-0.8,0-1c0.5-0.5,0.5,0.8,1,0.1c0.4,0.2,1,0.4,1.5,0.3c0-0.2-0.2-0.3-0.4-0.4c-0.4-0.3-1.2-0.2-1.4-0.7
		c-0.8,0.5-0.3-0.8-1-0.6v-0.2c0.1,0.1,0.2,0.2,0.3,0.1c0.2,0,0.1-0.2,0.1-0.3c0.7-0.1,1.1,0.5,1.6,0.1c0.2-0.1,0.8,0,1.1-0.2
		c0-0.1,0-0.2-0.1-0.2h-0.2c0-0.2,0-0.5-0.3-0.5c-0.1,0-0.2,0-0.2,0.1v0.1c-0.2-0.1-0.5-0.3-0.8-0.3c0-0.4-0.3,0.2-0.3-0.2
		c0.2-0.4,0.4,0,0.5-0.5c-0.2-0.8-1.7,0.1-1.4-1.1l0.3-0.2l-0.2-0.2c-0.2,0.2-0.3,0.1-0.5,0h-0.1c0.1-0.1,0.5-0.1,0.5-0.5
		c0-0.2-0.3-0.3-0.2-0.5c0.1,0,0.2,0,0.2,0.1l0.2-0.1c-0.2-0.2-0.3-0.4-0.2-0.6l0.2-0.1c0,0.1,0.1,0.2,0.2,0.2l0.2-0.1
		c-0.6,0-0.4-1.3-1.2-0.7c-0.3-0.5-0.9,0.1-1-0.6h0.2v0.1h0.3l0.1-0.6l0.3,0.3c-0.3,0.2-0.1,0.3,0,0.4l0.1,0.1
		c0-0.1,0.3-0.2,0.2-0.4l-0.2-0.2c0.9,0.4,1.5,0,2.4,0.1c-0.5-0.5-1.4-0.4-1.8-0.8l0.1-0.1l0.4,0.2l0.3-0.5l0.4,0.4
		c0.4-0.3,0.8-0.9,1.4-0.9c0,0.2-0.6,0.1-0.3,0.4c0.1,0.2,0.3,0.2,0.5,0.2c0.1-0.5,0.3-0.8,0-1.3l-0.4-0.3c0.1,0,0.2,0,0.3,0.1
		l0.2-0.2c-0.5-0.3-0.1-0.6,0-0.9c0.2-0.1,0.5-0.4,0.2-0.6l0.3,0.4c0.2-0.7,0-1,0.3-1.6c0.4-0.1,0.7,0.3,0.9-0.1
		c0.3,0.7,0.6-0.5,1,0.2c0.2-0.3,0.5,0,0.7-0.4c0,0.1,0.1,0.3,0.3,0.4c0.2,0,0.8,0.3,1.2,0c0.2,0.2,0.2,0.5,0.5,0.7
		c0.3-0.4,0.8,0.1,1.1-0.4c0,0.3,0.3,0.3,0.5,0.5l0.1-0.2c0.1,0.6,0.8,0.6,1.3,0.7c0.1-0.2,0.3-0.2,0.4-0.1c0.1,0.5,0.6,0.9,1,1
		c0.4-0.2,0.8,0.3,1.3,0.7l0.3-0.3c0.3,0.2,0.3,1,0.9,1c0.4-0.5,0.7,0.2,0.9,0.4l0.1-0.1c-0.2-0.1-0.1,0.5,0.2,0.5
		c0.4,0.3,0.9-0.3,0.9,0.4c0.8,0.1,1.2,1,1.8,1.1c0.4,1.4,2.1,0.8,2.7,1.9l0.3-0.1c0.4,0.7,1.2,0.7,1.7,1.4l0.3-0.1
		c2.4,1.3,3.8,3.4,5.6,5.7c1.2,0.5,0.9,2.1,2.2,2.5c0.3-0.5,0.1-1.2,0.2-1.7c-0.8-6,0.4-11.6,0-17.5c0.7-2-0.7-4.4,1.4-5.8
		c1.4-0.4,0.7-2.2,2.3-2.1c-0.2-0.8,0.7-0.1,0.9-0.7c0.7,0.5,0.7-0.9,1.4-0.2c0.2-0.3,0.4-1.2,1-0.8c1.4,0.7,2.7-0.1,3.9,1.5
		l0.2-0.2c0.7,0.6,1.3,1.7,2.3,1.6c0.3,1.4,1.9,2.3,2.7,3.3c-0.1,0.8,0.6,1.4,0.9,2.2c0.4,1.3,0.9,2.6,0.9,3.8l-0.4,0.6
		c0.2,2.5-0.5,4.5-0.1,6.6c-0.1,0.6-0.3,1.3-0.3,1.9l-0.1-0.1c-0.2,0.4-0.3,0.9-0.3,1.4c-0.2,0.3-0.1,0.8-0.5,1.1v0.6
		c-0.1,0.1-0.1,0-0.1-0.1c-0.1,1.2-0.2,2.2,0.1,3.3l0.2-0.2c0.1,0.1,0.1,0.2,0.1,0.4c-0.3,0,0,0.5-0.3,0.8c0,0,0.1,0.1,0.2,0.1
		c0.1-0.2,0.1-0.4,0.3-0.6c0.3,0.6-0.5,1.6,0.1,1.7c0.1,0.9-0.6,1.3-0.7,2.1c-0.2-0.3-0.1-0.7-0.2-1l-0.2,0.5
		c-0.1,0.9,0.1,2.1,0.2,3l0.2-0.1c2.3-7.6,6.9-14.5,11.4-20.9c3.4-5,8.1-8.6,12.6-12c1.3-1.2,2.4-2.7,3.3-4.3
		C68.6,269.2,67.1,269.9,67.3,271.4z"/>
	<polyline class="st0" points="-11.4,288.5 -11.5,288.6 -11.4,288.7 -11.2,288.6 -11.4,288.5 	"/>
	<polyline class="st0" points="-11.9,287.4 -12,287.5 -11.9,287.6 -11.7,287.5 -11.9,287.4 	"/>
	<polyline class="st0" points="-7.3,284 -7.4,284.1 -7.3,284.2 -7.2,284.1 -7.3,284 	"/>
	<polyline class="st0" points="-9.5,284.5 -9.6,284.6 -9.5,284.7 -9.3,284.6 -9.5,284.5 	"/>
	<polyline class="st0" points="-12.4,293.7 -12.7,293.7 -12.7,293.9 -12.4,293.9 -12.4,293.7 	"/>
	<polyline class="st0" points="-9.9,285.2 -10.1,285.3 -9.9,285.5 -9.7,285.3 -9.9,285.2 	"/>
	<polyline class="st0" points="-10.8,285.6 -11,285.7 -10.8,285.9 -10.6,285.7 -10.8,285.6 	"/>
	<polyline class="st0" points="-12.5,292.3 -12.7,292.4 -12.5,292.6 -12.3,292.4 -12.5,292.3 	"/>
	<polyline class="st0" points="-8.3,291.6 -8.4,291.8 -8.3,291.9 -8.1,291.8 -8.3,291.6 	"/>
	<polyline class="st0" points="-10.7,288.7 -10.8,288.8 -10.7,288.9 -10.5,288.7 -10.7,288.7 	"/>
	<polyline class="st0" points="-7,284 -7.2,284.2 -7,284.3 -6.8,284.2 -7,284 	"/>
	<polyline class="st0" points="-9.1,295.1 -9.3,295.2 -9.1,295.4 -9,295.2 -9.1,295.1 	"/>
	<polyline class="st0" points="-10.8,290.9 -11,291.1 -10.8,291.2 -10.6,291.1 -10.8,290.9 	"/>
	<polyline class="st0" points="-11.9,292.5 -12.1,292.6 -11.9,292.8 -11.8,292.6 -11.9,292.5 	"/>
	<polyline class="st0" points="-4.2,283.3 -4.4,283.4 -4.2,283.5 -4.1,283.4 -4.2,283.3 	"/>
	<polyline class="st0" points="-8.7,284.8 -8.9,284.8 -8.7,285 -8.6,284.8 -8.7,284.8 	"/>
	<polyline class="st0" points="-10.7,290.5 -11.5,290.3 -11.4,290.5 -10.8,290.7 -10.7,290.5 	"/>
	<polyline class="st0" points="-9.4,286.1 -10.2,285.8 -10.1,286 -9.5,286.2 -9.4,286.1 	"/>
	<polyline class="st0" points="-10.9,294.6 -11.8,294.2 -11.8,294.5 -11,294.7 -10.9,294.6 	"/>
	<polyline class="st0" points="-7.7,289.3 -8.7,289 -9.1,289 -8.7,289.2 -7.7,289.5 -7.5,289.4 -7.7,289.3 	"/>
	<path class="st0" d="M-10.6,292l-1-0.3c0,0-0.3-0.1-0.3,0c0,0.1,0.5,0.3,0.5,0.3l1,0.3l0.1-0.2L-10.6,292"/>
	<path class="st0" d="M-10.6,287.7l0.3-0.2c0,0,0.2,0.3,0.3,0.5c0.1,0.2,0.5,0.1,0.5,0.1l-0.1-0.2l-0.4-0.3l-0.2-0.5
		c0,0-0.2,0-0.3,0.1c-0.1,0.1-0.3,0.4-0.3,0.4L-10.6,287.7"/>
	<polyline class="st0" points="-8,285.9 -8.3,286 -8.5,285.9 -8.5,286.1 -8.8,286.2 -8.4,286.7 -8.3,286.2 -8,286.2 -7.9,285.8 
		-8,285.9 	"/>
	<path class="st0" d="M51.5,313c0.1,0,0.1-0.1,0.1-0.2c0-0.1-0.1-0.2-0.1-0.2c-0.1,0-0.1,0.1-0.1,0.2C51.4,312.9,51.5,313,51.5,313"
		/>
	<path class="st0" d="M51.7,313.7c0.1,0,0.1-0.1,0.1-0.2s-0.1-0.2-0.1-0.2s-0.1,0.1-0.1,0.2S51.6,313.7,51.7,313.7"/>
	<path class="st0" d="M57.8,294.4c0.1,0,0.2-0.1,0.2-0.1c0.1-0.1,0-0.2,0-0.2c-0.1,0-0.1,0-0.2,0.1
		C57.7,294.3,57.7,294.4,57.8,294.4"/>
	<polyline class="st0" points="-8.4,296.7 -8.4,296.8 -8.3,296.8 -8.2,296.7 -8.4,296.7 	"/>
	<polyline class="st0" points="-9,296.3 -9.1,296.4 -9,296.5 -8.8,296.4 -9,296.3 	"/>
	<polyline class="st0" points="-7.1,294.9 -7.1,295 -7,295.2 -6.9,295 -7.1,294.9 	"/>
	<polyline class="st0" points="-7.7,294.9 -7.8,295 -7.7,295.1 -7.5,295 -7.7,294.9 	"/>
	<polyline class="st0" points="-9,290.4 -9.1,290.5 -9,290.6 -8.8,290.5 -9,290.4 	"/>
	<polyline class="st0" points="-7.6,290.4 -7.7,290.5 -7.6,290.6 -7.4,290.5 -7.6,290.4 	"/>
	<polyline class="st0" points="-7.5,290 -7.6,290.1 -7.5,290.2 -7.3,290.1 -7.5,290 	"/>
	<polyline class="st0" points="-7.9,290 -8,290.1 -7.9,290.2 -7.8,290.1 -7.9,290 	"/>
	<polyline class="st0" points="-7.7,291.7 -7.8,291.8 -7.7,292 -7.5,291.8 -7.7,291.7 	"/>
	<polyline class="st0" points="-6.6,286.5 -6.7,286.6 -6.6,286.7 -6.4,286.6 -6.6,286.5 	"/>
	<polyline class="st0" points="-4.5,284.4 -4.5,284.5 -4.4,284.6 -4.3,284.5 -4.5,284.4 	"/>
	<polyline class="st0" points="-5,284.3 -5.1,284.4 -4.9,284.5 -4.8,284.4 -5,284.3 	"/>
	<polyline class="st0" points="-6.5,284.9 -6.6,285 -6.5,285.1 -6.4,285 -6.5,284.9 	"/>
	<polyline class="st0" points="-6.4,284.6 -6.5,284.6 -6.3,284.8 -6.2,284.6 -6.4,284.6 	"/>
	<polyline class="st0" points="-9.1,289.2 -9.3,289.3 -9,289.5 -8.9,289.3 -9.1,289.2 	"/>
	<polyline class="st0" points="-9.4,289 -10.2,288.7 -10.2,289 -9.5,289.1 -9.4,289 	"/>
	<polyline class="st0" points="-7,286.3 -7.5,286 -7.4,286.2 -7.1,286.4 -7,286.3 	"/>
	<polyline class="st0" points="-9.8,289.4 -9.9,289.5 -9.7,289.6 -9.6,289.5 -9.8,289.4 	"/>
	<polyline class="st0" points="-5.4,285.8 -5.5,285.9 -5.4,286 -5.2,285.9 -5.4,285.8 	"/>
	<polyline class="st0" points="-6.9,286 -6.5,286.1 -6.4,285.7 -6.8,285.6 -6.9,286 	"/>
	<polyline class="st0" points="-6.3,284 -6.5,284.1 -6.2,284.3 -6.1,284.1 -6.3,284 	"/>
	<polyline class="st0" points="-7.3,284.9 -7.4,284.9 -7.2,285.1 -7.1,284.9 -7.3,284.9 	"/>
	<polyline class="st0" points="-3.7,282.4 -3.9,282.5 -3.7,282.7 -3.5,282.5 -3.7,282.4 	"/>
	<polyline class="st0" points="-5.6,284.1 -5.8,284.2 -5.6,284.4 -5.5,284.2 -5.6,284.1 	"/>
	<polyline class="st0" points="-5.5,284.2 -5.6,284.3 -5.4,284.5 -5.3,284.3 -5.5,284.2 	"/>
	<polyline class="st0" points="-4.7,283.7 -4.9,283.8 -4.7,283.9 -4.6,283.8 -4.7,283.7 	"/>
	<polyline class="st0" points="-5.3,283.7 -5.4,283.8 -5.3,283.9 -5.1,283.8 -5.3,283.7 	"/>
	<polyline class="st0" points="-7.1,286.7 -7.8,286.2 -7.7,286.5 -7.2,286.8 -7.1,286.7 	"/>
	<polyline class="st0" points="-9.1,287.9 -9.3,288 -9.2,288.1 -9,288 -9.1,287.9 	"/>
	<polyline class="st0" points="-8.8,294.5 -9,294.7 -8.8,294.7 -8.7,294.6 -8.8,294.5 	"/>
	<polyline class="st0" points="-6.8,293 -7,293.1 -6.8,293.2 -6.7,293.1 -6.8,293 	"/>
	<polyline class="st0" points="-8.2,289.8 -8.4,289.9 -8.3,290 -8.1,289.9 -8.2,289.8 	"/>
	<polyline class="st0" points="-6.6,292.7 -6.8,292.8 -6.6,293 -6.4,292.8 -6.6,292.7 	"/>
	<polyline class="st0" points="-9.3,290.9 -10.1,290.6 -10.6,290.6 -10.4,290.8 -9.3,291.1 -9,291 -9.3,290.9 	"/>
	<polyline class="st0" points="-8.7,292.2 -8.9,292.3 -8.7,292.5 -8.6,292.3 -8.7,292.2 	"/>
	<polyline class="st0" points="-9,292.6 -9.2,292.7 -9,292.8 -8.8,292.7 -9,292.6 	"/>
	<polyline class="st0" points="-7.9,295.6 -8,295.6 -7.8,295.8 -7.7,295.6 -7.9,295.6 	"/>
	<polyline class="st0" points="-9.4,293.7 -9.6,293.8 -9.5,294 -9.3,294 -9.4,293.7 	"/>
	<polyline class="st0" points="-9.3,294.3 -9.4,294.5 -9.3,294.6 -9.1,294.4 -9.3,294.3 	"/>
	<polyline class="st0" points="-10.4,293.2 -10.5,293.3 -10.3,293.5 -10.2,293.3 -10.4,293.2 	"/>
	<polyline class="st0" points="-7.8,294.4 -8.5,294.1 -8.5,294.3 -7.9,294.6 -7.8,294.4 	"/>
	<polyline class="st0" points="-6.5,293.3 -6.7,293.4 -6.4,293.6 -6.3,293.4 -6.5,293.3 	"/>
	<polyline class="st0" points="-10.6,294.7 -10.8,294.7 -10.6,294.9 -10.5,294.7 -10.6,294.7 	"/>
	<path class="st0" d="M-8.3,291.4c0.4,0.1,0.6,0.4,0.9,0L-8.3,291.4"/>
	<path class="st0" d="M-7.8,293.9c-0.1,0.3,0.1,0.1,0.2,0.3V294C-7.6,293.8-7.7,293.9-7.8,293.9"/>
	<path class="st0" d="M-7.4,297.4v0.3h0.2C-7.2,297.6-7.3,297.6-7.4,297.4"/>
	<polyline class="st0" points="-10.2,295.3 -10.4,295.4 -10.1,295.6 -10,295.4 -10.2,295.3 	"/>
	<polyline class="st0" points="-8.5,295.4 -8.7,295.5 -8.5,295.7 -8.3,295.5 -8.5,295.4 	"/>
	<polyline class="st0" points="-7.9,296.5 -8.1,296.6 -7.9,296.8 -7.7,296.6 -7.9,296.5 	"/>
	<polyline class="st0" points="-5.7,284.6 -5.8,284.8 -5.6,284.9 -5.5,284.8 -5.7,284.6 	"/>
	<polyline class="st0" points="-8.2,296 -8.4,296.1 -8.2,296.3 -8,296.1 -8.2,296 	"/>
	<polyline class="st0" points="-8.1,297.1 -8.3,297.2 -8.1,297.4 -7.9,297.2 -8.1,297.1 	"/>
	<polyline class="st0" points="-9.2,285.3 -9.3,285.5 -9.1,285.6 -9,285.5 -9.2,285.3 	"/>
	<polyline class="st0" points="-8.5,285.5 -8.7,285.6 -8.5,285.8 -8.3,285.6 -8.5,285.5 	"/>
	<polyline class="st0" points="-8,286.4 -8.1,286.5 -7.9,286.7 -7.8,286.5 -8,286.4 	"/>
	<polyline class="st0" points="-8.8,291 -8.9,291.1 -8.7,291.3 -8.6,291.1 -8.8,291 	"/>
	<polyline class="st0" points="-7,292.4 -7.2,292.5 -7,292.7 -6.8,292.5 -7,292.4 	"/>
	<polyline class="st0" points="-6.6,293.4 -6.8,293.4 -6.6,293.6 -6.5,293.4 -6.6,293.4 	"/>
	<polyline class="st0" points="-8.3,293.7 -8.4,293.8 -8.2,294 -8.1,293.8 -8.3,293.7 	"/>
	<polyline class="st0" points="-5.1,284.9 -5.3,285 -5.1,285.2 -4.9,285 -5.1,284.9 	"/>
	<polyline class="st0" points="-4.2,282.9 -4.4,282.9 -4.2,283.1 -4.1,282.9 -4.2,282.9 	"/>
	<polyline class="st0" points="-8,284.9 -8.2,284.9 -8,285.1 -7.8,284.9 -8,284.9 	"/>
	<polyline class="st0" points="-9.8,291.9 -9.9,292 -9.7,292.2 -9.6,292 -9.8,291.9 	"/>
	<polyline class="st0" points="-8.2,290.3 -8.4,290.4 -8.2,290.5 -8,290.4 -8.2,290.3 	"/>
	<polyline class="st0" points="-9.6,292.3 -9.8,292.5 -9.6,292.6 -9.4,292.5 -9.6,292.3 	"/>
	<polyline class="st0" points="-10.9,293 -11.6,292.6 -11.6,292.8 -11,293.1 -10.9,293 	"/>
	<polyline class="st0" points="-9.2,293.4 -10.1,293.1 -10,293.4 -9.3,293.6 -9.2,293.4 	"/>
	<path class="st0" d="M-8.9,295.9c0,0-0.6-0.3-0.8-0.3c-0.2,0,0,0.2,0,0.2l0.6,0.3L-8.9,295.9"/>
	<path class="st0" d="M-9.6,287.2l0,0.4l0.2-0.2c0,0,0.1,0.1,0.3,0.1c0.2,0,0.5,0,0.5,0l-0.1-0.2c0,0-0.2,0.1-0.3,0
		c-0.1-0.1-0.4-0.2-0.4-0.2H-9.6"/>
	<polyline class="st0" points="-9.1,286.2 -9.1,286.3 -8.9,286.5 -8.9,286.2 -9.1,286.2 	"/>
	<path class="st0" d="M-6,285.4l-0.2,0.1c0,0-0.1,0.2,0.1,0.3c0.1,0,0.2-0.1,0.2-0.1L-6,285.4"/>
	<polyline class="st0" points="-7.8,292.5 -7.4,292.5 -7.4,292.4 -7.8,292.3 -7.8,292.5 	"/>
	<polyline class="st0" points="-8.9,293.6 -8.7,293.7 -8.6,293.6 -9,293.5 -8.9,293.6 	"/>
	<polyline class="st0" points="-10.1,293.6 -10.1,293.7 -10,293.9 -9.8,293.7 -10.1,293.6 	"/>
	<polyline class="st0" points="-8,292.2 -8.5,292.1 -8.3,292.3 -8,292.2 	"/>
	<polyline class="st0" points="-7.6,286.8 -7.7,287.1 -7.3,287.1 -7.6,286.8 	"/>
	<path class="st0" d="M73.5,141.4c0,0.6,0.2,1.4-0.5,1.7c-0.5,0-1.1,0.1-1.3-0.5c0.1-0.6-0.2-1.3,0.5-1.6
		C72.8,141,73.3,140.9,73.5,141.4"/>
	<path class="st0" d="M80.5,145.3c-0.1,0.7-0.4,1.6-1.2,1.7c-0.4,0-0.8,0-1.1-0.4c-0.4-0.5-0.5-1.1-0.6-1.6c0.4-0.8,0.5-2,1.5-2.2
		C80.4,143,80.3,144.3,80.5,145.3"/>
	<path class="st0" d="M93.7,154.5c0.9,1.2,0.6,3,0.9,4.4c-0.1,1.1-1,1.7-1.9,2.1c-1.3,0.2-2.7,0.4-3.3,1.9c-0.4,1.6-2.5,2.3-2.5,4.1
		c-0.9,2.5-2.7,4.8-4.7,6.9c-0.9,1.4-1.6,3-2.7,4.4c-1,2.2-2,4.3-1.5,6.9c0.7,1.9,0.9,4,1.8,5.9c0.2,1.6,2.1,2.4,2.2,4
		c0.5,2.1-0.1,4.1-1.1,5.8c-0.5,1.1-0.4,2.2-0.4,3.3c2.8,3.5,1.2,8.3,0.7,12.4c0.7,1.4,2,3.1,1,4.8c-0.5,2-2,3.5-2.3,5.6
		c-1.4,2,0.1,5.4-2.3,6.7c-1.4,1.4-1.8,3.1-2.8,4.6c-2.4,4.1-5.3,8-8.9,11.5c-0.7,0.9-1.5,2.1-2.5,2.9c-3.6,4-8.2,7-13,8.8
		c-4.1,2.3-8.7,4-13.6,3.8h-2.8c-0.5-0.7-1.7-1.3-1.1-2.3c-1-0.8-2.5-0.5-3.7-0.6c-0.9,0.8-1.8-0.1-2.7,0.8c0.7,0.4-0.2,0.8,0.1,1.2
		c-0.9,0.1-1.9-0.6-2.9-0.1c-1.5-0.2-3.4-0.2-4.8-0.7c-2.8-1.4-5.1-3.4-7.6-5.4c-4.6-3.5-4.4-9.2-6.9-13.7c-0.9-1.3-1.2-3-1.6-4.3
		c0-0.7-0.6-1.3-0.8-2c-2.1-3.2-3-7.2-3.1-11c0.3,0,0.2-0.4,0.4-0.5c0-1-0.3-2.1-0.1-3.1c0.1-0.8-0.2-1.8,0.1-2.5
		c-0.7-0.7,0-2-0.5-2.7c-0.1-0.5-0.3-1.3,0.1-1.8c0-0.5-0.2-1-0.2-1.4c0.2,0.4,0.7,0.5,1,0.3l0.5-0.4c0.6-1.1,0.1-2.8,1.5-3.4
		c0.5-0.2,0.1-1,0.6-1.4c-0.1-0.4,0.4-0.6,0.5-1c-0.1-1.5,0.2-3.5-0.3-4.9c-0.4-3.2,0.6-6.3,1.5-9.2c1.4-3.5,2.9-7,4.2-10.7
		c1.8-2.9,2.6-6.4,4.8-9c0.8-1.8,2-3.5,3.2-5c0.5,0,0.5-0.5,0.8-0.7h0.2c0.1,0.6-1.1,1.3-0.1,1.7c0.7-1.4,1.6-3.1,3.2-3.6
		c0.4-0.4,1.2-0.5,1.4-1.2c0.1-1.3,1.8-2.4,0.7-3.9c-0.5-0.7-1.5-1.2-1.2-2.1c0.3-0.5,0.8-0.7,1.4-0.8c0.5,0.1,0.8,0.5,1,0.8
		c0.3,0.8-0.7,1.6,0,2.4c0.3,1-0.2,2.2,0,3.1c-0.2,0.9-0.8,2.1-0.2,3.1c0-0.1,0.2,0,0.3-0.1c0,1.8-0.7,3.5,0.2,5.1
		c0.9,0.3,1.1,1.4,2.1,1.6c0.2,0.4,0.9,0.6,1.4,0.4c0.5-0.2,1.1-0.5,1.7-0.7c0.5,1.4-0.1,3.2-0.9,4.3c-0.1,0.5-0.5,1-0.3,1.6
		c0.6,0.4,0.3,1.4,0.5,2.3c0.5,1,1.1,2.1,2,2.9c1-0.8,1.8-1.9,2-3.1c0.1-0.3,0.6-0.4,0.8-0.2c0.8,0.9-0.6,1.5-0.9,2.3
		c-0.3,1-1.2,1.9-0.8,3c0.7,0.8,0.8,1.8,1.5,2.6c0.6-0.3,0.6,1,1,0.2c0.4-0.1,0.9-0.1,1.2,0.3c0.1,0.3-0.1,0.6,0.2,0.7
		c0.7-0.5,1.9-0.9,2.2-1.9c0.6,0,0.5-0.8,0.9-1c1.3-1.4,1.9-3,3.2-4.3c0.1-0.6,0.8-1,0.6-1.7c0.6-0.4,0.2-1.2,0.4-1.7
		c0.5-1.1,0.5-2.2,0.3-3.5c-0.1-1.2,0.3-2.5-0.6-3.5c-0.6-0.4-1.4-0.9-1.7-1.7c-0.4-1,0.4-1.7,0.3-2.7c2.8-1.4,1.3-4.6,3.5-6.1
		c0.6-0.1,1.3-0.1,1.8,0.4c0.9,1.4-0.2,2.7-0.1,4.2c0.2,1.3,1.7,2.6,0.7,4.1c-0.7,1.7-0.7,3.8-0.8,5.7c0.1,0.3,0.1,0.5,0.3,0.7
		c0-0.3,0.4-0.3,0.6-0.3c1-1.1,1.4-2.4,2.5-3.4c0.7,0.2,1.4,0,1.8-0.6c1.2-0.9-1.1-2.7,0.9-3.3c0.5,0,0.9,0.2,1.2,0.7
		c0.1,0.8,0,1.4-0.5,1.9c0.2,2.7-1.9,6.9,1.5,8.4c2.8,1.6,0.8,4.8,1.1,7.6c0.9,0.9,2.4,0.9,3.3,1.9c0.8-0.4,1.1-1.5,1.8-2.1
		c1.8-1.3,3.2-3.5,5.5-4.1c1.9-1.4,4.4-2.1,5.7-4.2c1.3-1.8,2.7-3.6,4.2-5.2c0.6-2.2,3.1-2.4,4.4-4c1-2.3,2.1-4.7,3.9-6.7
		c1.3-1.4,1-3.5,2.2-4.9c0.6-2.3-0.4-6.1,2.8-6.6C90.9,154,92.7,153.3,93.7,154.5"/>
	<path class="st0" d="M78,157.6c-0.2,1,0.2,2.3-0.5,3.1c-0.3,0.2-0.6,0.4-1,0.3c-0.3-0.8-0.2-1.8-0.1-2.6
		C76.8,158,77.3,156.4,78,157.6"/>
	<path class="st0" d="M55,158.7c0.7,0.5,0.2,1.5,0.1,2.2c-0.3,0.5-0.8,1.1-1.5,1.1c-1.3-0.8,0.3-2.2-0.7-3.1
		c-0.1-0.4,0.4-0.7,0.7-0.5C54,158.9,54.7,158.6,55,158.7"/>
	<path class="st0" d="M66.9,161.8c-0.6,1.4,0.4,4.2-1.9,4.1c-1.4-1-0.3-2.8,0-4C65.5,161.4,66.6,160.8,66.9,161.8"/>
	<path class="st0" d="M28.5,164.6c0,0.8,0.2,1.8-0.6,2.2c-0.7-0.1-1.6,0.2-1.7-0.6c-0.3-0.8,0.6-1.1,0.6-1.8
		C27.2,164.1,28.2,163.9,28.5,164.6"/>
	<path class="st0" d="M53.8,166.9c0.2,0.9,0,1.7-0.8,2.1c-0.6,0.1-1.4,0.3-1.7-0.4c0-0.7,0-1.4,0.4-2.1
		C52.2,166,53.5,166,53.8,166.9"/>
	<path class="st0" d="M35.3,174.8c-0.1,0.7,0.4,1.9-0.7,2c-0.8,0.1-1.7,0-2-0.8c0-0.6-0.2-1.5,0.5-1.9
		C33.9,174.2,35,173.8,35.3,174.8"/>
	<path class="st0" d="M36.6,180.5c0.2,0.4-0.1,0.8-0.2,1.2c-0.7,0.8-1.4,0.5-2.3,0.5c-0.5-0.2-0.5-0.9-0.3-1.4
		c0.1-0.5,0.4-0.9,0.8-1.1C35.3,179.4,36.4,179.6,36.6,180.5"/>
	<path class="st0" d="M27.5,264.6L27.5,264.6l-0.2-0.1C27.4,264.6,27.4,264.6,27.5,264.6"/>
</g>
</svg>
