<?xml version="1.0" encoding="utf-8"?>
<!-- Generator: Adobe Illustrator 19.1.0, SVG Export Plug-In . SVG Version: 6.00 Build 0)  -->
<svg version="1.0" id="Layer_1" xmlns="http://www.w3.org/2000/svg" xmlns:xlink="http://www.w3.org/1999/xlink" x="0px" y="0px"
	 viewBox="0 0 24 24" style="enable-background:new 0 0 24 24;" xml:space="preserve">
<style type="text/css">
	.st0{fill:#3B5999;}
</style>
<g>
	<g>
		<path class="st0" d="M19.5,24h-3v-9.5h3.2l0.5-3.5h-3.6V8.8c0-1,0.4-1.7,1.9-1.7l2.1,0V3.8c-0.5,0-1.5-0.1-2.8-0.1
			c-2.8,0-4.7,1.7-4.7,4.8V11H9.5v3.5H13V24H4.5C2,24,0,22,0,19.5v-15C0,2,2,0,4.5,0h15C22,0,24,2,24,4.5v15C24,22,22,24,19.5,24z"
			/>
	</g>
</g>
</svg>
